<svg width="45" height="35" viewBox="0 0 45 35" fill="none" xmlns="http://www.w3.org/2000/svg">
<g clip-path="url(#clip0_187_218)">
<line x1="23" y1="17" x2="23" y2="14" stroke="black" stroke-width="2" stroke-linecap="round"/>
<mask id="path-2-inside-1_187_218" fill="white">
<path d="M22.5091 14.1288C22.5039 14.6512 22.9247 15.0851 23.4436 15.0246C24.594 14.8905 25.7023 14.4911 26.6789 13.8527C27.9205 13.041 28.8935 11.8794 29.4749 10.5147C30.0563 9.15007 30.22 7.64364 29.9453 6.18595C29.6705 4.72825 28.9697 3.38476 27.9314 2.32537C26.8931 1.26598 25.564 0.538267 24.1121 0.234258C22.6603 -0.0697504 21.1509 0.0635983 19.7748 0.617442C18.3987 1.17129 17.2177 2.12075 16.3813 3.34576C15.7233 4.30934 15.3017 5.40936 15.1445 6.55686C15.0736 7.07443 15.4989 7.50388 16.0213 7.50913V7.50913C16.5436 7.51439 16.9633 7.09215 17.0561 6.57807C17.1958 5.8053 17.4968 5.06685 17.9436 4.41254C18.569 3.49652 19.4521 2.78654 20.4811 2.3724C21.5101 1.95826 22.6388 1.85854 23.7244 2.08587C24.8101 2.3132 25.804 2.85735 26.5804 3.64953C27.3568 4.4417 27.8808 5.44632 28.0863 6.53633C28.2917 7.62634 28.1693 8.7528 27.7345 9.77325C27.2998 10.7937 26.5722 11.6623 25.6438 12.2692C24.9806 12.7028 24.2362 12.9889 23.4608 13.1129C22.945 13.1954 22.5144 13.6065 22.5091 14.1288V14.1288Z"/>
</mask>
<path d="M22.5091 14.1288C22.5039 14.6512 22.9247 15.0851 23.4436 15.0246C24.594 14.8905 25.7023 14.4911 26.6789 13.8527C27.9205 13.041 28.8935 11.8794 29.4749 10.5147C30.0563 9.15007 30.22 7.64364 29.9453 6.18595C29.6705 4.72825 28.9697 3.38476 27.9314 2.32537C26.8931 1.26598 25.564 0.538267 24.1121 0.234258C22.6603 -0.0697504 21.1509 0.0635983 19.7748 0.617442C18.3987 1.17129 17.2177 2.12075 16.3813 3.34576C15.7233 4.30934 15.3017 5.40936 15.1445 6.55686C15.0736 7.07443 15.4989 7.50388 16.0213 7.50913V7.50913C16.5436 7.51439 16.9633 7.09215 17.0561 6.57807C17.1958 5.8053 17.4968 5.06685 17.9436 4.41254C18.569 3.49652 19.4521 2.78654 20.4811 2.3724C21.5101 1.95826 22.6388 1.85854 23.7244 2.08587C24.8101 2.3132 25.804 2.85735 26.5804 3.64953C27.3568 4.4417 27.8808 5.44632 28.0863 6.53633C28.2917 7.62634 28.1693 8.7528 27.7345 9.77325C27.2998 10.7937 26.5722 11.6623 25.6438 12.2692C24.9806 12.7028 24.2362 12.9889 23.4608 13.1129C22.945 13.1954 22.5144 13.6065 22.5091 14.1288V14.1288Z" stroke="black" stroke-width="4" stroke-miterlimit="1.55572" mask="url(#path-2-inside-1_187_218)"/>
<path d="M23.5105 17.7504L43.1928 29.2741C44.9531 30.3047 44.2221 33 42.1823 33H2.81769C0.777914 33 0.046917 30.3047 1.80718 29.2741L21.4895 17.7504C22.1136 17.385 22.8864 17.385 23.5105 17.7504Z" stroke="black" stroke-width="2"/>
</g>
<defs>
<clipPath id="clip0_187_218">
<rect width="45" height="35" fill="white"/>
</clipPath>
</defs>
</svg>
