<svg width="49" height="54" viewBox="0 0 49 54" fill="none" xmlns="http://www.w3.org/2000/svg">
<mask id="path-1-inside-1_187_12" fill="white">
<path d="M49 35C49 31.5522 47.6304 28.2456 45.1924 25.8076C42.7544 23.3696 39.4478 22 36 22C32.5522 22 29.2456 23.3696 26.8076 25.8076C24.3696 28.2456 23 31.5522 23 35L36 35H49Z"/>
</mask>
<path d="M49 35C49 31.5522 47.6304 28.2456 45.1924 25.8076C42.7544 23.3696 39.4478 22 36 22C32.5522 22 29.2456 23.3696 26.8076 25.8076C24.3696 28.2456 23 31.5522 23 35L36 35H49Z" stroke="#FF801E" stroke-width="4" mask="url(#path-1-inside-1_187_12)"/>
<mask id="path-2-inside-2_187_12" fill="white">
<path d="M37 35.5C37 30.5935 35.0509 25.8879 31.5815 22.4185C28.1121 18.9491 23.4065 17 18.5 17C13.5935 17 8.88795 18.9491 5.41853 22.4185C1.9491 25.8879 7.40862e-07 30.5935 0 35.5L18.5 35.5H37Z"/>
</mask>
<path d="M37 35.5C37 30.5935 35.0509 25.8879 31.5815 22.4185C28.1121 18.9491 23.4065 17 18.5 17C13.5935 17 8.88795 18.9491 5.41853 22.4185C1.9491 25.8879 7.40862e-07 30.5935 0 35.5L18.5 35.5H37Z" fill="white" stroke="white" stroke-width="2" mask="url(#path-2-inside-2_187_12)"/>
<circle cx="19.5" cy="8.5" r="7.5" stroke="#FF801E" stroke-width="2"/>
<mask id="path-4-inside-3_187_12" fill="white">
<path d="M36 35C36 30.4913 34.2089 26.1673 31.0208 22.9792C27.8327 19.7911 23.5087 18 19 18C14.4913 18 10.1673 19.7911 6.97919 22.9792C3.79107 26.1673 2 30.4913 2 35L19 35H36Z"/>
</mask>
<path d="M36 35C36 30.4913 34.2089 26.1673 31.0208 22.9792C27.8327 19.7911 23.5087 18 19 18C14.4913 18 10.1673 19.7911 6.97919 22.9792C3.79107 26.1673 2 30.4913 2 35L19 35H36Z" stroke="#FF801E" stroke-width="4" mask="url(#path-4-inside-3_187_12)"/>
<circle cx="37" cy="14" r="6" stroke="#FF801E" stroke-width="2"/>
</svg>
