<svg width="329" height="117" viewBox="0 0 329 117" fill="none" xmlns="http://www.w3.org/2000/svg">
<rect x="27.9873" y="15.2281" width="6.99683" height="7.61405" fill="#FF801E"/>
<rect x="20.9905" y="15.2281" width="6.99683" height="7.61405" fill="#FF801E"/>
<rect x="20.9905" y="60.9124" width="6.99683" height="7.61405" fill="#FF801E"/>
<rect x="13.9937" y="30.4562" width="6.99683" height="7.61405" fill="#FF801E"/>
<rect x="13.9937" y="22.8421" width="6.99683" height="7.61405" fill="#FF801E"/>
<rect x="6.99683" y="30.4562" width="6.99683" height="7.61405" fill="#FF801E"/>
<rect x="6.99683" y="45.6843" width="6.99683" height="7.61405" fill="#FF801E"/>
<rect x="20.9905" y="7.61404" width="6.99683" height="7.61405" fill="#FF801E"/>
<rect x="13.9937" y="7.61404" width="6.99683" height="7.61405" fill="#81AB68"/>
<rect x="69.9683" y="68.5264" width="6.99683" height="7.61405" fill="#5C8791"/>
<rect x="83.962" y="45.6843" width="6.99683" height="7.61405" fill="#5C8791"/>
<rect x="90.9588" y="45.6843" width="6.99683" height="7.61405" fill="#5C8791"/>
<rect x="90.9588" y="53.2983" width="6.99683" height="7.61405" fill="#5C8791"/>
<rect x="76.9651" y="45.6843" width="6.99683" height="7.61405" fill="#5C8791"/>
<rect x="83.962" y="76.1405" width="6.99683" height="7.61405" fill="#5C8791"/>
<rect x="90.9588" y="76.1405" width="6.99683" height="7.61405" fill="#5C8791"/>
<rect x="76.9651" y="53.2983" width="6.99683" height="7.61405" fill="#5C8791"/>
<rect x="90.9588" y="68.5264" width="6.99683" height="7.61405" fill="#5C8791"/>
<rect x="76.9651" y="76.1405" width="6.99683" height="7.61405" fill="#5C8791"/>
<rect x="90.9588" y="30.4562" width="6.99683" height="7.61405" fill="#5C8791"/>
<rect x="76.9651" y="30.4562" width="6.99683" height="7.61405" fill="#5C8791"/>
<rect x="111.949" y="30.4562" width="6.99683" height="7.61405" fill="#FFDB71"/>
<rect x="132.94" y="45.6843" width="6.99683" height="7.61405" fill="#FFDB71"/>
<rect x="104.952" y="68.5264" width="6.99683" height="7.61405" fill="#5C8791"/>
<rect x="97.9556" y="76.1405" width="6.99683" height="7.61405" fill="#5C8791"/>
<rect x="69.9683" y="76.1405" width="6.99683" height="7.61405" fill="#5C8791"/>
<rect x="97.9556" y="68.5264" width="6.99683" height="7.61405" fill="#5C8791"/>
<rect x="97.9556" y="30.4562" width="6.99683" height="7.61405" fill="#5C8791"/>
<rect x="69.9683" y="30.4562" width="6.99683" height="7.61405" fill="#5C8791"/>
<rect x="62.9715" y="30.4562" width="6.99683" height="7.61405" fill="#5C8791"/>
<rect x="83.962" y="38.0702" width="6.99683" height="7.61405" fill="#5C8791"/>
<rect x="90.9588" y="38.0702" width="6.99683" height="7.61405" fill="#5C8791"/>
<rect x="76.9651" y="38.0702" width="6.99683" height="7.61405" fill="#5C8791"/>
<rect x="83.962" y="53.2983" width="6.99683" height="7.61405" fill="#5C8791"/>
<rect x="83.962" y="60.9124" width="6.99683" height="7.61405" fill="#5C8791"/>
<rect x="104.952" y="45.6843" width="6.99683" height="7.61405" fill="#5C8791"/>
<rect x="104.952" y="30.4562" width="6.99683" height="7.61405" fill="#5C8791"/>
<rect x="104.952" y="30.4562" width="6.99683" height="7.61405" fill="#5C8791"/>
<rect x="104.952" y="38.0702" width="6.99683" height="7.61405" fill="#5C8791"/>
<rect x="104.952" y="30.4562" width="6.99683" height="7.61405" fill="#FFDB71"/>
<rect x="125.943" y="30.4562" width="6.99683" height="7.61405" fill="#FFDB71"/>
<rect x="118.946" y="30.4562" width="6.99683" height="7.61405" fill="#5C8791"/>
<rect x="118.946" y="30.4562" width="6.99683" height="7.61405" fill="#5C8791"/>
<rect x="118.946" y="30.4562" width="6.99683" height="7.61405" fill="#FFDB71"/>
<rect x="111.949" y="76.1405" width="6.99683" height="7.61405" fill="#FFDB71"/>
<rect x="125.943" y="76.1405" width="6.99683" height="7.61405" fill="#FFDB71"/>
<rect x="118.946" y="76.1405" width="6.99683" height="7.61405" fill="#5C8791"/>
<rect x="118.946" y="76.1405" width="6.99683" height="7.61405" fill="#5C8791"/>
<rect x="118.946" y="76.1405" width="6.99683" height="7.61405" fill="#FFDB71"/>
<rect x="153.93" y="30.4562" width="6.99683" height="7.61405" fill="#656C34"/>
<rect x="146.933" y="68.5264" width="6.99683" height="7.61405" fill="#656C34"/>
<rect x="153.93" y="38.0702" width="6.99683" height="7.61405" fill="#656C34"/>
<rect x="146.933" y="38.0702" width="6.99683" height="7.61405" fill="#656C34"/>
<rect x="181.918" y="53.2983" width="6.99683" height="7.61405" fill="#656C34"/>
<rect x="174.921" y="68.5264" width="6.99683" height="7.61405" fill="#656C34"/>
<rect x="174.921" y="53.2983" width="6.99683" height="7.61405" fill="#656C34"/>
<rect x="153.93" y="53.2983" width="6.99683" height="7.61405" fill="#656C34"/>
<rect x="146.933" y="60.9124" width="6.99683" height="7.61405" fill="#656C34"/>
<rect x="167.924" y="60.9124" width="6.99683" height="7.61405" fill="#656C34"/>
<rect x="160.927" y="60.9124" width="6.99683" height="7.61405" fill="#656C34"/>
<rect x="153.93" y="60.9124" width="6.99683" height="7.61405" fill="#656C34"/>
<rect x="153.93" y="76.1405" width="6.99683" height="7.61405" fill="#656C34"/>
<rect x="146.933" y="76.1405" width="6.99683" height="7.61405" fill="#656C34"/>
<rect x="181.918" y="68.5264" width="6.99683" height="7.61405" fill="#656C34"/>
<rect x="181.918" y="60.9124" width="6.99683" height="7.61405" fill="#656C34"/>
<rect x="181.918" y="38.0702" width="6.99683" height="7.61405" fill="#656C34"/>
<rect x="188.914" y="38.0702" width="6.99683" height="7.61405" fill="#78C9F5"/>
<rect x="195.911" y="30.4562" width="6.99683" height="7.61405" fill="#78C9F5"/>
<rect x="202.908" y="30.4562" width="6.99683" height="7.61405" fill="#78C9F5"/>
<rect x="188.914" y="30.4562" width="6.99683" height="7.61405" fill="#78C9F5"/>
<rect x="209.905" y="53.2983" width="6.99683" height="7.61405" fill="#78C9F5"/>
<rect x="202.908" y="53.2983" width="6.99683" height="7.61405" fill="#78C9F5"/>
<rect x="202.908" y="60.9124" width="6.99683" height="7.61405" fill="#78C9F5"/>
<rect x="209.905" y="60.9124" width="6.99683" height="7.61405" fill="#78C9F5"/>
<rect x="216.902" y="60.9124" width="6.99683" height="7.61405" fill="#78C9F5"/>
<rect x="188.914" y="53.2983" width="6.99683" height="7.61405" fill="#78C9F5"/>
<rect x="188.914" y="60.9124" width="6.99683" height="7.61405" fill="#78C9F5"/>
<rect x="195.911" y="76.1405" width="6.99683" height="7.61405" fill="#78C9F5"/>
<rect x="202.908" y="76.1405" width="6.99683" height="7.61405" fill="#78C9F5"/>
<rect x="188.914" y="76.1405" width="6.99683" height="7.61405" fill="#78C9F5"/>
<rect x="209.905" y="76.1405" width="6.99683" height="7.61405" fill="#78C9F5"/>
<rect x="258.883" y="22.8421" width="6.99683" height="7.61405" fill="#97B86F"/>
<rect x="272.876" y="22.8421" width="6.99683" height="7.61405" fill="#97B86F"/>
<rect x="265.88" y="22.8421" width="6.99683" height="7.61405" fill="#97B86F"/>
<rect x="223.899" y="31.2176" width="6.99683" height="7.61405" fill="#97B86F"/>
<rect x="237.892" y="31.2176" width="6.99683" height="7.61405" fill="#97B86F"/>
<rect x="230.895" y="31.2176" width="6.99683" height="7.61405" fill="#97B86F"/>
<rect x="244.889" y="31.2176" width="6.99683" height="7.61405" fill="#97B86F"/>
<rect x="258.883" y="31.2176" width="6.99683" height="7.61405" fill="#97B86F"/>
<rect x="251.886" y="31.2176" width="6.99683" height="7.61405" fill="#97B86F"/>
<rect x="265.88" y="31.2176" width="6.99683" height="7.61405" fill="#97B86F"/>
<rect x="272.876" y="31.2176" width="6.99683" height="7.61405" fill="#97B86F"/>
<rect x="258.883" y="38.0702" width="6.99683" height="7.61405" fill="#97B86F"/>
<rect x="272.876" y="38.0702" width="6.99683" height="7.61405" fill="#97B86F"/>
<rect x="265.88" y="38.0702" width="6.99683" height="7.61405" fill="#97B86F"/>
<rect x="279.873" y="38.0702" width="6.99683" height="7.61405" fill="#97B86F"/>
<rect x="293.867" y="38.0702" width="6.99683" height="7.61405" fill="#97B86F"/>
<rect x="258.883" y="45.6843" width="6.99683" height="7.61405" fill="#97B86F"/>
<rect x="272.876" y="45.6843" width="6.99683" height="7.61405" fill="#A86464"/>
<rect x="265.88" y="45.6843" width="6.99683" height="7.61405" fill="#97B86F"/>
<rect x="293.867" y="45.6843" width="6.99683" height="7.61405" fill="#97B86F"/>
<rect x="286.87" y="45.6843" width="6.99683" height="7.61405" fill="#97B86F"/>
<rect x="258.883" y="53.2983" width="6.99683" height="7.61405" fill="#97B86F"/>
<rect x="272.876" y="53.2983" width="6.99683" height="7.61405" fill="#97B86F"/>
<rect x="265.88" y="53.2983" width="6.99683" height="7.61405" fill="#44ADC8"/>
<rect x="293.867" y="53.2983" width="6.99683" height="7.61405" fill="#97B86F"/>
<rect x="258.883" y="60.9124" width="6.99683" height="7.61405" fill="#97B86F"/>
<rect x="272.876" y="60.9124" width="6.99683" height="7.61405" fill="#97B86F"/>
<rect x="265.88" y="60.9124" width="6.99683" height="7.61405" fill="#44ADC8"/>
<rect x="293.867" y="60.9124" width="6.99683" height="7.61405" fill="#97B86F"/>
<rect x="272.876" y="67.765" width="6.99683" height="7.61405" fill="#97B86F"/>
<rect x="265.88" y="68.5264" width="6.99683" height="7.61405" fill="#44ADC8"/>
<rect x="244.889" y="53.2983" width="6.99683" height="7.61405" fill="#97B86F"/>
<rect x="251.886" y="53.2983" width="6.99683" height="7.61405" fill="#97B86F"/>
<rect x="244.889" y="60.9124" width="6.99683" height="7.61405" fill="#97B86F"/>
<rect x="251.886" y="60.9124" width="6.99683" height="7.61405" fill="#97B86F"/>
<rect x="258.883" y="68.5264" width="6.99683" height="7.61405" fill="#97B86F"/>
<rect x="251.886" y="76.1405" width="6.99683" height="7.61405" fill="#97B86F"/>
<rect x="251.886" y="68.5264" width="6.99683" height="7.61405" fill="#97B86F"/>
<rect x="244.889" y="76.1405" width="6.99683" height="7.61405" fill="#97B86F"/>
<rect x="244.889" y="68.5264" width="6.99683" height="7.61405" fill="#97B86F"/>
<rect x="223.899" y="68.5264" width="6.99683" height="7.61405" fill="#97B86F"/>
<rect x="237.892" y="68.5264" width="6.99683" height="7.61405" fill="#97B86F"/>
<rect x="293.867" y="68.5264" width="6.99683" height="7.61405" fill="#97B86F"/>
<rect x="300.864" y="68.5264" width="6.99683" height="7.61405" fill="#97B86F"/>
<rect x="314.857" y="68.5264" width="6.99683" height="7.61405" fill="#97B86F"/>
<rect x="223.899" y="8.37546" width="6.99683" height="7.61405" fill="#97B86F"/>
<rect x="237.892" y="8.37546" width="6.99683" height="7.61405" fill="#97B86F"/>
<rect x="230.895" y="8.37546" width="6.99683" height="7.61405" fill="#97B86F"/>
<rect x="244.889" y="8.37546" width="6.99683" height="7.61405" fill="#97B86F"/>
<rect x="258.883" y="8.37546" width="6.99683" height="7.61405" fill="#97B86F"/>
<rect x="251.886" y="8.37546" width="6.99683" height="7.61405" fill="#97B86F"/>
<rect x="265.88" y="8.37546" width="6.99683" height="7.61405" fill="#97B86F"/>
<rect x="223.899" y="15.9895" width="6.99683" height="7.61405" fill="#97B86F"/>
<rect x="237.892" y="15.9895" width="6.99683" height="7.61405" fill="#97B86F"/>
<rect x="230.895" y="15.9895" width="6.99683" height="7.61405" fill="#97B86F"/>
<rect x="244.889" y="15.9895" width="6.99683" height="7.61405" fill="#97B86F"/>
<rect x="258.883" y="15.9895" width="6.99683" height="7.61405" fill="#97B86F"/>
<rect x="251.886" y="15.9895" width="6.99683" height="7.61405" fill="#97B86F"/>
<rect x="265.88" y="15.9895" width="6.99683" height="7.61405" fill="#97B86F"/>
<rect x="223.899" y="23.6035" width="6.99683" height="7.61405" fill="#97B86F"/>
<rect x="223.899" y="60.9124" width="6.99683" height="7.61405" fill="#97B86F"/>
<rect x="216.902" y="68.5264" width="6.99683" height="7.61405" fill="#97B86F"/>
<rect x="216.902" y="60.9124" width="6.99683" height="7.61405" fill="#97B86F"/>
<rect x="223.899" y="38.0702" width="6.99683" height="7.61405" fill="#97B86F"/>
<rect x="223.899" y="45.6843" width="6.99683" height="7.61405" fill="#97B86F"/>
<rect x="223.899" y="53.2983" width="6.99683" height="7.61405" fill="#97B86F"/>
<rect x="216.902" y="30.4562" width="6.99683" height="7.61405" fill="#97B86F"/>
<rect x="216.902" y="22.8421" width="6.99683" height="7.61405" fill="#97B86F"/>
<rect x="216.902" y="38.0702" width="6.99683" height="7.61405" fill="#97B86F"/>
<rect x="216.902" y="45.6843" width="6.99683" height="7.61405" fill="#97B86F"/>
<rect x="216.902" y="53.2983" width="6.99683" height="7.61405" fill="#97B86F"/>
<rect x="237.892" y="23.6035" width="6.99683" height="7.61405" fill="#97B86F"/>
<rect x="230.895" y="23.6035" width="6.99683" height="7.61405" fill="#97B86F"/>
<rect x="244.889" y="23.6035" width="6.99683" height="7.61405" fill="#97B86F"/>
<rect x="258.883" y="23.6035" width="6.99683" height="7.61405" fill="#97B86F"/>
<rect x="251.886" y="23.6035" width="6.99683" height="7.61405" fill="#97B86F"/>
<rect x="265.88" y="23.6035" width="6.99683" height="7.61405" fill="#97B86F"/>
<rect x="272.876" y="23.6035" width="6.99683" height="7.61405" fill="#97B86F"/>
<rect x="258.883" y="15.2281" width="6.99683" height="7.61405" fill="#97B86F"/>
<rect x="265.88" y="15.2281" width="6.99683" height="7.61405" fill="#97B86F"/>
<rect x="258.883" y="7.61404" width="6.99683" height="7.61405" fill="#97B86F"/>
<rect x="265.88" y="7.61404" width="6.99683" height="7.61405" fill="#97B86F"/>
<rect x="237.892" y="0.761414" width="6.99683" height="7.61405" fill="#97B86F"/>
<rect x="230.895" y="0.761414" width="6.99683" height="7.61405" fill="#97B86F"/>
<rect x="230.895" width="6.99683" height="7.61405" fill="#97B86F"/>
<rect x="237.892" width="6.99683" height="7.61405" fill="#97B86F"/>
<rect x="251.886" width="6.99683" height="7.61405" fill="#97B86F"/>
<rect x="244.889" width="6.99683" height="7.61405" fill="#97B86F"/>
<rect x="258.883" width="6.99683" height="7.61405" fill="#97B86F"/>
<rect x="272.876" y="76.1405" width="6.99683" height="7.61405" fill="#97B86F"/>
<rect x="272.876" y="75.3791" width="6.99683" height="7.61405" fill="#97B86F"/>
<rect x="223.899" y="76.1405" width="6.99683" height="7.61405" fill="#97B86F"/>
<rect x="237.892" y="76.1405" width="6.99683" height="7.61405" fill="#97B86F"/>
<rect x="230.895" y="76.1405" width="6.99683" height="7.61405" fill="#97B86F"/>
<rect x="230.895" y="75.3791" width="6.99683" height="7.61405" fill="#97B86F"/>
<rect x="307.861" y="45.6843" width="6.99683" height="7.61405" fill="#989C93"/>
<rect x="300.864" y="38.0702" width="6.99683" height="7.61405" fill="#989C93"/>
<rect x="307.861" y="38.0702" width="6.99683" height="7.61405" fill="#989C93"/>
<rect x="307.861" y="37.3088" width="6.99683" height="7.61405" fill="#989C93"/>
<rect x="321.854" y="68.5264" width="6.99683" height="7.61405" fill="#989C93"/>
<rect x="314.857" y="60.9124" width="6.99683" height="7.61405" fill="#989C93"/>
<rect x="300.864" y="76.1405" width="6.99683" height="7.61405" fill="#989C93"/>
<rect x="293.867" y="76.1405" width="6.99683" height="7.61405" fill="#989C93"/>
<rect x="265.88" y="38.0702" width="6.99683" height="7.61405" fill="#44ADC8"/>
<rect x="265.88" y="45.6843" width="6.99683" height="7.61405" fill="#44ADC8"/>
<rect x="293.867" y="31.2176" width="6.99683" height="7.61405" fill="#989C93"/>
<rect x="300.864" y="30.4562" width="6.99683" height="7.61405" fill="#989C93"/>
<rect x="293.867" y="30.4562" width="6.99683" height="7.61405" fill="#989C93"/>
<rect x="314.857" y="45.6843" width="6.99683" height="7.61405" fill="#989C93"/>
<rect x="307.861" y="76.1405" width="6.99683" height="7.61405" fill="#989C93"/>
<rect x="307.861" y="68.5264" width="6.99683" height="7.61405" fill="#989C93"/>
<rect x="307.861" y="67.765" width="6.99683" height="7.61405" fill="#989C93"/>
<rect x="307.861" y="60.9124" width="6.99683" height="7.61405" fill="#989C93"/>
<rect x="307.861" y="53.2983" width="6.99683" height="7.61405" fill="#989C93"/>
<rect x="300.864" y="53.2983" width="6.99683" height="7.61405" fill="#989C93"/>
<rect x="300.864" y="60.9124" width="6.99683" height="7.61405" fill="#989C93"/>
<rect x="314.857" y="75.3791" width="6.99683" height="7.61405" fill="#989C93"/>
<rect x="237.892" y="75.3791" width="6.99683" height="7.61405" fill="#97B86F"/>
<rect x="272.876" y="75.3791" width="6.99683" height="7.61405" fill="#97B86F"/>
<rect x="272.876" y="76.1405" width="6.99683" height="7.61405" fill="#44ADC8"/>
<rect x="279.873" y="53.2983" width="6.99683" height="7.61405" fill="#44ADC8"/>
<rect x="279.873" y="45.6843" width="6.99683" height="7.61405" fill="#44ADC8"/>
<rect x="286.87" y="38.0702" width="6.99683" height="7.61405" fill="#44ADC8"/>
<rect x="279.873" y="30.4562" width="6.99683" height="7.61405" fill="#44ADC8"/>
<rect x="272.876" y="45.6843" width="6.99683" height="7.61405" fill="#44ADC8"/>
<rect x="286.87" y="68.5264" width="6.99683" height="7.61405" fill="#44ADC8"/>
<rect x="286.87" y="76.1405" width="6.99683" height="7.61405" fill="#44ADC8"/>
<rect x="286.87" y="53.2983" width="6.99683" height="7.61405" fill="#44ADC8"/>
<rect x="279.873" y="60.9124" width="6.99683" height="7.61405" fill="#44ADC8"/>
<rect x="286.87" y="60.9124" width="6.99683" height="7.61405" fill="#44ADC8"/>
<rect x="279.873" y="76.1405" width="6.99683" height="7.61405" fill="#44ADC8"/>
<rect x="258.883" y="30.4562" width="6.99683" height="7.61405" fill="#97B86F"/>
<rect x="272.876" y="30.4562" width="6.99683" height="7.61405" fill="#44ADC8"/>
<rect x="216.902" y="68.5264" width="6.99683" height="7.61405" fill="#78C9F5"/>
<rect x="209.905" y="45.6843" width="6.99683" height="7.61405" fill="#78C9F5"/>
<rect x="188.914" y="68.5264" width="6.99683" height="7.61405" fill="#78C9F5"/>
<rect x="209.905" y="38.0702" width="6.99683" height="7.61405" fill="#78C9F5"/>
<rect x="202.908" y="38.0702" width="6.99683" height="7.61405" fill="#78C9F5"/>
<rect x="181.918" y="45.6843" width="6.99683" height="7.61405" fill="#656C34"/>
<rect x="174.921" y="76.1405" width="6.99683" height="7.61405" fill="#656C34"/>
<rect x="167.924" y="76.1405" width="6.99683" height="7.61405" fill="#656C34"/>
<rect x="160.927" y="76.1405" width="6.99683" height="7.61405" fill="#656C34"/>
<rect x="174.921" y="45.6843" width="6.99683" height="7.61405" fill="#656C34"/>
<rect x="167.924" y="45.6843" width="6.99683" height="7.61405" fill="#656C34"/>
<rect x="160.927" y="45.6843" width="6.99683" height="7.61405" fill="#656C34"/>
<rect x="174.921" y="30.4562" width="6.99683" height="7.61405" fill="#656C34"/>
<rect x="167.924" y="30.4562" width="6.99683" height="7.61405" fill="#656C34"/>
<rect x="160.927" y="30.4562" width="6.99683" height="7.61405" fill="#656C34"/>
<rect x="132.94" y="76.1405" width="6.99683" height="7.61405" fill="#5C8791"/>
<rect x="132.94" y="76.1405" width="6.99683" height="7.61405" fill="#5C8791"/>
<rect x="132.94" y="76.1405" width="6.99683" height="7.61405" fill="#FFDB71"/>
<rect x="139.937" y="60.9124" width="6.99683" height="7.61405" fill="#FFDB71"/>
<rect x="104.952" y="68.5264" width="6.99683" height="7.61405" fill="#FFDB71"/>
<rect x="125.943" y="45.6843" width="6.99683" height="7.61405" fill="#FFDB71"/>
<rect x="111.949" y="68.5264" width="6.99683" height="7.61405" fill="#FFDB71"/>
<rect x="139.937" y="68.5264" width="6.99683" height="7.61405" fill="#FFDB71"/>
<rect x="111.949" y="38.0702" width="6.99683" height="7.61405" fill="#FFDB71"/>
<rect x="139.937" y="38.0702" width="6.99683" height="7.61405" fill="#FFDB71"/>
<rect x="132.94" y="60.9124" width="6.99683" height="7.61405" fill="#5C8791"/>
<rect x="132.94" y="60.9124" width="6.99683" height="7.61405" fill="#5C8791"/>
<rect x="132.94" y="60.9124" width="6.99683" height="7.61405" fill="#FFDB71"/>
<rect x="146.933" y="53.2983" width="6.99683" height="7.61405" fill="#FFDB71"/>
<rect x="125.943" y="22.8421" width="6.99683" height="7.61405" fill="#FFDB71"/>
<rect x="118.946" y="22.8421" width="6.99683" height="7.61405" fill="#5C8791"/>
<rect x="118.946" y="22.8421" width="6.99683" height="7.61405" fill="#5C8791"/>
<rect x="118.946" y="22.8421" width="6.99683" height="7.61405" fill="#FFDB71"/>
<rect x="132.94" y="30.4562" width="6.99683" height="7.61405" fill="#FFDB71"/>
<rect x="139.937" y="30.4562" width="6.99683" height="7.61405" fill="#5C8791"/>
<rect x="139.937" y="30.4562" width="6.99683" height="7.61405" fill="#5C8791"/>
<rect x="139.937" y="30.4562" width="6.99683" height="7.61405" fill="#FFDB71"/>
<rect x="125.943" y="60.9124" width="6.99683" height="7.61405" fill="#FFDB71"/>
<rect x="118.946" y="60.9124" width="6.99683" height="7.61405" fill="#5C8791"/>
<rect x="118.946" y="60.9124" width="6.99683" height="7.61405" fill="#5C8791"/>
<rect x="118.946" y="60.9124" width="6.99683" height="7.61405" fill="#FFDB71"/>
<rect x="104.952" y="53.2983" width="6.99683" height="7.61405" fill="#5C8791"/>
<rect x="104.952" y="60.9124" width="6.99683" height="7.61405" fill="#5C8791"/>
<rect x="62.9715" y="68.5264" width="6.99683" height="7.61405" fill="#81AB68"/>
<rect x="13.9937" width="6.99683" height="7.61405" fill="#81AB68"/>
<rect x="6.99683" width="6.99683" height="7.61405" fill="#81AB68"/>
<rect x="62.9715" y="60.9124" width="6.99683" height="7.61405" fill="#81AB68"/>
<rect x="34.9842" y="30.4562" width="6.99683" height="7.61405" fill="#81AB68"/>
<rect x="27.9873" y="30.4562" width="6.99683" height="7.61405" fill="#81AB68"/>
<rect x="20.9905" y="30.4562" width="6.99683" height="7.61405" fill="#81AB68"/>
<rect x="34.9842" y="22.8421" width="6.99683" height="7.61405" fill="#81AB68"/>
<rect x="27.9873" y="22.8421" width="6.99683" height="7.61405" fill="#81AB68"/>
<rect x="20.9905" y="22.8421" width="6.99683" height="7.61405" fill="#81AB68"/>
<rect x="34.9842" y="45.6843" width="6.99683" height="7.61405" fill="#81AB68"/>
<rect x="27.9873" y="45.6843" width="6.99683" height="7.61405" fill="#81AB68"/>
<rect x="20.9905" y="45.6843" width="6.99683" height="7.61405" fill="#81AB68"/>
<rect x="34.9842" y="38.0702" width="6.99683" height="7.61405" fill="#81AB68"/>
<rect x="27.9873" y="38.0702" width="6.99683" height="7.61405" fill="#81AB68"/>
<rect x="20.9905" y="38.0702" width="6.99683" height="7.61405" fill="#81AB68"/>
<rect x="34.9842" width="6.99683" height="7.61405" fill="#81AB68"/>
<rect x="27.9873" width="6.99683" height="7.61405" fill="#81AB68"/>
<rect x="20.9905" width="6.99683" height="7.61405" fill="#81AB68"/>
<rect x="55.9746" y="7.61404" width="6.99683" height="7.61405" fill="#81AB68"/>
<rect x="48.9778" y="7.61404" width="6.99683" height="7.61405" fill="#81AB68"/>
<rect x="41.981" y="7.61404" width="6.99683" height="7.61405" fill="#81AB68"/>
<rect x="62.9715" y="38.0702" width="6.99683" height="7.61405" fill="#81AB68"/>
<rect x="48.9778" width="6.99683" height="7.61405" fill="#81AB68"/>
<rect x="41.981" width="6.99683" height="7.61405" fill="#81AB68"/>
<rect x="13.9937" y="76.1405" width="6.99683" height="7.61405" fill="#81AB68"/>
<rect x="6.99683" y="76.1405" width="6.99683" height="7.61405" fill="#81AB68"/>
<rect x="62.9715" y="45.6843" width="6.99683" height="7.61405" fill="#81AB68"/>
<rect x="34.9842" y="76.1405" width="6.99683" height="7.61405" fill="#81AB68"/>
<rect x="27.9873" y="76.1405" width="6.99683" height="7.61405" fill="#81AB68"/>
<rect x="20.9905" y="76.1405" width="6.99683" height="7.61405" fill="#81AB68"/>
<rect x="55.9746" y="76.1405" width="6.99683" height="7.61405" fill="#81AB68"/>
<rect x="48.9778" y="76.1405" width="6.99683" height="7.61405" fill="#81AB68"/>
<rect x="41.981" y="76.1405" width="6.99683" height="7.61405" fill="#81AB68"/>
<rect y="15.2281" width="6.99683" height="7.61405" fill="#81AB68"/>
<rect y="30.4562" width="6.99683" height="7.61405" fill="#81AB68"/>
<rect y="22.8421" width="6.99683" height="7.61405" fill="#81AB68"/>
<rect x="55.9746" y="22.8421" width="6.99683" height="7.61405" fill="#81AB68"/>
<rect x="55.9746" y="15.2281" width="6.99683" height="7.61405" fill="#81AB68"/>
<rect x="48.9778" y="15.2281" width="6.99683" height="7.61405" fill="#81AB68"/>
<rect x="55.9746" y="30.4562" width="6.99683" height="7.61405" fill="#81AB68"/>
<rect x="55.9746" y="45.6843" width="6.99683" height="7.61405" fill="#81AB68"/>
<rect x="55.9746" y="38.0702" width="6.99683" height="7.61405" fill="#81AB68"/>
<rect x="55.9746" y="60.9124" width="6.99683" height="7.61405" fill="#81AB68"/>
<rect x="55.9746" y="53.2983" width="6.99683" height="7.61405" fill="#81AB68"/>
<rect y="38.0702" width="6.99683" height="7.61405" fill="#81AB68"/>
<rect y="45.6843" width="6.99683" height="7.61405" fill="#81AB68"/>
<rect x="62.9715" y="53.2983" width="6.99683" height="7.61405" fill="#81AB68"/>
<rect y="68.5264" width="6.99683" height="7.61405" fill="#81AB68"/>
<rect y="53.2983" width="6.99683" height="7.61405" fill="#81AB68"/>
<rect x="6.99683" y="68.5264" width="6.99683" height="7.61405" fill="#81AB68"/>
<rect x="13.9937" y="68.5264" width="6.99683" height="7.61405" fill="#81AB68"/>
<rect x="48.9778" y="60.9124" width="6.99683" height="7.61405" fill="#81AB68"/>
<rect x="41.981" y="68.5264" width="6.99683" height="7.61405" fill="#81AB68"/>
<rect x="6.99683" y="60.9124" width="6.99683" height="7.61405" fill="#81AB68"/>
<rect x="20.9905" y="53.2983" width="6.99683" height="7.61405" fill="#81AB68"/>
<rect x="27.9873" y="53.2983" width="6.99683" height="7.61405" fill="#81AB68"/>
<rect x="6.99683" y="15.2281" width="6.99683" height="7.61405" fill="#81AB68"/>
<rect x="34.9842" y="7.61404" width="6.99683" height="7.61405" fill="#FF801E"/>
<rect x="41.981" y="15.2281" width="6.99683" height="7.61405" fill="#FF801E"/>
<rect x="48.9778" y="22.8421" width="6.99683" height="7.61405" fill="#FF801E"/>
<rect x="34.9842" y="60.9124" width="6.99683" height="7.61405" fill="#FF801E"/>
<rect x="48.9778" y="53.2983" width="6.99683" height="7.61405" fill="#FF801E"/>
<rect x="6.99683" y="53.2983" width="6.99683" height="7.61405" fill="#FF801E"/>
<rect x="13.9937" y="60.9124" width="6.99683" height="7.61405" fill="#FF801E"/>
<rect x="41.981" y="53.2983" width="6.99683" height="7.61405" fill="#FF801E"/>
<rect x="48.9778" y="30.4562" width="6.99683" height="7.61405" fill="#FF801E"/>
<rect x="48.9778" y="38.0702" width="6.99683" height="7.61405" fill="#FF801E"/>
<rect x="48.9778" y="45.6843" width="6.99683" height="7.61405" fill="#FF801E"/>
<rect x="6.99683" y="22.8421" width="6.99683" height="7.61405" fill="#FF801E"/>
<rect x="13.9937" y="15.2281" width="6.99683" height="7.61405" fill="#FF801E"/>
<rect width="6.99683" height="7.61405" transform="matrix(1 0 0 -1 27.9873 15.2281)" fill="#FF801E"/>
<rect x="20.9905" y="68.5264" width="6.99683" height="7.61405" fill="#FF801E"/>
<rect x="34.9842" y="68.5264" width="6.99683" height="7.61405" fill="#FF801E"/>
<rect width="6.99683" height="7.61405" transform="matrix(1 0 0 -1 27.9873 76.1405)" fill="#FF801E"/>
<rect x="6.99683" y="38.0702" width="6.99683" height="7.61405" fill="#FF801E"/>
<rect x="41.981" y="22.8421" width="6.99683" height="7.61405" fill="#FF801E"/>
<rect x="34.9842" y="15.2281" width="6.99683" height="7.61405" fill="#FF801E"/>
<rect x="244.889" y="15.2281" width="6.99683" height="7.61405" fill="#FF801E"/>
<rect x="237.892" y="15.2281" width="6.99683" height="7.61405" fill="#FF801E"/>
<rect x="237.892" y="7.61404" width="6.99683" height="7.61405" fill="#FF801E"/>
<rect x="251.886" y="7.61404" width="6.99683" height="7.61405" fill="#FF801E"/>
<rect x="279.873" y="38.0702" width="6.99683" height="7.61405" fill="#FF801E"/>
<rect x="258.883" y="15.2281" width="6.99683" height="7.61405" fill="#FF801E"/>
<rect x="272.876" y="38.0702" width="6.99683" height="7.61405" fill="#FF801E"/>
<rect x="230.895" y="15.2281" width="6.99683" height="7.61405" fill="#FF801E"/>
<rect width="6.99683" height="7.61405" transform="matrix(1 0 0 -1 244.889 15.2281)" fill="#FF801E"/>
<rect x="251.886" y="15.2281" width="6.99683" height="7.61405" fill="#FF801E"/>
<rect x="41.981" y="30.4562" width="6.99683" height="7.61405" fill="#FF801E"/>
<rect x="41.981" y="38.0702" width="6.99683" height="7.61405" fill="#FF801E"/>
<rect x="76.9651" y="68.5264" width="6.99683" height="7.61405" fill="#FF801E"/>
<rect x="83.962" y="68.5264" width="6.99683" height="7.61405" fill="#FF801E"/>
<rect x="76.9651" y="60.9124" width="6.99683" height="7.61405" fill="#FF801E"/>
<rect x="41.981" y="45.6843" width="6.99683" height="7.61405" fill="#FF801E"/>
<rect x="34.9842" y="53.2983" width="6.99683" height="7.61405" fill="#FF801E"/>
<rect x="13.9937" y="38.0702" width="6.99683" height="7.61405" fill="#FF801E"/>
<rect x="13.9937" y="45.6843" width="6.99683" height="7.61405" fill="#FF801E"/>
<rect x="13.9937" y="53.2983" width="6.99683" height="7.61405" fill="#FF801E"/>
<rect x="237.892" y="30.4562" width="6.99683" height="7.61405" fill="#FF801E"/>
<rect x="237.892" y="22.8421" width="6.99683" height="7.61405" fill="#FF801E"/>
<rect x="230.895" y="30.4562" width="6.99683" height="7.61405" fill="#FF801E"/>
<rect x="230.895" y="45.6843" width="6.99683" height="7.61405" fill="#FF801E"/>
<rect x="230.895" y="53.2983" width="6.99683" height="7.61405" fill="#FF801E"/>
<rect x="230.895" y="22.8421" width="6.99683" height="7.61405" fill="#FF801E"/>
<rect x="230.895" y="38.0702" width="6.99683" height="7.61405" fill="#FF801E"/>
<rect x="237.892" y="38.0702" width="6.99683" height="7.61405" fill="#FF801E"/>
<rect x="237.892" y="45.6843" width="6.99683" height="7.61405" fill="#FF801E"/>
<rect x="237.892" y="53.2983" width="6.99683" height="7.61405" fill="#FF801E"/>
<rect x="230.895" y="60.9124" width="6.99683" height="7.61405" fill="#FF801E"/>
<rect x="230.895" y="68.5264" width="6.99683" height="7.61405" fill="#FF801E"/>
<rect x="237.892" y="60.9124" width="6.99683" height="7.61405" fill="#FF801E"/>
<rect x="244.889" y="38.8316" width="6.99683" height="7.61405" fill="#FF801E"/>
<rect x="251.886" y="38.8316" width="6.99683" height="7.61405" fill="#FF801E"/>
<rect x="244.889" y="45.6843" width="6.99683" height="7.61405" fill="#FF801E"/>
<rect x="251.886" y="45.6843" width="6.99683" height="7.61405" fill="#FF801E"/>
<rect x="258.883" y="38.8316" width="6.99683" height="7.61405" fill="#FF801E"/>
<rect x="27.9873" y="60.9124" width="6.99683" height="7.61405" fill="#FF801E"/>
<rect x="69.9683" y="60.9124" width="6.99683" height="7.61405" fill="#FF801E"/>
<rect x="69.9683" y="53.2983" width="6.99683" height="7.61405" fill="#FF801E"/>
<rect x="69.9683" y="45.6843" width="6.99683" height="7.61405" fill="#FF801E"/>
<rect x="90.9588" y="60.9124" width="6.99683" height="7.61405" fill="#FF801E"/>
<rect x="97.9556" y="60.9124" width="6.99683" height="7.61405" fill="#FF801E"/>
<rect x="97.9556" y="53.2983" width="6.99683" height="7.61405" fill="#FF801E"/>
<rect x="97.9556" y="45.6843" width="6.99683" height="7.61405" fill="#FF801E"/>
<rect x="97.9556" y="38.0702" width="6.99683" height="7.61405" fill="#FF801E"/>
<rect x="69.9683" y="38.0702" width="6.99683" height="7.61405" fill="#FF801E"/>
<rect x="195.911" y="68.5264" width="6.99683" height="7.61405" fill="#FF801E"/>
<rect x="195.911" y="60.9124" width="6.99683" height="7.61405" fill="#FF801E"/>
<rect x="195.911" y="53.2983" width="6.99683" height="7.61405" fill="#FF801E"/>
<rect x="195.911" y="45.6843" width="6.99683" height="7.61405" fill="#FF801E"/>
<rect x="118.946" y="68.5264" width="6.99683" height="7.61405" fill="#FF801E"/>
<rect x="111.949" y="53.2983" width="6.99683" height="7.61405" fill="#FF801E"/>
<rect x="125.943" y="38.0702" width="6.99683" height="7.61405" fill="#FF801E"/>
<rect x="195.911" y="38.0702" width="6.99683" height="7.61405" fill="#FF801E"/>
<rect x="132.94" y="38.0702" width="6.99683" height="7.61405" fill="#FF801E"/>
<rect x="139.937" y="45.6843" width="6.99683" height="7.61405" fill="#FF801E"/>
<rect x="167.924" y="53.2983" width="6.99683" height="7.61405" fill="#FF801E"/>
<rect x="139.937" y="53.2983" width="6.99683" height="7.61405" fill="#FF801E"/>
<rect x="153.93" y="45.6843" width="6.99683" height="7.61405" fill="#FF801E"/>
<rect x="160.927" y="53.2983" width="6.99683" height="7.61405" fill="#FF801E"/>
<rect x="132.94" y="53.2983" width="6.99683" height="7.61405" fill="#FF801E"/>
<rect x="125.943" y="53.2983" width="6.99683" height="7.61405" fill="#FF801E"/>
<rect x="118.946" y="53.2983" width="6.99683" height="7.61405" fill="#FF801E"/>
<rect x="118.946" y="45.6843" width="6.99683" height="7.61405" fill="#FF801E"/>
<rect x="111.949" y="45.6843" width="6.99683" height="7.61405" fill="#FF801E"/>
<rect x="97.9556" y="68.5264" width="6.99683" height="7.61405" fill="#FF801E"/>
<rect x="125.943" y="68.5264" width="6.99683" height="7.61405" fill="#FF801E"/>
<rect x="132.94" y="68.5264" width="6.99683" height="7.61405" fill="#FF801E"/>
<rect x="118.946" y="38.0702" width="6.99683" height="7.61405" fill="#FF801E"/>
<rect x="167.924" y="38.0702" width="6.99683" height="7.61405" fill="#FF801E"/>
<rect x="174.921" y="38.0702" width="6.99683" height="7.61405" fill="#FF801E"/>
<rect x="160.927" y="38.0702" width="6.99683" height="7.61405" fill="#FF801E"/>
<rect x="195.911" y="45.6843" width="6.99683" height="7.61405" fill="#FF801E"/>
<rect x="202.908" y="45.6843" width="6.99683" height="7.61405" fill="#FF801E"/>
<rect x="188.914" y="45.6843" width="6.99683" height="7.61405" fill="#FF801E"/>
<rect x="153.93" y="68.5264" width="6.99683" height="7.61405" fill="#FF801E"/>
<rect x="167.924" y="68.5264" width="6.99683" height="7.61405" fill="#FF801E"/>
<rect x="174.921" y="60.9124" width="6.99683" height="7.61405" fill="#FF801E"/>
<rect x="160.927" y="68.5264" width="6.99683" height="7.61405" fill="#FF801E"/>
<rect x="202.908" y="68.5264" width="6.99683" height="7.61405" fill="#FF801E"/>
<rect x="258.883" y="7.61404" width="6.99683" height="7.61405" fill="#FF801E"/>
<rect x="272.876" y="60.9124" width="6.99683" height="7.61405" fill="#FF801E"/>
<rect x="272.876" y="68.5264" width="6.99683" height="7.61405" fill="#FF801E"/>
<rect x="279.873" y="68.5264" width="6.99683" height="7.61405" fill="#FF801E"/>
<rect x="272.876" y="53.2983" width="6.99683" height="7.61405" fill="#FF801E"/>
<rect x="209.905" y="68.5264" width="6.99683" height="7.61405" fill="#FF801E"/>
<rect x="293.867" y="68.5264" width="6.99683" height="7.61405" fill="#FF801E"/>
<rect x="293.867" y="60.9124" width="6.99683" height="7.61405" fill="#FF801E"/>
<rect x="293.867" y="53.2983" width="6.99683" height="7.61405" fill="#FF801E"/>
<rect x="293.867" y="44.9229" width="6.99683" height="7.61405" fill="#FF801E"/>
<rect x="293.867" y="38.0702" width="6.99683" height="7.61405" fill="#FF801E"/>
<rect x="293.867" y="45.6843" width="6.99683" height="7.61405" fill="#FF801E"/>
<rect x="300.864" y="45.6843" width="6.99683" height="7.61405" fill="#FF801E"/>
<rect x="286.87" y="45.6843" width="6.99683" height="7.61405" fill="#FF801E"/>
<rect x="300.864" y="68.5264" width="6.99683" height="7.61405" fill="#FF801E"/>
<rect x="314.857" y="68.5264" width="6.99683" height="7.61405" fill="#FF801E"/>
<rect x="111.949" y="60.9124" width="6.99683" height="7.61405" fill="#FF801E"/>
<rect x="41.981" y="60.9124" width="6.99683" height="7.61405" fill="#FF801E"/>
<rect x="48.9778" y="68.5264" width="6.99683" height="7.61405" fill="#FF801E"/>
<rect x="55.9746" y="68.5264" width="6.99683" height="7.61405" fill="#FF801E"/>
<rect x="146.933" y="45.6843" width="6.99683" height="7.61405" fill="#FFDB71"/>
<line x1="21.6902" y1="74.3791" x2="40.5816" y2="74.3791" stroke="#FFB74D" stroke-width="2"/>
<line x1="39.8819" y1="66.765" x2="46.8788" y2="66.765" stroke="#FFB74D" stroke-width="2"/>
<line x1="77.6648" y1="74.3791" x2="90.2591" y2="74.3791" stroke="#FFB74D" stroke-width="2"/>
<line x1="154.63" y1="74.3791" x2="174.221" y2="74.3791" stroke="#FFB74D" stroke-width="2"/>
<line x1="196.611" y1="74.3791" x2="216.202" y2="74.3791" stroke="#FFB74D" stroke-width="2"/>
<line x1="294.567" y1="74.3791" x2="307.161" y2="74.3791" stroke="#FFB74D" stroke-width="2"/>
<line x1="273.576" y1="74.3791" x2="286.17" y2="74.3791" stroke="#FFB74D" stroke-width="2"/>
<line x1="231.595" y1="74.3791" x2="237.193" y2="74.3791" stroke="#FFB74D" stroke-width="2"/>
<line x1="237.193" y1="66.765" x2="244.189" y2="66.765" stroke="#FFB74D" stroke-width="2"/>
<line x1="244.189" y1="51.5369" x2="258.183" y2="51.5369" stroke="#FFB74D" stroke-width="2"/>
<line x1="46.8788" y1="59.151" x2="54.5753" y2="59.151" stroke="#FFA726" stroke-width="2"/>
<line x1="49.6775" y1="74.3791" x2="62.2718" y2="74.3791" stroke="#FFB74D" stroke-width="2"/>
<line x1="98.6553" y1="74.3791" x2="104.253" y2="74.3791" stroke="#FFB74D" stroke-width="2"/>
<line x1="119.646" y1="74.3791" x2="139.237" y2="74.3791" stroke="#FFB74D" stroke-width="2"/>
<line x1="40.2813" y1="75.3791" x2="40.2813" y2="66.2422" stroke="#FFA726" stroke-width="2"/>
<line x1="47.2781" y1="67.765" x2="47.2781" y2="60.151" stroke="#FFA726" stroke-width="2"/>
<line x1="54.275" y1="60.151" x2="54.275" y2="56.3439" stroke="#FFB74D" stroke-width="2"/>
<line x1="61.2718" y1="74.6177" x2="61.2718" y2="70.8106" stroke="#FFA726" stroke-width="2"/>
<line x1="89.2591" y1="75.3791" x2="89.2591" y2="71.572" stroke="#FFA726" stroke-width="2"/>
<line x1="103.253" y1="74.6177" x2="103.253" y2="70.8106" stroke="#FFA726" stroke-width="2"/>
<line x1="138.237" y1="75.3791" x2="138.237" y2="71.572" stroke="#FFA726" stroke-width="2"/>
<line x1="173.221" y1="75.3791" x2="173.221" y2="71.572" stroke="#FFA726" stroke-width="2"/>
<line x1="215.202" y1="74.6177" x2="215.202" y2="70.8106" stroke="#FFA726" stroke-width="2"/>
<line x1="236.193" y1="73.8563" x2="236.193" y2="66.2422" stroke="#FFA726" stroke-width="2"/>
<line x1="243.189" y1="66.2422" x2="243.189" y2="51.0141" stroke="#FFA726" stroke-width="2"/>
<line x1="306.161" y1="74.6177" x2="306.161" y2="70.8106" stroke="#FFA726" stroke-width="2"/>
<line x1="320.155" y1="75.3791" x2="320.155" y2="71.572" stroke="#FFA726" stroke-width="2"/>
<line x1="315.557" y1="74.3791" x2="319.755" y2="74.3791" stroke="#FFA726" stroke-width="2"/>
<line x1="285.17" y1="75.3791" x2="285.17" y2="71.572" stroke="#FFA726" stroke-width="2"/>
<path d="M42.875 106.25H49.875V107.125H47.25V113.25H48.125V114.125H49V115H49.875V115.875H48.125V115H47.25V114.125H45.5V115H44.625V115.875H42.875V115H43.75V114.125H44.625V113.25H45.5V107.125H42.875V106.25ZM52.5 105.375H54.25V116.75H52.5V105.375ZM57.75 106.25H68.25V108.875H59.5V109.75H68.25V110.625H58.625V109.75H57.75V108H66.5V107.125H57.75V106.25ZM56.875 112.375H69.125V113.25H63.875V116.75H62.125V113.25H56.875V112.375ZM70.875 106.25H73.5V105.375H75.25V106.25H77.875V107.125H76.125V108H77.875V110.625H76.125V111.5H72.625V110.625H70.875V108H72.625V107.125H70.875V106.25ZM72.625 108.875V109.75H73.5V110.625H75.25V109.75H76.125V108.875H75.25V108H73.5V108.875H72.625ZM79.625 105.375H81.375V108H84V108.875H81.375V111.5H79.625V105.375ZM71.75 112.375H73.5V115.875H81.375V116.75H72.625V115.875H71.75V112.375ZM92.75 106.25H94.5V105.375H101.5V106.25H103.25V108.875H101.5V109.75H94.5V108.875H92.75V106.25ZM94.5 107.125V108H95.375V108.875H100.625V108H101.5V107.125H100.625V106.25H95.375V107.125H94.5ZM91.875 110.625H104.125V111.5H98.875V113.25H97.125V111.5H91.875V110.625ZM92.75 112.375H94.5V115.875H103.25V116.75H93.625V115.875H92.75V112.375ZM106.75 105.375H117.25V106.25H108.5V108.875H117.25V109.75H107.625V108.875H106.75V105.375ZM105.875 110.625H111.125V108.875H112.875V110.625H118.125V111.5H105.875V110.625ZM106.75 113.25H108.5V112.375H115.5V113.25H117.25V115.875H115.5V116.75H108.5V115.875H106.75V113.25ZM108.5 114.125V115H109.375V115.875H114.625V115H115.5V114.125H114.625V113.25H109.375V114.125H108.5ZM120.75 106.25H122.5V105.375H129.5V106.25H131.25V108.875H129.5V109.75H122.5V108.875H120.75V106.25ZM122.5 107.125V108H123.375V108.875H128.625V108H129.5V107.125H128.625V106.25H123.375V107.125H122.5ZM119.875 110.625H132.125V111.5H119.875V110.625ZM120.75 112.375H122.5V115.875H131.25V116.75H121.625V115.875H120.75V112.375ZM140.875 108H141.75V107.125H142.625V106.25H146.125V107.125H147V108H147.875V114.125H147V115H146.125V115.875H142.625V115H141.75V114.125H140.875V108ZM142.625 108V114.125H143.5V115H145.25V114.125H146.125V108H145.25V107.125H143.5V108H142.625ZM150.5 105.375H152.25V116.75H150.5V105.375ZM154.875 106.25H161.875V107.125H159.25V113.25H160.125V114.125H161V115H161.875V115.875H160.125V115H159.25V114.125H157.5V115H156.625V115.875H154.875V115H155.75V114.125H156.625V113.25H157.5V107.125H154.875V106.25ZM161 110.625H162.75V105.375H164.5V116.75H162.75V111.5H161V110.625ZM165.375 105.375H167.125V116.75H165.375V105.375ZM175.875 107.125H176.75V106.25H177.625V105.375H181.125V106.25H182V107.125H182.875V109.75H182V110.625H181.125V111.5H177.625V110.625H176.75V109.75H175.875V107.125ZM177.625 107.125V109.75H178.5V110.625H180.25V109.75H181.125V107.125H180.25V106.25H178.5V107.125H177.625ZM184.625 105.375H186.375V108H189V108.875H186.375V111.5H184.625V105.375ZM176.75 112.375H178.5V115.875H186.375V116.75H177.625V115.875H176.75V112.375ZM189.875 105.375H191.625V110.625H196.875V111.5H190.75V110.625H189.875V105.375ZM196.875 107.125H199.5V105.375H201.25V111.5H199.5V109.75H196.875V108.875H199.5V108H196.875V107.125ZM190.75 113.25H192.5V112.375H199.5V113.25H201.25V115.875H199.5V116.75H192.5V115.875H190.75V113.25ZM192.5 114.125V115H193.375V115.875H198.625V115H199.5V114.125H198.625V113.25H193.375V114.125H192.5ZM205.625 106.25H207.375V112.375H205.625V106.25ZM205.625 113.25H207.375V115H205.625V113.25ZM211.75 115H212.625V112.375H214.375V115H213.5V115.875H211.75V115ZM224.875 106.25H231.875V110.625H231V111.5H229.25V110.625H230.125V108.875H224.875V108H230.125V107.125H224.875V106.25ZM224.875 111.5H232.75V105.375H234.5V116.75H232.75V114.125H231V113.25H232.75V112.375H229.25V116.75H227.5V112.375H224.875V111.5ZM235.375 105.375H237.125V116.75H235.375V105.375ZM239.75 110.625H242.375V109.75H243.25V108.875H244.125V106.25H245.875V108.875H246.75V109.75H247.625V110.625H250.25V111.5H246.75V110.625H245.875V109.75H244.125V110.625H243.25V111.5H239.75V110.625ZM238.875 115H251.125V115.875H238.875V115ZM253.75 106.25H264.25V107.125H255.5V108.875H263.375V109.75H255.5V111.5H264.25V112.375H254.625V111.5H253.75V106.25ZM252.875 115H265.125V115.875H252.875V115ZM266.875 105.375H273.875V106.25H273V110.625H273.875V111.5H266.875V110.625H267.75V106.25H266.875V105.375ZM269.5 106.25V110.625H271.25V106.25H269.5ZM276.5 105.375H278.25V111.5H276.5V105.375ZM267.75 115.875H269.5V115H271.25V114.125H272.125V112.375H273.875V114.125H274.75V115H276.5V115.875H278.25V116.75H276.5V115.875H273.875V115H272.125V115.875H269.5V116.75H267.75V115.875Z" fill="black"/>
</svg>
