<svg width="182" height="294" viewBox="0 0 182 294" fill="none" xmlns="http://www.w3.org/2000/svg">
<rect x="50.96" y="105" width="7.28" height="7" fill="black"/>
<rect x="58.24" y="105" width="7.28" height="7" fill="black"/>
<rect x="50.96" y="112" width="7.28" height="7" fill="white" fill-opacity="0.5"/>
<rect x="58.24" y="112" width="7.28" height="7" fill="black"/>
<rect x="50.96" y="140" width="7.28" height="7" fill="#FFEEE4"/>
<rect x="43.68" y="140" width="7.28" height="7" fill="#FFEEE4"/>
<rect x="43.68" y="133" width="7.28" height="7" fill="#FFEEE4"/>
<rect x="58.24" y="140" width="7.28" height="7" fill="#FFEEE4"/>
<rect x="50.96" y="133" width="7.28" height="7" fill="#FFEEE4"/>
<rect x="58.24" y="133" width="7.28" height="7" fill="#FFEEE4"/>
<rect x="116.48" y="140" width="7.28" height="7" fill="#FFEEE4"/>
<rect x="109.2" y="140" width="7.28" height="7" fill="#FFEEE4"/>
<rect x="109.2" y="133" width="7.28" height="7" fill="#FFEEE4"/>
<rect x="123.76" y="140" width="7.28" height="7" fill="#FFEEE4"/>
<rect x="116.48" y="133" width="7.28" height="7" fill="#FFEEE4"/>
<rect x="123.76" y="133" width="7.28" height="7" fill="#FFEEE4"/>
<rect x="50.96" y="147" width="7.28" height="7" fill="#FFEEE4"/>
<rect x="58.24" y="147" width="7.28" height="7" fill="#FFEEE4"/>
<rect x="109.2" y="147" width="7.28" height="7" fill="#FFEEE4"/>
<rect x="116.48" y="147" width="7.28" height="7" fill="#FFEEE4"/>
<rect x="50.96" y="119" width="7.28" height="7" fill="black"/>
<rect x="58.24" y="119" width="7.28" height="7" fill="black"/>
<rect x="50.96" y="119" width="7.28" height="7" fill="black"/>
<rect x="58.24" y="119" width="7.28" height="7" fill="black"/>
<rect x="50.96" y="119" width="7.28" height="7" fill="black"/>
<rect x="58.24" y="119" width="7.28" height="7" fill="black"/>
<rect x="50.96" y="119" width="7.28" height="7" fill="black"/>
<rect x="58.24" y="119" width="7.28" height="7" fill="black"/>
<rect x="50.96" y="154" width="7.28" height="7" fill="black"/>
<rect x="43.68" y="147" width="7.28" height="7" fill="black"/>
<rect x="123.76" y="147" width="7.28" height="7" fill="black"/>
<rect x="36.4" y="140" width="7.28" height="7" fill="black"/>
<rect x="36.4" y="133" width="7.28" height="7" fill="black"/>
<rect x="36.4" y="126" width="7.28" height="7" fill="black"/>
<rect x="36.4" y="119" width="7.28" height="7" fill="black"/>
<rect x="36.4" y="112" width="7.28" height="7" fill="black"/>
<rect x="36.4" y="105" width="7.28" height="7" fill="black"/>
<rect x="138.32" y="140" width="7.28" height="7" fill="black"/>
<rect x="131.04" y="140" width="7.28" height="7" fill="black"/>
<rect x="138.32" y="133" width="7.28" height="7" fill="black"/>
<rect x="138.32" y="126" width="7.28" height="7" fill="black"/>
<rect x="138.32" y="119" width="7.28" height="7" fill="black"/>
<rect x="138.32" y="112" width="7.28" height="7" fill="black"/>
<rect x="138.32" y="105" width="7.28" height="7" fill="black"/>
<rect x="138.32" y="98" width="7.28" height="7" fill="black"/>
<rect x="72.8" y="91" width="7.28" height="7" fill="#828282"/>
<rect x="72.8" y="84" width="7.28" height="7" fill="#828282"/>
<rect x="80.08" y="91" width="7.28" height="7" fill="#828282"/>
<rect x="80.08" y="84" width="7.28" height="7" fill="#828282"/>
<rect x="72.8" y="77" width="7.28" height="7" fill="#828282"/>
<rect x="72.8" y="70" width="7.28" height="7" fill="#828282"/>
<rect x="72.8" y="63" width="7.28" height="7" fill="#828282"/>
<rect x="72.8" y="56" width="7.28" height="7" fill="#828282"/>
<rect x="65.52" y="77" width="7.28" height="7" fill="#828282"/>
<rect x="65.52" y="70" width="7.28" height="7" fill="#828282"/>
<rect x="65.52" y="63" width="7.28" height="7" fill="#828282"/>
<rect x="65.52" y="56" width="7.28" height="7" fill="#828282"/>
<rect x="138.32" y="49" width="7.28" height="7" fill="#828282"/>
<rect x="138.32" y="42" width="7.28" height="7" fill="#828282"/>
<rect x="131.04" y="49" width="7.28" height="7" fill="#828282"/>
<rect x="131.04" y="42" width="7.28" height="7" fill="#828282"/>
<rect x="21.84" y="63" width="7.28" height="7" fill="#828282"/>
<rect x="29.12" y="70" width="7.28" height="7" fill="#828282"/>
<rect x="50.96" y="70" width="7.28" height="7" fill="#828282"/>
<rect x="87.36" y="70" width="7.28" height="7" fill="#828282"/>
<rect x="101.92" y="63" width="7.28" height="7" fill="#828282"/>
<rect x="21.84" y="56" width="7.28" height="7" fill="#828282"/>
<rect x="14.56" y="63" width="7.28" height="7" fill="#828282"/>
<rect x="14.56" y="56" width="7.28" height="7" fill="#828282"/>
<rect x="72.8" y="49" width="7.28" height="7" fill="#828282"/>
<rect x="72.8" y="42" width="7.28" height="7" fill="#828282"/>
<rect x="131.04" y="98" width="7.28" height="7" fill="black"/>
<rect x="123.76" y="98" width="7.28" height="7" fill="black"/>
<rect x="116.48" y="91" width="7.28" height="7" fill="black"/>
<rect x="109.2" y="84" width="7.28" height="7" fill="black"/>
<rect x="101.92" y="91" width="7.28" height="7" fill="black"/>
<rect x="101.92" y="98" width="7.28" height="7" fill="black"/>
<rect x="94.64" y="98" width="7.28" height="7" fill="black"/>
<rect x="87.36" y="98" width="7.28" height="7" fill="black"/>
<rect x="80.08" y="98" width="7.28" height="7" fill="black"/>
<rect x="72.8" y="98" width="7.28" height="7" fill="black"/>
<rect x="65.52" y="91" width="7.28" height="7" fill="black"/>
<rect x="58.24" y="84" width="7.28" height="7" fill="black"/>
<rect x="50.96" y="91" width="7.28" height="7" fill="black"/>
<rect x="43.68" y="98" width="7.28" height="7" fill="black"/>
<rect x="36.4" y="98" width="7.28" height="7" fill="black"/>
<rect x="58.24" y="154" width="7.28" height="7" fill="black"/>
<rect x="58.24" y="161" width="7.28" height="7" fill="black"/>
<rect x="50.96" y="161" width="7.28" height="7" fill="black"/>
<rect x="43.68" y="161" width="7.28" height="7" fill="black"/>
<rect x="29.12" y="182" width="7.28" height="7" fill="black"/>
<rect x="29.12" y="189" width="7.28" height="7" fill="black"/>
<rect x="43.68" y="238" width="7.28" height="7" fill="black"/>
<rect x="50.96" y="238" width="7.28" height="7" fill="black"/>
<rect width="7.28" height="7" transform="matrix(-1 0 0 1 123.76 161)" fill="black"/>
<rect width="7.28" height="7" transform="matrix(-1 0 0 1 131.04 161)" fill="black"/>
<rect width="7.28" height="7" transform="matrix(-1 0 0 1 138.32 161)" fill="black"/>
<rect width="7.28" height="7" transform="matrix(-1 0 0 1 145.6 168)" fill="black"/>
<path d="M152.88 175H145.6V182H152.88V175Z" fill="black"/>
<rect width="7.28" height="7" transform="matrix(-1 0 0 1 152.88 182)" fill="black"/>
<rect width="7.28" height="7" transform="matrix(-1 0 0 1 152.88 189)" fill="black"/>
<rect width="7.28" height="7" transform="matrix(-1 0 0 1 138.32 238)" fill="black"/>
<rect width="7.28" height="7" transform="matrix(-1 0 0 1 131.04 238)" fill="black"/>
<rect width="7.28" height="7" transform="matrix(-1 0 0 1 138.32 231)" fill="black"/>
<rect x="101.92" y="154" width="7.28" height="7" fill="black"/>
<rect x="109.2" y="154" width="7.28" height="7" fill="black"/>
<rect x="65.52" y="154" width="7.28" height="7" fill="black"/>
<rect x="116.48" y="154" width="7.28" height="7" fill="black"/>
<rect x="80.08" y="154" width="7.28" height="7" fill="black"/>
<rect x="72.8" y="154" width="7.28" height="7" fill="black"/>
<rect x="87.36" y="154" width="7.28" height="7" fill="black"/>
<rect x="94.64" y="154" width="7.28" height="7" fill="black"/>
<rect x="101.92" y="287" width="7.28" height="7" fill="black"/>
<rect x="109.2" y="287" width="7.28" height="7" fill="black"/>
<rect x="65.52" y="287" width="7.28" height="7" fill="black"/>
<rect x="80.08" y="287" width="7.28" height="7" fill="black"/>
<rect x="72.8" y="287" width="7.28" height="7" fill="black"/>
<rect x="50.96" y="287" width="7.28" height="7" fill="black"/>
<rect x="58.24" y="287" width="7.28" height="7" fill="black"/>
<rect x="116.48" y="287" width="7.28" height="7" fill="black"/>
<rect x="123.76" y="287" width="7.28" height="7" fill="black"/>
<rect x="87.36" y="287" width="7.28" height="7" fill="black"/>
<rect x="87.36" y="280" width="7.28" height="7" fill="black"/>
<rect x="94.64" y="287" width="7.28" height="7" fill="black"/>
<rect x="72.8" y="133" width="7.28" height="7" fill="black"/>
<rect x="65.52" y="140" width="7.28" height="7" fill="#FFEEE4"/>
<rect x="65.52" y="147" width="7.28" height="7" fill="#FFEEE4"/>
<rect x="65.52" y="133" width="7.28" height="7" fill="#FFEEE4"/>
<rect x="65.52" y="126" width="7.28" height="7" fill="#FFEEE4"/>
<rect x="65.52" y="119" width="7.28" height="7" fill="#FFEEE4"/>
<rect x="65.52" y="112" width="7.28" height="7" fill="#FFEEE4"/>
<rect x="65.52" y="105" width="7.28" height="7" fill="#FFEEE4"/>
<rect x="72.8" y="126" width="7.28" height="7" fill="#FFEEE4"/>
<rect x="72.8" y="119" width="7.28" height="7" fill="#FFEEE4"/>
<rect x="72.8" y="112" width="7.28" height="7" fill="#FFEEE4"/>
<rect x="72.8" y="105" width="7.28" height="7" fill="#FFEEE4"/>
<rect x="80.08" y="126" width="7.28" height="7" fill="#FFEEE4"/>
<rect x="43.68" y="126" width="7.28" height="7" fill="#FFEEE4"/>
<rect x="50.96" y="126" width="7.28" height="7" fill="#FFEEE4"/>
<rect x="58.24" y="126" width="7.28" height="7" fill="#FFEEE4"/>
<rect x="80.08" y="119" width="7.28" height="7" fill="#FFEEE4"/>
<rect x="80.08" y="112" width="7.28" height="7" fill="#FFEEE4"/>
<rect x="80.08" y="105" width="7.28" height="7" fill="#FFEEE4"/>
<rect x="87.36" y="126" width="7.28" height="7" fill="#FFEEE4"/>
<rect x="80.08" y="133" width="7.28" height="7" fill="#FFEEE4"/>
<rect x="87.36" y="133" width="7.28" height="7" fill="#FFEEE4"/>
<rect x="87.36" y="119" width="7.28" height="7" fill="#FFEEE4"/>
<rect x="87.36" y="112" width="7.28" height="7" fill="#FFEEE4"/>
<rect x="87.36" y="105" width="7.28" height="7" fill="#FFEEE4"/>
<rect x="94.64" y="126" width="7.28" height="7" fill="#FFEEE4"/>
<rect x="94.64" y="119" width="7.28" height="7" fill="#FFEEE4"/>
<rect x="94.64" y="112" width="7.28" height="7" fill="#FFEEE4"/>
<rect x="94.64" y="105" width="7.28" height="7" fill="#FFEEE4"/>
<rect x="101.92" y="140" width="7.28" height="7" fill="#FFEEE4"/>
<rect x="101.92" y="147" width="7.28" height="7" fill="#FFEEE4"/>
<rect x="101.92" y="133" width="7.28" height="7" fill="#FFEEE4"/>
<rect x="101.92" y="126" width="7.28" height="7" fill="#FFEEE4"/>
<rect x="109.2" y="126" width="7.28" height="7" fill="#FFEEE4"/>
<rect x="116.48" y="126" width="7.28" height="7" fill="#FFEEE4"/>
<rect x="123.76" y="126" width="7.28" height="7" fill="#FFEEE4"/>
<rect x="131.04" y="126" width="7.28" height="7" fill="#FFEEE4"/>
<rect x="131.04" y="119" width="7.28" height="7" fill="#FFEEE4"/>
<rect x="94.64" y="168" width="7.28" height="7" fill="#FFEEE4"/>
<rect x="58.24" y="91" width="7.28" height="7" fill="#FFEEE4"/>
<rect x="131.04" y="133" width="7.28" height="7" fill="#FFEEE4"/>
<rect x="94.64" y="161" width="7.28" height="7" fill="#FFEEE4"/>
<rect x="101.92" y="168" width="7.28" height="7" fill="#FFEEE4"/>
<rect x="101.92" y="161" width="7.28" height="7" fill="#FFEEE4"/>
<rect x="109.2" y="91" width="7.28" height="7" fill="#FFEEE4"/>
<rect x="131.04" y="112" width="7.28" height="7" fill="#FFEEE4"/>
<rect x="43.68" y="119" width="7.28" height="7" fill="#FFEEE4"/>
<rect x="43.68" y="112" width="7.28" height="7" fill="#FFEEE4"/>
<rect x="43.68" y="105" width="7.28" height="7" fill="#FFEEE4"/>
<rect x="131.04" y="105" width="7.28" height="7" fill="#FFEEE4"/>
<rect x="87.36" y="182" width="7.28" height="7" fill="#FFEEE4"/>
<rect x="87.36" y="175" width="7.28" height="7" fill="#FFEEE4"/>
<rect x="87.36" y="168" width="7.28" height="7" fill="#FFEEE4"/>
<rect x="116.48" y="98" width="7.28" height="7" fill="#FFEEE4"/>
<rect x="109.2" y="98" width="7.28" height="7" fill="#FFEEE4"/>
<rect x="58.24" y="98" width="7.28" height="7" fill="#FFEEE4"/>
<rect x="50.96" y="98" width="7.28" height="7" fill="#FFEEE4"/>
<rect x="87.36" y="161" width="7.28" height="7" fill="#FFEEE4"/>
<rect x="72.8" y="161" width="7.28" height="7" fill="#FFEEE4"/>
<rect x="80.08" y="161" width="7.28" height="7" fill="#FFEEE4"/>
<rect x="65.52" y="161" width="7.28" height="7" fill="#FFEEE4"/>
<rect x="94.64" y="217" width="7.28" height="7" fill="#FFEEE4"/>
<rect x="101.92" y="217" width="7.28" height="7" fill="#FFEEE4"/>
<rect x="87.36" y="217" width="7.28" height="7" fill="#FFEEE4"/>
<rect x="116.48" y="217" width="7.28" height="7" fill="#FFEEE4"/>
<rect x="116.48" y="217" width="7.28" height="7" fill="#FFEEE4"/>
<rect x="109.2" y="217" width="7.28" height="7" fill="#FFEEE4"/>
<rect x="58.24" y="280" width="7.28" height="7" fill="#FFEEE4"/>
<rect x="72.8" y="280" width="7.28" height="7" fill="#FFEEE4"/>
<rect x="80.08" y="280" width="7.28" height="7" fill="#FFEEE4"/>
<rect x="65.52" y="280" width="7.28" height="7" fill="#FFEEE4"/>
<rect x="94.64" y="280" width="7.28" height="7" fill="#FFEEE4"/>
<rect x="109.2" y="280" width="7.28" height="7" fill="#FFEEE4"/>
<rect x="116.48" y="280" width="7.28" height="7" fill="#FFEEE4"/>
<rect x="101.92" y="280" width="7.28" height="7" fill="#FFEEE4"/>
<rect x="72.8" y="217" width="7.28" height="7" fill="#FFEEE4"/>
<rect x="80.08" y="217" width="7.28" height="7" fill="#FFEEE4"/>
<rect x="65.52" y="217" width="7.28" height="7" fill="#FFEEE4"/>
<rect x="94.64" y="224" width="7.28" height="7" fill="#FFEEE4"/>
<rect x="101.92" y="224" width="7.28" height="7" fill="#FFEEE4"/>
<rect x="87.36" y="224" width="7.28" height="7" fill="#FFEEE4"/>
<rect x="116.48" y="224" width="7.28" height="7" fill="#FFEEE4"/>
<rect x="116.48" y="224" width="7.28" height="7" fill="#FFEEE4"/>
<rect x="109.2" y="224" width="7.28" height="7" fill="#FFEEE4"/>
<rect x="72.8" y="224" width="7.28" height="7" fill="#FFEEE4"/>
<rect x="80.08" y="224" width="7.28" height="7" fill="#FFEEE4"/>
<rect x="65.52" y="224" width="7.28" height="7" fill="#FFEEE4"/>
<rect x="94.64" y="231" width="7.28" height="7" fill="#FFEEE4"/>
<rect x="101.92" y="231" width="7.28" height="7" fill="#FFEEE4"/>
<rect x="87.36" y="231" width="7.28" height="7" fill="#FFEEE4"/>
<rect x="116.48" y="231" width="7.28" height="7" fill="#FFEEE4"/>
<rect x="116.48" y="231" width="7.28" height="7" fill="#FFEEE4"/>
<rect x="109.2" y="231" width="7.28" height="7" fill="#FFEEE4"/>
<rect x="72.8" y="231" width="7.28" height="7" fill="#FFEEE4"/>
<rect x="80.08" y="231" width="7.28" height="7" fill="#FFEEE4"/>
<rect x="65.52" y="231" width="7.28" height="7" fill="#FFEEE4"/>
<rect x="72.8" y="196" width="7.28" height="7" fill="#FFEEE4"/>
<rect x="80.08" y="196" width="7.28" height="7" fill="#FFEEE4"/>
<rect x="65.52" y="196" width="7.28" height="7" fill="#FFEEE4"/>
<rect x="72.8" y="203" width="7.28" height="7" fill="#FFEEE4"/>
<rect x="80.08" y="203" width="7.28" height="7" fill="#FFEEE4"/>
<rect x="65.52" y="203" width="7.28" height="7" fill="#FFEEE4"/>
<rect x="72.8" y="210" width="7.28" height="7" fill="#FFEEE4"/>
<rect x="80.08" y="210" width="7.28" height="7" fill="#FFEEE4"/>
<rect x="65.52" y="210" width="7.28" height="7" fill="#FFEEE4"/>
<rect x="65.52" y="238" width="7.28" height="7" fill="#FFEEE4"/>
<rect x="72.8" y="238" width="7.28" height="7" fill="#FFEEE4"/>
<rect x="58.24" y="238" width="7.28" height="7" fill="#FFEEE4"/>
<rect x="65.52" y="245" width="7.28" height="7" fill="#FFEEE4"/>
<rect x="72.8" y="245" width="7.28" height="7" fill="#FFEEE4"/>
<rect x="58.24" y="245" width="7.28" height="7" fill="#FFEEE4"/>
<rect x="65.52" y="252" width="7.28" height="7" fill="#FFEEE4"/>
<rect x="72.8" y="252" width="7.28" height="7" fill="#FFEEE4"/>
<rect x="58.24" y="252" width="7.28" height="7" fill="#FFEEE4"/>
<rect x="72.8" y="259" width="7.28" height="7" fill="#FFEEE4"/>
<rect x="80.08" y="259" width="7.28" height="7" fill="#FFEEE4"/>
<rect x="65.52" y="259" width="7.28" height="7" fill="#FFEEE4"/>
<rect x="72.8" y="266" width="7.28" height="7" fill="#FFEEE4"/>
<rect x="80.08" y="266" width="7.28" height="7" fill="#FFEEE4"/>
<rect x="65.52" y="266" width="7.28" height="7" fill="#FFEEE4"/>
<rect x="72.8" y="273" width="7.28" height="7" fill="#FFEEE4"/>
<rect x="80.08" y="273" width="7.28" height="7" fill="#FFEEE4"/>
<rect x="65.52" y="273" width="7.28" height="7" fill="#FFEEE4"/>
<rect x="101.92" y="238" width="7.28" height="7" fill="#FFEEE4"/>
<rect x="109.2" y="238" width="7.28" height="7" fill="#FFEEE4"/>
<rect x="58.24" y="210" width="7.28" height="7" fill="#FFEEE4"/>
<rect x="58.24" y="217" width="7.28" height="7" fill="#FFEEE4"/>
<rect x="58.24" y="224" width="7.28" height="7" fill="#FFEEE4"/>
<rect x="58.24" y="231" width="7.28" height="7" fill="#FFEEE4"/>
<rect x="116.48" y="238" width="7.28" height="7" fill="#FFEEE4"/>
<rect x="116.48" y="245" width="7.28" height="7" fill="#FFEEE4"/>
<rect x="116.48" y="252" width="7.28" height="7" fill="#FFEEE4"/>
<rect x="116.48" y="259" width="7.28" height="7" fill="#FFEEE4"/>
<rect x="94.64" y="238" width="7.28" height="7" fill="#FFEEE4"/>
<rect x="87.36" y="238" width="7.28" height="7" fill="#FFEEE4"/>
<rect x="80.08" y="238" width="7.28" height="7" fill="#FFEEE4"/>
<rect x="101.92" y="245" width="7.28" height="7" fill="#FFEEE4"/>
<rect x="109.2" y="245" width="7.28" height="7" fill="#FFEEE4"/>
<rect x="94.64" y="245" width="7.28" height="7" fill="#FFEEE4"/>
<rect x="101.92" y="252" width="7.28" height="7" fill="#FFEEE4"/>
<rect x="109.2" y="252" width="7.28" height="7" fill="#FFEEE4"/>
<rect x="58.24" y="196" width="7.28" height="7" fill="#FFEEE4"/>
<rect x="58.24" y="203" width="7.28" height="7" fill="#FFEEE4"/>
<rect x="58.24" y="210" width="7.28" height="7" fill="#FFEEE4"/>
<rect x="58.24" y="217" width="7.28" height="7" fill="#FFEEE4"/>
<rect x="58.24" y="224" width="7.28" height="7" fill="#FFEEE4"/>
<rect x="58.24" y="231" width="7.28" height="7" fill="#FFEEE4"/>
<rect x="94.64" y="252" width="7.28" height="7" fill="#FFEEE4"/>
<rect x="94.64" y="175" width="7.28" height="7" fill="#FFEEE4"/>
<rect x="94.64" y="182" width="7.28" height="7" fill="#FFEEE4"/>
<rect x="94.64" y="189" width="7.28" height="7" fill="#FFEEE4"/>
<rect x="94.64" y="196" width="7.28" height="7" fill="#FFEEE4"/>
<rect x="94.64" y="203" width="7.28" height="7" fill="#FFEEE4"/>
<rect x="94.64" y="210" width="7.28" height="7" fill="#FFEEE4"/>
<rect x="101.92" y="259" width="7.28" height="7" fill="#FFEEE4"/>
<rect x="109.2" y="259" width="7.28" height="7" fill="#FFEEE4"/>
<rect x="94.64" y="259" width="7.28" height="7" fill="#FFEEE4"/>
<rect x="101.92" y="266" width="7.28" height="7" fill="#FFEEE4"/>
<rect x="109.2" y="266" width="7.28" height="7" fill="#FFEEE4"/>
<rect x="94.64" y="266" width="7.28" height="7" fill="#FFEEE4"/>
<rect x="101.92" y="273" width="7.28" height="7" fill="#FFEEE4"/>
<rect x="109.2" y="273" width="7.28" height="7" fill="#FFEEE4"/>
<rect x="94.64" y="273" width="7.28" height="7" fill="#FFEEE4"/>
<rect x="87.36" y="210" width="7.28" height="7" fill="#FFEEE4"/>
<rect x="87.36" y="203" width="7.28" height="7" fill="#FFEEE4"/>
<rect x="87.36" y="196" width="7.28" height="7" fill="#FFEEE4"/>
<rect x="87.36" y="189" width="7.28" height="7" fill="#FFEEE4"/>
<rect x="101.92" y="182" width="7.28" height="7" fill="#FFEEE4"/>
<rect x="101.92" y="175" width="7.28" height="7" fill="#FFEEE4"/>
<rect x="109.2" y="175" width="7.28" height="7" fill="#FFEEE4"/>
<rect x="109.2" y="182" width="7.28" height="7" fill="#FFEEE4"/>
<rect x="109.2" y="161" width="7.28" height="7" fill="#FFEEE4"/>
<rect x="109.2" y="168" width="7.28" height="7" fill="#FFEEE4"/>
<rect x="116.48" y="168" width="7.28" height="7" fill="#FFEEE4"/>
<rect x="116.48" y="175" width="7.28" height="7" fill="#FFEEE4"/>
<rect x="131.04" y="196" width="7.28" height="7" fill="#FFEEE4"/>
<rect x="138.32" y="196" width="7.28" height="7" fill="#FFEEE4"/>
<rect x="131.04" y="203" width="7.28" height="7" fill="#FFEEE4"/>
<rect x="109.2" y="189" width="7.28" height="7" fill="#FFEEE4"/>
<rect x="109.2" y="196" width="7.28" height="7" fill="#FFEEE4"/>
<rect x="109.2" y="203" width="7.28" height="7" fill="#FFEEE4"/>
<rect x="109.2" y="210" width="7.28" height="7" fill="#FFEEE4"/>
<rect x="116.48" y="196" width="7.28" height="7" fill="#FFEEE4"/>
<rect x="116.48" y="203" width="7.28" height="7" fill="#FFEEE4"/>
<rect x="116.48" y="210" width="7.28" height="7" fill="#FFEEE4"/>
<rect x="101.92" y="210" width="7.28" height="7" fill="#FFEEE4"/>
<rect x="101.92" y="203" width="7.28" height="7" fill="#FFEEE4"/>
<rect x="101.92" y="196" width="7.28" height="7" fill="#FFEEE4"/>
<rect x="101.92" y="189" width="7.28" height="7" fill="#FFEEE4"/>
<rect x="72.8" y="168" width="7.28" height="7" fill="#FFEEE4"/>
<rect x="80.08" y="168" width="7.28" height="7" fill="#FFEEE4"/>
<rect x="65.52" y="182" width="7.28" height="7" fill="#FFEEE4"/>
<rect x="65.52" y="175" width="7.28" height="7" fill="#FFEEE4"/>
<rect x="65.52" y="168" width="7.28" height="7" fill="#FFEEE4"/>
<rect x="58.24" y="175" width="7.28" height="7" fill="#FFEEE4"/>
<rect x="50.96" y="175" width="7.28" height="7" fill="#FFEEE4"/>
<rect x="123.76" y="175" width="7.28" height="7" fill="#FFEEE4"/>
<rect x="116.48" y="210" width="7.28" height="7" fill="#FFEEE4"/>
<rect x="138.32" y="203" width="7.28" height="7" fill="#FFEEE4"/>
<rect x="58.24" y="259" width="7.28" height="7" fill="#FFEEE4"/>
<rect x="80.08" y="245" width="7.28" height="7" fill="#FFEEE4"/>
<rect x="87.36" y="245" width="7.28" height="7" fill="#FFEEE4"/>
<rect x="80.08" y="252" width="7.28" height="7" fill="#FFEEE4"/>
<rect x="116.48" y="273" width="7.28" height="7" fill="#FFEEE4"/>
<rect x="58.24" y="273" width="7.28" height="7" fill="#FFEEE4"/>
<rect x="58.24" y="168" width="7.28" height="7" fill="#FFEEE4"/>
<rect x="72.8" y="175" width="7.28" height="7" fill="#FFEEE4"/>
<rect x="50.96" y="182" width="7.28" height="7" fill="#FFEEE4"/>
<rect x="43.68" y="189" width="7.28" height="7" fill="#FFEEE4"/>
<rect x="43.68" y="182" width="7.28" height="7" fill="#FFEEE4"/>
<rect x="50.96" y="189" width="7.28" height="7" fill="#FFEEE4"/>
<rect x="43.68" y="196" width="7.28" height="7" fill="#FFEEE4"/>
<rect x="36.4" y="203" width="7.28" height="7" fill="#FFEEE4"/>
<rect x="36.4" y="196" width="7.28" height="7" fill="#FFEEE4"/>
<rect x="43.68" y="203" width="7.28" height="7" fill="#FFEEE4"/>
<rect x="36.4" y="210" width="7.28" height="7" fill="#FFEEE4"/>
<rect x="50.96" y="217" width="7.28" height="7" fill="#FFEEE4"/>
<rect x="50.96" y="210" width="7.28" height="7" fill="#FFEEE4"/>
<rect x="36.4" y="217" width="7.28" height="7" fill="#FFEEE4"/>
<rect x="36.4" y="224" width="7.28" height="7" fill="#FFEEE4"/>
<rect x="43.68" y="210" width="7.28" height="7" fill="#FFEEE4"/>
<rect x="43.68" y="217" width="7.28" height="7" fill="#FFEEE4"/>
<rect x="43.68" y="224" width="7.28" height="7" fill="#FFEEE4"/>
<rect x="50.96" y="231" width="7.28" height="7" fill="#FFEEE4"/>
<rect x="50.96" y="224" width="7.28" height="7" fill="#FFEEE4"/>
<rect x="36.4" y="231" width="7.28" height="7" fill="#FFEEE4"/>
<rect x="131.04" y="182" width="7.28" height="7" fill="#FFEEE4"/>
<rect x="123.76" y="189" width="7.28" height="7" fill="#FFEEE4"/>
<rect x="123.76" y="182" width="7.28" height="7" fill="#FFEEE4"/>
<rect x="131.04" y="189" width="7.28" height="7" fill="#FFEEE4"/>
<rect x="123.76" y="210" width="7.28" height="7" fill="#FFEEE4"/>
<rect x="138.32" y="217" width="7.28" height="7" fill="#FFEEE4"/>
<rect x="138.32" y="210" width="7.28" height="7" fill="#FFEEE4"/>
<rect x="123.76" y="217" width="7.28" height="7" fill="#FFEEE4"/>
<rect x="123.76" y="196" width="7.28" height="7" fill="#FFEEE4"/>
<rect x="123.76" y="203" width="7.28" height="7" fill="#FFEEE4"/>
<rect x="50.96" y="196" width="7.28" height="7" fill="#FFEEE4"/>
<rect x="50.96" y="203" width="7.28" height="7" fill="#FFEEE4"/>
<rect x="131.04" y="168" width="7.28" height="7" fill="#FFEEE4"/>
<rect x="123.76" y="168" width="7.28" height="7" fill="#FFEEE4"/>
<rect x="50.96" y="168" width="7.28" height="7" fill="#FFEEE4"/>
<rect x="131.04" y="175" width="7.28" height="7" fill="#FFEEE4"/>
<rect x="138.32" y="182" width="7.28" height="7" fill="#FFEEE4"/>
<rect x="138.32" y="189" width="7.28" height="7" fill="#FFEEE4"/>
<rect x="138.32" y="175" width="7.28" height="7" fill="#FFEEE4"/>
<rect x="36.4" y="182" width="7.28" height="7" fill="#FFEEE4"/>
<rect x="36.4" y="189" width="7.28" height="7" fill="#FFEEE4"/>
<rect x="36.4" y="175" width="7.28" height="7" fill="#FFEEE4"/>
<rect x="43.68" y="168" width="7.28" height="7" fill="#FFEEE4"/>
<rect x="43.68" y="175" width="7.28" height="7" fill="#FFEEE4"/>
<rect x="123.76" y="224" width="7.28" height="7" fill="#FFEEE4"/>
<rect x="138.32" y="231" width="7.28" height="7" fill="#FFEEE4"/>
<rect x="138.32" y="224" width="7.28" height="7" fill="#FFEEE4"/>
<rect x="131.04" y="217" width="7.28" height="7" fill="#FFEEE4"/>
<rect x="131.04" y="210" width="7.28" height="7" fill="#FFEEE4"/>
<rect x="131.04" y="224" width="7.28" height="7" fill="#FFEEE4"/>
<rect x="123.76" y="231" width="7.28" height="7" fill="#FFEEE4"/>
<rect x="72.8" y="182" width="7.28" height="7" fill="#FFEEE4"/>
<rect x="72.8" y="189" width="7.28" height="7" fill="#FFEEE4"/>
<rect x="65.52" y="189" width="7.28" height="7" fill="#FFEEE4"/>
<rect x="80.08" y="182" width="7.28" height="7" fill="#FFEEE4"/>
<rect x="80.08" y="175" width="7.28" height="7" fill="#FFEEE4"/>
<rect x="80.08" y="189" width="7.28" height="7" fill="#FFEEE4"/>
<rect x="123.76" y="119" width="7.28" height="7" fill="#FFEEE4"/>
<rect x="123.76" y="112" width="7.28" height="7" fill="#FFEEE4"/>
<rect x="123.76" y="105" width="7.28" height="7" fill="#FFEEE4"/>
<rect x="72.8" y="140" width="7.28" height="7" fill="#FFEEE4"/>
<rect x="94.64" y="140" width="7.28" height="7" fill="#FFEEE4"/>
<rect x="72.8" y="147" width="7.28" height="7" fill="#FFEEE4"/>
<rect x="80.08" y="147" width="7.28" height="7" fill="#FFEEE4"/>
<rect x="87.36" y="147" width="7.28" height="7" fill="#FFEEE4"/>
<rect x="94.64" y="147" width="7.28" height="7" fill="#FFEEE4"/>
<rect x="101.92" y="119" width="7.28" height="7" fill="#FFEEE4"/>
<rect x="101.92" y="112" width="7.28" height="7" fill="#FFEEE4"/>
<rect x="101.92" y="105" width="7.28" height="7" fill="#FFEEE4"/>
<rect x="65.52" y="98" width="7.28" height="7" fill="#FFEEE4"/>
<rect x="94.64" y="133" width="7.28" height="7" fill="black"/>
<rect x="80.08" y="140" width="7.28" height="7" fill="black"/>
<rect x="87.36" y="140" width="7.28" height="7" fill="black"/>
<rect x="109.2" y="105" width="7.28" height="7" fill="black"/>
<rect x="160.16" y="42" width="7.28" height="7" fill="black"/>
<rect x="160.16" y="49" width="7.28" height="7" fill="black"/>
<rect x="167.44" y="56" width="7.28" height="7" fill="black"/>
<rect x="167.44" y="63" width="7.28" height="7" fill="black"/>
<rect x="174.72" y="70" width="7.28" height="7" fill="black"/>
<rect x="174.72" y="77" width="7.28" height="7" fill="black"/>
<rect x="174.72" y="84" width="7.28" height="7" fill="black"/>
<rect x="174.72" y="91" width="7.28" height="7" fill="black"/>
<rect x="174.72" y="98" width="7.28" height="7" fill="black"/>
<rect x="116.48" y="224" width="7.28" height="7" fill="black"/>
<rect x="116.48" y="231" width="7.28" height="7" fill="black"/>
<rect x="58.24" y="210" width="7.28" height="7" fill="black"/>
<rect x="58.24" y="217" width="7.28" height="7" fill="black"/>
<rect x="58.24" y="224" width="7.28" height="7" fill="black"/>
<rect x="58.24" y="231" width="7.28" height="7" fill="black"/>
<rect x="43.68" y="231" width="7.28" height="7" fill="black"/>
<rect x="58.24" y="245" width="7.28" height="7" fill="black"/>
<rect x="58.24" y="252" width="7.28" height="7" fill="black"/>
<rect x="58.24" y="259" width="7.28" height="7" fill="black"/>
<rect x="50.96" y="273" width="7.28" height="7" fill="black"/>
<rect x="50.96" y="280" width="7.28" height="7" fill="black"/>
<rect x="123.76" y="273" width="7.28" height="7" fill="black"/>
<rect x="123.76" y="280" width="7.28" height="7" fill="black"/>
<rect x="58.24" y="266" width="7.28" height="7" fill="black"/>
<rect x="58.24" y="238" width="7.28" height="7" fill="black"/>
<rect x="116.48" y="238" width="7.28" height="7" fill="black"/>
<rect width="7.28" height="7" transform="matrix(-1 0 0 1 123.76 182)" fill="black"/>
<rect width="7.28" height="7" transform="matrix(-1 0 0 1 123.76 189)" fill="black"/>
<rect width="7.28" height="7" transform="matrix(-1 0 0 1 123.76 196)" fill="black"/>
<rect x="87.36" y="217" width="7.28" height="7" fill="#FFEEE4"/>
<rect width="7.28" height="7" transform="matrix(-1 0 0 1 94.64 203)" fill="black"/>
<rect width="7.28" height="7" transform="matrix(-1 0 0 1 94.64 210)" fill="black"/>
<rect width="7.28" height="7" transform="matrix(-1 0 0 1 101.92 210)" fill="black"/>
<rect width="7.28" height="7" transform="matrix(-1 0 0 1 87.36 210)" fill="black"/>
<rect width="7.28" height="7" transform="matrix(-1 0 0 1 94.64 217)" fill="black"/>
<rect x="80.08" y="224" width="7.28" height="7" fill="black"/>
<rect x="87.36" y="224" width="7.28" height="7" fill="black"/>
<rect x="94.64" y="224" width="7.28" height="7" fill="black"/>
<rect x="101.92" y="224" width="7.28" height="7" fill="black"/>
<rect x="72.8" y="224" width="7.28" height="7" fill="black"/>
<rect width="7.28" height="7" transform="matrix(-1 0 0 1 123.76 203)" fill="black"/>
<rect width="7.28" height="7" transform="matrix(-1 0 0 1 123.76 210)" fill="black"/>
<rect width="7.28" height="7" transform="matrix(-1 0 0 1 123.76 217)" fill="black"/>
<rect x="116.48" y="259" width="7.28" height="7" fill="black"/>
<rect x="116.48" y="266" width="7.28" height="7" fill="black"/>
<rect width="7.28" height="7" transform="matrix(-1 0 0 1 123.76 245)" fill="black"/>
<rect width="7.28" height="7" transform="matrix(-1 0 0 1 123.76 252)" fill="black"/>
<rect x="87.36" y="252" width="7.28" height="7" fill="black"/>
<rect x="87.36" y="273" width="7.28" height="7" fill="black"/>
<rect width="7.28" height="7" transform="matrix(-1 0 0 1 94.64 259)" fill="black"/>
<rect width="7.28" height="7" transform="matrix(-1 0 0 1 94.64 266)" fill="black"/>
<rect width="7.28" height="7" transform="matrix(-1 0 0 1 65.52 182)" fill="black"/>
<rect width="7.28" height="7" transform="matrix(-1 0 0 1 65.52 189)" fill="black"/>
<rect width="7.28" height="7" transform="matrix(-1 0 0 1 43.68 168)" fill="black"/>
<rect width="7.28" height="7" transform="matrix(-1 0 0 1 36.4 175)" fill="black"/>
<rect width="7.28" height="7" transform="matrix(-1 0 0 1 65.52 196)" fill="black"/>
<rect width="7.28" height="7" transform="matrix(-1 0 0 1 65.52 203)" fill="black"/>
<rect x="167.44" y="70" width="7.28" height="7" fill="black"/>
<rect x="167.44" y="77" width="7.28" height="7" fill="black"/>
<rect x="167.44" y="84" width="7.28" height="7" fill="black"/>
<rect x="167.44" y="91" width="7.28" height="7" fill="black"/>
<rect x="167.44" y="98" width="7.28" height="7" fill="black"/>
<rect x="167.44" y="105" width="7.28" height="7" fill="black"/>
<rect x="160.16" y="70" width="7.28" height="7" fill="black"/>
<rect x="160.16" y="77" width="7.28" height="7" fill="black"/>
<rect x="160.16" y="84" width="7.28" height="7" fill="black"/>
<rect x="160.16" y="91" width="7.28" height="7" fill="black"/>
<rect x="160.16" y="98" width="7.28" height="7" fill="black"/>
<rect x="160.16" y="105" width="7.28" height="7" fill="black"/>
<rect x="160.16" y="112" width="7.28" height="7" fill="black"/>
<rect x="160.16" y="119" width="7.28" height="7" fill="black"/>
<rect x="152.88" y="70" width="7.28" height="7" fill="black"/>
<rect x="152.88" y="77" width="7.28" height="7" fill="black"/>
<rect x="152.88" y="84" width="7.28" height="7" fill="black"/>
<rect x="152.88" y="91" width="7.28" height="7" fill="black"/>
<rect x="152.88" y="98" width="7.28" height="7" fill="black"/>
<rect x="152.88" y="105" width="7.28" height="7" fill="#FFEEE4"/>
<rect x="152.88" y="112" width="7.28" height="7" fill="#FFEEE4"/>
<rect x="152.88" y="119" width="7.28" height="7" fill="black"/>
<rect x="145.6" y="70" width="7.28" height="7" fill="black"/>
<rect x="145.6" y="77" width="7.28" height="7" fill="black"/>
<rect x="145.6" y="84" width="7.28" height="7" fill="black"/>
<rect x="145.6" y="91" width="7.28" height="7" fill="black"/>
<rect x="138.32" y="70" width="7.28" height="7" fill="black"/>
<rect x="138.32" y="77" width="7.28" height="7" fill="black"/>
<rect x="138.32" y="84" width="7.28" height="7" fill="black"/>
<rect x="138.32" y="91" width="7.28" height="7" fill="black"/>
<rect x="131.04" y="70" width="7.28" height="7" fill="black"/>
<rect x="131.04" y="77" width="7.28" height="7" fill="black"/>
<rect x="131.04" y="84" width="7.28" height="7" fill="black"/>
<rect x="131.04" y="91" width="7.28" height="7" fill="black"/>
<rect x="123.76" y="70" width="7.28" height="7" fill="black"/>
<rect x="123.76" y="77" width="7.28" height="7" fill="black"/>
<rect x="116.48" y="77" width="7.28" height="7" fill="black"/>
<rect x="109.2" y="77" width="7.28" height="7" fill="black"/>
<rect x="101.92" y="77" width="7.28" height="7" fill="black"/>
<rect x="160.16" y="56" width="7.28" height="7" fill="black"/>
<rect x="160.16" y="63" width="7.28" height="7" fill="black"/>
<rect x="152.88" y="56" width="7.28" height="7" fill="black"/>
<rect x="152.88" y="63" width="7.28" height="7" fill="black"/>
<rect x="145.6" y="56" width="7.28" height="7" fill="black"/>
<rect x="145.6" y="63" width="7.28" height="7" fill="black"/>
<rect x="138.32" y="56" width="7.28" height="7" fill="black"/>
<rect x="138.32" y="63" width="7.28" height="7" fill="black"/>
<rect x="131.04" y="56" width="7.28" height="7" fill="black"/>
<rect x="131.04" y="63" width="7.28" height="7" fill="black"/>
<rect x="123.76" y="56" width="7.28" height="7" fill="black"/>
<rect x="123.76" y="63" width="7.28" height="7" fill="black"/>
<rect x="116.48" y="70" width="7.28" height="7" fill="black"/>
<rect x="109.2" y="70" width="7.28" height="7" fill="black"/>
<rect x="101.92" y="70" width="7.28" height="7" fill="black"/>
<rect x="116.48" y="84" width="7.28" height="7" fill="black"/>
<rect x="101.92" y="84" width="7.28" height="7" fill="black"/>
<rect x="65.52" y="84" width="7.28" height="7" fill="black"/>
<rect x="21.84" y="70" width="7.28" height="7" fill="black"/>
<rect x="43.68" y="14" width="7.28" height="7" fill="black"/>
<rect x="116.48" y="63" width="7.28" height="7" fill="black"/>
<rect x="109.2" y="63" width="7.28" height="7" fill="black"/>
<rect x="123.76" y="84" width="7.28" height="7" fill="black"/>
<rect x="123.76" y="91" width="7.28" height="7" fill="black"/>
<rect x="145.6" y="98" width="7.28" height="7" fill="black"/>
<rect x="145.6" y="105" width="7.28" height="7" fill="#FFEEE4"/>
<rect x="145.6" y="112" width="7.28" height="7" fill="#FFEEE4"/>
<rect x="145.6" y="119" width="7.28" height="7" fill="#FFEEE4"/>
<rect x="152.88" y="126" width="7.28" height="7" fill="black"/>
<rect x="145.6" y="126" width="7.28" height="7" fill="black"/>
<rect x="145.6" y="133" width="7.28" height="7" fill="black"/>
<rect x="116.48" y="7" width="7.28" height="7" fill="black"/>
<rect x="116.48" y="14" width="7.28" height="7" fill="black"/>
<rect x="116.48" y="21" width="7.28" height="7" fill="black"/>
<rect x="123.76" y="14" width="7.28" height="7" fill="black"/>
<rect x="123.76" y="21" width="7.28" height="7" fill="black"/>
<rect x="131.04" y="21" width="7.28" height="7" fill="black"/>
<rect x="138.32" y="21" width="7.28" height="7" fill="black"/>
<rect x="116.48" y="28" width="7.28" height="7" fill="black"/>
<rect x="116.48" y="35" width="7.28" height="7" fill="black"/>
<rect x="116.48" y="42" width="7.28" height="7" fill="black"/>
<rect x="116.48" y="49" width="7.28" height="7" fill="black"/>
<rect x="123.76" y="42" width="7.28" height="7" fill="black"/>
<rect x="123.76" y="49" width="7.28" height="7" fill="black"/>
<rect x="116.48" y="56" width="7.28" height="7" fill="black"/>
<rect x="109.2" y="7" width="7.28" height="7" fill="black"/>
<rect x="109.2" y="14" width="7.28" height="7" fill="black"/>
<rect x="109.2" y="21" width="7.28" height="7" fill="black"/>
<rect x="109.2" y="28" width="7.28" height="7" fill="black"/>
<rect x="109.2" y="35" width="7.28" height="7" fill="black"/>
<rect x="109.2" y="42" width="7.28" height="7" fill="black"/>
<rect x="109.2" y="49" width="7.28" height="7" fill="black"/>
<rect x="109.2" y="56" width="7.28" height="7" fill="black"/>
<rect x="101.92" y="7" width="7.28" height="7" fill="black"/>
<rect x="101.92" y="14" width="7.28" height="7" fill="black"/>
<rect x="101.92" y="21" width="7.28" height="7" fill="black"/>
<rect x="101.92" y="28" width="7.28" height="7" fill="black"/>
<rect x="101.92" y="35" width="7.28" height="7" fill="black"/>
<rect x="101.92" y="42" width="7.28" height="7" fill="black"/>
<rect x="101.92" y="49" width="7.28" height="7" fill="black"/>
<rect x="101.92" y="56" width="7.28" height="7" fill="black"/>
<rect x="94.64" y="7" width="7.28" height="7" fill="black"/>
<rect x="94.64" y="14" width="7.28" height="7" fill="black"/>
<rect x="94.64" y="21" width="7.28" height="7" fill="black"/>
<rect x="94.64" y="28" width="7.28" height="7" fill="black"/>
<rect x="94.64" y="35" width="7.28" height="7" fill="black"/>
<rect x="94.64" y="42" width="7.28" height="7" fill="black"/>
<rect x="94.64" y="49" width="7.28" height="7" fill="black"/>
<rect x="94.64" y="56" width="7.28" height="7" fill="black"/>
<rect x="87.36" y="7" width="7.28" height="7" fill="black"/>
<rect x="87.36" y="14" width="7.28" height="7" fill="black"/>
<rect x="87.36" y="21" width="7.28" height="7" fill="black"/>
<rect x="87.36" y="28" width="7.28" height="7" fill="black"/>
<rect x="87.36" y="35" width="7.28" height="7" fill="black"/>
<rect x="87.36" y="42" width="7.28" height="7" fill="black"/>
<rect x="87.36" y="49" width="7.28" height="7" fill="black"/>
<rect x="87.36" y="56" width="7.28" height="7" fill="black"/>
<rect x="80.08" y="7" width="7.28" height="7" fill="black"/>
<rect x="80.08" y="14" width="7.28" height="7" fill="black"/>
<rect x="80.08" y="21" width="7.28" height="7" fill="black"/>
<rect x="80.08" y="28" width="7.28" height="7" fill="black"/>
<rect x="80.08" y="35" width="7.28" height="7" fill="black"/>
<rect x="72.8" y="7" width="7.28" height="7" fill="black"/>
<rect x="72.8" y="14" width="7.28" height="7" fill="black"/>
<rect x="72.8" y="21" width="7.28" height="7" fill="black"/>
<rect x="72.8" y="28" width="7.28" height="7" fill="black"/>
<rect x="72.8" y="35" width="7.28" height="7" fill="black"/>
<rect x="65.52" y="7" width="7.28" height="7" fill="black"/>
<rect x="65.52" y="14" width="7.28" height="7" fill="black"/>
<rect x="65.52" y="21" width="7.28" height="7" fill="black"/>
<rect x="65.52" y="28" width="7.28" height="7" fill="black"/>
<rect x="65.52" y="35" width="7.28" height="7" fill="black"/>
<rect x="58.24" y="7" width="7.28" height="7" fill="black"/>
<rect x="58.24" y="14" width="7.28" height="7" fill="black"/>
<rect x="58.24" y="21" width="7.28" height="7" fill="black"/>
<rect x="58.24" y="28" width="7.28" height="7" fill="black"/>
<rect x="58.24" y="35" width="7.28" height="7" fill="black"/>
<rect x="50.96" y="7" width="7.28" height="7" fill="black"/>
<rect x="50.96" y="14" width="7.28" height="7" fill="black"/>
<rect x="50.96" y="21" width="7.28" height="7" fill="black"/>
<rect x="50.96" y="28" width="7.28" height="7" fill="black"/>
<rect x="50.96" y="35" width="7.28" height="7" fill="black"/>
<rect x="43.68" y="21" width="7.28" height="7" fill="black"/>
<rect x="43.68" y="28" width="7.28" height="7" fill="black"/>
<rect x="43.68" y="35" width="7.28" height="7" fill="black"/>
<rect x="36.4" y="21" width="7.28" height="7" fill="black"/>
<rect x="36.4" y="28" width="7.28" height="7" fill="black"/>
<rect x="36.4" y="35" width="7.28" height="7" fill="black"/>
<rect x="29.12" y="21" width="7.28" height="7" fill="black"/>
<rect x="29.12" y="28" width="7.28" height="7" fill="black"/>
<rect x="29.12" y="35" width="7.28" height="7" fill="black"/>
<rect x="65.52" y="42" width="7.28" height="7" fill="black"/>
<rect x="65.52" y="49" width="7.28" height="7" fill="black"/>
<rect x="58.24" y="42" width="7.28" height="7" fill="black"/>
<rect x="58.24" y="49" width="7.28" height="7" fill="black"/>
<rect x="50.96" y="42" width="7.28" height="7" fill="black"/>
<rect x="50.96" y="49" width="7.28" height="7" fill="black"/>
<rect x="43.68" y="42" width="7.28" height="7" fill="black"/>
<rect x="43.68" y="49" width="7.28" height="7" fill="black"/>
<rect x="36.4" y="42" width="7.28" height="7" fill="black"/>
<rect x="36.4" y="49" width="7.28" height="7" fill="black"/>
<rect x="29.12" y="42" width="7.28" height="7" fill="black"/>
<rect x="29.12" y="49" width="7.28" height="7" fill="black"/>
<rect x="21.84" y="42" width="7.28" height="7" fill="black"/>
<rect x="21.84" y="49" width="7.28" height="7" fill="black"/>
<rect x="14.56" y="42" width="7.28" height="7" fill="black"/>
<rect x="14.56" y="49" width="7.28" height="7" fill="black"/>
<rect x="152.88" y="42" width="7.28" height="7" fill="black"/>
<rect x="152.88" y="49" width="7.28" height="7" fill="black"/>
<rect x="145.6" y="42" width="7.28" height="7" fill="black"/>
<rect x="145.6" y="49" width="7.28" height="7" fill="black"/>
<rect x="145.6" y="28" width="7.28" height="7" fill="black"/>
<rect x="145.6" y="35" width="7.28" height="7" fill="black"/>
<rect x="138.32" y="28" width="7.28" height="7" fill="black"/>
<rect x="138.32" y="35" width="7.28" height="7" fill="black"/>
<rect x="131.04" y="28" width="7.28" height="7" fill="black"/>
<rect x="131.04" y="35" width="7.28" height="7" fill="black"/>
<rect x="123.76" y="28" width="7.28" height="7" fill="black"/>
<rect x="123.76" y="35" width="7.28" height="7" fill="black"/>
<rect x="58.24" y="56" width="7.28" height="7" fill="black"/>
<rect x="58.24" y="63" width="7.28" height="7" fill="black"/>
<rect x="50.96" y="56" width="7.28" height="7" fill="black"/>
<rect x="50.96" y="63" width="7.28" height="7" fill="black"/>
<rect x="43.68" y="56" width="7.28" height="7" fill="black"/>
<rect x="43.68" y="63" width="7.28" height="7" fill="black"/>
<rect x="36.4" y="56" width="7.28" height="7" fill="black"/>
<rect x="36.4" y="63" width="7.28" height="7" fill="black"/>
<rect x="43.68" y="70" width="7.28" height="7" fill="black"/>
<rect x="43.68" y="77" width="7.28" height="7" fill="black"/>
<rect x="36.4" y="70" width="7.28" height="7" fill="black"/>
<rect x="36.4" y="77" width="7.28" height="7" fill="black"/>
<rect x="43.68" y="84" width="7.28" height="7" fill="black"/>
<rect x="50.96" y="77" width="7.28" height="7" fill="black"/>
<rect x="50.96" y="84" width="7.28" height="7" fill="black"/>
<rect x="58.24" y="70" width="7.28" height="7" fill="black"/>
<rect x="58.24" y="77" width="7.28" height="7" fill="black"/>
<rect x="7.28" y="56" width="7.28" height="7" fill="black"/>
<rect x="7.28" y="63" width="7.28" height="7" fill="black"/>
<rect x="21.84" y="28" width="7.28" height="7" fill="black"/>
<rect x="21.84" y="35" width="7.28" height="7" fill="black"/>
<rect x="43.68" y="91" width="7.28" height="7" fill="black"/>
<rect x="36.4" y="84" width="7.28" height="7" fill="black"/>
<rect x="36.4" y="91" width="7.28" height="7" fill="black"/>
<rect x="29.12" y="56" width="7.28" height="7" fill="black"/>
<rect x="29.12" y="63" width="7.28" height="7" fill="black"/>
<rect x="80.08" y="42" width="7.28" height="7" fill="black"/>
<rect x="80.08" y="49" width="7.28" height="7" fill="black"/>
<rect x="80.08" y="56" width="7.28" height="7" fill="black"/>
<rect x="94.64" y="63" width="7.28" height="7" fill="black"/>
<rect x="94.64" y="70" width="7.28" height="7" fill="black"/>
<rect x="94.64" y="77" width="7.28" height="7" fill="black"/>
<rect x="94.64" y="84" width="7.28" height="7" fill="black"/>
<rect x="87.36" y="77" width="7.28" height="7" fill="black"/>
<rect x="87.36" y="84" width="7.28" height="7" fill="black"/>
<rect x="87.36" y="91" width="7.28" height="7" fill="black"/>
<rect x="94.64" y="91" width="7.28" height="7" fill="black"/>
<rect x="87.36" y="63" width="7.28" height="7" fill="black"/>
<rect x="80.08" y="63" width="7.28" height="7" fill="black"/>
<rect x="80.08" y="70" width="7.28" height="7" fill="black"/>
<rect x="80.08" y="77" width="7.28" height="7" fill="black"/>
<rect x="14.56" y="70" width="7.28" height="7" fill="black"/>
<rect x="14.56" y="77" width="7.28" height="7" fill="black"/>
<rect x="14.56" y="84" width="7.28" height="7" fill="black"/>
<rect x="14.56" y="91" width="7.28" height="7" fill="black"/>
<rect x="14.56" y="98" width="7.28" height="7" fill="black"/>
<rect x="14.56" y="105" width="7.28" height="7" fill="black"/>
<rect x="14.56" y="112" width="7.28" height="7" fill="black"/>
<rect x="7.28" y="70" width="7.28" height="7" fill="black"/>
<rect x="7.28" y="77" width="7.28" height="7" fill="black"/>
<rect x="7.28" y="84" width="7.28" height="7" fill="black"/>
<rect x="7.28" y="91" width="7.28" height="7" fill="black"/>
<rect x="7.28" y="98" width="7.28" height="7" fill="black"/>
<rect x="29.12" y="77" width="7.28" height="7" fill="black"/>
<rect x="29.12" y="84" width="7.28" height="7" fill="black"/>
<rect x="29.12" y="91" width="7.28" height="7" fill="black"/>
<rect x="29.12" y="98" width="7.28" height="7" fill="black"/>
<rect x="29.12" y="105" width="7.28" height="7" fill="#FFEEE4"/>
<rect x="29.12" y="112" width="7.28" height="7" fill="#FFEEE4"/>
<rect x="29.12" y="119" width="7.28" height="7" fill="black"/>
<rect x="21.84" y="77" width="7.28" height="7" fill="black"/>
<rect x="21.84" y="84" width="7.28" height="7" fill="black"/>
<rect x="21.84" y="91" width="7.28" height="7" fill="black"/>
<rect x="21.84" y="98" width="7.28" height="7" fill="black"/>
<rect x="21.84" y="105" width="7.28" height="7" fill="black"/>
<rect x="21.84" y="112" width="7.28" height="7" fill="black"/>
<rect x="21.84" y="119" width="7.28" height="7" fill="black"/>
<rect x="29.12" y="126" width="7.28" height="7" fill="black"/>
<rect y="70" width="7.28" height="7" fill="black"/>
<rect y="77" width="7.28" height="7" fill="black"/>
<rect y="84" width="7.28" height="7" fill="black"/>
<rect y="91" width="7.28" height="7" fill="black"/>
<rect y="98" width="7.28" height="7" fill="black"/>
<rect x="152.88" y="28" width="7.28" height="7" fill="black"/>
<rect x="145.6" y="21" width="7.28" height="7" fill="black"/>
<rect x="138.32" y="14" width="7.28" height="7" fill="black"/>
<rect x="131.04" y="14" width="7.28" height="7" fill="black"/>
<rect x="123.76" y="7" width="7.28" height="7" fill="black"/>
<rect x="116.48" width="7.28" height="7" fill="black"/>
<rect x="109.2" width="7.28" height="7" fill="black"/>
<rect x="101.92" width="7.28" height="7" fill="black"/>
<rect x="94.64" width="7.28" height="7" fill="black"/>
<rect x="87.36" width="7.28" height="7" fill="black"/>
<rect x="80.08" width="7.28" height="7" fill="black"/>
<rect x="72.8" width="7.28" height="7" fill="black"/>
<rect x="65.52" width="7.28" height="7" fill="black"/>
<rect x="58.24" width="7.28" height="7" fill="black"/>
<rect x="50.96" width="7.28" height="7" fill="black"/>
<rect x="152.88" y="35" width="7.28" height="7" fill="black"/>
<rect width="7.28" height="7" transform="matrix(-1 0 0 1 14.56 42)" fill="black"/>
<rect width="7.28" height="7" transform="matrix(-1 0 0 1 14.56 49)" fill="black"/>
<rect width="7.28" height="7" transform="matrix(-1 0 0 1 7.28 56)" fill="black"/>
<rect width="7.28" height="7" transform="matrix(-1 0 0 1 7.28 63)" fill="black"/>
<rect width="7.28" height="7" transform="matrix(-1 0 0 1 21.84 28)" fill="black"/>
<rect width="7.28" height="7" transform="matrix(-1 0 0 1 29.12 21)" fill="black"/>
<rect width="7.28" height="7" transform="matrix(-1 0 0 1 36.4 14)" fill="black"/>
<rect width="7.28" height="7" transform="matrix(-1 0 0 1 43.68 14)" fill="black"/>
<rect width="7.28" height="7" transform="matrix(-1 0 0 1 50.96 7)" fill="black"/>
<rect width="7.28" height="7" transform="matrix(-1 0 0 1 21.84 35)" fill="black"/>
<rect x="116.48" y="105" width="7.28" height="7" fill="black"/>
<rect x="109.2" y="112" width="7.28" height="7" fill="white" fill-opacity="0.5"/>
<rect x="116.48" y="112" width="7.28" height="7" fill="black"/>
<rect x="109.2" y="119" width="7.28" height="7" fill="black"/>
<rect x="116.48" y="119" width="7.28" height="7" fill="black"/>
<rect x="36.4" y="196" width="7.28" height="7" fill="black"/>
<rect x="36.4" y="203" width="7.28" height="7" fill="black"/>
<rect x="36.4" y="210" width="7.28" height="7" fill="black"/>
<rect x="36.4" y="217" width="7.28" height="7" fill="black"/>
<rect x="36.4" y="224" width="7.28" height="7" fill="black"/>
<rect x="36.4" y="231" width="7.28" height="7" fill="black"/>
<rect width="7.28" height="7" transform="matrix(-1 0 0 1 145.6 203)" fill="black"/>
<rect width="7.28" height="7" transform="matrix(-1 0 0 1 145.6 196)" fill="black"/>
<rect width="7.28" height="7" transform="matrix(-1 0 0 1 145.6 210)" fill="black"/>
<rect width="7.28" height="7" transform="matrix(-1 0 0 1 145.6 217)" fill="black"/>
<rect width="7.28" height="7" transform="matrix(-1 0 0 1 145.6 224)" fill="black"/>
<rect width="7.28" height="7" transform="matrix(-1 0 0 1 145.6 231)" fill="black"/>
<rect x="80.08" y="196" width="7.28" height="7" fill="black"/>
<rect x="72.8" y="196" width="7.28" height="7" fill="black"/>
<rect x="87.36" y="196" width="7.28" height="7" fill="black"/>
<rect x="94.64" y="196" width="7.28" height="7" fill="black"/>
<rect x="101.92" y="196" width="7.28" height="7" fill="black"/>
</svg>
