<svg width="39" height="35" viewBox="0 0 39 35" fill="none" xmlns="http://www.w3.org/2000/svg">
<rect x="37.4399" width="1.56" height="1.4" fill="#FF801E"/>
<rect x="37.4399" y="1.40002" width="1.56" height="1.4" fill="#FF801E"/>
<rect x="29.6399" width="1.56" height="1.4" fill="#FF801E"/>
<rect x="28.0801" width="1.56" height="1.4" fill="#FF801E"/>
<rect x="26.52" width="1.56" height="1.4" fill="#FF801E"/>
<rect x="24.96" width="1.56" height="1.4" fill="#FF801E"/>
<rect x="23.3999" width="1.56" height="1.4" fill="#FF801E"/>
<rect x="21.8401" width="1.56" height="1.4" fill="#FF801E"/>
<rect x="20.28" width="1.56" height="1.4" fill="#FF801E"/>
<rect x="18.72" width="1.56" height="1.4" fill="#FF801E"/>
<rect x="17.1599" width="1.56" height="1.4" fill="#FF801E"/>
<rect x="15.6001" width="1.56" height="1.4" fill="#FF801E"/>
<rect x="14.04" width="1.56" height="1.4" fill="#FF801E"/>
<rect x="12.48" width="1.56" height="1.4" fill="#FF801E"/>
<rect x="26.52" y="5.59998" width="1.56" height="1.4" fill="#FF801E"/>
<rect x="24.96" y="5.59998" width="1.56" height="1.4" fill="#FF801E"/>
<rect x="26.52" y="7" width="1.56" height="1.4" fill="#FF801E"/>
<rect x="24.96" y="7" width="1.56" height="1.4" fill="#FF801E"/>
<rect x="24.96" y="8.40002" width="1.56" height="1.4" fill="#FF801E"/>
<rect x="23.3999" y="8.40002" width="1.56" height="1.4" fill="#FF801E"/>
<rect x="23.3999" y="9.80005" width="1.56" height="1.4" fill="#FF801E"/>
<rect x="23.3999" y="7" width="1.56" height="1.4" fill="#FF801E"/>
<rect x="21.8401" y="7" width="1.56" height="1.4" fill="#FF801E"/>
<rect x="20.28" y="7" width="1.56" height="1.4" fill="#FF801E"/>
<rect x="18.72" y="7" width="1.56" height="1.4" fill="#FF801E"/>
<rect x="17.1599" y="7" width="1.56" height="1.4" fill="#FF801E"/>
<rect x="15.6001" y="7" width="1.56" height="1.4" fill="#FF801E"/>
<rect x="14.04" y="7" width="1.56" height="1.4" fill="#FF801E"/>
<rect x="12.48" y="7" width="1.56" height="1.4" fill="#FF801E"/>
<rect x="15.6001" y="15.4" width="1.56" height="1.4" fill="#FF801E"/>
<rect x="14.04" y="15.4" width="1.56" height="1.4" fill="#FF801E"/>
<rect x="23.3999" y="11.2" width="1.56" height="1.4" fill="#FF801E"/>
<rect x="23.3999" y="12.6" width="1.56" height="1.4" fill="#FF801E"/>
<rect x="23.3999" y="14" width="1.56" height="1.4" fill="#FF801E"/>
<rect x="23.3999" y="15.4" width="1.56" height="1.4" fill="#FF801E"/>
<rect x="23.3999" y="16.8" width="1.56" height="1.4" fill="#FF801E"/>
<rect x="24.96" y="16.8" width="1.56" height="1.4" fill="#FF801E"/>
<rect x="26.52" y="16.8" width="1.56" height="1.4" fill="#FF801E"/>
<rect x="24.96" y="18.2" width="1.56" height="1.4" fill="#FF801E"/>
<rect x="24.96" y="19.6" width="1.56" height="1.4" fill="#FF801E"/>
<rect x="26.52" y="18.2" width="1.56" height="1.4" fill="#FF801E"/>
<rect x="28.0801" y="18.2" width="1.56" height="1.4" fill="#FF801E"/>
<rect x="29.6401" y="18.2" width="1.56" height="1.4" fill="#FF801E"/>
<rect x="29.6401" y="16.8" width="1.56" height="1.4" fill="#FF801E"/>
<rect x="31.2" y="16.8" width="1.56" height="1.4" fill="#FF801E"/>
<rect x="32.76" y="15.4" width="1.56" height="1.4" fill="#FF801E"/>
<rect x="31.2" y="15.4" width="1.56" height="1.4" fill="#FF801E"/>
<rect x="32.76" y="14" width="1.56" height="1.4" fill="#FF801E"/>
<rect x="32.76" y="12.6" width="1.56" height="1.4" fill="#FF801E"/>
<rect x="32.76" y="11.2" width="1.56" height="1.4" fill="#FF801E"/>
<rect x="32.76" y="9.80005" width="1.56" height="1.4" fill="#FF801E"/>
<rect x="32.76" y="8.40002" width="1.56" height="1.4" fill="#FF801E"/>
<rect x="32.76" y="7" width="1.56" height="1.4" fill="#FF801E"/>
<rect x="26.52" y="15.4" width="1.56" height="1.4" fill="#FF801E"/>
<rect x="26.52" y="14" width="1.56" height="1.4" fill="#FF801E"/>
<rect x="26.52" y="12.6" width="1.56" height="1.4" fill="#FF801E"/>
<rect x="28.0801" y="12.6" width="1.56" height="1.4" fill="#FF801E"/>
<rect x="28.0801" y="11.2" width="1.56" height="1.4" fill="#FF801E"/>
<rect x="28.0801" y="9.80005" width="1.56" height="1.4" fill="#FF801E"/>
<rect x="29.6401" y="9.80005" width="1.56" height="1.4" fill="#FF801E"/>
<rect x="29.6401" y="8.40002" width="1.56" height="1.4" fill="#FF801E"/>
<rect x="29.6401" y="7" width="1.56" height="1.4" fill="#FF801E"/>
<rect x="31.2" y="7" width="1.56" height="1.4" fill="#FF801E"/>
<rect x="31.2" y="8.40002" width="1.56" height="1.4" fill="#FF801E"/>
<rect x="24.96" y="15.4" width="1.56" height="1.4" fill="#FF801E"/>
<rect x="24.96" y="22.4" width="1.56" height="1.4" fill="#FF801E"/>
<rect x="26.52" y="22.4" width="1.56" height="1.4" fill="#FF801E"/>
<rect x="26.52" y="21" width="1.56" height="1.4" fill="#FF801E"/>
<rect x="26.52" y="19.6" width="1.56" height="1.4" fill="#FF801E"/>
<rect x="24.96" y="21" width="1.56" height="1.4" fill="#FF801E"/>
<rect x="26.52" y="23.8" width="1.56" height="1.4" fill="#FF801E"/>
<rect x="28.0801" y="22.4" width="1.56" height="1.4" fill="#FF801E"/>
<rect x="28.0801" y="23.8" width="1.56" height="1.4" fill="#FF801E"/>
<rect x="24.96" y="23.8" width="1.56" height="1.4" fill="#FF801E"/>
<rect x="23.3999" y="22.4" width="1.56" height="1.4" fill="#FF801E"/>
<rect x="23.3999" y="23.8" width="1.56" height="1.4" fill="#FF801E"/>
<rect x="31.2" y="5.59998" width="1.56" height="1.4" fill="#FF801E"/>
<rect x="32.76" y="5.59998" width="1.56" height="1.4" fill="#FF801E"/>
<rect x="31.2" width="1.56" height="1.4" fill="#FF801E"/>
<rect x="35.8799" width="1.56" height="1.4" fill="#FF801E"/>
<rect x="32.76" y="4.19995" width="1.56" height="1.4" fill="#FF801E"/>
<rect x="34.3201" y="4.19995" width="1.56" height="1.4" fill="#FF801E"/>
<rect x="34.3201" y="5.59998" width="1.56" height="1.4" fill="#FF801E"/>
<rect x="34.3201" y="2.80005" width="1.56" height="1.4" fill="#FF801E"/>
<rect x="35.8799" y="2.80005" width="1.56" height="1.4" fill="#FF801E"/>
<rect x="34.3201" y="1.40002" width="1.56" height="1.4" fill="#FF801E"/>
<rect x="35.8799" y="1.40002" width="1.56" height="1.4" fill="#FF801E"/>
<rect x="31.2" y="1.40002" width="1.56" height="1.4" fill="#FF801E"/>
<rect x="32.76" y="1.40002" width="1.56" height="1.4" fill="#FF801E"/>
<rect x="29.6401" y="2.80005" width="1.56" height="1.4" fill="#FF801E"/>
<rect x="26.52" y="4.19995" width="1.56" height="1.4" fill="#FF801E"/>
<rect x="28.0801" y="2.80005" width="1.56" height="1.4" fill="#FF801E"/>
<rect x="31.2" y="2.80005" width="1.56" height="1.4" fill="#FF801E"/>
<rect x="28.0801" y="4.19995" width="1.56" height="1.4" fill="#FF801E"/>
<rect x="29.6401" y="4.19995" width="1.56" height="1.4" fill="#FF801E"/>
<rect x="21.8401" y="11.2" width="1.56" height="1.4" fill="#FF801E"/>
<rect x="20.28" y="11.2" width="1.56" height="1.4" fill="#FF801E"/>
<rect x="18.72" y="11.2" width="1.56" height="1.4" fill="#FF801E"/>
<rect x="17.1599" y="11.2" width="1.56" height="1.4" fill="#FF801E"/>
<rect x="15.6001" y="11.2" width="1.56" height="1.4" fill="#FF801E"/>
<rect x="14.04" y="11.2" width="1.56" height="1.4" fill="#FF801E"/>
<rect x="12.48" y="11.2" width="1.56" height="1.4" fill="#FF801E"/>
<rect x="21.8401" y="15.4" width="1.56" height="1.4" fill="#FF801E"/>
<rect x="20.28" y="15.4" width="1.56" height="1.4" fill="#FF801E"/>
<rect x="18.72" y="15.4" width="1.56" height="1.4" fill="#FF801E"/>
<rect x="17.1599" y="15.4" width="1.56" height="1.4" fill="#FF801E"/>
<rect x="10.9199" width="1.56" height="1.4" fill="#FF801E"/>
<rect x="9.36011" width="1.56" height="1.4" fill="#FF801E"/>
<rect x="28.0801" y="33.6" width="1.56" height="1.4" fill="#FF801E"/>
<rect x="26.52" y="33.6" width="1.56" height="1.4" fill="#FF801E"/>
<rect x="24.96" y="33.6" width="1.56" height="1.4" fill="#FF801E"/>
<rect x="23.3999" y="33.6" width="1.56" height="1.4" fill="#FF801E"/>
<rect x="21.8401" y="33.6" width="1.56" height="1.4" fill="#FF801E"/>
<rect x="35.8799" y="33.6" width="1.56" height="1.4" fill="#FF801E"/>
<rect x="34.3201" y="33.6" width="1.56" height="1.4" fill="#FF801E"/>
<rect x="32.76" y="33.6" width="1.56" height="1.4" fill="#FF801E"/>
<rect x="31.2" y="33.6" width="1.56" height="1.4" fill="#FF801E"/>
<rect x="29.6401" y="33.6" width="1.56" height="1.4" fill="#FF801E"/>
<rect x="28.0801" y="28" width="1.56" height="1.4" fill="#FF801E"/>
<rect x="26.52" y="28" width="1.56" height="1.4" fill="#FF801E"/>
<rect x="24.96" y="28" width="1.56" height="1.4" fill="#FF801E"/>
<rect x="23.3999" y="28" width="1.56" height="1.4" fill="#FF801E"/>
<rect x="21.8401" y="28" width="1.56" height="1.4" fill="#FF801E"/>
<rect x="20.28" y="29.4" width="1.56" height="1.4" fill="#FF801E"/>
<rect x="18.72" y="28" width="1.56" height="1.4" fill="#FF801E"/>
<rect x="17.1599" y="28" width="1.56" height="1.4" fill="#FF801E"/>
<rect x="15.6001" y="28" width="1.56" height="1.4" fill="#FF801E"/>
<rect x="14.04" y="28" width="1.56" height="1.4" fill="#FF801E"/>
<rect x="34.3201" y="28" width="1.56" height="1.4" fill="#FF801E"/>
<rect x="32.76" y="28" width="1.56" height="1.4" fill="#FF801E"/>
<rect x="31.2" y="28" width="1.56" height="1.4" fill="#FF801E"/>
<rect x="29.6401" y="28" width="1.56" height="1.4" fill="#FF801E"/>
<rect x="20.28" y="33.6" width="1.56" height="1.4" fill="#FF801E"/>
<rect x="18.72" y="33.6" width="1.56" height="1.4" fill="#FF801E"/>
<rect x="17.1599" y="33.6" width="1.56" height="1.4" fill="#FF801E"/>
<rect x="15.6001" y="33.6" width="1.56" height="1.4" fill="#FF801E"/>
<rect x="14.04" y="33.6" width="1.56" height="1.4" fill="#FF801E"/>
<rect x="12.48" y="33.6" width="1.56" height="1.4" fill="#FF801E"/>
<rect x="10.9199" y="33.6" width="1.56" height="1.4" fill="#FF801E"/>
<rect x="7.80005" width="1.56" height="1.4" fill="#FF801E"/>
<rect x="6.23999" width="1.56" height="1.4" fill="#FF801E"/>
<rect x="4.67993" width="1.56" height="1.4" fill="#FF801E"/>
<rect x="3.12012" width="1.56" height="1.4" fill="#FF801E"/>
<rect x="1.56006" y="1.40002" width="1.56" height="1.4" fill="#FF801E"/>
<rect y="2.80005" width="1.56" height="1.4" fill="#FF801E"/>
<rect x="6.23999" y="1.40002" width="1.56" height="1.4" fill="#FF801E"/>
<rect x="7.80005" y="2.80005" width="1.56" height="1.4" fill="#FF801E"/>
<rect y="4.19995" width="1.56" height="1.4" fill="#FF801E"/>
<rect y="5.59998" width="1.56" height="1.4" fill="#FF801E"/>
<rect x="7.80005" y="4.19995" width="1.56" height="1.4" fill="#FF801E"/>
<rect x="1.56006" y="7" width="1.56" height="1.4" fill="#FF801E"/>
<rect x="3.12012" y="7" width="1.56" height="1.4" fill="#FF801E"/>
<rect x="4.67993" y="7" width="1.56" height="1.4" fill="#FF801E"/>
<rect x="6.23999" y="7" width="1.56" height="1.4" fill="#FF801E"/>
<rect x="7.80005" y="7" width="1.56" height="1.4" fill="#FF801E"/>
<rect x="7.80005" y="5.59998" width="1.56" height="1.4" fill="#FF801E"/>
<rect x="7.80005" y="8.40002" width="1.56" height="1.4" fill="#FF801E"/>
<rect x="7.80005" y="9.80005" width="1.56" height="1.4" fill="#FF801E"/>
<rect x="7.80005" y="12.6" width="1.56" height="1.4" fill="#FF801E"/>
<rect x="7.80005" y="11.2" width="1.56" height="1.4" fill="#FF801E"/>
<rect x="7.80005" y="14" width="1.56" height="1.4" fill="#FF801E"/>
<rect x="7.80005" y="15.4" width="1.56" height="1.4" fill="#FF801E"/>
<rect x="7.80005" y="18.2" width="1.56" height="1.4" fill="#FF801E"/>
<rect x="7.80005" y="16.8" width="1.56" height="1.4" fill="#FF801E"/>
<rect x="7.80005" y="25.2" width="1.56" height="1.4" fill="#FF801E"/>
<rect x="7.80005" y="28" width="1.56" height="1.4" fill="#FF801E"/>
<rect x="7.80005" y="26.6" width="1.56" height="1.4" fill="#FF801E"/>
<rect x="7.80005" y="29.4" width="1.56" height="1.4" fill="#FF801E"/>
<rect x="7.80005" y="30.8" width="1.56" height="1.4" fill="#FF801E"/>
<rect x="9.35986" y="33.6" width="1.56" height="1.4" fill="#FF801E"/>
<rect x="7.80005" y="32.2" width="1.56" height="1.4" fill="#FF801E"/>
<rect x="14.04" y="29.4" width="1.56" height="1.4" fill="#FF801E"/>
<rect x="14.04" y="30.8" width="1.56" height="1.4" fill="#FF801E"/>
<rect x="14.04" y="32.2" width="1.56" height="1.4" fill="#FF801E"/>
<rect x="37.4399" y="28" width="1.56" height="1.4" fill="#FF801E"/>
<rect x="35.8799" y="28" width="1.56" height="1.4" fill="#FF801E"/>
<rect x="37.4399" y="29.4" width="1.56" height="1.4" fill="#FF801E"/>
<rect x="37.4399" y="30.8" width="1.56" height="1.4" fill="#FF801E"/>
<rect x="37.4399" y="32.2" width="1.56" height="1.4" fill="#FF801E"/>
<rect x="7.80005" y="19.6" width="1.56" height="1.4" fill="#FF801E"/>
<rect x="9.35986" y="21" width="1.56" height="1.4" fill="#FF801E"/>
<rect x="7.80005" y="23.8" width="1.56" height="1.4" fill="#FF801E"/>
<rect x="32.76" y="22.4" width="1.56" height="1.4" fill="#FF801E"/>
<rect x="32.76" y="25.2" width="1.56" height="1.4" fill="#FF801E"/>
<rect x="32.76" y="23.8" width="1.56" height="1.4" fill="#FF801E"/>
<rect x="32.76" y="26.6" width="1.56" height="1.4" fill="#FF801E"/>
<rect x="32.76" y="21" width="1.56" height="1.4" fill="#FF801E"/>
<rect x="32.76" y="18.2" width="1.56" height="1.4" fill="#FF801E"/>
<rect x="32.76" y="19.6" width="1.56" height="1.4" fill="#FF801E"/>
<rect x="32.76" y="16.8" width="1.56" height="1.4" fill="#FF801E"/>
<rect x="7.80005" y="22.4" width="1.56" height="1.4" fill="#FF801E"/>
</svg>
