<svg width="39" height="35" viewBox="0 0 39 35" fill="none" xmlns="http://www.w3.org/2000/svg">
<rect x="37.44" width="1.56" height="1.4" fill="black"/>
<rect x="37.44" y="1.39999" width="1.56" height="1.4" fill="black"/>
<rect x="29.64" width="1.56" height="1.4" fill="black"/>
<rect x="28.08" width="1.56" height="1.4" fill="black"/>
<rect x="26.52" width="1.56" height="1.4" fill="black"/>
<rect x="24.96" width="1.56" height="1.4" fill="black"/>
<rect x="23.4" width="1.56" height="1.4" fill="black"/>
<rect x="21.84" width="1.56" height="1.4" fill="black"/>
<rect x="20.28" width="1.56" height="1.4" fill="black"/>
<rect x="18.72" width="1.56" height="1.4" fill="black"/>
<rect x="17.16" width="1.56" height="1.4" fill="black"/>
<rect x="15.6" width="1.56" height="1.4" fill="black"/>
<rect x="14.04" width="1.56" height="1.4" fill="black"/>
<rect x="12.48" width="1.56" height="1.4" fill="black"/>
<rect x="26.52" y="5.60001" width="1.56" height="1.4" fill="black"/>
<rect x="24.96" y="5.60001" width="1.56" height="1.4" fill="black"/>
<rect x="26.52" y="7" width="1.56" height="1.4" fill="black"/>
<rect x="24.96" y="7" width="1.56" height="1.4" fill="black"/>
<rect x="24.96" y="8.39999" width="1.56" height="1.4" fill="black"/>
<rect x="23.4" y="8.39999" width="1.56" height="1.4" fill="black"/>
<rect x="23.4" y="9.80002" width="1.56" height="1.4" fill="black"/>
<rect x="23.4" y="7" width="1.56" height="1.4" fill="black"/>
<rect x="21.84" y="7" width="1.56" height="1.4" fill="black"/>
<rect x="20.28" y="7" width="1.56" height="1.4" fill="black"/>
<rect x="18.72" y="7" width="1.56" height="1.4" fill="black"/>
<rect x="17.16" y="7" width="1.56" height="1.4" fill="black"/>
<rect x="15.6" y="7" width="1.56" height="1.4" fill="black"/>
<rect x="14.04" y="7" width="1.56" height="1.4" fill="black"/>
<rect x="12.48" y="7" width="1.56" height="1.4" fill="black"/>
<rect x="15.6" y="15.4" width="1.56" height="1.4" fill="black"/>
<rect x="14.04" y="15.4" width="1.56" height="1.4" fill="black"/>
<rect x="23.4" y="11.2" width="1.56" height="1.4" fill="black"/>
<rect x="23.4" y="12.6" width="1.56" height="1.4" fill="black"/>
<rect x="23.4" y="14" width="1.56" height="1.4" fill="black"/>
<rect x="23.4" y="15.4" width="1.56" height="1.4" fill="black"/>
<rect x="23.4" y="16.8" width="1.56" height="1.4" fill="black"/>
<rect x="24.96" y="16.8" width="1.56" height="1.4" fill="black"/>
<rect x="26.52" y="16.8" width="1.56" height="1.4" fill="black"/>
<rect x="24.96" y="18.2" width="1.56" height="1.4" fill="black"/>
<rect x="24.96" y="19.6" width="1.56" height="1.4" fill="black"/>
<rect x="26.52" y="18.2" width="1.56" height="1.4" fill="black"/>
<rect x="28.08" y="18.2" width="1.56" height="1.4" fill="black"/>
<rect x="29.64" y="18.2" width="1.56" height="1.4" fill="black"/>
<rect x="29.64" y="16.8" width="1.56" height="1.4" fill="black"/>
<rect x="31.2" y="16.8" width="1.56" height="1.4" fill="black"/>
<rect x="32.76" y="15.4" width="1.56" height="1.4" fill="black"/>
<rect x="31.2" y="15.4" width="1.56" height="1.4" fill="black"/>
<rect x="32.76" y="14" width="1.56" height="1.4" fill="black"/>
<rect x="32.76" y="12.6" width="1.56" height="1.4" fill="black"/>
<rect x="32.76" y="11.2" width="1.56" height="1.4" fill="black"/>
<rect x="32.76" y="9.80002" width="1.56" height="1.4" fill="black"/>
<rect x="32.76" y="8.39999" width="1.56" height="1.4" fill="black"/>
<rect x="32.76" y="7" width="1.56" height="1.4" fill="black"/>
<rect x="26.52" y="15.4" width="1.56" height="1.4" fill="black"/>
<rect x="26.52" y="14" width="1.56" height="1.4" fill="black"/>
<rect x="26.52" y="12.6" width="1.56" height="1.4" fill="black"/>
<rect x="28.08" y="12.6" width="1.56" height="1.4" fill="black"/>
<rect x="28.08" y="11.2" width="1.56" height="1.4" fill="black"/>
<rect x="28.08" y="9.80002" width="1.56" height="1.4" fill="black"/>
<rect x="29.64" y="9.80002" width="1.56" height="1.4" fill="black"/>
<rect x="29.64" y="8.39999" width="1.56" height="1.4" fill="black"/>
<rect x="29.64" y="7" width="1.56" height="1.4" fill="black"/>
<rect x="31.2" y="7" width="1.56" height="1.4" fill="black"/>
<rect x="31.2" y="8.39999" width="1.56" height="1.4" fill="black"/>
<rect x="24.96" y="15.4" width="1.56" height="1.4" fill="black"/>
<rect x="24.96" y="22.4" width="1.56" height="1.4" fill="black"/>
<rect x="26.52" y="22.4" width="1.56" height="1.4" fill="black"/>
<rect x="26.52" y="21" width="1.56" height="1.4" fill="black"/>
<rect x="26.52" y="19.6" width="1.56" height="1.4" fill="black"/>
<rect x="24.96" y="21" width="1.56" height="1.4" fill="black"/>
<rect x="26.52" y="23.8" width="1.56" height="1.4" fill="black"/>
<rect x="28.08" y="22.4" width="1.56" height="1.4" fill="black"/>
<rect x="28.08" y="23.8" width="1.56" height="1.4" fill="black"/>
<rect x="24.96" y="23.8" width="1.56" height="1.4" fill="black"/>
<rect x="23.4" y="22.4" width="1.56" height="1.4" fill="black"/>
<rect x="23.4" y="23.8" width="1.56" height="1.4" fill="black"/>
<rect x="31.2" y="5.60001" width="1.56" height="1.4" fill="black"/>
<rect x="32.76" y="5.60001" width="1.56" height="1.4" fill="black"/>
<rect x="31.2" width="1.56" height="1.4" fill="black"/>
<rect x="35.88" width="1.56" height="1.4" fill="black"/>
<rect x="32.76" y="4.19998" width="1.56" height="1.4" fill="black"/>
<rect x="34.32" y="4.19998" width="1.56" height="1.4" fill="black"/>
<rect x="34.32" y="5.60001" width="1.56" height="1.4" fill="black"/>
<rect x="34.32" y="2.79999" width="1.56" height="1.4" fill="black"/>
<rect x="35.88" y="2.79999" width="1.56" height="1.4" fill="black"/>
<rect x="34.32" y="1.39999" width="1.56" height="1.4" fill="black"/>
<rect x="35.88" y="1.39999" width="1.56" height="1.4" fill="black"/>
<rect x="31.2" y="1.39999" width="1.56" height="1.4" fill="black"/>
<rect x="32.76" y="1.39999" width="1.56" height="1.4" fill="black"/>
<rect x="29.64" y="2.79999" width="1.56" height="1.4" fill="black"/>
<rect x="26.52" y="4.19998" width="1.56" height="1.4" fill="black"/>
<rect x="28.08" y="2.79999" width="1.56" height="1.4" fill="black"/>
<rect x="31.2" y="2.79999" width="1.56" height="1.4" fill="black"/>
<rect x="28.08" y="4.19998" width="1.56" height="1.4" fill="black"/>
<rect x="29.64" y="4.19998" width="1.56" height="1.4" fill="black"/>
<rect x="21.84" y="11.2" width="1.56" height="1.4" fill="black"/>
<rect x="20.28" y="11.2" width="1.56" height="1.4" fill="black"/>
<rect x="18.72" y="11.2" width="1.56" height="1.4" fill="black"/>
<rect x="17.16" y="11.2" width="1.56" height="1.4" fill="black"/>
<rect x="15.6" y="11.2" width="1.56" height="1.4" fill="black"/>
<rect x="14.04" y="11.2" width="1.56" height="1.4" fill="black"/>
<rect x="12.48" y="11.2" width="1.56" height="1.4" fill="black"/>
<rect x="21.84" y="15.4" width="1.56" height="1.4" fill="black"/>
<rect x="20.28" y="15.4" width="1.56" height="1.4" fill="black"/>
<rect x="18.72" y="15.4" width="1.56" height="1.4" fill="black"/>
<rect x="17.16" y="15.4" width="1.56" height="1.4" fill="black"/>
<rect x="10.92" width="1.56" height="1.4" fill="black"/>
<rect x="9.35999" width="1.56" height="1.4" fill="black"/>
<rect x="28.08" y="33.6" width="1.56" height="1.4" fill="black"/>
<rect x="26.52" y="33.6" width="1.56" height="1.4" fill="black"/>
<rect x="24.96" y="33.6" width="1.56" height="1.4" fill="black"/>
<rect x="23.4" y="33.6" width="1.56" height="1.4" fill="black"/>
<rect x="21.84" y="33.6" width="1.56" height="1.4" fill="black"/>
<rect x="35.88" y="33.6" width="1.56" height="1.4" fill="black"/>
<rect x="34.32" y="33.6" width="1.56" height="1.4" fill="black"/>
<rect x="32.76" y="33.6" width="1.56" height="1.4" fill="black"/>
<rect x="31.2" y="33.6" width="1.56" height="1.4" fill="black"/>
<rect x="29.64" y="33.6" width="1.56" height="1.4" fill="black"/>
<rect x="28.08" y="28" width="1.56" height="1.4" fill="black"/>
<rect x="26.52" y="28" width="1.56" height="1.4" fill="black"/>
<rect x="24.96" y="28" width="1.56" height="1.4" fill="black"/>
<rect x="23.4" y="28" width="1.56" height="1.4" fill="black"/>
<rect x="21.84" y="28" width="1.56" height="1.4" fill="black"/>
<rect x="20.28" y="29.4" width="1.56" height="1.4" fill="black"/>
<rect x="18.72" y="28" width="1.56" height="1.4" fill="black"/>
<rect x="17.16" y="28" width="1.56" height="1.4" fill="black"/>
<rect x="15.6" y="28" width="1.56" height="1.4" fill="black"/>
<rect x="14.04" y="28" width="1.56" height="1.4" fill="black"/>
<rect x="34.32" y="28" width="1.56" height="1.4" fill="black"/>
<rect x="32.76" y="28" width="1.56" height="1.4" fill="black"/>
<rect x="31.2" y="28" width="1.56" height="1.4" fill="black"/>
<rect x="29.64" y="28" width="1.56" height="1.4" fill="black"/>
<rect x="20.28" y="33.6" width="1.56" height="1.4" fill="black"/>
<rect x="18.72" y="33.6" width="1.56" height="1.4" fill="black"/>
<rect x="17.16" y="33.6" width="1.56" height="1.4" fill="black"/>
<rect x="15.6" y="33.6" width="1.56" height="1.4" fill="black"/>
<rect x="14.04" y="33.6" width="1.56" height="1.4" fill="black"/>
<rect x="12.48" y="33.6" width="1.56" height="1.4" fill="black"/>
<rect x="10.92" y="33.6" width="1.56" height="1.4" fill="black"/>
<rect x="7.79999" width="1.56" height="1.4" fill="black"/>
<rect x="6.23999" width="1.56" height="1.4" fill="black"/>
<rect x="4.67999" width="1.56" height="1.4" fill="black"/>
<rect x="3.12" width="1.56" height="1.4" fill="black"/>
<rect x="1.56" y="1.39999" width="1.56" height="1.4" fill="black"/>
<rect y="2.79999" width="1.56" height="1.4" fill="black"/>
<rect x="6.23999" y="1.39999" width="1.56" height="1.4" fill="black"/>
<rect x="7.79999" y="2.79999" width="1.56" height="1.4" fill="black"/>
<rect y="4.19998" width="1.56" height="1.4" fill="black"/>
<rect y="5.60001" width="1.56" height="1.4" fill="black"/>
<rect x="7.79999" y="4.19998" width="1.56" height="1.4" fill="black"/>
<rect x="1.56" y="7" width="1.56" height="1.4" fill="black"/>
<rect x="3.12" y="7" width="1.56" height="1.4" fill="black"/>
<rect x="4.67999" y="7" width="1.56" height="1.4" fill="black"/>
<rect x="6.23999" y="7" width="1.56" height="1.4" fill="black"/>
<rect x="7.79999" y="7" width="1.56" height="1.4" fill="black"/>
<rect x="7.79999" y="5.60001" width="1.56" height="1.4" fill="black"/>
<rect x="7.79999" y="8.39999" width="1.56" height="1.4" fill="black"/>
<rect x="7.79999" y="9.80002" width="1.56" height="1.4" fill="black"/>
<rect x="7.79999" y="12.6" width="1.56" height="1.4" fill="black"/>
<rect x="7.79999" y="11.2" width="1.56" height="1.4" fill="black"/>
<rect x="7.79999" y="14" width="1.56" height="1.4" fill="black"/>
<rect x="7.79999" y="15.4" width="1.56" height="1.4" fill="black"/>
<rect x="7.79999" y="18.2" width="1.56" height="1.4" fill="black"/>
<rect x="7.79999" y="16.8" width="1.56" height="1.4" fill="black"/>
<rect x="7.79999" y="25.2" width="1.56" height="1.4" fill="black"/>
<rect x="7.79999" y="28" width="1.56" height="1.4" fill="black"/>
<rect x="7.79999" y="26.6" width="1.56" height="1.4" fill="black"/>
<rect x="7.79999" y="29.4" width="1.56" height="1.4" fill="black"/>
<rect x="7.79999" y="30.8" width="1.56" height="1.4" fill="black"/>
<rect x="9.35999" y="33.6" width="1.56" height="1.4" fill="black"/>
<rect x="7.79999" y="32.2" width="1.56" height="1.4" fill="black"/>
<rect x="14.04" y="29.4" width="1.56" height="1.4" fill="black"/>
<rect x="14.04" y="30.8" width="1.56" height="1.4" fill="black"/>
<rect x="14.04" y="32.2" width="1.56" height="1.4" fill="black"/>
<rect x="37.44" y="28" width="1.56" height="1.4" fill="black"/>
<rect x="35.88" y="28" width="1.56" height="1.4" fill="black"/>
<rect x="37.44" y="29.4" width="1.56" height="1.4" fill="black"/>
<rect x="37.44" y="30.8" width="1.56" height="1.4" fill="black"/>
<rect x="37.44" y="32.2" width="1.56" height="1.4" fill="black"/>
<rect x="7.79999" y="19.6" width="1.56" height="1.4" fill="black"/>
<rect x="9.35999" y="21" width="1.56" height="1.4" fill="black"/>
<rect x="7.79999" y="23.8" width="1.56" height="1.4" fill="black"/>
<rect x="32.76" y="22.4" width="1.56" height="1.4" fill="black"/>
<rect x="32.76" y="25.2" width="1.56" height="1.4" fill="black"/>
<rect x="32.76" y="23.8" width="1.56" height="1.4" fill="black"/>
<rect x="32.76" y="26.6" width="1.56" height="1.4" fill="black"/>
<rect x="32.76" y="21" width="1.56" height="1.4" fill="black"/>
<rect x="32.76" y="18.2" width="1.56" height="1.4" fill="black"/>
<rect x="32.76" y="19.6" width="1.56" height="1.4" fill="black"/>
<rect x="32.76" y="16.8" width="1.56" height="1.4" fill="black"/>
<rect x="7.79999" y="22.4" width="1.56" height="1.4" fill="black"/>
</svg>
