<svg width="50" height="34" viewBox="0 0 50 34" fill="none" xmlns="http://www.w3.org/2000/svg">
<path d="M14.5 14V0H35V17H50V34H0V14H14.5Z" fill="#989C93"/>
<path d="M5 18.5H9.5V19.25H10.25V21.5H9.5V22.25H6.5V25.25H10.25V26H5V22.25H5.75V21.5H8.75V19.25H5V18.5Z" fill="white"/>
<path d="M40 20.5H44.5V21.25H45.25V23.5H44.5V24.25H45.25V27.25H44.5V28H40V27.25H43.75V24.25H40.75V23.5H43.75V21.25H40V20.5Z" fill="white"/>
<path d="M22.75 4H23.5V3.25H24.25V2.5H25.75V10H24.25V4.75H22.75V4Z" fill="white"/>
</svg>
