<svg width="50" height="35" viewBox="0 0 50 35" fill="none" xmlns="http://www.w3.org/2000/svg">
<rect x="6" y="13" width="38" height="22" rx="1" fill="#989C93"/>
<path d="M8.80468 1.03418C9.15651 0.396193 9.82745 0 10.556 0H39.444C40.1726 0 40.8435 0.396194 41.1953 1.03419L48.3644 14.0342C49.0995 15.3671 48.1353 17 46.6131 17H3.3869C1.8647 17 0.900476 15.3671 1.63556 14.0342L8.80468 1.03418Z" fill="#CE6E48"/>
<path d="M14 6.875H14.6875V6.1875H18.125V6.875H18.8125V7.5625H17.4375V6.875H15.375V8.25H18.125V8.9375H18.8125V10.3125H18.125V11H14.6875V10.3125H14V9.625H15.375V10.3125H17.4375V8.9375H14.6875V8.25H14V6.875ZM19.5 4.125H20.875V6.875H21.5625V6.1875H23.625V6.875H24.3125V11H22.9375V6.875H21.5625V7.5625H20.875V11H19.5V4.125ZM25 6.875H25.6875V6.1875H29.125V6.875H29.8125V10.3125H29.125V11H25.6875V10.3125H25V6.875ZM26.375 6.875V10.3125H28.4375V6.875H26.375ZM30.5 6.1875H34.625V6.875H35.3125V10.3125H34.625V11H31.875V13.0625H30.5V6.1875ZM31.875 6.875V10.3125H33.9375V6.875H31.875Z" fill="white"/>
<rect x="11" y="21" width="10" height="11" fill="#D9D9D9"/>
<line x1="11" y1="26.5" x2="21" y2="26.5" stroke="#989C93"/>
<line x1="16.5" y1="21" x2="16.5" y2="32" stroke="#989C93"/>
<path d="M30 24.5C30 22.0147 32.0147 20 34.5 20C36.9853 20 39 22.0147 39 24.5V35H30V24.5Z" fill="#FFDB71"/>
</svg>
