<svg width="80" height="115" viewBox="0 0 80 115" fill="none" xmlns="http://www.w3.org/2000/svg">
<rect x="40" y="15" width="5" height="5" fill="#FF801E"/>
<rect x="45" y="15" width="5" height="5" fill="#FF801E"/>
<rect x="40" y="10" width="5" height="5" fill="#FF801E"/>
<rect x="45" y="10" width="5" height="5" fill="#FF801E"/>
<rect x="35" y="15" width="5" height="5" fill="#FF801E"/>
<rect x="35" y="10" width="5" height="5" fill="#FF801E"/>
<rect x="30" y="15" width="5" height="5" fill="#FF801E"/>
<rect x="30" y="10" width="5" height="5" fill="#FF801E"/>
<rect x="25" y="15" width="5" height="5" fill="#FF801E"/>
<rect x="20" y="15" width="5" height="5" fill="#FF801E"/>
<rect x="25" y="10" width="5" height="5" fill="#FF801E"/>
<rect x="40" y="5" width="5" height="5" fill="#FF801E"/>
<rect x="30" y="20" width="5" height="5" fill="#FF801E"/>
<rect x="35" y="5" width="5" height="5" fill="#FF801E"/>
<rect x="35" width="5" height="5" fill="#FF801E"/>
<rect x="30" y="5" width="5" height="5" fill="#FF801E"/>
<rect x="30" width="5" height="5" fill="#FF801E"/>
<rect x="25" y="5" width="5" height="5" fill="#FF801E"/>
<rect x="20" y="10" width="5" height="5" fill="#FF801E"/>
<rect x="20" y="40" width="5" height="5" fill="#FF801E"/>
<rect x="20" y="35" width="5" height="5" fill="#FF801E"/>
<rect x="15" y="40" width="5" height="5" fill="#FF801E"/>
<rect x="15" y="35" width="5" height="5" fill="#FF801E"/>
<rect x="50" y="40" width="5" height="5" fill="#FF801E"/>
<rect x="50" y="35" width="5" height="5" fill="#FF801E"/>
<rect x="45" y="40" width="5" height="5" fill="#FF801E"/>
<rect x="45" y="35" width="5" height="5" fill="#FF801E"/>
<rect x="60" y="40" width="5" height="5" fill="#FF801E"/>
<rect x="60" y="35" width="5" height="5" fill="#FF801E"/>
<rect x="55" y="40" width="5" height="5" fill="#FF801E"/>
<rect x="55" y="35" width="5" height="5" fill="#FF801E"/>
<rect x="70" y="40" width="5" height="5" fill="#FF801E"/>
<rect x="75" y="35" width="5" height="5" fill="#FF801E"/>
<rect x="70" y="35" width="5" height="5" fill="#FF801E"/>
<rect x="65" y="40" width="5" height="5" fill="#FF801E"/>
<rect x="65" y="35" width="5" height="5" fill="#FF801E"/>
<rect x="40" y="40" width="5" height="5" fill="#FF801E"/>
<rect x="40" y="35" width="5" height="5" fill="#FF801E"/>
<rect x="35" y="40" width="5" height="5" fill="#FF801E"/>
<rect x="35" y="35" width="5" height="5" fill="#FF801E"/>
<rect x="30" y="40" width="5" height="5" fill="#FF801E"/>
<rect x="30" y="35" width="5" height="5" fill="#FF801E"/>
<rect x="25" y="40" width="5" height="5" fill="#FF801E"/>
<rect x="25" y="35" width="5" height="5" fill="#FF801E"/>
<rect x="50" y="30" width="5" height="5" fill="#FF801E"/>
<rect x="45" y="30" width="5" height="5" fill="#FF801E"/>
<rect x="60" y="30" width="5" height="5" fill="#FF801E"/>
<rect x="55" y="30" width="5" height="5" fill="#FF801E"/>
<rect x="25" y="20" width="5" height="5" fill="#FF801E"/>
<rect x="40" y="20" width="5" height="5" fill="#FF801E"/>
<rect x="35" y="20" width="5" height="5" fill="#FF801E"/>
<rect x="65" y="30" width="5" height="5" fill="#FF801E"/>
<rect x="40" y="30" width="5" height="5" fill="#FF801E"/>
<rect x="35" y="30" width="5" height="5" fill="#FF801E"/>
<rect x="30" y="30" width="5" height="5" fill="#FF801E"/>
<rect x="25" y="30" width="5" height="5" fill="#FF801E"/>
<rect x="30" y="50" width="5" height="5" fill="#FF801E"/>
<rect x="30" y="45" width="5" height="5" fill="#FF801E"/>
<rect x="25" y="50" width="5" height="5" fill="#FF801E"/>
<rect x="25" y="45" width="5" height="5" fill="#FF801E"/>
<rect x="20" y="50" width="5" height="5" fill="#FF801E"/>
<rect x="20" y="45" width="5" height="5" fill="#FF801E"/>
<rect x="15" y="50" width="5" height="5" fill="#FF801E"/>
<rect x="15" y="45" width="5" height="5" fill="#FF801E"/>
<rect x="10" y="50" width="5" height="5" fill="#FF801E"/>
<rect x="10" y="45" width="5" height="5" fill="#FF801E"/>
<rect x="25" y="60" width="5" height="5" fill="#FF801E"/>
<rect x="25" y="55" width="5" height="5" fill="#FF801E"/>
<rect x="20" y="60" width="5" height="5" fill="#FF801E"/>
<rect x="20" y="55" width="5" height="5" fill="#FF801E"/>
<rect x="15" y="60" width="5" height="5" fill="#FF801E"/>
<rect x="15" y="55" width="5" height="5" fill="#FF801E"/>
<rect x="10" y="60" width="5" height="5" fill="#FF801E"/>
<rect x="10" y="55" width="5" height="5" fill="#FF801E"/>
<rect x="5" y="60" width="5" height="5" fill="#FF801E"/>
<rect x="5" y="55" width="5" height="5" fill="#FF801E"/>
<rect x="25" y="70" width="5" height="5" fill="#FF801E"/>
<rect x="25" y="65" width="5" height="5" fill="#FF801E"/>
<rect x="20" y="70" width="5" height="5" fill="#FF801E"/>
<rect x="20" y="65" width="5" height="5" fill="#FF801E"/>
<rect x="15" y="70" width="5" height="5" fill="#FF801E"/>
<rect x="15" y="65" width="5" height="5" fill="#FF801E"/>
<rect x="10" y="70" width="5" height="5" fill="#FF801E"/>
<rect x="10" y="65" width="5" height="5" fill="#FF801E"/>
<rect x="45" y="80" width="5" height="5" fill="#FF801E"/>
<rect x="45" y="75" width="5" height="5" fill="#FF801E"/>
<rect x="40" y="80" width="5" height="5" fill="#FF801E"/>
<rect x="40" y="75" width="5" height="5" fill="#FF801E"/>
<rect x="35" y="80" width="5" height="5" fill="#FF801E"/>
<rect x="35" y="75" width="5" height="5" fill="#FF801E"/>
<rect x="30" y="80" width="5" height="5" fill="#FF801E"/>
<rect x="30" y="75" width="5" height="5" fill="#FF801E"/>
<rect x="36" y="100" width="5" height="5" fill="#FF801E"/>
<rect x="36" y="95" width="5" height="5" fill="#FF801E"/>
<rect x="31" y="100" width="5" height="5" fill="#FF801E"/>
<rect x="31" y="95" width="5" height="5" fill="#FF801E"/>
<rect x="26" y="100" width="5" height="5" fill="#FF801E"/>
<rect x="20" y="30" width="5" height="5" fill="#FF801E"/>
<rect x="26" y="95" width="5" height="5" fill="#FF801E"/>
<rect x="31" y="110" width="5" height="5" fill="#FF801E"/>
<rect x="31" y="105" width="5" height="5" fill="#FF801E"/>
<rect x="26" y="110" width="5" height="5" fill="#FF801E"/>
<rect x="26" y="105" width="5" height="5" fill="#FF801E"/>
<rect x="36" y="110" width="5" height="5" fill="#FF801E"/>
<rect x="21" y="105" width="5" height="5" fill="#FF801E"/>
<rect x="21" y="110" width="5" height="5" fill="#FF801E"/>
<rect x="40" y="90" width="5" height="5" fill="#FF801E"/>
<rect x="40" y="85" width="5" height="5" fill="#FF801E"/>
<rect x="35" y="90" width="5" height="5" fill="#FF801E"/>
<rect x="35" y="85" width="5" height="5" fill="#FF801E"/>
<rect x="30" y="90" width="5" height="5" fill="#FF801E"/>
<rect x="30" y="85" width="5" height="5" fill="#FF801E"/>
<rect x="45" y="70" width="5" height="5" fill="#FF801E"/>
<rect x="40" y="70" width="5" height="5" fill="#FF801E"/>
<rect x="35" y="70" width="5" height="5" fill="#FF801E"/>
<rect x="30" y="70" width="5" height="5" fill="#FF801E"/>
<rect x="5" y="70" width="5" height="5" fill="#FF801E"/>
<rect y="70" width="5" height="5" fill="#FF801E"/>
<rect x="5" y="65" width="5" height="5" fill="#FF801E"/>
<rect y="65" width="5" height="5" fill="#FF801E"/>
<rect x="25" y="80" width="5" height="5" fill="#FF801E"/>
<rect x="25" y="75" width="5" height="5" fill="#FF801E"/>
<rect x="20" y="80" width="5" height="5" fill="#FF801E"/>
<rect x="20" y="75" width="5" height="5" fill="#FF801E"/>
<rect x="15" y="80" width="5" height="5" fill="#FF801E"/>
<rect x="15" y="75" width="5" height="5" fill="#FF801E"/>
<rect x="10" y="80" width="5" height="5" fill="#FF801E"/>
<rect x="10" y="75" width="5" height="5" fill="#FF801E"/>
<rect x="30" y="55" width="5" height="5" fill="#FF801E"/>
<rect x="5" y="75" width="5" height="5" fill="#FF801E"/>
</svg>
