<svg width="134" height="100" viewBox="0 0 134 100" fill="none" xmlns="http://www.w3.org/2000/svg">
<rect x="114" width="5" height="5" fill="#FF801E"/>
<rect x="109" y="5" width="5" height="5" fill="#FF801E"/>
<rect x="114" y="5" width="5" height="5" fill="#FF801E"/>
<rect x="109" width="5" height="5" fill="#FF801E"/>
<rect x="119" width="5" height="5" fill="#FF801E"/>
<rect x="119" y="5" width="5" height="5" fill="#FF801E"/>
<rect x="104" y="5" width="5" height="5" fill="#FF801E"/>
<rect x="124" y="5" width="5" height="5" fill="#FF801E"/>
<rect x="114" y="10" width="5" height="5" fill="#FF801E"/>
<rect x="109" y="10" width="5" height="5" fill="#FF801E"/>
<rect x="119" y="10" width="5" height="5" fill="#FF801E"/>
<rect x="124" y="10" width="5" height="5" fill="#FF801E"/>
<rect x="114" y="15" width="5" height="5" fill="#FF801E"/>
<rect x="119" y="15" width="5" height="5" fill="#FF801E"/>
<rect x="104" y="15" width="5" height="5" fill="#FF801E"/>
<rect x="124" y="15" width="5" height="5" fill="#FF801E"/>
<rect x="109" y="20" width="5" height="5" fill="#FF801E"/>
<rect x="114" y="20" width="5" height="5" fill="#FF801E"/>
<rect x="119" y="20" width="5" height="5" fill="#FF801E"/>
<rect x="124" y="20" width="5" height="5" fill="#FF801E"/>
<rect x="84" y="15" width="5" height="5" fill="#FF801E"/>
<rect x="89" y="15" width="5" height="5" fill="#FF801E"/>
<rect x="94" y="15" width="5" height="5" fill="#FF801E"/>
<rect x="79" y="15" width="5" height="5" fill="#FF801E"/>
<rect x="99" y="15" width="5" height="5" fill="#FF801E"/>
<rect x="84" y="20" width="5" height="5" fill="#FF801E"/>
<rect x="89" y="20" width="5" height="5" fill="#FF801E"/>
<rect x="109" y="15" width="5" height="5" fill="#FF801E"/>
<rect x="104" y="20" width="5" height="5" fill="#FF801E"/>
<rect x="79" y="20" width="5" height="5" fill="#FF801E"/>
<rect x="99" y="45" width="5" height="5" fill="#FF801E"/>
<rect x="104" y="45" width="5" height="5" fill="#FF801E"/>
<rect x="109" y="45" width="5" height="5" fill="#FF801E"/>
<rect x="94" y="45" width="5" height="5" fill="#FF801E"/>
<rect x="94" y="35" width="5" height="5" fill="#FF801E"/>
<rect x="99" y="35" width="5" height="5" fill="#FF801E"/>
<rect x="104" y="35" width="5" height="5" fill="#FF801E"/>
<rect x="89" y="35" width="5" height="5" fill="#FF801E"/>
<rect x="99" y="40" width="5" height="5" fill="#FF801E"/>
<rect x="104" y="40" width="5" height="5" fill="#FF801E"/>
<rect x="109" y="40" width="5" height="5" fill="#FF801E"/>
<rect x="109" y="35" width="5" height="5" fill="#FF801E"/>
<rect x="94" y="40" width="5" height="5" fill="#FF801E"/>
<rect x="89" y="40" width="5" height="5" fill="#FF801E"/>
<rect x="84" y="40" width="5" height="5" fill="#FF801E"/>
<rect x="99" y="55" width="5" height="5" fill="#FF801E"/>
<rect x="104" y="55" width="5" height="5" fill="#FF801E"/>
<rect x="109" y="55" width="5" height="5" fill="#FF801E"/>
<rect x="94" y="55" width="5" height="5" fill="#FF801E"/>
<rect x="99" y="50" width="5" height="5" fill="#FF801E"/>
<rect x="94" y="75" width="5" height="5" fill="#FF801E"/>
<rect x="94" y="70" width="5" height="5" fill="#FF801E"/>
<rect x="104" y="65" width="5" height="5" fill="#FF801E"/>
<rect x="104" y="60" width="5" height="5" fill="#FF801E"/>
<rect x="99" y="65" width="5" height="5" fill="#FF801E"/>
<rect x="99" y="70" width="5" height="5" fill="#FF801E"/>
<rect x="99" y="60" width="5" height="5" fill="#FF801E"/>
<rect x="104" y="50" width="5" height="5" fill="#FF801E"/>
<rect x="109" y="50" width="5" height="5" fill="#FF801E"/>
<rect x="94" y="50" width="5" height="5" fill="#FF801E"/>
<rect x="79" y="50" width="5" height="5" fill="#FF801E"/>
<rect x="84" y="50" width="5" height="5" fill="#FF801E"/>
<rect x="89" y="50" width="5" height="5" fill="#FF801E"/>
<rect x="94" y="65" width="5" height="5" fill="#FF801E"/>
<rect x="79" y="45" width="5" height="5" fill="#FF801E"/>
<rect x="84" y="45" width="5" height="5" fill="#FF801E"/>
<rect x="89" y="45" width="5" height="5" fill="#FF801E"/>
<rect x="94" y="60" width="5" height="5" fill="#FF801E"/>
<rect x="79" y="60" width="5" height="5" fill="#FF801E"/>
<rect x="84" y="60" width="5" height="5" fill="#FF801E"/>
<rect x="89" y="60" width="5" height="5" fill="#FF801E"/>
<rect x="74" y="60" width="5" height="5" fill="#FF801E"/>
<rect x="79" y="55" width="5" height="5" fill="#FF801E"/>
<rect x="84" y="55" width="5" height="5" fill="#FF801E"/>
<rect x="89" y="55" width="5" height="5" fill="#FF801E"/>
<rect x="79" y="70" width="5" height="5" fill="#FF801E"/>
<rect x="84" y="70" width="5" height="5" fill="#FF801E"/>
<rect x="89" y="70" width="5" height="5" fill="#FF801E"/>
<rect x="79" y="65" width="5" height="5" fill="#FF801E"/>
<rect x="84" y="65" width="5" height="5" fill="#FF801E"/>
<rect x="89" y="65" width="5" height="5" fill="#FF801E"/>
<rect x="79" y="80" width="5" height="5" fill="#FF801E"/>
<rect x="84" y="80" width="5" height="5" fill="#FF801E"/>
<rect x="89" y="80" width="5" height="5" fill="#FF801E"/>
<rect x="79" y="75" width="5" height="5" fill="#FF801E"/>
<rect x="84" y="75" width="5" height="5" fill="#FF801E"/>
<rect x="89" y="75" width="5" height="5" fill="#FF801E"/>
<rect x="64" y="70" width="5" height="5" fill="#FF801E"/>
<rect x="69" y="70" width="5" height="5" fill="#FF801E"/>
<rect x="74" y="70" width="5" height="5" fill="#FF801E"/>
<rect x="64" y="65" width="5" height="5" fill="#FF801E"/>
<rect x="69" y="65" width="5" height="5" fill="#FF801E"/>
<rect x="74" y="65" width="5" height="5" fill="#FF801E"/>
<rect x="64" y="80" width="5" height="5" fill="#FF801E"/>
<rect x="69" y="80" width="5" height="5" fill="#FF801E"/>
<rect x="74" y="80" width="5" height="5" fill="#FF801E"/>
<rect x="49" y="75" width="5" height="5" fill="#FF801E"/>
<rect x="54" y="75" width="5" height="5" fill="#FF801E"/>
<rect x="59" y="75" width="5" height="5" fill="#FF801E"/>
<rect x="74" y="50" width="5" height="5" fill="#FF801E"/>
<rect x="69" y="60" width="5" height="5" fill="#FF801E"/>
<rect x="44" y="75" width="5" height="5" fill="#FF801E"/>
<rect x="79" y="90" width="5" height="5" fill="#FF801E"/>
<rect x="84" y="90" width="5" height="5" fill="#FF801E"/>
<rect x="89" y="85" width="5" height="5" fill="#FF801E"/>
<rect x="64" y="90" width="5" height="5" fill="#FF801E"/>
<rect x="69" y="90" width="5" height="5" fill="#FF801E"/>
<rect x="74" y="90" width="5" height="5" fill="#FF801E"/>
<rect x="39" y="60" width="5" height="5" fill="#FF801E"/>
<rect x="44" y="60" width="5" height="5" fill="#FF801E"/>
<rect x="49" y="60" width="5" height="5" fill="#FF801E"/>
<rect x="24" y="60" width="5" height="5" fill="#FF801E"/>
<rect x="29" y="60" width="5" height="5" fill="#FF801E"/>
<rect x="34" y="60" width="5" height="5" fill="#FF801E"/>
<rect x="39" y="55" width="5" height="5" fill="#FF801E"/>
<rect x="44" y="55" width="5" height="5" fill="#FF801E"/>
<rect x="29" y="55" width="5" height="5" fill="#FF801E"/>
<rect x="34" y="55" width="5" height="5" fill="#FF801E"/>
<rect x="39" y="50" width="5" height="5" fill="#FF801E"/>
<rect x="34" y="50" width="5" height="5" fill="#FF801E"/>
<rect x="44" y="65" width="5" height="5" fill="#FF801E"/>
<rect x="49" y="65" width="5" height="5" fill="#FF801E"/>
<rect x="54" y="65" width="5" height="5" fill="#FF801E"/>
<rect x="29" y="65" width="5" height="5" fill="#FF801E"/>
<rect x="34" y="65" width="5" height="5" fill="#FF801E"/>
<rect x="19" y="65" width="5" height="5" fill="#FF801E"/>
<rect x="24" y="65" width="5" height="5" fill="#FF801E"/>
<rect x="39" y="65" width="5" height="5" fill="#FF801E"/>
<rect x="29" y="70" width="5" height="5" fill="#FF801E"/>
<rect x="14" y="70" width="5" height="5" fill="#FF801E"/>
<rect x="19" y="70" width="5" height="5" fill="#FF801E"/>
<rect x="24" y="70" width="5" height="5" fill="#FF801E"/>
<rect x="25" y="75" width="5" height="5" fill="#FF801E"/>
<rect x="10" y="75" width="5" height="5" fill="#FF801E"/>
<rect x="15" y="75" width="5" height="5" fill="#FF801E"/>
<rect x="20" y="75" width="5" height="5" fill="#FF801E"/>
<rect x="20" y="80" width="5" height="5" fill="#FF801E"/>
<rect x="5" y="80" width="5" height="5" fill="#FF801E"/>
<rect x="10" y="80" width="5" height="5" fill="#FF801E"/>
<rect x="15" y="80" width="5" height="5" fill="#FF801E"/>
<rect x="15" y="85" width="5" height="5" fill="#FF801E"/>
<rect y="85" width="5" height="5" fill="#FF801E"/>
<rect x="5" y="85" width="5" height="5" fill="#FF801E"/>
<rect x="10" y="85" width="5" height="5" fill="#FF801E"/>
<rect x="10" y="90" width="5" height="5" fill="#FF801E"/>
<rect y="90" width="5" height="5" fill="#FF801E"/>
<rect x="5" y="95" width="5" height="5" fill="#FF801E"/>
<rect y="95" width="5" height="5" fill="#FF801E"/>
<rect x="5" y="90" width="5" height="5" fill="#FF801E"/>
<rect x="74" y="85" width="5" height="5" fill="#FF801E"/>
<rect x="79" y="85" width="5" height="5" fill="#FF801E"/>
<rect x="84" y="85" width="5" height="5" fill="#FF801E"/>
<rect x="59" y="85" width="5" height="5" fill="#FF801E"/>
<rect x="64" y="85" width="5" height="5" fill="#FF801E"/>
<rect x="69" y="85" width="5" height="5" fill="#FF801E"/>
<rect x="49" y="70" width="5" height="5" fill="#FF801E"/>
<rect x="54" y="70" width="5" height="5" fill="#FF801E"/>
<rect x="59" y="70" width="5" height="5" fill="#FF801E"/>
<rect x="54" y="80" width="5" height="5" fill="#FF801E"/>
<rect x="59" y="80" width="5" height="5" fill="#FF801E"/>
<rect x="44" y="70" width="5" height="5" fill="#FF801E"/>
<rect x="64" y="75" width="5" height="5" fill="#FF801E"/>
<rect x="69" y="75" width="5" height="5" fill="#FF801E"/>
<rect x="74" y="75" width="5" height="5" fill="#FF801E"/>
<rect x="74" y="55" width="5" height="5" fill="#FF801E"/>
<rect x="89" y="30" width="5" height="5" fill="#FF801E"/>
<rect x="94" y="30" width="5" height="5" fill="#FF801E"/>
<rect x="99" y="30" width="5" height="5" fill="#FF801E"/>
<rect x="84" y="30" width="5" height="5" fill="#FF801E"/>
<rect x="84" y="25" width="5" height="5" fill="#FF801E"/>
<rect x="89" y="25" width="5" height="5" fill="#FF801E"/>
<rect x="94" y="25" width="5" height="5" fill="#FF801E"/>
<rect x="79" y="25" width="5" height="5" fill="#FF801E"/>
<rect x="74" y="15" width="5" height="5" fill="#FF801E"/>
<rect x="74" y="20" width="5" height="5" fill="#FF801E"/>
<rect x="109" y="25" width="5" height="5" fill="#FF801E"/>
<rect x="114" y="45" width="5" height="5" fill="#FF801E"/>
<rect x="114" y="50" width="5" height="5" fill="#FF801E"/>
<rect x="104" y="25" width="5" height="5" fill="#FF801E"/>
<rect x="129" y="10" width="5" height="5" fill="#FF801E"/>
<rect x="114" y="25" width="5" height="5" fill="#FF801E"/>
<rect x="99" y="10" width="5" height="5" fill="#FF801E"/>
<rect x="94" y="10" width="5" height="5" fill="#FF801E"/>
<rect x="89" y="10" width="5" height="5" fill="#FF801E"/>
<rect x="84" y="10" width="5" height="5" fill="#FF801E"/>
<rect x="119" y="25" width="5" height="5" fill="#FF801E"/>
<rect x="114" y="30" width="5" height="5" fill="#FF801E"/>
<rect x="119" y="30" width="5" height="5" fill="#FF801E"/>
<rect x="124" y="25" width="5" height="5" fill="#FF801E"/>
<rect x="129" y="15" width="5" height="5" fill="#FF801E"/>
</svg>
