<svg width="135" height="70" viewBox="0 0 135 70" fill="none" xmlns="http://www.w3.org/2000/svg">
<rect x="115" width="5" height="5" fill="#FF801E"/>
<rect x="120" width="5" height="5" fill="#FF801E"/>
<rect x="125" y="5" width="5" height="5" fill="#FF801E"/>
<rect x="110" width="5" height="5" fill="#FF801E"/>
<rect x="125" y="10" width="5" height="5" fill="#FF801E"/>
<rect x="130" y="5" width="5" height="5" fill="#FF801E"/>
<rect x="111" y="25" width="5" height="5" fill="#FF801E"/>
<rect x="125" width="5" height="5" fill="#FF801E"/>
<rect x="130" y="15" width="5" height="5" fill="#FF801E"/>
<rect x="130" y="10" width="5" height="5" fill="#FF801E"/>
<rect width="5" height="5" transform="matrix(1 0 0 -1 125 25)" fill="#FF801E"/>
<rect width="5" height="5" transform="matrix(1 0 0 -1 125 20)" fill="#FF801E"/>
<rect x="105" y="5" width="5" height="5" fill="#FF801E"/>
<rect x="110" y="5" width="5" height="5" fill="#FF801E"/>
<rect x="115" y="5" width="5" height="5" fill="#FF801E"/>
<rect x="120" y="5" width="5" height="5" fill="#FF801E"/>
<rect x="90" y="20" width="5" height="5" fill="#FF801E"/>
<rect x="95" y="20" width="5" height="5" fill="#FF801E"/>
<rect x="90" y="25" width="5" height="5" fill="#FF801E"/>
<rect x="95" y="25" width="5" height="5" fill="#FF801E"/>
<rect x="115" y="10" width="5" height="5" fill="#FF801E"/>
<rect x="120" y="10" width="5" height="5" fill="#FF801E"/>
<rect x="115" y="15" width="5" height="5" fill="#FF801E"/>
<rect x="120" y="15" width="5" height="5" fill="#FF801E"/>
<rect x="105" y="10" width="5" height="5" fill="#FF801E"/>
<rect x="110" y="10" width="5" height="5" fill="#FF801E"/>
<rect x="100" y="50" width="5" height="5" fill="#FF801E"/>
<rect x="105" y="50" width="5" height="5" fill="#FF801E"/>
<rect x="100" y="55" width="5" height="5" fill="#FF801E"/>
<rect x="105" y="55" width="5" height="5" fill="#FF801E"/>
<rect x="105" y="60" width="5" height="5" fill="#FF801E"/>
<rect x="110" y="60" width="5" height="5" fill="#FF801E"/>
<rect x="105" y="65" width="5" height="5" fill="#FF801E"/>
<rect x="110" y="65" width="5" height="5" fill="#FF801E"/>
<rect x="120" y="65" width="5" height="5" fill="#FF801E"/>
<rect x="115" y="65" width="5" height="5" fill="#FF801E"/>
<rect x="105" y="40" width="5" height="5" fill="#FF801E"/>
<rect x="85" y="30" width="5" height="5" fill="#FF801E"/>
<rect x="90" y="30" width="5" height="5" fill="#FF801E"/>
<rect x="95" y="15" width="5" height="5" fill="#FF801E"/>
<rect x="50" y="30" width="5" height="5" fill="#FF801E"/>
<rect x="95" y="45" width="5" height="5" fill="#FF801E"/>
<rect x="70" y="40" width="5" height="5" fill="#FF801E"/>
<rect x="100" y="25" width="5" height="5" fill="#FF801E"/>
<rect x="85" y="15" width="5" height="5" fill="#FF801E"/>
<rect x="60" y="25" width="5" height="5" fill="#FF801E"/>
<rect x="45" y="35" width="5" height="5" fill="#FF801E"/>
<rect x="35" y="40" width="5" height="5" fill="#FF801E"/>
<rect x="25" y="45" width="5" height="5" fill="#FF801E"/>
<rect x="20" y="45" width="5" height="5" fill="#FF801E"/>
<rect x="25" y="60" width="5" height="5" fill="#FF801E"/>
<rect x="5" y="65" width="5" height="5" fill="#FF801E"/>
<rect x="5" y="60" width="5" height="5" fill="#FF801E"/>
<rect x="110" y="50" width="5" height="5" fill="#FF801E"/>
<rect x="110" y="55" width="5" height="5" fill="#FF801E"/>
<rect x="85" y="20" width="5" height="5" fill="#FF801E"/>
<rect x="85" y="25" width="5" height="5" fill="#FF801E"/>
<rect x="90" y="15" width="5" height="5" fill="#FF801E"/>
<rect x="70" y="20" width="5" height="5" fill="#FF801E"/>
<rect x="75" y="20" width="5" height="5" fill="#FF801E"/>
<rect x="80" y="20" width="5" height="5" fill="#FF801E"/>
<rect x="75" y="25" width="5" height="5" fill="#FF801E"/>
<rect x="80" y="25" width="5" height="5" fill="#FF801E"/>
<rect x="65" y="25" width="5" height="5" fill="#FF801E"/>
<rect x="70" y="25" width="5" height="5" fill="#FF801E"/>
<rect x="40" y="50" width="5" height="5" fill="#FF801E"/>
<rect x="45" y="50" width="5" height="5" fill="#FF801E"/>
<rect x="30" y="45" width="5" height="5" fill="#FF801E"/>
<rect x="35" y="45" width="5" height="5" fill="#FF801E"/>
<rect x="35" y="50" width="5" height="5" fill="#FF801E"/>
<rect x="35" y="55" width="5" height="5" fill="#FF801E"/>
<rect x="20" y="50" width="5" height="5" fill="#FF801E"/>
<rect x="25" y="50" width="5" height="5" fill="#FF801E"/>
<rect x="30" y="50" width="5" height="5" fill="#FF801E"/>
<rect x="25" y="55" width="5" height="5" fill="#FF801E"/>
<rect x="30" y="55" width="5" height="5" fill="#FF801E"/>
<rect x="20" y="55" width="5" height="5" fill="#FF801E"/>
<rect x="60" y="40" width="5" height="5" fill="#FF801E"/>
<rect x="65" y="40" width="5" height="5" fill="#FF801E"/>
<rect x="60" y="45" width="5" height="5" fill="#FF801E"/>
<rect x="50" y="35" width="5" height="5" fill="#FF801E"/>
<rect x="55" y="40" width="5" height="5" fill="#FF801E"/>
<rect x="55" y="45" width="5" height="5" fill="#FF801E"/>
<rect x="40" y="40" width="5" height="5" fill="#FF801E"/>
<rect x="45" y="40" width="5" height="5" fill="#FF801E"/>
<rect x="50" y="40" width="5" height="5" fill="#FF801E"/>
<rect x="45" y="45" width="5" height="5" fill="#FF801E"/>
<rect x="50" y="45" width="5" height="5" fill="#FF801E"/>
<rect x="40" y="45" width="5" height="5" fill="#FF801E"/>
<rect x="75" y="30" width="5" height="5" fill="#FF801E"/>
<rect x="80" y="30" width="5" height="5" fill="#FF801E"/>
<rect x="75" y="35" width="5" height="5" fill="#FF801E"/>
<rect x="80" y="35" width="5" height="5" fill="#FF801E"/>
<rect x="95" y="30" width="5" height="5" fill="#FF801E"/>
<rect x="100" y="30" width="5" height="5" fill="#FF801E"/>
<rect x="95" y="35" width="5" height="5" fill="#FF801E"/>
<rect x="100" y="35" width="5" height="5" fill="#FF801E"/>
<rect x="95" y="40" width="5" height="5" fill="#FF801E"/>
<rect x="100" y="40" width="5" height="5" fill="#FF801E"/>
<rect x="105" y="45" width="5" height="5" fill="#FF801E"/>
<rect x="10" y="50" width="5" height="5" fill="#FF801E"/>
<rect x="15" y="50" width="5" height="5" fill="#FF801E"/>
<rect x="10" y="55" width="5" height="5" fill="#FF801E"/>
<rect x="5" y="50" width="5" height="5" fill="#FF801E"/>
<rect x="5" y="55" width="5" height="5" fill="#FF801E"/>
<rect y="60" width="5" height="5" fill="#FF801E"/>
<rect y="55" width="5" height="5" fill="#FF801E"/>
<rect x="15" y="55" width="5" height="5" fill="#FF801E"/>
<rect x="10" y="60" width="5" height="5" fill="#FF801E"/>
<rect x="15" y="60" width="5" height="5" fill="#FF801E"/>
<rect x="10" y="65" width="5" height="5" fill="#FF801E"/>
<rect x="20" y="60" width="5" height="5" fill="#FF801E"/>
<rect x="100" y="45" width="5" height="5" fill="#FF801E"/>
<rect x="70" y="30" width="5" height="5" fill="#FF801E"/>
<rect x="70" y="35" width="5" height="5" fill="#FF801E"/>
<rect x="55" y="30" width="5" height="5" fill="#FF801E"/>
<rect x="60" y="30" width="5" height="5" fill="#FF801E"/>
<rect x="65" y="30" width="5" height="5" fill="#FF801E"/>
<rect x="60" y="35" width="5" height="5" fill="#FF801E"/>
<rect x="65" y="35" width="5" height="5" fill="#FF801E"/>
<rect x="55" y="35" width="5" height="5" fill="#FF801E"/>
<rect x="105" y="15" width="5" height="5" fill="#FF801E"/>
<rect x="110" y="15" width="5" height="5" fill="#FF801E"/>
<rect x="115" y="20" width="5" height="5" fill="#FF801E"/>
<rect x="120" y="20" width="5" height="5" fill="#FF801E"/>
<rect x="105" y="20" width="5" height="5" fill="#FF801E"/>
<rect x="110" y="20" width="5" height="5" fill="#FF801E"/>
<rect x="115" y="25" width="5" height="5" fill="#FF801E"/>
<rect x="120" y="25" width="5" height="5" fill="#FF801E"/>
</svg>
