<svg width="139" height="106" viewBox="0 0 139 106" fill="none" xmlns="http://www.w3.org/2000/svg">
<rect x="122.5" y="84.1204" width="5.3125" height="5.32407" fill="#FF801E"/>
<rect x="111.875" y="46.8519" width="5.3125" height="5.32407" fill="#FF801E"/>
<rect x="122.5" y="25.5555" width="5.3125" height="5.32407" fill="#FF801E"/>
<rect x="133.125" y="46.8519" width="5.3125" height="5.32407" fill="#FF801E"/>
<rect x="133.125" y="30.8796" width="5.3125" height="5.32407" fill="#FF801E"/>
<rect x="122.5" y="52.1759" width="5.3125" height="5.32407" fill="#FF801E"/>
<rect x="117.188" y="46.8519" width="5.3125" height="5.32407" fill="#FF801E"/>
<rect x="127.812" y="25.5555" width="5.3125" height="5.32407" fill="#FF801E"/>
<rect width="5.3125" height="5.32407" transform="matrix(1 0 0 -1 133.125 46.8519)" fill="#FF801E"/>
<rect width="5.3125" height="5.32407" transform="matrix(1 0 0 -1 133.125 41.5278)" fill="#FF801E"/>
<rect x="127.812" y="52.1759" width="5.3125" height="5.32407" fill="#FF801E"/>
<rect x="117.188" y="52.1759" width="5.3125" height="5.32407" fill="#FF801E"/>
<rect x="111.875" y="30.8796" width="5.3125" height="5.32407" fill="#FF801E"/>
<rect x="117.188" y="25.5555" width="5.3125" height="5.32407" fill="#FF801E"/>
<rect x="95.9375" y="62.8241" width="5.3125" height="5.32407" fill="#FF801E"/>
<rect x="90.625" y="68.1481" width="5.3125" height="5.32407" fill="#FF801E"/>
<rect x="95.9375" y="46.8519" width="5.3125" height="5.32407" fill="#FF801E"/>
<rect x="101.25" y="46.8519" width="5.3125" height="5.32407" fill="#FF801E"/>
<rect x="122.5" y="30.8796" width="5.3125" height="5.32407" fill="#FF801E"/>
<rect x="127.812" y="30.8796" width="5.3125" height="5.32407" fill="#FF801E"/>
<rect x="122.5" y="36.2037" width="5.3125" height="5.32407" fill="#FF801E"/>
<rect x="127.812" y="36.2037" width="5.3125" height="5.32407" fill="#FF801E"/>
<rect x="111.875" y="36.2037" width="5.3125" height="5.32407" fill="#FF801E"/>
<rect x="117.188" y="30.8796" width="5.3125" height="5.32407" fill="#FF801E"/>
<rect x="101.25" y="73.4722" width="5.3125" height="5.32407" fill="#FF801E"/>
<rect x="106.562" y="73.4722" width="5.3125" height="5.32407" fill="#FF801E"/>
<rect x="106.562" y="78.7963" width="5.3125" height="5.32407" fill="#FF801E"/>
<rect x="101.25" y="84.1204" width="5.3125" height="5.32407" fill="#FF801E"/>
<rect x="106.562" y="84.1204" width="5.3125" height="5.32407" fill="#FF801E"/>
<rect x="111.875" y="84.1204" width="5.3125" height="5.32407" fill="#FF801E"/>
<rect x="117.188" y="84.1204" width="5.3125" height="5.32407" fill="#FF801E"/>
<rect x="122.5" y="89.4445" width="5.3125" height="5.32407" fill="#FF801E"/>
<rect x="127.812" y="89.4445" width="5.3125" height="5.32407" fill="#FF801E"/>
<rect x="106.562" y="89.4445" width="5.3125" height="5.32407" fill="#FF801E"/>
<rect x="111.875" y="89.4445" width="5.3125" height="5.32407" fill="#FF801E"/>
<rect x="85.3125" y="62.8241" width="5.3125" height="5.32407" fill="#FF801E"/>
<rect x="117.188" y="89.4445" width="5.3125" height="5.32407" fill="#FF801E"/>
<rect x="90.625" y="52.1759" width="5.3125" height="5.32407" fill="#FF801E"/>
<rect x="95.9375" y="52.1759" width="5.3125" height="5.32407" fill="#FF801E"/>
<rect x="80" y="62.8241" width="5.3125" height="5.32407" fill="#FF801E"/>
<rect x="101.25" y="68.1481" width="5.3125" height="5.32407" fill="#FF801E"/>
<rect x="74.6875" y="62.8241" width="5.3125" height="5.32407" fill="#FF801E"/>
<rect x="69.375" y="68.1481" width="5.3125" height="5.32407" fill="#FF801E"/>
<rect x="90.625" y="57.5" width="5.3125" height="5.32407" fill="#FF801E"/>
<rect x="48.125" y="57.5" width="5.3125" height="5.32407" fill="#FF801E"/>
<rect x="37.5" y="62.8241" width="5.3125" height="5.32407" fill="#FF801E"/>
<rect x="26.875" y="68.1481" width="5.3125" height="5.32407" fill="#FF801E"/>
<rect x="21.5625" y="68.1481" width="5.3125" height="5.32407" fill="#FF801E"/>
<rect x="26.875" y="84.1204" width="5.3125" height="5.32407" fill="#FF801E"/>
<rect x="5.625" y="89.4445" width="5.3125" height="5.32407" fill="#FF801E"/>
<rect x="5.625" y="84.1204" width="5.3125" height="5.32407" fill="#FF801E"/>
<rect x="101.25" y="78.7963" width="5.3125" height="5.32407" fill="#FF801E"/>
<rect x="127.812" y="84.1204" width="5.3125" height="5.32407" fill="#FF801E"/>
<rect x="90.625" y="62.8241" width="5.3125" height="5.32407" fill="#FF801E"/>
<rect x="90.625" y="46.8519" width="5.3125" height="5.32407" fill="#FF801E"/>
<rect x="95.9375" y="57.5" width="5.3125" height="5.32407" fill="#FF801E"/>
<rect x="74.6875" y="68.1481" width="5.3125" height="5.32407" fill="#FF801E"/>
<rect x="80" y="68.1481" width="5.3125" height="5.32407" fill="#FF801E"/>
<rect x="85.3125" y="68.1481" width="5.3125" height="5.32407" fill="#FF801E"/>
<rect x="80" y="46.8519" width="5.3125" height="5.32407" fill="#FF801E"/>
<rect x="85.3125" y="46.8519" width="5.3125" height="5.32407" fill="#FF801E"/>
<rect x="69.375" y="46.8519" width="5.3125" height="5.32407" fill="#FF801E"/>
<rect x="74.6875" y="46.8519" width="5.3125" height="5.32407" fill="#FF801E"/>
<rect x="42.8125" y="73.4722" width="5.3125" height="5.32407" fill="#FF801E"/>
<rect x="48.125" y="73.4722" width="5.3125" height="5.32407" fill="#FF801E"/>
<rect x="32.1875" y="68.1481" width="5.3125" height="5.32407" fill="#FF801E"/>
<rect x="37.5" y="68.1481" width="5.3125" height="5.32407" fill="#FF801E"/>
<rect x="37.5" y="73.4722" width="5.3125" height="5.32407" fill="#FF801E"/>
<rect x="37.5" y="78.7963" width="5.3125" height="5.32407" fill="#FF801E"/>
<rect x="21.5625" y="73.4722" width="5.3125" height="5.32407" fill="#FF801E"/>
<rect x="26.875" y="73.4722" width="5.3125" height="5.32407" fill="#FF801E"/>
<rect x="32.1875" y="73.4722" width="5.3125" height="5.32407" fill="#FF801E"/>
<rect x="26.875" y="78.7963" width="5.3125" height="5.32407" fill="#FF801E"/>
<rect x="32.1875" y="78.7963" width="5.3125" height="5.32407" fill="#FF801E"/>
<rect x="21.5625" y="78.7963" width="5.3125" height="5.32407" fill="#FF801E"/>
<rect x="64.0625" y="62.8241" width="5.3125" height="5.32407" fill="#FF801E"/>
<rect x="69.375" y="62.8241" width="5.3125" height="5.32407" fill="#FF801E"/>
<rect x="64.0625" y="68.1481" width="5.3125" height="5.32407" fill="#FF801E"/>
<rect x="53.4375" y="57.5" width="5.3125" height="5.32407" fill="#FF801E"/>
<rect x="58.75" y="62.8241" width="5.3125" height="5.32407" fill="#FF801E"/>
<rect x="58.75" y="68.1481" width="5.3125" height="5.32407" fill="#FF801E"/>
<rect x="42.8125" y="62.8241" width="5.3125" height="5.32407" fill="#FF801E"/>
<rect x="48.125" y="62.8241" width="5.3125" height="5.32407" fill="#FF801E"/>
<rect x="53.4375" y="62.8241" width="5.3125" height="5.32407" fill="#FF801E"/>
<rect x="48.125" y="68.1481" width="5.3125" height="5.32407" fill="#FF801E"/>
<rect x="53.4375" y="68.1481" width="5.3125" height="5.32407" fill="#FF801E"/>
<rect x="42.8125" y="68.1481" width="5.3125" height="5.32407" fill="#FF801E"/>
<rect x="80" y="52.1759" width="5.3125" height="5.32407" fill="#FF801E"/>
<rect x="85.3125" y="52.1759" width="5.3125" height="5.32407" fill="#FF801E"/>
<rect x="80" y="57.5" width="5.3125" height="5.32407" fill="#FF801E"/>
<rect x="85.3125" y="57.5" width="5.3125" height="5.32407" fill="#FF801E"/>
<rect x="101.25" y="52.1759" width="5.3125" height="5.32407" fill="#FF801E"/>
<rect x="106.562" y="52.1759" width="5.3125" height="5.32407" fill="#FF801E"/>
<rect x="101.25" y="57.5" width="5.3125" height="5.32407" fill="#FF801E"/>
<rect x="106.562" y="57.5" width="5.3125" height="5.32407" fill="#FF801E"/>
<rect x="101.25" y="62.8241" width="5.3125" height="5.32407" fill="#FF801E"/>
<rect x="106.562" y="62.8241" width="5.3125" height="5.32407" fill="#FF801E"/>
<rect x="10.9375" y="73.4722" width="5.3125" height="5.32407" fill="#FF801E"/>
<rect x="16.25" y="73.4722" width="5.3125" height="5.32407" fill="#FF801E"/>
<rect x="10.9375" y="78.7963" width="5.3125" height="5.32407" fill="#FF801E"/>
<rect x="5.625" y="73.4722" width="5.3125" height="5.32407" fill="#FF801E"/>
<rect x="5.625" y="78.7963" width="5.3125" height="5.32407" fill="#FF801E"/>
<rect x="0.3125" y="84.1204" width="5.3125" height="5.32407" fill="#FF801E"/>
<rect x="0.3125" y="78.7963" width="5.3125" height="5.32407" fill="#FF801E"/>
<rect x="16.25" y="78.7963" width="5.3125" height="5.32407" fill="#FF801E"/>
<rect x="10.9375" y="84.1204" width="5.3125" height="5.32407" fill="#FF801E"/>
<rect x="16.25" y="84.1204" width="5.3125" height="5.32407" fill="#FF801E"/>
<rect x="10.9375" y="89.4445" width="5.3125" height="5.32407" fill="#FF801E"/>
<rect x="21.5625" y="84.1204" width="5.3125" height="5.32407" fill="#FF801E"/>
<rect x="106.562" y="68.1481" width="5.3125" height="5.32407" fill="#FF801E"/>
<rect x="74.6875" y="52.1759" width="5.3125" height="5.32407" fill="#FF801E"/>
<rect x="74.6875" y="57.5" width="5.3125" height="5.32407" fill="#FF801E"/>
<rect x="58.75" y="52.1759" width="5.3125" height="5.32407" fill="#FF801E"/>
<rect x="64.0625" y="52.1759" width="5.3125" height="5.32407" fill="#FF801E"/>
<rect x="69.375" y="52.1759" width="5.3125" height="5.32407" fill="#FF801E"/>
<rect x="64.0625" y="57.5" width="5.3125" height="5.32407" fill="#FF801E"/>
<rect x="69.375" y="57.5" width="5.3125" height="5.32407" fill="#FF801E"/>
<rect x="58.75" y="57.5" width="5.3125" height="5.32407" fill="#FF801E"/>
<rect x="111.875" y="41.5278" width="5.3125" height="5.32407" fill="#FF801E"/>
<rect x="117.188" y="36.2037" width="5.3125" height="5.32407" fill="#FF801E"/>
<rect x="122.5" y="41.5278" width="5.3125" height="5.32407" fill="#FF801E"/>
<rect x="127.812" y="41.5278" width="5.3125" height="5.32407" fill="#FF801E"/>
<rect x="106.562" y="46.8519" width="5.3125" height="5.32407" fill="#FF801E"/>
<rect x="117.188" y="41.5278" width="5.3125" height="5.32407" fill="#FF801E"/>
<rect x="122.5" y="46.8519" width="5.3125" height="5.32407" fill="#FF801E"/>
<rect x="127.812" y="46.8519" width="5.3125" height="5.32407" fill="#FF801E"/>
</svg>
