<svg width="70" height="37" viewBox="0 0 70 37" fill="none" xmlns="http://www.w3.org/2000/svg">
<rect width="68.7478" height="33.1075" rx="16.5537" fill="#FF801E"/>
<rect x="1.18652" y="2.32141" width="68.7478" height="33.1075" rx="16.5537" fill="#FF801E" fill-opacity="0.64"/>
<path d="M8.12379 13.5H10.3738V12.75H11.8738V13.5H14.1238V14.25H11.8738V15.75H12.6238V16.5H13.3738V17.25H14.1238V18H12.6238V17.25H11.8738V16.5H10.3738V17.25H9.62379V18H8.12379V17.25H8.87379V16.5H9.62379V15.75H10.3738V14.25H8.12379V13.5ZM16.3738 12.75H17.8738V18H16.3738V12.75ZM8.87379 18.75H10.3738V21.75H17.8738V22.5H9.62379V21.75H8.87379V18.75ZM20.8738 13.5H29.8738V18H29.1238V18.75H27.6238V18H28.3738V14.25H20.8738V13.5ZM20.1238 18.75H30.6238V19.5H26.1238V22.5H24.6238V19.5H20.1238V18.75ZM38.8738 13.5H42.6238V12.75H44.1238V13.5H47.8738V14.25H44.1238V15.75H44.8738V16.5H45.6238V17.25H47.8738V18H44.8738V17.25H44.1238V16.5H42.6238V17.25H41.8738V18H38.8738V17.25H41.1238V16.5H41.8738V15.75H42.6238V14.25H38.8738V13.5ZM38.1238 18.75H48.6238V19.5H44.1238V22.5H42.6238V19.5H38.1238V18.75ZM50.1238 13.5H54.6238V20.25H53.8738V21H53.1238V21.75H50.8738V21H52.3738V20.25H53.1238V14.25H50.1238V13.5ZM57.6238 12.75H59.1238V17.25H61.3738V18H59.1238V22.5H57.6238V12.75Z" fill="white"/>
</svg>
