<svg width="70" height="31" viewBox="0 0 70 31" fill="none" xmlns="http://www.w3.org/2000/svg">
<rect x="12.5933" y="6.23682" width="6.27273" height="6" fill="black" fill-opacity="0.9"/>
<rect x="18.8662" y="6.23682" width="6.27273" height="6" fill="black" fill-opacity="0.9"/>
<rect x="6.3208" y="6.23682" width="6.27273" height="6" fill="black" fill-opacity="0.9"/>
<rect x="12.5933" y="12.2368" width="6.27273" height="6" fill="black" fill-opacity="0.9"/>
<rect x="18.8662" y="12.2368" width="6.27273" height="6" fill="black" fill-opacity="0.9"/>
<rect x="6.3208" y="12.2368" width="6.27273" height="6" fill="black" fill-opacity="0.9"/>
<rect x="18.8662" y="18.2368" width="6.27273" height="6" fill="black" fill-opacity="0.9"/>
<rect x="25.1387" y="18.2368" width="6.27273" height="6" fill="black" fill-opacity="0.9"/>
<rect x="12.5933" y="18.2368" width="6.27273" height="6" fill="black" fill-opacity="0.9"/>
<rect x="56.5024" y="6.23682" width="6.27273" height="6" fill="black" fill-opacity="0.9"/>
<rect x="56.5024" y="12.2368" width="6.27273" height="6" fill="black" fill-opacity="0.9"/>
<rect x="56.5024" y="18.2368" width="6.27273" height="6" fill="black" fill-opacity="0.9"/>
<rect x="43.957" y="6.23682" width="6.27273" height="6" fill="black" fill-opacity="0.9"/>
<rect x="50.2295" y="6.23682" width="6.27273" height="6" fill="black" fill-opacity="0.9"/>
<rect x="37.6841" y="6.23682" width="6.27273" height="6" fill="black" fill-opacity="0.9"/>
<rect x="43.957" y="12.2368" width="6.27273" height="6" fill="black" fill-opacity="0.9"/>
<rect x="50.2295" y="12.2368" width="6.27273" height="6" fill="black" fill-opacity="0.9"/>
<rect x="37.6841" y="12.2368" width="6.27273" height="6" fill="black" fill-opacity="0.9"/>
<rect x="43.957" y="18.2368" width="6.27273" height="6" fill="black" fill-opacity="0.9"/>
<rect x="50.2295" y="18.2368" width="6.27273" height="6" fill="black" fill-opacity="0.9"/>
<rect x="37.6841" y="18.2368" width="6.27273" height="6" fill="black" fill-opacity="0.9"/>
<rect x="6.3208" y="18.2368" width="6.27273" height="6" fill="black" fill-opacity="0.9"/>
<rect x="25.1387" y="6.23682" width="6.27273" height="6" fill="black" fill-opacity="0.9"/>
<rect x="31.4116" y="6.23682" width="6.27273" height="6" fill="black" fill-opacity="0.9"/>
<rect x="25.1387" y="12.2368" width="6.27273" height="6" fill="black" fill-opacity="0.9"/>
<rect x="62.7749" y="18.2368" width="6.27273" height="6" fill="black"/>
<rect x="0.0478516" y="6.23682" width="6.27273" height="6" fill="black"/>
<rect x="0.0478516" y="12.2368" width="6.27273" height="6" fill="black"/>
<rect x="0.0478516" y="18.2368" width="6.27273" height="6" fill="black"/>
<rect x="6.3208" y="24.2368" width="6.27273" height="6" fill="black"/>
<rect x="62.7749" y="12.2368" width="6.27273" height="6" fill="black"/>
<rect x="62.7749" y="6.23682" width="6.27273" height="6" fill="black"/>
<rect x="12.5933" y="0.236816" width="6.27273" height="6" fill="black"/>
<rect x="18.8662" y="0.236816" width="6.27273" height="6" fill="black"/>
<rect x="12.5933" y="24.2368" width="6.27273" height="6" fill="black"/>
<rect x="18.8662" y="24.2368" width="6.27273" height="6" fill="black"/>
<rect x="25.1387" y="24.2368" width="6.27273" height="6" fill="black"/>
<rect x="31.4116" y="18.2368" width="6.27273" height="6" fill="black"/>
<rect x="37.6841" y="24.2368" width="6.27273" height="6" fill="black"/>
<rect x="56.5024" y="24.2368" width="6.27273" height="6" fill="black"/>
<rect x="43.957" y="24.2368" width="6.27273" height="6" fill="black"/>
<rect x="50.2295" y="24.2368" width="6.27273" height="6" fill="black"/>
<rect x="31.4116" y="12.2368" width="6.27273" height="6" fill="black"/>
<rect width="6.27273" height="6" transform="matrix(-1 0 0 1 50.2295 0.236816)" fill="black"/>
<rect width="6.27273" height="6" transform="matrix(-1 0 0 1 43.957 0.236816)" fill="black"/>
<rect width="6.27273" height="6" transform="matrix(-1 0 0 1 62.7749 0.236816)" fill="black"/>
<rect width="6.27273" height="6" transform="matrix(-1 0 0 1 56.5024 0.236816)" fill="black"/>
<rect width="6.27273" height="6" transform="matrix(-1 0 0 1 31.4116 0.236816)" fill="black"/>
<rect width="6.27273" height="6" transform="matrix(-1 0 0 1 37.6841 0.236816)" fill="black"/>
<rect width="6.27273" height="6" transform="matrix(-1 0 0 1 12.5933 0.236816)" fill="black"/>
</svg>
