<svg width="69" height="30" viewBox="0 0 69 30" fill="none" xmlns="http://www.w3.org/2000/svg">
<rect x="12.5454" y="6" width="6.27273" height="6" fill="#FF0004"/>
<rect x="18.8184" y="6" width="6.27273" height="6" fill="#FF0004"/>
<rect x="6.27295" y="6" width="6.27273" height="6" fill="#FF0004"/>
<rect x="12.5454" y="12" width="6.27273" height="6" fill="#FF0004"/>
<rect x="18.8184" y="12" width="6.27273" height="6" fill="#FF0004"/>
<rect x="6.27295" y="12" width="6.27273" height="6" fill="#FF0004"/>
<rect x="18.8184" y="18" width="6.27273" height="6" fill="#FF0004"/>
<rect x="25.0908" y="18" width="6.27273" height="6" fill="#FF0004"/>
<rect x="12.5454" y="18" width="6.27273" height="6" fill="#FF0004"/>
<rect x="56.4546" y="6" width="6.27273" height="6" fill="#FF0004"/>
<rect x="56.4546" y="12" width="6.27273" height="6" fill="#FF0004"/>
<rect x="56.4546" y="18" width="6.27273" height="6" fill="#FF0004"/>
<rect x="43.9092" y="6" width="6.27273" height="6" fill="#FF0004"/>
<rect x="50.1816" y="6" width="6.27273" height="6" fill="#FF0004"/>
<rect x="37.6362" y="6" width="6.27273" height="6" fill="#FF0004"/>
<rect x="43.9092" y="12" width="6.27273" height="6" fill="#FF0004"/>
<rect x="50.1816" y="12" width="6.27273" height="6" fill="#FF0004"/>
<rect x="37.6362" y="12" width="6.27273" height="6" fill="#FF0004"/>
<rect x="43.9092" y="18" width="6.27273" height="6" fill="#FF0004"/>
<rect x="50.1816" y="18" width="6.27273" height="6" fill="#FF0004"/>
<rect x="37.6362" y="18" width="6.27273" height="6" fill="#FF0004"/>
<rect x="6.27295" y="18" width="6.27273" height="6" fill="#FF0004"/>
<rect x="25.0908" y="6" width="6.27273" height="6" fill="#FF0004"/>
<rect x="31.3638" y="6" width="6.27273" height="6" fill="#FF0004"/>
<rect x="25.0908" y="12" width="6.27273" height="6" fill="#FF0004"/>
<rect x="62.7271" y="18" width="6.27273" height="6" fill="black"/>
<rect y="6" width="6.27273" height="6" fill="black"/>
<rect y="12" width="6.27273" height="6" fill="black"/>
<rect y="18" width="6.27273" height="6" fill="black"/>
<rect x="6.27295" y="24" width="6.27273" height="6" fill="black"/>
<rect x="62.7271" y="12" width="6.27273" height="6" fill="black"/>
<rect x="62.7271" y="6" width="6.27273" height="6" fill="black"/>
<rect x="12.5454" width="6.27273" height="6" fill="black"/>
<rect x="18.8184" width="6.27273" height="6" fill="black"/>
<rect x="12.5454" y="24" width="6.27273" height="6" fill="black"/>
<rect x="18.8184" y="24" width="6.27273" height="6" fill="black"/>
<rect x="25.0908" y="24" width="6.27273" height="6" fill="black"/>
<rect x="31.3638" y="18" width="6.27273" height="6" fill="black"/>
<rect x="37.6362" y="24" width="6.27273" height="6" fill="black"/>
<rect x="56.4546" y="24" width="6.27273" height="6" fill="black"/>
<rect x="43.9092" y="24" width="6.27273" height="6" fill="black"/>
<rect x="50.1816" y="24" width="6.27273" height="6" fill="black"/>
<rect x="31.3638" y="12" width="6.27273" height="6" fill="black"/>
<rect width="6.27273" height="6" transform="matrix(-1 0 0 1 50.1816 0)" fill="black"/>
<rect width="6.27273" height="6" transform="matrix(-1 0 0 1 43.9092 0)" fill="black"/>
<rect width="6.27273" height="6" transform="matrix(-1 0 0 1 62.7271 0)" fill="black"/>
<rect width="6.27273" height="6" transform="matrix(-1 0 0 1 56.4546 0)" fill="black"/>
<rect width="6.27273" height="6" transform="matrix(-1 0 0 1 31.3638 0)" fill="black"/>
<rect width="6.27273" height="6" transform="matrix(-1 0 0 1 37.6362 0)" fill="black"/>
<rect width="6.27273" height="6" transform="matrix(-1 0 0 1 12.5454 0)" fill="black"/>
</svg>
