<svg width="69" height="30" viewBox="0 0 69 30" fill="none" xmlns="http://www.w3.org/2000/svg">
<rect x="12.5439" y="6" width="6.27273" height="6" fill="#338C00"/>
<rect x="18.8164" y="6" width="6.27273" height="6" fill="#338C00"/>
<rect x="6.27197" y="6" width="6.27273" height="6" fill="#338C00"/>
<rect x="12.5439" y="12" width="6.27273" height="6" fill="#338C00"/>
<rect x="18.8164" y="12" width="6.27273" height="6" fill="#338C00"/>
<rect x="6.27197" y="12" width="6.27273" height="6" fill="#338C00"/>
<rect x="18.8164" y="18" width="6.27273" height="6" fill="#338C00"/>
<rect x="25.0889" y="18" width="6.27273" height="6" fill="#338C00"/>
<rect x="12.5439" y="18" width="6.27273" height="6" fill="#338C00"/>
<rect x="56.4551" y="6" width="6.27273" height="6" fill="#338C00"/>
<rect x="56.4551" y="12" width="6.27273" height="6" fill="#338C00"/>
<rect x="56.4551" y="18" width="6.27273" height="6" fill="#338C00"/>
<rect x="43.9111" y="6" width="6.27273" height="6" fill="#338C00"/>
<rect x="50.1831" y="6" width="6.27273" height="6" fill="#338C00"/>
<rect x="37.6387" y="6" width="6.27273" height="6" fill="#338C00"/>
<rect x="43.9111" y="12" width="6.27273" height="6" fill="#338C00"/>
<rect x="50.1831" y="12" width="6.27273" height="6" fill="#338C00"/>
<rect x="37.6387" y="12" width="6.27273" height="6" fill="#338C00"/>
<rect x="43.9111" y="18" width="6.27273" height="6" fill="#338C00"/>
<rect x="50.1831" y="18" width="6.27273" height="6" fill="#338C00"/>
<rect x="37.6387" y="18" width="6.27273" height="6" fill="#338C00"/>
<rect x="6.27197" y="18" width="6.27273" height="6" fill="#338C00"/>
<rect x="25.0889" y="6" width="6.27273" height="6" fill="#338C00"/>
<rect x="31.3608" y="6" width="6.27273" height="6" fill="#338C00"/>
<rect x="25.0889" y="12" width="6.27273" height="6" fill="#338C00"/>
<rect x="62.7275" y="18" width="6.27273" height="6" fill="black"/>
<rect y="6" width="6.27273" height="6" fill="black"/>
<rect y="12" width="6.27273" height="6" fill="black"/>
<rect y="18" width="6.27273" height="6" fill="black"/>
<rect x="6.27246" y="24" width="6.27273" height="6" fill="black"/>
<rect x="62.7275" y="12" width="6.27273" height="6" fill="black"/>
<rect x="62.7275" y="6" width="6.27273" height="6" fill="black"/>
<rect x="12.5444" width="6.27273" height="6" fill="black"/>
<rect x="18.8164" width="6.27273" height="6" fill="black"/>
<rect x="12.5444" y="24" width="6.27273" height="6" fill="black"/>
<rect x="18.8164" y="24" width="6.27273" height="6" fill="black"/>
<rect x="25.0889" y="24" width="6.27273" height="6" fill="black"/>
<rect x="31.3613" y="18" width="6.27273" height="6" fill="black"/>
<rect x="37.6387" y="24" width="6.27273" height="6" fill="black"/>
<rect x="56.4556" y="24" width="6.27273" height="6" fill="black"/>
<rect x="43.9111" y="24" width="6.27273" height="6" fill="black"/>
<rect x="50.1836" y="24" width="6.27273" height="6" fill="black"/>
<rect x="31.3613" y="12" width="6.27273" height="6" fill="black"/>
<rect width="6.27273" height="6" transform="matrix(-1 0 0 1 50.1836 0)" fill="black"/>
<rect width="6.27273" height="6" transform="matrix(-1 0 0 1 43.9111 0)" fill="black"/>
<rect width="6.27273" height="6" transform="matrix(-1 0 0 1 62.7275 0)" fill="black"/>
<rect width="6.27273" height="6" transform="matrix(-1 0 0 1 56.4556 0)" fill="black"/>
<rect width="6.27273" height="6" transform="matrix(-1 0 0 1 31.3613 0)" fill="black"/>
<rect width="6.27273" height="6" transform="matrix(-1 0 0 1 37.6387 0)" fill="black"/>
<rect width="6.27273" height="6" transform="matrix(-1 0 0 1 12.5444 0)" fill="black"/>
</svg>
