<svg width="69" height="31" viewBox="0 0 69 31" fill="none" xmlns="http://www.w3.org/2000/svg">
<rect x="12.5376" y="6.23682" width="6.27273" height="6" fill="#FF801E"/>
<rect x="18.8105" y="6.23682" width="6.27273" height="6" fill="#FF801E"/>
<rect x="6.26514" y="6.23682" width="6.27273" height="6" fill="#FF801E"/>
<rect x="12.5376" y="12.2368" width="6.27273" height="6" fill="#FF801E"/>
<rect x="18.8105" y="12.2368" width="6.27273" height="6" fill="#FF801E"/>
<rect x="6.26514" y="12.2368" width="6.27273" height="6" fill="#FF801E"/>
<rect x="18.8105" y="18.2368" width="6.27273" height="6" fill="#FF801E"/>
<rect x="25.083" y="18.2368" width="6.27273" height="6" fill="#FF801E"/>
<rect x="12.5376" y="18.2368" width="6.27273" height="6" fill="#FF801E"/>
<rect x="56.4468" y="6.23682" width="6.27273" height="6" fill="#FF801E"/>
<rect x="56.4468" y="12.2368" width="6.27273" height="6" fill="#FF801E"/>
<rect x="56.4468" y="18.2368" width="6.27273" height="6" fill="#FF801E"/>
<rect x="43.9014" y="6.23682" width="6.27273" height="6" fill="#FF801E"/>
<rect x="50.1738" y="6.23682" width="6.27273" height="6" fill="#FF801E"/>
<rect x="37.6284" y="6.23682" width="6.27273" height="6" fill="#FF801E"/>
<rect x="43.9014" y="12.2368" width="6.27273" height="6" fill="#FF801E"/>
<rect x="50.1738" y="12.2368" width="6.27273" height="6" fill="#FF801E"/>
<rect x="37.6284" y="12.2368" width="6.27273" height="6" fill="#FF801E"/>
<rect x="43.9014" y="18.2368" width="6.27273" height="6" fill="#FF801E"/>
<rect x="50.1738" y="18.2368" width="6.27273" height="6" fill="#FF801E"/>
<rect x="37.6284" y="18.2368" width="6.27273" height="6" fill="#FF801E"/>
<rect x="6.26514" y="18.2368" width="6.27273" height="6" fill="#FF801E"/>
<rect x="25.083" y="6.23682" width="6.27273" height="6" fill="#FF801E"/>
<rect x="31.356" y="6.23682" width="6.27273" height="6" fill="#FF801E"/>
<rect x="25.083" y="12.2368" width="6.27273" height="6" fill="#FF801E"/>
<rect x="62.7192" y="18.2368" width="6.27273" height="6" fill="black"/>
<rect x="-0.0078125" y="6.23682" width="6.27273" height="6" fill="black"/>
<rect x="-0.0078125" y="12.2368" width="6.27273" height="6" fill="black"/>
<rect x="-0.0078125" y="18.2368" width="6.27273" height="6" fill="black"/>
<rect x="6.26514" y="24.2368" width="6.27273" height="6" fill="black"/>
<rect x="62.7192" y="12.2368" width="6.27273" height="6" fill="black"/>
<rect x="62.7192" y="6.23682" width="6.27273" height="6" fill="black"/>
<rect x="12.5376" y="0.236816" width="6.27273" height="6" fill="black"/>
<rect x="18.8105" y="0.236816" width="6.27273" height="6" fill="black"/>
<rect x="12.5376" y="24.2368" width="6.27273" height="6" fill="black"/>
<rect x="18.8105" y="24.2368" width="6.27273" height="6" fill="black"/>
<rect x="25.083" y="24.2368" width="6.27273" height="6" fill="black"/>
<rect x="31.356" y="18.2368" width="6.27273" height="6" fill="black"/>
<rect x="37.6284" y="24.2368" width="6.27273" height="6" fill="black"/>
<rect x="56.4468" y="24.2368" width="6.27273" height="6" fill="black"/>
<rect x="43.9014" y="24.2368" width="6.27273" height="6" fill="black"/>
<rect x="50.1738" y="24.2368" width="6.27273" height="6" fill="black"/>
<rect x="31.356" y="12.2368" width="6.27273" height="6" fill="black"/>
<rect width="6.27273" height="6" transform="matrix(-1 0 0 1 50.1738 0.236816)" fill="black"/>
<rect width="6.27273" height="6" transform="matrix(-1 0 0 1 43.9014 0.236816)" fill="black"/>
<rect width="6.27273" height="6" transform="matrix(-1 0 0 1 62.7192 0.236816)" fill="black"/>
<rect width="6.27273" height="6" transform="matrix(-1 0 0 1 56.4468 0.236816)" fill="black"/>
<rect width="6.27273" height="6" transform="matrix(-1 0 0 1 31.356 0.236816)" fill="black"/>
<rect width="6.27273" height="6" transform="matrix(-1 0 0 1 37.6284 0.236816)" fill="black"/>
<rect width="6.27273" height="6" transform="matrix(-1 0 0 1 12.5376 0.236816)" fill="black"/>
</svg>
