<svg width="87" height="49" viewBox="0 0 87 49" fill="none" xmlns="http://www.w3.org/2000/svg">
<rect x="1" y="4" width="86" height="45" rx="22.5" fill="#1B6FFF" fill-opacity="0.6"/>
<rect y="1" width="86" height="45" rx="22.5" fill="#1B6FFF"/>
<path d="M24.75 16.5H28.5V15.25H31V16.5H34.75V17.75H31V19H32.25V20.25H33.5V21.5H34.75V22.75H32.25V21.5H31V20.25H28.5V21.5H27.25V22.75H24.75V21.5H26V20.25H27.25V19H28.5V17.75H24.75V16.5ZM24.75 24H38.5V15.25H41V31.5H38.5V25.25H31V31.5H28.5V25.25H24.75V24ZM46 22.75H49.75V21.5H51V20.25H52.25V16.5H54.75V20.25H56V21.5H57.25V22.75H61V24H56V22.75H54.75V21.5H52.25V22.75H51V24H46V22.75ZM44.75 29H52.25V25.25H54.75V29H62.25V30.25H44.75V29Z" fill="white"/>
</svg>
