<svg width="47" height="20" viewBox="0 0 47 20" fill="none" xmlns="http://www.w3.org/2000/svg">
<path d="M1.5 2H4.5V0.5H16.5V2H19.5V6.5H16.5V8H4.5V6.5H1.5V2ZM4.5 3.5V5H6V6.5H15V5H16.5V3.5H15V2H6V3.5H4.5ZM0 9.5H9V6.5H12V9.5H21V11H0V9.5ZM1.5 18.5H6V17H7.5V15.5H9V12.5H12V15.5H13.5V17H15V18.5H19.5V20H13.5V18.5H12V17H9V18.5H7.5V20H1.5V18.5ZM24 0.5H36V2H31.5V6.5H33V8H34.5V9.5H36V11H33V9.5H31.5V8H28.5V9.5H27V11H24V9.5H25.5V8H27V6.5H28.5V2H24V0.5ZM39 0.5H42V5H46.5V6.5H42V11H39V0.5ZM25.5 14H28.5V12.5H39V14H42V18.5H39V20H28.5V18.5H25.5V14ZM28.5 15.5V17H30V18.5H37.5V17H39V15.5H37.5V14H30V15.5H28.5Z" fill="black"/>
</svg>
