<svg width="114" height="48" viewBox="0 0 114 48" fill="none" xmlns="http://www.w3.org/2000/svg">
<rect x="3" y="3" width="109" height="45" rx="22.5" fill="#FF801E" fill-opacity="0.64"/>
<rect x="2" width="109" height="45" rx="22.5" fill="#FF801E"/>
<path d="M14.5 16.5H17V15.25H27V16.5H29.5V20.25H27V21.5H17V20.25H14.5V16.5ZM17 17.75V19H18.25V20.25H25.75V19H27V17.75H25.75V16.5H18.25V17.75H17ZM13.25 22.75H20.75V20.25H23.25V22.75H30.75V24H13.25V22.75ZM14.5 30.25H18.25V29H19.5V27.75H20.75V25.25H23.25V27.75H24.5V29H25.75V30.25H29.5V31.5H24.5V30.25H23.25V29H20.75V30.25H19.5V31.5H14.5V30.25ZM43.25 17.75H44.5V16.5H45.75V15.25H50.75V16.5H52V17.75H53.25V21.5H52V22.75H50.75V24H45.75V22.75H44.5V21.5H43.25V17.75ZM45.75 17.75V21.5H47V22.75H49.5V21.5H50.75V17.75H49.5V16.5H47V17.75H45.75ZM57 15.25H59.5V24H57V15.25ZM44.5 25.25H47V27.75H57V25.25H59.5V30.25H58.25V31.5H45.75V30.25H44.5V25.25ZM47 29V30.25H57V29H47ZM63.25 16.5H67V15.25H69.5V16.5H73.25V17.75H63.25V16.5ZM63.25 21.5H64.5V20.25H65.75V19H70.75V20.25H72V21.5H73.25V27.75H72V29H70.75V30.25H65.75V29H64.5V27.75H63.25V21.5ZM65.75 21.5V27.75H67V29H69.5V27.75H70.75V21.5H69.5V20.25H67V21.5H65.75ZM77 15.25H79.5V31.5H77V15.25ZM83.25 16.5H90.75V27.75H89.5V29H88.25V30.25H84.5V29H87V27.75H88.25V17.75H83.25V16.5ZM97 15.25H99.5V31.5H97V15.25Z" fill="white"/>
</svg>
