<svg width="151" height="54" viewBox="0 0 151 54" fill="none" xmlns="http://www.w3.org/2000/svg">
<rect x="1" y="3" width="147" height="51" rx="25.5" fill="#FF801E" fill-opacity="0.64"/>
<rect width="147" height="51" rx="25.5" fill="#FF801E"/>
<path d="M13 18.5H15.5V17.25H25.5V18.5H28V22.25H25.5V23.5H15.5V22.25H13V18.5ZM15.5 19.75V21H16.75V22.25H24.25V21H25.5V19.75H24.25V18.5H16.75V19.75H15.5ZM11.75 24.75H29.25V26H21.75V28.5H19.25V26H11.75V24.75ZM13 27.25H15.5V32.25H28V33.5H14.25V32.25H13V27.25ZM33 17.25H48V18.5H35.5V22.25H48V23.5H34.25V22.25H33V17.25ZM31.75 24.75H39.25V22.25H41.75V24.75H49.25V26H31.75V24.75ZM33 28.5H35.5V27.25H45.5V28.5H48V32.25H45.5V33.5H35.5V32.25H33V28.5ZM35.5 29.75V31H36.75V32.25H44.25V31H45.5V29.75H44.25V28.5H36.75V29.75H35.5ZM61.75 31H63V29.75H64.25V28.5H65.5V18.5H68V28.5H69.25V29.75H70.5V31H71.75V32.25H69.25V31H68V29.75H65.5V31H64.25V32.25H61.75V31ZM75.5 17.25H78V33.5H75.5V17.25ZM81.75 17.25H91.75V18.5H88V22.25H89.25V23.5H90.5V24.75H91.75V26H89.25V24.75H88V23.5H85.5V24.75H84.25V26H81.75V24.75H83V23.5H84.25V22.25H85.5V18.5H81.75V17.25ZM94.25 17.25H96.75V21H100.5V22.25H96.75V26H94.25V17.25ZM83 27.25H96.75V32.25H95.5V33.5H94.25V28.5H83V27.25ZM101.75 18.5H105.5V17.25H108V18.5H111.75V19.75H101.75V18.5ZM101.75 23.5H103V22.25H104.25V21H109.25V22.25H110.5V23.5H111.75V29.75H110.5V31H109.25V32.25H104.25V31H103V29.75H101.75V23.5ZM104.25 23.5V29.75H105.5V31H108V29.75H109.25V23.5H108V22.25H105.5V23.5H104.25ZM114.25 17.25H116.75V24.75H120.5V26H116.75V33.5H114.25V17.25ZM121.75 18.5H129.25V29.75H128V31H126.75V32.25H123V31H125.5V29.75H126.75V19.75H121.75V18.5ZM135.5 17.25H138V33.5H135.5V17.25Z" fill="white"/>
</svg>
