<svg width="47" height="39" viewBox="0 0 47 39" fill="none" xmlns="http://www.w3.org/2000/svg">
<mask id="path-1-outside-1_267_13" maskUnits="userSpaceOnUse" x="28.1626" y="0.0336914" width="18" height="15" fill="black">
<rect fill="white" x="28.1626" y="0.0336914" width="18" height="15"/>
<path d="M29.6519 6.53369H34.6519V1.53369H39.6519V6.53369H44.6519V9.03369H39.6519V14.0337H34.6519V9.03369H29.6519V6.53369Z"/>
</mask>
<path d="M29.6519 6.53369H34.6519V1.53369H39.6519V6.53369H44.6519V9.03369H39.6519V14.0337H34.6519V9.03369H29.6519V6.53369Z" fill="#D9D9D9"/>
<path d="M29.6519 6.53369V5.53369H28.6519V6.53369H29.6519ZM34.6519 6.53369V7.53369H35.6519V6.53369H34.6519ZM34.6519 1.53369V0.533691H33.6519V1.53369H34.6519ZM39.6519 1.53369H40.6519V0.533691H39.6519V1.53369ZM39.6519 6.53369H38.6519V7.53369H39.6519V6.53369ZM44.6519 6.53369H45.6519V5.53369H44.6519V6.53369ZM44.6519 9.03369V10.0337H45.6519V9.03369H44.6519ZM39.6519 9.03369V8.03369H38.6519V9.03369H39.6519ZM39.6519 14.0337V15.0337H40.6519V14.0337H39.6519ZM34.6519 14.0337H33.6519V15.0337H34.6519V14.0337ZM34.6519 9.03369H35.6519V8.03369H34.6519V9.03369ZM29.6519 9.03369H28.6519V10.0337H29.6519V9.03369ZM29.6519 7.53369H34.6519V5.53369H29.6519V7.53369ZM35.6519 6.53369V1.53369H33.6519V6.53369H35.6519ZM34.6519 2.53369H39.6519V0.533691H34.6519V2.53369ZM38.6519 1.53369V6.53369H40.6519V1.53369H38.6519ZM39.6519 7.53369H44.6519V5.53369H39.6519V7.53369ZM43.6519 6.53369V9.03369H45.6519V6.53369H43.6519ZM44.6519 8.03369H39.6519V10.0337H44.6519V8.03369ZM38.6519 9.03369V14.0337H40.6519V9.03369H38.6519ZM39.6519 13.0337H34.6519V15.0337H39.6519V13.0337ZM35.6519 14.0337V9.03369H33.6519V14.0337H35.6519ZM34.6519 8.03369H29.6519V10.0337H34.6519V8.03369ZM30.6519 9.03369V6.53369H28.6519V9.03369H30.6519Z" fill="black" mask="url(#path-1-outside-1_267_13)"/>
<mask id="path-3-outside-2_267_13" maskUnits="userSpaceOnUse" x="0.0569143" y="18.0361" width="27.027" height="21.0347" fill="black">
<rect fill="white" x="0.0569143" y="18.0361" width="27.027" height="21.0347"/>
<path d="M1.08181 37.4134L1.06251 22.4134L3.5625 22.4102L3.55928 19.9102L23.5593 19.8844L23.5625 22.3844L26.0625 22.3812L26.0818 37.3812L1.08181 37.4134ZM3.57538 32.4102L23.5754 32.3844L23.5657 24.8844L3.56572 24.9102L3.57538 32.4102Z"/>
</mask>
<path d="M1.08181 37.4134L1.06251 22.4134L3.5625 22.4102L3.55928 19.9102L23.5593 19.8844L23.5625 22.3844L26.0625 22.3812L26.0818 37.3812L1.08181 37.4134ZM3.57538 32.4102L23.5754 32.3844L23.5657 24.8844L3.56572 24.9102L3.57538 32.4102Z" fill="#D9D9D9"/>
<path d="M1.08181 37.4134L0.0818147 37.4147L0.0831019 38.4147L1.0831 38.4134L1.08181 37.4134ZM1.06251 22.4134L1.06122 21.4134L0.0612187 21.4147L0.0625059 22.4147L1.06251 22.4134ZM3.5625 22.4102L3.56379 23.4102L4.56379 23.4089L4.5625 22.4089L3.5625 22.4102ZM3.55928 19.9102L3.558 18.9102L2.558 18.9115L2.55929 19.9115L3.55928 19.9102ZM23.5593 19.8844L24.5593 19.8832L24.558 18.8832L23.558 18.8844L23.5593 19.8844ZM23.5625 22.3844L22.5625 22.3857L22.5638 23.3857L23.5638 23.3844L23.5625 22.3844ZM26.0625 22.3812L27.0625 22.3799L27.0612 21.3799L26.0612 21.3812L26.0625 22.3812ZM26.0818 37.3812L26.0831 38.3812L27.0831 38.3799L27.0818 37.3799L26.0818 37.3812ZM3.57538 32.4102L2.57538 32.4115L2.57666 33.4115L3.57666 33.4102L3.57538 32.4102ZM23.5754 32.3844L23.5766 33.3844L24.5766 33.3831L24.5754 32.3831L23.5754 32.3844ZM23.5657 24.8844L24.5657 24.8832L24.5644 23.8832L23.5644 23.8844L23.5657 24.8844ZM3.56572 24.9102L3.56443 23.9102L2.56443 23.9115L2.56572 24.9115L3.56572 24.9102ZM2.08181 37.4121L2.0625 22.4121L0.0625059 22.4147L0.0818147 37.4147L2.08181 37.4121ZM1.06379 23.4134L3.56379 23.4102L3.56122 21.4102L1.06122 21.4134L1.06379 23.4134ZM4.5625 22.4089L4.55928 19.9089L2.55929 19.9115L2.5625 22.4115L4.5625 22.4089ZM3.56057 20.9102L23.5606 20.8844L23.558 18.8844L3.558 18.9102L3.56057 20.9102ZM22.5593 19.8857L22.5625 22.3857L24.5625 22.3832L24.5593 19.8832L22.5593 19.8857ZM23.5638 23.3844L26.0638 23.3812L26.0612 21.3812L23.5612 21.3844L23.5638 23.3844ZM25.0625 22.3825L25.0818 37.3825L27.0818 37.3799L27.0625 22.3799L25.0625 22.3825ZM26.0805 36.3812L1.08053 36.4134L1.0831 38.4134L26.0831 38.3812L26.0805 36.3812ZM3.57666 33.4102L23.5766 33.3844L23.5741 31.3844L3.57409 31.4102L3.57666 33.4102ZM24.5754 32.3831L24.5657 24.8832L22.5657 24.8857L22.5754 32.3857L24.5754 32.3831ZM23.5644 23.8844L3.56443 23.9102L3.56701 25.9102L23.567 25.8844L23.5644 23.8844ZM2.56572 24.9115L2.57538 32.4115L4.57537 32.4089L4.56572 24.9089L2.56572 24.9115Z" fill="black" mask="url(#path-3-outside-2_267_13)"/>
<mask id="path-5-outside-3_267_13" maskUnits="userSpaceOnUse" x="4.99956" y="0.882181" width="16.0219" height="17.0206" fill="black">
<rect fill="white" x="4.99956" y="0.882181" width="16.0219" height="17.0206"/>
<path d="M8.01896 15.974L8.01638 13.974L6.01639 13.9765L6.00351 3.97656L8.00351 3.97398L8.00094 1.97398L18.0009 1.96111L18.0035 3.96111L20.0035 3.95854L20.0164 13.9585L18.0164 13.9611L18.019 15.9611L8.01896 15.974ZM8.01381 11.974L18.0138 11.9611L18.0061 5.96111L8.00609 5.97398L8.01381 11.974Z"/>
</mask>
<path d="M8.01896 15.974L8.01638 13.974L6.01639 13.9765L6.00351 3.97656L8.00351 3.97398L8.00094 1.97398L18.0009 1.96111L18.0035 3.96111L20.0035 3.95854L20.0164 13.9585L18.0164 13.9611L18.019 15.9611L8.01896 15.974ZM8.01381 11.974L18.0138 11.9611L18.0061 5.96111L8.00609 5.97398L8.01381 11.974Z" fill="#D9D9D9"/>
<path d="M8.01896 15.974L7.01896 15.9753L7.02025 16.9753L8.02025 16.974L8.01896 15.974ZM8.01638 13.974L9.01638 13.9727L9.0151 12.9727L8.0151 12.974L8.01638 13.974ZM6.01639 13.9765L5.01639 13.9778L5.01767 14.9778L6.01767 14.9765L6.01639 13.9765ZM6.00351 3.97656L6.00223 2.97656L5.00223 2.97785L5.00351 3.97784L6.00351 3.97656ZM8.00351 3.97398L8.0048 4.97398L9.0048 4.97269L9.00351 3.9727L8.00351 3.97398ZM8.00094 1.97398L7.99965 0.973985L6.99965 0.975273L7.00094 1.97527L8.00094 1.97398ZM18.0009 1.96111L19.0009 1.95982L18.9996 0.959826L17.9996 0.961113L18.0009 1.96111ZM18.0035 3.96111L17.0035 3.9624L17.0048 4.9624L18.0048 4.96111L18.0035 3.96111ZM20.0035 3.95854L21.0035 3.95725L21.0022 2.95725L20.0022 2.95854L20.0035 3.95854ZM20.0164 13.9585L20.0177 14.9585L21.0177 14.9572L21.0164 13.9572L20.0164 13.9585ZM18.0164 13.9611L18.0151 12.9611L17.0151 12.9624L17.0164 13.9624L18.0164 13.9611ZM18.019 15.9611L18.0202 16.9611L19.0202 16.9598L19.0189 15.9598L18.019 15.9611ZM8.01381 11.974L7.01381 11.9753L7.0151 12.9753L8.0151 12.974L8.01381 11.974ZM18.0138 11.9611L18.0151 12.9611L19.0151 12.9598L19.0138 11.9598L18.0138 11.9611ZM18.0061 5.96111L19.0061 5.95982L19.0048 4.95982L18.0048 4.96111L18.0061 5.96111ZM8.00609 5.97398L8.0048 4.97398L7.0048 4.97527L7.00609 5.97527L8.00609 5.97398ZM9.01896 15.9727L9.01638 13.9727L7.01639 13.9753L7.01896 15.9753L9.01896 15.9727ZM8.0151 12.974L6.0151 12.9765L6.01767 14.9765L8.01767 14.974L8.0151 12.974ZM7.01639 13.9753L7.00351 3.97527L5.00351 3.97784L5.01639 13.9778L7.01639 13.9753ZM6.0048 4.97656L8.0048 4.97398L8.00222 2.97398L6.00223 2.97656L6.0048 4.97656ZM9.00351 3.9727L9.00094 1.9727L7.00094 1.97527L7.00351 3.97527L9.00351 3.9727ZM8.00222 2.97398L18.0022 2.96111L17.9996 0.961113L7.99965 0.973985L8.00222 2.97398ZM17.0009 1.9624L17.0035 3.9624L19.0035 3.95982L19.0009 1.95982L17.0009 1.9624ZM18.0048 4.96111L20.0048 4.95853L20.0022 2.95854L18.0022 2.96111L18.0048 4.96111ZM19.0035 3.95982L19.0164 13.9598L21.0164 13.9572L21.0035 3.95725L19.0035 3.95982ZM20.0151 12.9585L18.0151 12.9611L18.0177 14.9611L20.0177 14.9585L20.0151 12.9585ZM17.0164 13.9624L17.019 15.9624L19.0189 15.9598L19.0164 13.9598L17.0164 13.9624ZM18.0177 14.9611L8.01767 14.974L8.02025 16.974L18.0202 16.9611L18.0177 14.9611ZM8.0151 12.974L18.0151 12.9611L18.0125 10.9611L8.01252 10.974L8.0151 12.974ZM19.0138 11.9598L19.0061 5.95982L17.0061 5.9624L17.0138 11.9624L19.0138 11.9598ZM18.0048 4.96111L8.0048 4.97398L8.00737 6.97398L18.0074 6.96111L18.0048 4.96111ZM7.00609 5.97527L7.01381 11.9753L9.01381 11.9727L9.00609 5.97269L7.00609 5.97527Z" fill="black" mask="url(#path-5-outside-3_267_13)"/>
</svg>
