<svg width="29" height="27" viewBox="0 0 29 27" fill="none" xmlns="http://www.w3.org/2000/svg">
<path d="M11.984 1.87436C13.1668 0.0529027 15.8332 0.052901 17.016 1.87436L19.787 6.14134C20.2303 6.824 20.932 7.29721 21.7311 7.4524L26.5674 8.39172C28.9244 8.8495 29.8154 11.753 28.1208 13.454L25.1945 16.3913C24.5514 17.0369 24.2365 17.9397 24.3387 18.8452L24.8139 23.0543C25.0678 25.3033 22.8349 27.0127 20.7301 26.1809L15.6027 24.1543C14.8942 23.8743 14.1058 23.8743 13.3973 24.1543L8.26988 26.1809C6.16507 27.0127 3.93224 25.3033 4.18612 23.0543L4.66128 18.8452C4.7635 17.9397 4.44864 17.0369 3.80553 16.3913L0.87925 13.454C-0.815371 11.753 0.0755506 8.8495 2.43259 8.39172L7.26894 7.4524C8.06799 7.29721 8.76967 6.824 9.21299 6.14134L11.984 1.87436Z" fill="#69B9FF"/>
</svg>
