<svg width="77" height="47" viewBox="0 0 77 47" fill="none" xmlns="http://www.w3.org/2000/svg">
<rect x="40.7649" y="3.91675" width="4.52941" height="3.91667" fill="#FF0004"/>
<rect x="40.7646" width="4.52941" height="3.91667" fill="#FF0004"/>
<rect x="45.2942" y="3.91675" width="4.52941" height="3.91667" fill="#FF0004"/>
<rect x="45.2942" width="4.52941" height="3.91667" fill="#FF0004"/>
<rect x="36.2356" y="11.75" width="4.52941" height="3.91667" fill="#FF0004"/>
<rect x="31.7063" y="7.83325" width="4.52941" height="3.91667" fill="#FF0004"/>
<rect x="36.2356" y="7.83325" width="4.52941" height="3.91667" fill="#FF0004"/>
<rect x="36.2356" y="3.91675" width="4.52941" height="3.91667" fill="#FF0004"/>
<rect x="36.2358" width="4.52941" height="3.91667" fill="#FF0004"/>
<rect x="31.7063" width="4.52941" height="3.91667" fill="#FF0004"/>
<rect x="40.7649" y="31.3333" width="4.52941" height="3.91667" fill="#FF0004"/>
<rect x="45.2942" y="31.3333" width="4.52941" height="3.91667" fill="#FF0004"/>
<rect x="36.2356" y="31.3333" width="4.52941" height="3.91667" fill="#FF0004"/>
<rect x="49.8235" y="31.3333" width="4.52941" height="3.91667" fill="#FF0004"/>
<rect x="31.7063" y="31.3333" width="4.52941" height="3.91667" fill="#FF0004"/>
<rect x="31.7063" y="7.83325" width="4.52941" height="3.91667" fill="#FF0004"/>
<rect x="40.7649" y="35.25" width="4.52941" height="3.91667" fill="white"/>
<rect x="45.2942" y="35.25" width="4.52941" height="3.91667" fill="#FF0004"/>
<rect x="45.2942" y="35.25" width="4.52941" height="3.91667" fill="#FF0004"/>
<rect x="36.2356" y="35.25" width="4.52941" height="3.91667" fill="#FF0004"/>
<rect x="49.8235" y="35.25" width="4.52941" height="3.91667" fill="#FF0004"/>
<rect x="31.7063" y="35.25" width="4.52941" height="3.91667" fill="#FF0004"/>
<rect x="40.7649" y="39.1667" width="4.52941" height="3.91667" fill="#FF0004"/>
<rect x="45.2942" y="39.1667" width="4.52941" height="3.91667" fill="#FF0004"/>
<rect x="36.2356" y="39.1667" width="4.52941" height="3.91667" fill="#FF0004"/>
<rect x="49.8235" y="39.1667" width="4.52941" height="3.91667" fill="#FF0004"/>
<rect x="31.7063" y="39.1667" width="4.52941" height="3.91667" fill="#FF0004"/>
<rect x="31.7063" y="19.5833" width="4.52941" height="3.91667" fill="#FF0004"/>
<rect x="31.7063" y="23.5" width="4.52941" height="3.91667" fill="#FF0004"/>
<rect x="31.7063" y="27.4167" width="4.52941" height="3.91667" fill="#FF0004"/>
<rect x="40.7649" y="7.83325" width="4.52941" height="3.91667" fill="#FF0004"/>
<rect x="40.7649" y="11.75" width="4.52941" height="3.91667" fill="#FF0004"/>
<rect x="40.7649" y="15.6667" width="4.52941" height="3.91667" fill="#FF0004"/>
<rect x="40.7649" y="19.5833" width="4.52941" height="3.91667" fill="#FF0004"/>
<rect x="40.7649" y="23.5" width="4.52941" height="3.91667" fill="#FF0004"/>
<rect x="40.7649" y="27.4167" width="4.52941" height="3.91667" fill="#FF0004"/>
<rect x="36.2356" y="27.4167" width="4.52941" height="3.91667" fill="#FF0004"/>
<rect x="36.2356" y="23.5" width="4.52941" height="3.91667" fill="#FF0004"/>
<rect x="36.2356" y="19.5833" width="4.52941" height="3.91667" fill="#FF0004"/>
<rect x="36.2356" y="15.6667" width="4.52941" height="3.91667" fill="white"/>
<rect x="45.2942" y="11.75" width="4.52941" height="3.91667" fill="#FF0004"/>
<rect x="45.2942" y="7.83325" width="4.52941" height="3.91667" fill="#FF0004"/>
<rect x="45.2942" y="7.83325" width="4.52941" height="3.91667" fill="white"/>
<rect x="49.8235" y="7.83325" width="4.52941" height="3.91667" fill="#FF0004"/>
<rect x="49.8235" y="11.75" width="4.52941" height="3.91667" fill="#FF0004"/>
<rect x="49.8237" width="4.52941" height="3.91667" fill="#FF0004"/>
<rect x="49.8235" y="3.91675" width="4.52941" height="3.91667" fill="#FF0004"/>
<rect x="49.8235" y="15.6667" width="4.52941" height="3.91667" fill="#FF0004"/>
<rect x="49.8235" y="19.5833" width="4.52941" height="3.91667" fill="#FF0004"/>
<rect x="49.8235" y="23.5" width="4.52941" height="3.91667" fill="#FF0004"/>
<rect x="49.8235" y="27.4167" width="4.52941" height="3.91667" fill="#FF0004"/>
<rect x="49.8235" y="27.4167" width="4.52941" height="3.91667" fill="white"/>
<rect x="45.2942" y="27.4167" width="4.52941" height="3.91667" fill="#FF0004"/>
<rect x="45.2942" y="23.5" width="4.52941" height="3.91667" fill="#FF0004"/>
<rect x="45.2942" y="19.5833" width="4.52941" height="3.91667" fill="#FF0004"/>
<rect x="45.2942" y="15.6667" width="4.52941" height="3.91667" fill="#FF0004"/>
<rect x="31.7063" y="3.91675" width="4.52941" height="3.91667" fill="#FF0004"/>
<rect x="31.7063" y="3.91675" width="4.52941" height="3.91667" fill="white"/>
<rect x="31.7063" y="11.75" width="4.52941" height="3.91667" fill="#FF0004"/>
<rect x="31.7063" y="7.83325" width="4.52941" height="3.91667" fill="#FF0004"/>
<rect x="31.7063" y="15.6667" width="4.52941" height="3.91667" fill="#FF0004"/>
<rect x="27.1768" width="4.52941" height="3.91667" fill="#FF0004"/>
<rect x="22.6475" width="4.52941" height="3.91667" fill="#FF0004"/>
<rect x="27.177" y="31.3333" width="4.52941" height="3.91667" fill="#FF0004"/>
<rect x="27.177" y="31.3333" width="4.52941" height="3.91667" fill="white"/>
<rect x="22.6472" y="31.3333" width="4.52941" height="3.91667" fill="#FF0004"/>
<rect x="27.177" y="35.25" width="4.52941" height="3.91667" fill="#FF0004"/>
<rect x="22.6472" y="35.25" width="4.52941" height="3.91667" fill="#FF0004"/>
<rect x="27.177" y="39.1667" width="4.52941" height="3.91667" fill="#FF0004"/>
<rect x="22.6472" y="39.1667" width="4.52941" height="3.91667" fill="#FF0004"/>
<rect x="27.177" y="19.5833" width="4.52941" height="3.91667" fill="#FF0004"/>
<rect x="22.6472" y="19.5833" width="4.52941" height="3.91667" fill="#FF0004"/>
<rect x="22.6472" y="19.5833" width="4.52941" height="3.91667" fill="white"/>
<rect x="27.177" y="23.5" width="4.52941" height="3.91667" fill="#FF0004"/>
<rect x="22.6472" y="23.5" width="4.52941" height="3.91667" fill="#FF0004"/>
<rect x="27.177" y="27.4167" width="4.52941" height="3.91667" fill="#FF0004"/>
<rect x="22.6472" y="27.4167" width="4.52941" height="3.91667" fill="#FF0004"/>
<rect x="27.177" y="3.91675" width="4.52941" height="3.91667" fill="#FF0004"/>
<rect x="22.6472" y="11.75" width="4.52941" height="3.91667" fill="#FF0004"/>
<rect x="22.6472" y="7.83325" width="4.52941" height="3.91667" fill="#FF0004"/>
<rect x="22.6472" y="3.91675" width="4.52941" height="3.91667" fill="#FF0004"/>
<rect x="27.177" y="7.83325" width="4.52941" height="3.91667" fill="#FF0004"/>
<rect x="27.177" y="11.75" width="4.52941" height="3.91667" fill="#FF0004"/>
<rect x="27.177" y="15.6667" width="4.52941" height="3.91667" fill="#FF0004"/>
<rect x="22.6472" y="15.6667" width="4.52941" height="3.91667" fill="#FF0004"/>
<rect x="54.3533" y="31.3333" width="4.52941" height="3.91667" fill="#FF0004"/>
<rect x="58.8826" y="31.3333" width="4.52941" height="3.91667" fill="#FF0004"/>
<rect x="54.3533" y="35.25" width="4.52941" height="3.91667" fill="#FF0004"/>
<rect x="58.8826" y="35.25" width="4.52941" height="3.91667" fill="white"/>
<rect x="54.3533" y="39.1667" width="4.52941" height="3.91667" fill="#FF0004"/>
<rect x="58.8826" y="39.1667" width="4.52941" height="3.91667" fill="#FF0004"/>
<rect x="58.8826" y="39.1667" width="4.52941" height="3.91667" fill="#FF0004"/>
<rect x="13.5886" y="27.4167" width="4.52941" height="3.91667" fill="#FF0004"/>
<rect x="13.5886" y="31.3333" width="4.52941" height="3.91667" fill="#FF0004"/>
<rect x="13.5886" y="35.25" width="4.52941" height="3.91667" fill="#FF0004"/>
<rect x="13.5886" y="35.25" width="4.52941" height="3.91667" fill="white"/>
<rect x="13.5886" y="39.1667" width="4.52941" height="3.91667" fill="#FF0004"/>
<rect x="18.1179" y="27.4167" width="4.52941" height="3.91667" fill="#FF0004"/>
<rect x="18.1179" y="31.3333" width="4.52941" height="3.91667" fill="#FF0004"/>
<rect x="18.1179" y="35.25" width="4.52941" height="3.91667" fill="#FF0004"/>
<rect x="18.1179" y="39.1667" width="4.52941" height="3.91667" fill="#FF0004"/>
<rect x="54.3533" y="3.91675" width="4.52941" height="3.91667" fill="#FF0004"/>
<rect x="54.3533" y="3.91675" width="4.52941" height="3.91667" fill="white"/>
<rect x="54.3533" y="7.83325" width="4.52941" height="3.91667" fill="#FF0004"/>
<rect x="63.4119" y="19.5833" width="4.52941" height="3.91667" fill="#FF0004"/>
<rect x="63.4119" y="19.5833" width="4.52941" height="3.91667" fill="white"/>
<rect x="63.4119" y="23.5" width="4.52941" height="3.91667" fill="#FF0004"/>
<rect x="54.3533" y="19.5833" width="4.52941" height="3.91667" fill="#FF0004"/>
<rect x="54.3533" y="23.5" width="4.52941" height="3.91667" fill="#FF0004"/>
<rect x="54.3533" y="27.4167" width="4.52941" height="3.91667" fill="#FF0004"/>
<rect x="58.8826" y="27.4167" width="4.52941" height="3.91667" fill="#FF0004"/>
<rect x="18.1179" y="7.83325" width="4.52941" height="3.91667" fill="#FF0004"/>
<rect x="13.5886" y="7.83325" width="4.52941" height="3.91667" fill="#FF0004"/>
<rect x="18.1179" y="3.91675" width="4.52941" height="3.91667" fill="#FF0004"/>
<rect x="18.1179" y="3.91675" width="4.52941" height="3.91667" fill="white"/>
<rect x="58.8826" y="7.83325" width="4.52941" height="3.91667" fill="#FF0004"/>
<rect x="63.4119" y="11.75" width="4.52941" height="3.91667" fill="#FF0004"/>
<rect x="58.8826" y="15.6667" width="4.52941" height="3.91667" fill="#FF0004"/>
<rect x="58.8826" y="11.75" width="4.52941" height="3.91667" fill="#FF0004"/>
<rect x="63.4119" y="15.6667" width="4.52941" height="3.91667" fill="#FF0004"/>
<rect x="13.5886" y="11.75" width="4.52941" height="3.91667" fill="#FF0004"/>
<rect x="9.05933" y="15.6667" width="4.52941" height="3.91667" fill="#FF0004"/>
<rect x="9.05933" y="11.75" width="4.52941" height="3.91667" fill="#FF0004"/>
<rect x="13.5886" y="15.6667" width="4.52941" height="3.91667" fill="#FF0004"/>
<rect x="67.9412" y="23.5" width="4.52941" height="3.91667" fill="#FF0004"/>
<rect x="4.52954" y="23.5" width="4.52941" height="3.91667" fill="#FF0004"/>
<rect x="4.52954" y="19.5833" width="4.52941" height="3.91667" fill="#FF0004"/>
<rect x="4.52954" y="19.5833" width="4.52941" height="3.91667" fill="white"/>
<rect x="18.1179" y="19.5833" width="4.52941" height="3.91667" fill="#FF0004"/>
<rect x="18.1179" y="23.5" width="4.52941" height="3.91667" fill="#FF0004"/>
<rect x="9.05933" y="19.5833" width="4.52941" height="3.91667" fill="#FF0004"/>
<rect x="9.05933" y="23.5" width="4.52941" height="3.91667" fill="#FF0004"/>
<rect width="4.52941" height="3.91667" transform="matrix(-1 0 0 1 72.4709 19.5833)" fill="#FF0004"/>
<rect x="67.9409" y="15.6667" width="4.52941" height="3.91667" fill="black"/>
<rect x="72.4707" y="19.5833" width="4.52941" height="3.91667" fill="black"/>
<rect x="72.4707" y="23.5" width="4.52941" height="3.91667" fill="black"/>
<rect x="63.4116" y="27.4167" width="4.52941" height="3.91667" fill="black"/>
<rect x="54.353" y="11.75" width="4.52941" height="3.91667" fill="black"/>
<rect x="54.353" y="15.6667" width="4.52941" height="3.91667" fill="black"/>
<rect x="58.8823" y="19.5833" width="4.52941" height="3.91667" fill="black"/>
<rect x="58.8823" y="23.5" width="4.52941" height="3.91667" fill="black"/>
<rect x="67.9409" y="27.4167" width="4.52941" height="3.91667" fill="black"/>
<rect x="54.3528" width="4.52941" height="3.91667" fill="black"/>
<rect x="58.8823" y="3.91675" width="4.52941" height="3.91667" fill="black"/>
<rect x="63.4116" y="7.83325" width="4.52941" height="3.91667" fill="black"/>
<rect x="67.9409" y="11.75" width="4.52941" height="3.91667" fill="black"/>
<rect x="9.05908" y="35.25" width="4.52941" height="3.91667" fill="black"/>
<rect x="63.4116" y="31.3333" width="4.52941" height="3.91667" fill="black"/>
<rect x="63.4116" y="35.25" width="4.52941" height="3.91667" fill="black"/>
<rect x="63.4116" y="39.1667" width="4.52941" height="3.91667" fill="black"/>
<rect x="63.4116" y="27.4167" width="4.52941" height="3.91667" fill="black"/>
<rect x="9.05908" y="31.3333" width="4.52941" height="3.91667" fill="black"/>
<rect x="18.1177" y="11.75" width="4.52941" height="3.91667" fill="black"/>
<rect x="18.1177" y="15.6667" width="4.52941" height="3.91667" fill="black"/>
<rect x="13.5884" y="3.91675" width="4.52941" height="3.91667" fill="black"/>
<rect x="9.05908" y="7.83325" width="4.52941" height="3.91667" fill="black"/>
<rect x="4.5293" y="11.75" width="4.52941" height="3.91667" fill="black"/>
<rect x="4.5293" y="15.6667" width="4.52941" height="3.91667" fill="black"/>
<rect y="19.5833" width="4.52941" height="3.91667" fill="black"/>
<rect y="23.5" width="4.52941" height="3.91667" fill="black"/>
<rect x="4.5293" y="27.4167" width="4.52941" height="3.91667" fill="black"/>
<rect x="9.05908" y="27.4167" width="4.52941" height="3.91667" fill="black"/>
<rect x="13.5884" y="43.0833" width="4.52941" height="3.91667" fill="black"/>
<rect x="9.05908" y="39.1667" width="4.52941" height="3.91667" fill="black"/>
<rect x="18.1177" y="43.0833" width="4.52941" height="3.91667" fill="black"/>
<rect x="22.647" y="43.0833" width="4.52941" height="3.91667" fill="black"/>
<rect x="27.1768" y="43.0833" width="4.52941" height="3.91667" fill="black"/>
<rect x="31.7061" y="43.0833" width="4.52941" height="3.91667" fill="black"/>
<rect x="36.2354" y="43.0833" width="4.52941" height="3.91667" fill="black"/>
<rect x="40.7646" y="43.0833" width="4.52941" height="3.91667" fill="black"/>
<rect x="45.2939" y="43.0833" width="4.52941" height="3.91667" fill="black"/>
<rect x="49.8232" y="43.0833" width="4.52941" height="3.91667" fill="black"/>
<rect x="54.353" y="43.0833" width="4.52941" height="3.91667" fill="black"/>
<rect x="58.8823" y="43.0833" width="4.52941" height="3.91667" fill="black"/>
<rect x="13.5884" y="23.5" width="4.52941" height="3.91667" fill="black"/>
<rect x="13.5884" y="19.5833" width="4.52941" height="3.91667" fill="black"/>
<rect x="18.1177" width="4.52941" height="3.91667" fill="black"/>
</svg>
