<svg width="77" height="47" viewBox="0 0 77 47" fill="none" xmlns="http://www.w3.org/2000/svg">
<rect x="40.7646" y="3.91663" width="4.52941" height="3.91667" fill="#FF801E"/>
<rect x="40.7646" width="4.52941" height="3.91667" fill="#FF801E"/>
<rect x="45.2939" y="3.91663" width="4.52941" height="3.91667" fill="#FF801E"/>
<rect x="45.2942" width="4.52941" height="3.91667" fill="#FF801E"/>
<rect x="36.2354" y="11.75" width="4.52941" height="3.91667" fill="#FF801E"/>
<rect x="31.7061" y="7.83337" width="4.52941" height="3.91667" fill="#FF801E"/>
<rect x="36.2354" y="7.83337" width="4.52941" height="3.91667" fill="#FF801E"/>
<rect x="36.2354" y="3.91663" width="4.52941" height="3.91667" fill="#FF801E"/>
<rect x="36.2354" width="4.52941" height="3.91667" fill="#FF801E"/>
<rect x="31.7058" width="4.52941" height="3.91667" fill="#FF801E"/>
<rect x="40.7646" y="31.3334" width="4.52941" height="3.91667" fill="#FF801E"/>
<rect x="45.2939" y="31.3334" width="4.52941" height="3.91667" fill="#FF801E"/>
<rect x="36.2354" y="31.3334" width="4.52941" height="3.91667" fill="#FF801E"/>
<rect x="49.8237" y="31.3334" width="4.52941" height="3.91667" fill="#FF801E"/>
<rect x="31.7061" y="31.3334" width="4.52941" height="3.91667" fill="#FF801E"/>
<rect x="31.7061" y="7.83337" width="4.52941" height="3.91667" fill="#FF801E"/>
<rect x="40.7646" y="35.25" width="4.52941" height="3.91667" fill="#FF801E"/>
<rect x="45.2939" y="35.25" width="4.52941" height="3.91667" fill="#FF801E"/>
<rect x="36.2354" y="35.25" width="4.52941" height="3.91667" fill="#FF801E"/>
<rect x="49.8237" y="35.25" width="4.52941" height="3.91667" fill="#FF801E"/>
<rect x="31.7061" y="35.25" width="4.52941" height="3.91667" fill="#FF801E"/>
<rect x="40.7646" y="39.1666" width="4.52941" height="3.91667" fill="#FF801E"/>
<rect x="45.2939" y="39.1666" width="4.52941" height="3.91667" fill="#FF801E"/>
<rect x="36.2354" y="39.1666" width="4.52941" height="3.91667" fill="#FF801E"/>
<rect x="49.8237" y="39.1666" width="4.52941" height="3.91667" fill="#FF801E"/>
<rect x="31.7061" y="39.1666" width="4.52941" height="3.91667" fill="#FF801E"/>
<rect x="31.7061" y="19.5834" width="4.52941" height="3.91667" fill="#FF801E"/>
<rect x="31.7061" y="23.5" width="4.52941" height="3.91667" fill="#FF801E"/>
<rect x="31.7061" y="27.4166" width="4.52941" height="3.91667" fill="#FF801E"/>
<rect x="40.7646" y="7.83337" width="4.52941" height="3.91667" fill="#FF801E"/>
<rect x="40.7646" y="11.75" width="4.52941" height="3.91667" fill="#FF801E"/>
<rect x="40.7646" y="15.6666" width="4.52941" height="3.91667" fill="#FF801E"/>
<rect x="40.7646" y="19.5834" width="4.52941" height="3.91667" fill="#FF801E"/>
<rect x="40.7646" y="23.5" width="4.52941" height="3.91667" fill="#FF801E"/>
<rect x="40.7646" y="27.4166" width="4.52941" height="3.91667" fill="#FF801E"/>
<rect x="36.2354" y="27.4166" width="4.52941" height="3.91667" fill="#FF801E"/>
<rect x="36.2354" y="23.5" width="4.52941" height="3.91667" fill="#FF801E"/>
<rect x="36.2354" y="19.5834" width="4.52941" height="3.91667" fill="#FF801E"/>
<rect x="36.2354" y="15.6666" width="4.52941" height="3.91667" fill="#FF801E"/>
<rect x="45.2939" y="11.75" width="4.52941" height="3.91667" fill="#FF801E"/>
<rect x="45.2939" y="7.83337" width="4.52941" height="3.91667" fill="#FF801E"/>
<rect x="49.8237" y="7.83337" width="4.52941" height="3.91667" fill="#FF801E"/>
<rect x="49.8237" y="11.75" width="4.52941" height="3.91667" fill="#FF801E"/>
<rect x="49.8235" width="4.52941" height="3.91667" fill="#FF801E"/>
<rect x="49.8237" y="3.91663" width="4.52941" height="3.91667" fill="#FF801E"/>
<rect x="49.8237" y="15.6666" width="4.52941" height="3.91667" fill="#FF801E"/>
<rect x="49.8237" y="19.5834" width="4.52941" height="3.91667" fill="#FF801E"/>
<rect x="49.8237" y="23.5" width="4.52941" height="3.91667" fill="#FF801E"/>
<rect x="49.8237" y="27.4166" width="4.52941" height="3.91667" fill="#FF801E"/>
<rect x="45.2939" y="27.4166" width="4.52941" height="3.91667" fill="#FF801E"/>
<rect x="45.2939" y="23.5" width="4.52941" height="3.91667" fill="#FF801E"/>
<rect x="45.2939" y="19.5834" width="4.52941" height="3.91667" fill="#FF801E"/>
<rect x="45.2939" y="15.6666" width="4.52941" height="3.91667" fill="#FF801E"/>
<rect x="31.7061" y="3.91663" width="4.52941" height="3.91667" fill="#FF801E"/>
<rect x="31.7061" y="11.75" width="4.52941" height="3.91667" fill="#FF801E"/>
<rect x="31.7061" y="7.83337" width="4.52941" height="3.91667" fill="#FF801E"/>
<rect x="31.7061" y="15.6666" width="4.52941" height="3.91667" fill="#FF801E"/>
<rect x="27.1765" width="4.52941" height="3.91667" fill="#FF801E"/>
<rect x="22.647" width="4.52941" height="3.91667" fill="#FF801E"/>
<rect x="27.1763" y="31.3334" width="4.52941" height="3.91667" fill="#FF801E"/>
<rect x="22.647" y="31.3334" width="4.52941" height="3.91667" fill="#FF801E"/>
<rect x="27.1763" y="35.25" width="4.52941" height="3.91667" fill="#FF801E"/>
<rect x="22.647" y="35.25" width="4.52941" height="3.91667" fill="#FF801E"/>
<rect x="27.1763" y="39.1666" width="4.52941" height="3.91667" fill="#FF801E"/>
<rect x="22.647" y="39.1666" width="4.52941" height="3.91667" fill="#FF801E"/>
<rect x="27.1763" y="19.5834" width="4.52941" height="3.91667" fill="#FF801E"/>
<rect x="22.647" y="19.5834" width="4.52941" height="3.91667" fill="#FF801E"/>
<rect x="27.1763" y="23.5" width="4.52941" height="3.91667" fill="#FF801E"/>
<rect x="22.647" y="23.5" width="4.52941" height="3.91667" fill="#FF801E"/>
<rect x="27.1763" y="27.4166" width="4.52941" height="3.91667" fill="#FF801E"/>
<rect x="22.647" y="27.4166" width="4.52941" height="3.91667" fill="#FF801E"/>
<rect x="27.1763" y="3.91663" width="4.52941" height="3.91667" fill="#FF801E"/>
<rect x="22.647" y="11.75" width="4.52941" height="3.91667" fill="#FF801E"/>
<rect x="22.647" y="7.83337" width="4.52941" height="3.91667" fill="#FF801E"/>
<rect x="22.647" y="3.91663" width="4.52941" height="3.91667" fill="#FF801E"/>
<rect x="27.1763" y="7.83337" width="4.52941" height="3.91667" fill="#FF801E"/>
<rect x="27.1763" y="11.75" width="4.52941" height="3.91667" fill="#FF801E"/>
<rect x="27.1763" y="15.6666" width="4.52941" height="3.91667" fill="#FF801E"/>
<rect x="22.647" y="15.6666" width="4.52941" height="3.91667" fill="#FF801E"/>
<rect x="54.353" y="31.3334" width="4.52941" height="3.91667" fill="#FF801E"/>
<rect x="58.8823" y="31.3334" width="4.52941" height="3.91667" fill="#FF801E"/>
<rect x="54.353" y="35.25" width="4.52941" height="3.91667" fill="#FF801E"/>
<rect x="58.8823" y="35.25" width="4.52941" height="3.91667" fill="#FF801E"/>
<rect x="54.353" y="39.1666" width="4.52941" height="3.91667" fill="#FF801E"/>
<rect x="58.8823" y="39.1666" width="4.52941" height="3.91667" fill="#FF801E"/>
<rect x="13.5884" y="27.4166" width="4.52941" height="3.91667" fill="#FF801E"/>
<rect x="13.5884" y="31.3334" width="4.52941" height="3.91667" fill="#FF801E"/>
<rect x="13.5884" y="35.25" width="4.52941" height="3.91667" fill="#FF801E"/>
<rect x="13.5884" y="39.1666" width="4.52941" height="3.91667" fill="#FF801E"/>
<rect x="18.1177" y="27.4166" width="4.52941" height="3.91667" fill="#FF801E"/>
<rect x="18.1177" y="31.3334" width="4.52941" height="3.91667" fill="#FF801E"/>
<rect x="18.1177" y="35.25" width="4.52941" height="3.91667" fill="#FF801E"/>
<rect x="18.1177" y="39.1666" width="4.52941" height="3.91667" fill="#FF801E"/>
<rect x="54.353" y="3.91663" width="4.52941" height="3.91667" fill="#FF801E"/>
<rect x="54.353" y="7.83337" width="4.52941" height="3.91667" fill="#FF801E"/>
<rect x="63.4116" y="19.5834" width="4.52941" height="3.91667" fill="#FF801E"/>
<rect x="63.4116" y="23.5" width="4.52941" height="3.91667" fill="#FF801E"/>
<rect x="54.353" y="19.5834" width="4.52941" height="3.91667" fill="#FF801E"/>
<rect x="54.353" y="23.5" width="4.52941" height="3.91667" fill="#FF801E"/>
<rect x="54.353" y="27.4166" width="4.52941" height="3.91667" fill="#FF801E"/>
<rect x="58.8823" y="27.4166" width="4.52941" height="3.91667" fill="#FF801E"/>
<rect x="18.1177" y="7.83337" width="4.52941" height="3.91667" fill="#FF801E"/>
<rect x="13.5884" y="7.83337" width="4.52941" height="3.91667" fill="#FF801E"/>
<rect x="18.1177" y="3.91663" width="4.52941" height="3.91667" fill="#FF801E"/>
<rect x="58.8823" y="7.83337" width="4.52941" height="3.91667" fill="#FF801E"/>
<rect x="63.4116" y="11.75" width="4.52941" height="3.91667" fill="#FF801E"/>
<rect x="58.8823" y="15.6666" width="4.52941" height="3.91667" fill="#FF801E"/>
<rect x="58.8823" y="11.75" width="4.52941" height="3.91667" fill="#FF801E"/>
<rect x="63.4116" y="15.6666" width="4.52941" height="3.91667" fill="#FF801E"/>
<rect x="13.5884" y="11.75" width="4.52941" height="3.91667" fill="#FF801E"/>
<rect x="9.05859" y="15.6666" width="4.52941" height="3.91667" fill="#FF801E"/>
<rect x="9.05859" y="11.75" width="4.52941" height="3.91667" fill="#FF801E"/>
<rect x="13.5884" y="15.6666" width="4.52941" height="3.91667" fill="#FF801E"/>
<rect x="67.9414" y="23.5" width="4.52941" height="3.91667" fill="#FF801E"/>
<rect x="4.5293" y="23.5" width="4.52941" height="3.91667" fill="#FF801E"/>
<rect x="4.5293" y="19.5834" width="4.52941" height="3.91667" fill="#FF801E"/>
<rect x="18.1177" y="19.5834" width="4.52941" height="3.91667" fill="#FF801E"/>
<rect x="18.1177" y="23.5" width="4.52941" height="3.91667" fill="#FF801E"/>
<rect x="9.05859" y="19.5834" width="4.52941" height="3.91667" fill="#FF801E"/>
<rect x="9.05859" y="23.5" width="4.52941" height="3.91667" fill="#FF801E"/>
<rect width="4.52941" height="3.91667" transform="matrix(-1 0 0 1 72.4707 19.5834)" fill="#FF801E"/>
<rect x="67.9414" y="15.6666" width="4.52941" height="3.91667" fill="black"/>
<rect x="72.4707" y="19.5834" width="4.52941" height="3.91667" fill="black"/>
<rect x="72.4707" y="23.5" width="4.52941" height="3.91667" fill="black"/>
<rect x="63.4116" y="27.4166" width="4.52941" height="3.91667" fill="black"/>
<rect x="54.353" y="11.75" width="4.52941" height="3.91667" fill="black"/>
<rect x="54.353" y="15.6666" width="4.52941" height="3.91667" fill="black"/>
<rect x="58.8823" y="19.5834" width="4.52941" height="3.91667" fill="black"/>
<rect x="58.8823" y="23.5" width="4.52941" height="3.91667" fill="black"/>
<rect x="67.9414" y="27.4166" width="4.52941" height="3.91667" fill="black"/>
<rect x="54.353" width="4.52941" height="3.91667" fill="black"/>
<rect x="58.8823" y="3.91663" width="4.52941" height="3.91667" fill="black"/>
<rect x="63.4116" y="7.83337" width="4.52941" height="3.91667" fill="black"/>
<rect x="67.9414" y="11.75" width="4.52941" height="3.91667" fill="black"/>
<rect x="9.05859" y="35.25" width="4.52941" height="3.91667" fill="black"/>
<rect x="63.4116" y="31.3334" width="4.52941" height="3.91667" fill="black"/>
<rect x="63.4116" y="35.25" width="4.52941" height="3.91667" fill="black"/>
<rect x="63.4116" y="39.1666" width="4.52941" height="3.91667" fill="black"/>
<rect x="63.4116" y="27.4166" width="4.52941" height="3.91667" fill="black"/>
<rect x="9.05859" y="31.3334" width="4.52941" height="3.91667" fill="black"/>
<rect x="18.1177" y="11.75" width="4.52941" height="3.91667" fill="black"/>
<rect x="18.1177" y="15.6666" width="4.52941" height="3.91667" fill="black"/>
<rect x="13.5884" y="3.91663" width="4.52941" height="3.91667" fill="black"/>
<rect x="9.05859" y="7.83337" width="4.52941" height="3.91667" fill="black"/>
<rect x="4.5293" y="11.75" width="4.52941" height="3.91667" fill="black"/>
<rect x="4.5293" y="15.6666" width="4.52941" height="3.91667" fill="black"/>
<rect y="19.5834" width="4.52941" height="3.91667" fill="black"/>
<rect y="23.5" width="4.52941" height="3.91667" fill="black"/>
<rect x="4.5293" y="27.4166" width="4.52941" height="3.91667" fill="black"/>
<rect x="9.05859" y="27.4166" width="4.52941" height="3.91667" fill="black"/>
<rect x="13.5884" y="43.0834" width="4.52941" height="3.91667" fill="black"/>
<rect x="9.05859" y="39.1666" width="4.52941" height="3.91667" fill="black"/>
<rect x="18.1177" y="43.0834" width="4.52941" height="3.91667" fill="black"/>
<rect x="22.647" y="43.0834" width="4.52941" height="3.91667" fill="black"/>
<rect x="27.1763" y="43.0834" width="4.52941" height="3.91667" fill="black"/>
<rect x="31.7061" y="43.0834" width="4.52941" height="3.91667" fill="black"/>
<rect x="36.2354" y="43.0834" width="4.52941" height="3.91667" fill="black"/>
<rect x="40.7646" y="43.0834" width="4.52941" height="3.91667" fill="black"/>
<rect x="45.2939" y="43.0834" width="4.52941" height="3.91667" fill="black"/>
<rect x="49.8237" y="43.0834" width="4.52941" height="3.91667" fill="black"/>
<rect x="54.353" y="43.0834" width="4.52941" height="3.91667" fill="black"/>
<rect x="58.8823" y="43.0834" width="4.52941" height="3.91667" fill="black"/>
<rect x="13.5884" y="23.5" width="4.52941" height="3.91667" fill="black"/>
<rect x="13.5884" y="19.5834" width="4.52941" height="3.91667" fill="black"/>
<rect x="18.1177" width="4.52941" height="3.91667" fill="black"/>
</svg>
