<svg width="119" height="84" viewBox="0 0 119 84" fill="none" xmlns="http://www.w3.org/2000/svg">
<rect x="63" y="7" width="7" height="7" fill="#1B6FFF"/>
<rect x="63" width="7" height="7" fill="#1B6FFF"/>
<rect x="70" y="7" width="7" height="7" fill="#1B6FFF"/>
<rect x="70" width="7" height="7" fill="#1B6FFF"/>
<rect x="56" y="21" width="7" height="7" fill="#1B6FFF"/>
<rect x="49" y="14" width="7" height="7" fill="#1B6FFF"/>
<rect x="56" y="14" width="7" height="7" fill="#1B6FFF"/>
<rect x="56" y="7" width="7" height="7" fill="#1B6FFF"/>
<rect x="56" width="7" height="7" fill="#1B6FFF"/>
<rect x="49" width="7" height="7" fill="#1B6FFF"/>
<rect x="63" y="56" width="7" height="7" fill="#1B6FFF"/>
<rect x="70" y="56" width="7" height="7" fill="#1B6FFF"/>
<rect x="56" y="56" width="7" height="7" fill="#1B6FFF"/>
<rect x="77" y="56" width="7" height="7" fill="#1B6FFF"/>
<rect x="49" y="56" width="7" height="7" fill="#1B6FFF"/>
<rect x="49" y="14" width="7" height="7" fill="#1B6FFF"/>
<rect x="63" y="63" width="7" height="7" fill="#1B6FFF"/>
<rect x="70" y="63" width="7" height="7" fill="#1B6FFF"/>
<rect x="56" y="63" width="7" height="7" fill="#1B6FFF"/>
<rect x="77" y="63" width="7" height="7" fill="#1B6FFF"/>
<rect x="49" y="63" width="7" height="7" fill="#1B6FFF"/>
<rect x="63" y="70" width="7" height="7" fill="#1B6FFF"/>
<rect x="70" y="70" width="7" height="7" fill="#1B6FFF"/>
<rect x="56" y="70" width="7" height="7" fill="#1B6FFF"/>
<rect x="77" y="70" width="7" height="7" fill="#1B6FFF"/>
<rect x="49" y="70" width="7" height="7" fill="#1B6FFF"/>
<rect x="49" y="35" width="7" height="7" fill="#1B6FFF"/>
<rect x="49" y="42" width="7" height="7" fill="#1B6FFF"/>
<rect x="49" y="49" width="7" height="7" fill="#1B6FFF"/>
<rect x="63" y="14" width="7" height="7" fill="#1B6FFF"/>
<rect x="63" y="21" width="7" height="7" fill="#1B6FFF"/>
<rect x="63" y="28" width="7" height="7" fill="#1B6FFF"/>
<rect x="63" y="35" width="7" height="7" fill="#1B6FFF"/>
<rect x="63" y="42" width="7" height="7" fill="#1B6FFF"/>
<rect x="63" y="49" width="7" height="7" fill="#1B6FFF"/>
<rect x="56" y="49" width="7" height="7" fill="#1B6FFF"/>
<rect x="56" y="42" width="7" height="7" fill="#1B6FFF"/>
<rect x="56" y="35" width="7" height="7" fill="#1B6FFF"/>
<rect x="56" y="28" width="7" height="7" fill="#1B6FFF"/>
<rect x="70" y="21" width="7" height="7" fill="#1B6FFF"/>
<rect x="70" y="14" width="7" height="7" fill="#1B6FFF"/>
<rect x="77" y="14" width="7" height="7" fill="#1B6FFF"/>
<rect x="77" y="21" width="7" height="7" fill="#1B6FFF"/>
<rect x="77" width="7" height="7" fill="#1B6FFF"/>
<rect x="77" y="7" width="7" height="7" fill="#1B6FFF"/>
<rect x="77" y="28" width="7" height="7" fill="#1B6FFF"/>
<rect x="77" y="35" width="7" height="7" fill="#1B6FFF"/>
<rect x="77" y="42" width="7" height="7" fill="#1B6FFF"/>
<rect x="77" y="49" width="7" height="7" fill="#1B6FFF"/>
<rect x="70" y="49" width="7" height="7" fill="#1B6FFF"/>
<rect x="70" y="42" width="7" height="7" fill="#1B6FFF"/>
<rect x="70" y="35" width="7" height="7" fill="#1B6FFF"/>
<rect x="70" y="28" width="7" height="7" fill="#1B6FFF"/>
<rect x="49" y="7" width="7" height="7" fill="#1B6FFF"/>
<rect x="49" y="21" width="7" height="7" fill="#1B6FFF"/>
<rect x="49" y="14" width="7" height="7" fill="#1B6FFF"/>
<rect x="49" y="28" width="7" height="7" fill="#1B6FFF"/>
<rect x="42" width="7" height="7" fill="#1B6FFF"/>
<rect x="35" width="7" height="7" fill="#1B6FFF"/>
<rect x="42" y="56" width="7" height="7" fill="#1B6FFF"/>
<rect x="35" y="56" width="7" height="7" fill="#1B6FFF"/>
<rect x="42" y="63" width="7" height="7" fill="#1B6FFF"/>
<rect x="35" y="63" width="7" height="7" fill="#1B6FFF"/>
<rect x="42" y="70" width="7" height="7" fill="#1B6FFF"/>
<rect x="35" y="70" width="7" height="7" fill="#1B6FFF"/>
<rect x="42" y="35" width="7" height="7" fill="#1B6FFF"/>
<rect x="35" y="35" width="7" height="7" fill="#1B6FFF"/>
<rect x="42" y="42" width="7" height="7" fill="#1B6FFF"/>
<rect x="35" y="42" width="7" height="7" fill="#1B6FFF"/>
<rect x="42" y="49" width="7" height="7" fill="#1B6FFF"/>
<rect x="35" y="49" width="7" height="7" fill="#1B6FFF"/>
<rect x="42" y="7" width="7" height="7" fill="#1B6FFF"/>
<rect x="35" y="21" width="7" height="7" fill="#1B6FFF"/>
<rect x="35" y="14" width="7" height="7" fill="#1B6FFF"/>
<rect x="35" y="7" width="7" height="7" fill="#1B6FFF"/>
<rect x="42" y="14" width="7" height="7" fill="#1B6FFF"/>
<rect x="42" y="21" width="7" height="7" fill="#1B6FFF"/>
<rect x="42" y="28" width="7" height="7" fill="#1B6FFF"/>
<rect x="35" y="28" width="7" height="7" fill="#1B6FFF"/>
<rect x="84" y="56" width="7" height="7" fill="#1B6FFF"/>
<rect x="91" y="56" width="7" height="7" fill="#1B6FFF"/>
<rect x="84" y="63" width="7" height="7" fill="#1B6FFF"/>
<rect x="91" y="63" width="7" height="7" fill="#1B6FFF"/>
<rect x="84" y="70" width="7" height="7" fill="#1B6FFF"/>
<rect x="91" y="70" width="7" height="7" fill="#1B6FFF"/>
<rect x="21" y="49" width="7" height="7" fill="#1B6FFF"/>
<rect x="21" y="56" width="7" height="7" fill="#1B6FFF"/>
<rect x="21" y="63" width="7" height="7" fill="#1B6FFF"/>
<rect x="21" y="70" width="7" height="7" fill="#1B6FFF"/>
<rect x="28" y="49" width="7" height="7" fill="#1B6FFF"/>
<rect x="28" y="56" width="7" height="7" fill="#1B6FFF"/>
<rect x="28" y="63" width="7" height="7" fill="#1B6FFF"/>
<rect x="28" y="70" width="7" height="7" fill="#1B6FFF"/>
<rect x="84" y="7" width="7" height="7" fill="#1B6FFF"/>
<rect x="84" y="14" width="7" height="7" fill="#1B6FFF"/>
<rect x="98" y="35" width="7" height="7" fill="#1B6FFF"/>
<rect x="98" y="42" width="7" height="7" fill="#1B6FFF"/>
<rect x="84" y="35" width="7" height="7" fill="#1B6FFF"/>
<rect x="84" y="42" width="7" height="7" fill="#1B6FFF"/>
<rect x="84" y="49" width="7" height="7" fill="#1B6FFF"/>
<rect x="91" y="49" width="7" height="7" fill="#1B6FFF"/>
<rect x="28" y="14" width="7" height="7" fill="#1B6FFF"/>
<rect x="21" y="14" width="7" height="7" fill="#1B6FFF"/>
<rect x="28" y="7" width="7" height="7" fill="#1B6FFF"/>
<rect x="91" y="14" width="7" height="7" fill="#1B6FFF"/>
<rect x="98" y="21" width="7" height="7" fill="#1B6FFF"/>
<rect x="91" y="28" width="7" height="7" fill="#1B6FFF"/>
<rect x="91" y="21" width="7" height="7" fill="#1B6FFF"/>
<rect x="98" y="28" width="7" height="7" fill="#1B6FFF"/>
<rect x="21" y="21" width="7" height="7" fill="#1B6FFF"/>
<rect x="14" y="28" width="7" height="7" fill="#1B6FFF"/>
<rect x="14" y="21" width="7" height="7" fill="#1B6FFF"/>
<rect x="21" y="28" width="7" height="7" fill="#1B6FFF"/>
<rect x="105" y="42" width="7" height="7" fill="#1B6FFF"/>
<rect x="7" y="42" width="7" height="7" fill="#1B6FFF"/>
<rect x="7" y="35" width="7" height="7" fill="#1B6FFF"/>
<rect x="28" y="35" width="7" height="7" fill="#1B6FFF"/>
<rect x="28" y="42" width="7" height="7" fill="#1B6FFF"/>
<rect x="14" y="35" width="7" height="7" fill="#1B6FFF"/>
<rect x="14" y="42" width="7" height="7" fill="#1B6FFF"/>
<rect width="7" height="7" transform="matrix(-1 0 0 1 112 35)" fill="#1B6FFF"/>
<rect x="105" y="28" width="7" height="7" fill="black"/>
<rect x="112" y="35" width="7" height="7" fill="black"/>
<rect x="112" y="42" width="7" height="7" fill="black"/>
<rect x="98" y="49" width="7" height="7" fill="black"/>
<rect x="84" y="21" width="7" height="7" fill="black"/>
<rect x="84" y="28" width="7" height="7" fill="black"/>
<rect x="91" y="35" width="7" height="7" fill="black"/>
<rect x="91" y="42" width="7" height="7" fill="black"/>
<rect x="105" y="49" width="7" height="7" fill="black"/>
<rect x="84" width="7" height="7" fill="black"/>
<rect x="91" y="7" width="7" height="7" fill="black"/>
<rect x="98" y="14" width="7" height="7" fill="black"/>
<rect x="105" y="21" width="7" height="7" fill="black"/>
<rect x="14" y="63" width="7" height="7" fill="black"/>
<rect x="98" y="56" width="7" height="7" fill="black"/>
<rect x="98" y="63" width="7" height="7" fill="black"/>
<rect x="98" y="70" width="7" height="7" fill="black"/>
<rect x="98" y="49" width="7" height="7" fill="black"/>
<rect x="14" y="56" width="7" height="7" fill="black"/>
<rect x="28" y="21" width="7" height="7" fill="black"/>
<rect x="28" y="28" width="7" height="7" fill="black"/>
<rect x="21" y="7" width="7" height="7" fill="black"/>
<rect x="14" y="14" width="7" height="7" fill="black"/>
<rect x="7" y="21" width="7" height="7" fill="black"/>
<rect x="7" y="28" width="7" height="7" fill="black"/>
<rect y="35" width="7" height="7" fill="black"/>
<rect y="42" width="7" height="7" fill="black"/>
<rect x="7" y="49" width="7" height="7" fill="black"/>
<rect x="14" y="49" width="7" height="7" fill="black"/>
<rect x="21" y="77" width="7" height="7" fill="black"/>
<rect x="14" y="70" width="7" height="7" fill="black"/>
<rect x="28" y="77" width="7" height="7" fill="black"/>
<rect x="35" y="77" width="7" height="7" fill="black"/>
<rect x="42" y="77" width="7" height="7" fill="black"/>
<rect x="49" y="77" width="7" height="7" fill="black"/>
<rect x="56" y="77" width="7" height="7" fill="black"/>
<rect x="63" y="77" width="7" height="7" fill="black"/>
<rect x="70" y="77" width="7" height="7" fill="black"/>
<rect x="77" y="77" width="7" height="7" fill="black"/>
<rect x="84" y="77" width="7" height="7" fill="black"/>
<rect x="91" y="77" width="7" height="7" fill="black"/>
<rect x="21" y="42" width="7" height="7" fill="black"/>
<rect x="21" y="35" width="7" height="7" fill="black"/>
<rect x="28" width="7" height="7" fill="black"/>
</svg>
