<svg width="180" height="294" viewBox="0 0 180 294" fill="none" xmlns="http://www.w3.org/2000/svg">
<rect x="65" y="240" width="7" height="7" fill="#338C00"/>
<rect x="72" y="240" width="7" height="7" fill="#338C00"/>
<rect x="58" y="240" width="7" height="7" fill="#338C00"/>
<rect x="65" y="247" width="7" height="7" fill="#338C00"/>
<rect x="72" y="247" width="7" height="7" fill="#338C00"/>
<rect x="58" y="247" width="7" height="7" fill="#338C00"/>
<rect x="72" y="254" width="7" height="7" fill="#338C00"/>
<rect x="79" y="254" width="7" height="7" fill="#338C00"/>
<rect x="65" y="254" width="7" height="7" fill="#338C00"/>
<rect x="114" y="240" width="7" height="7" fill="#338C00"/>
<rect x="114" y="247" width="7" height="7" fill="#338C00"/>
<rect x="114" y="254" width="7" height="7" fill="#338C00"/>
<rect x="100" y="240" width="7" height="7" fill="#338C00"/>
<rect x="107" y="240" width="7" height="7" fill="#338C00"/>
<rect x="93" y="240" width="7" height="7" fill="#338C00"/>
<rect x="100" y="247" width="7" height="7" fill="#338C00"/>
<rect x="107" y="247" width="7" height="7" fill="#338C00"/>
<rect x="93" y="247" width="7" height="7" fill="#338C00"/>
<rect x="100" y="254" width="7" height="7" fill="#338C00"/>
<rect x="107" y="254" width="7" height="7" fill="#338C00"/>
<rect x="93" y="254" width="7" height="7" fill="#338C00"/>
<rect x="58" y="254" width="7" height="7" fill="#338C00"/>
<rect x="79" y="240" width="7" height="7" fill="#338C00"/>
<rect x="86" y="240" width="7" height="7" fill="#338C00"/>
<rect x="79" y="247" width="7" height="7" fill="#338C00"/>
<rect x="121" y="254" width="7" height="7" fill="black"/>
<rect x="51" y="240" width="7" height="7" fill="black"/>
<rect x="51" y="247" width="7" height="7" fill="black"/>
<rect x="51" y="254" width="7" height="7" fill="black"/>
<rect x="58" y="261" width="7" height="7" fill="black"/>
<rect x="121" y="247" width="7" height="7" fill="black"/>
<rect x="121" y="240" width="7" height="7" fill="black"/>
<rect x="65" y="233" width="7" height="7" fill="black"/>
<rect x="72" y="233" width="7" height="7" fill="black"/>
<rect x="65" y="261" width="7" height="7" fill="black"/>
<rect x="72" y="261" width="7" height="7" fill="black"/>
<rect x="79" y="261" width="7" height="7" fill="black"/>
<rect x="86" y="254" width="7" height="7" fill="black"/>
<rect x="93" y="261" width="7" height="7" fill="black"/>
<rect x="114" y="261" width="7" height="7" fill="black"/>
<rect x="100" y="261" width="7" height="7" fill="black"/>
<rect x="107" y="261" width="7" height="7" fill="black"/>
<rect x="86" y="247" width="7" height="7" fill="black"/>
<rect width="7" height="7" transform="matrix(-1 0 0 1 107 233)" fill="black"/>
<rect width="7" height="7" transform="matrix(-1 0 0 1 100 233)" fill="black"/>
<rect width="7" height="7" transform="matrix(-1 0 0 1 121 233)" fill="black"/>
<rect width="7" height="7" transform="matrix(-1 0 0 1 114 233)" fill="black"/>
<rect width="7" height="7" transform="matrix(-1 0 0 1 86 233)" fill="black"/>
<rect width="7" height="7" transform="matrix(-1 0 0 1 93 233)" fill="black"/>
<rect width="7" height="7" transform="matrix(-1 0 0 1 65 233)" fill="black"/>
</svg>
