<svg width="180" height="294" viewBox="0 0 180 294" fill="none" xmlns="http://www.w3.org/2000/svg">
<rect x="65" y="241" width="7" height="7" fill="#1B6FFF"/>
<rect x="72" y="241" width="7" height="7" fill="#1B6FFF"/>
<rect x="58" y="241" width="7" height="7" fill="#1B6FFF"/>
<rect x="65" y="248" width="7" height="7" fill="#1B6FFF"/>
<rect x="72" y="248" width="7" height="7" fill="#1B6FFF"/>
<rect x="58" y="248" width="7" height="7" fill="#1B6FFF"/>
<rect x="72" y="255" width="7" height="7" fill="#1B6FFF"/>
<rect x="79" y="255" width="7" height="7" fill="#1B6FFF"/>
<rect x="65" y="255" width="7" height="7" fill="#1B6FFF"/>
<rect x="114" y="241" width="7" height="7" fill="#1B6FFF"/>
<rect x="114" y="248" width="7" height="7" fill="#1B6FFF"/>
<rect x="114" y="255" width="7" height="7" fill="#1B6FFF"/>
<rect x="100" y="241" width="7" height="7" fill="#1B6FFF"/>
<rect x="107" y="241" width="7" height="7" fill="#1B6FFF"/>
<rect x="93" y="241" width="7" height="7" fill="#1B6FFF"/>
<rect x="100" y="248" width="7" height="7" fill="#1B6FFF"/>
<rect x="107" y="248" width="7" height="7" fill="#1B6FFF"/>
<rect x="93" y="248" width="7" height="7" fill="#1B6FFF"/>
<rect x="100" y="255" width="7" height="7" fill="#1B6FFF"/>
<rect x="107" y="255" width="7" height="7" fill="#1B6FFF"/>
<rect x="93" y="255" width="7" height="7" fill="#1B6FFF"/>
<rect x="58" y="255" width="7" height="7" fill="#1B6FFF"/>
<rect x="79" y="241" width="7" height="7" fill="#1B6FFF"/>
<rect x="86" y="241" width="7" height="7" fill="#1B6FFF"/>
<rect x="79" y="248" width="7" height="7" fill="#1B6FFF"/>
<rect x="121" y="255" width="7" height="7" fill="black"/>
<rect x="51" y="241" width="7" height="7" fill="black"/>
<rect x="51" y="248" width="7" height="7" fill="black"/>
<rect x="51" y="255" width="7" height="7" fill="black"/>
<rect x="58" y="262" width="7" height="7" fill="black"/>
<rect x="121" y="248" width="7" height="7" fill="black"/>
<rect x="121" y="241" width="7" height="7" fill="black"/>
<rect x="65" y="234" width="7" height="7" fill="black"/>
<rect x="72" y="234" width="7" height="7" fill="black"/>
<rect x="65" y="262" width="7" height="7" fill="black"/>
<rect x="72" y="262" width="7" height="7" fill="black"/>
<rect x="79" y="262" width="7" height="7" fill="black"/>
<rect x="86" y="255" width="7" height="7" fill="black"/>
<rect x="93" y="262" width="7" height="7" fill="black"/>
<rect x="114" y="262" width="7" height="7" fill="black"/>
<rect x="100" y="262" width="7" height="7" fill="black"/>
<rect x="107" y="262" width="7" height="7" fill="black"/>
<rect x="86" y="248" width="7" height="7" fill="black"/>
<rect width="7" height="7" transform="matrix(-1 0 0 1 107 234)" fill="black"/>
<rect width="7" height="7" transform="matrix(-1 0 0 1 100 234)" fill="black"/>
<rect width="7" height="7" transform="matrix(-1 0 0 1 121 234)" fill="black"/>
<rect width="7" height="7" transform="matrix(-1 0 0 1 114 234)" fill="black"/>
<rect width="7" height="7" transform="matrix(-1 0 0 1 86 234)" fill="black"/>
<rect width="7" height="7" transform="matrix(-1 0 0 1 93 234)" fill="black"/>
<rect width="7" height="7" transform="matrix(-1 0 0 1 65 234)" fill="black"/>
</svg>
