<svg width="114" height="48" viewBox="0 0 114 48" fill="none" xmlns="http://www.w3.org/2000/svg">
<rect x="3" y="3" width="109" height="45" rx="22.5" fill="#FF801E" fill-opacity="0.64"/>
<rect x="2" width="109" height="45" rx="22.5" fill="#FF801E"/>
<path d="M19.5 16.5H34.5V24H33.25V25.25H30.75V24H32V17.75H19.5V16.5ZM18.25 25.25H35.75V26.5H28.25V31.5H25.75V26.5H18.25V25.25ZM38.25 16.5H47V29H45.75V30.25H39.5V29H38.25V16.5ZM40.75 17.75V29H44.5V17.75H40.75ZM49.5 15.25H52V22.75H53.25V15.25H55.75V31.5H53.25V24H52V31.5H49.5V15.25ZM58.25 16.5H62V15.25H64.5V16.5H68.25V17.75H58.25V16.5ZM58.25 21.5H59.5V20.25H60.75V19H65.75V20.25H67V21.5H68.25V27.75H67V29H65.75V30.25H60.75V29H59.5V27.75H58.25V21.5ZM60.75 21.5V27.75H62V29H64.5V27.75H65.75V21.5H64.5V20.25H62V21.5H60.75ZM70.75 15.25H73.25V22.75H77V24H73.25V31.5H70.75V15.25ZM78.25 16.5H85.75V27.75H84.5V29H83.25V30.25H79.5V29H82V27.75H83.25V17.75H78.25V16.5ZM92 15.25H94.5V31.5H92V15.25Z" fill="white"/>
</svg>
