<svg width="34" height="34" viewBox="0 0 34 34" fill="none" xmlns="http://www.w3.org/2000/svg">
<path d="M20.5284 15.6738C20.3578 18.9422 17.5926 21.5996 14.3696 21.6276C11.1466 21.6555 8.65652 19.0436 8.82715 15.7752C8.99778 12.5067 11.763 9.84928 14.986 9.82135C18.209 9.79342 20.6991 12.4053 20.5284 15.6738Z" stroke="black" stroke-opacity="0.21" stroke-width="2"/>
<line x1="19.4704" y1="19.1864" x2="26.6764" y2="25.7096" stroke="black" stroke-opacity="0.21" stroke-width="2"/>
<path d="M20.5284 13.6736C20.3578 16.9421 17.5926 19.5995 14.3696 19.6274C11.1466 19.6554 8.65652 17.0435 8.82715 13.775C8.99778 10.5066 11.763 7.84916 14.986 7.82123C18.209 7.7933 20.6991 10.4052 20.5284 13.6736Z" stroke="black" stroke-width="2"/>
<line x1="19.4704" y1="17.1864" x2="26.6764" y2="23.7096" stroke="black" stroke-width="2"/>
</svg>
