<svg width="44" height="20" viewBox="0 0 44 20" fill="none" xmlns="http://www.w3.org/2000/svg">
<path d="M0 9.5H1.5V8H3V6.5H4.5V0.5H7.5V6.5H9V8H10.5V9.5H12V11H9V9.5H7.5V8H4.5V9.5H3V11H0V9.5ZM15 0.5H18V5H22.5V6.5H18V11H15V0.5ZM1.5 14H4.5V12.5H15V14H18V18.5H15V20H4.5V18.5H1.5V14ZM4.5 15.5V17H6V18.5H13.5V17H15V15.5H13.5V14H6V15.5H4.5ZM24 0.5H36V2H31.5V6.5H33V8H34.5V9.5H36V11H33V9.5H31.5V8H28.5V9.5H27V11H24V9.5H25.5V8H27V6.5H28.5V2H24V0.5ZM36 5H40.5V0.5H43.5V11H40.5V6.5H36V5ZM25.5 12.5H43.5V18.5H42V20H27V18.5H25.5V12.5ZM28.5 14V18.5H40.5V14H28.5Z" fill="black"/>
</svg>
