<svg width="47" height="44" viewBox="0 0 47 44" fill="none" xmlns="http://www.w3.org/2000/svg">
<path d="M20.8955 1.55596C22.0473 -0.458871 24.9527 -0.45887 26.1045 1.55596L31.4071 10.8319C31.8273 11.5669 32.5385 12.0901 33.3653 12.2725L43.7486 14.5634C45.9768 15.055 46.8622 17.7555 45.3578 19.471L38.2202 27.6099C37.6725 28.2344 37.4083 29.0581 37.4904 29.8846L38.564 40.6879C38.792 42.9826 36.4536 44.6659 34.3499 43.7214L24.7288 39.4017C23.9472 39.0508 23.0528 39.0508 22.2712 39.4017L12.6501 43.7214C10.5464 44.6659 8.20798 42.9826 8.43602 40.6879L9.50959 29.8846C9.59173 29.0581 9.32749 28.2344 8.77982 27.6099L1.64221 19.471C0.137753 17.7555 1.02322 15.055 3.25138 14.5634L13.6347 12.2725C14.4615 12.0901 15.1727 11.5669 15.5929 10.8319L20.8955 1.55596Z" fill="#69B9FF"/>
</svg>
