<svg width="180" height="294" viewBox="0 0 180 294" fill="none" xmlns="http://www.w3.org/2000/svg">
<rect x="93.2941" y="166.583" width="7.58824" height="7.58333" fill="#5C8791"/>
<rect x="93.2941" y="159" width="7.58824" height="7.58333" fill="#5C8791"/>
<rect x="100.882" y="166.583" width="7.58824" height="7.58333" fill="#5C8791"/>
<rect x="100.882" y="159" width="7.58824" height="7.58333" fill="#5C8791"/>
<rect x="85.7059" y="181.75" width="7.58824" height="7.58333" fill="#5C8791"/>
<rect x="78.1176" y="174.167" width="7.58824" height="7.58333" fill="#5C8791"/>
<rect x="85.7059" y="174.167" width="7.58824" height="7.58333" fill="#5C8791"/>
<rect x="85.7059" y="166.583" width="7.58824" height="7.58333" fill="#5C8791"/>
<rect x="85.7059" y="159" width="7.58824" height="7.58333" fill="#5C8791"/>
<rect x="78.1176" y="159" width="7.58824" height="7.58333" fill="#5C8791"/>
<rect x="93.2941" y="219.667" width="7.58824" height="7.58333" fill="#5C8791"/>
<rect x="100.882" y="219.667" width="7.58824" height="7.58333" fill="#5C8791"/>
<rect x="85.7059" y="219.667" width="7.58824" height="7.58333" fill="#5C8791"/>
<rect x="108.471" y="219.667" width="7.58824" height="7.58333" fill="#5C8791"/>
<rect x="78.1176" y="219.667" width="7.58824" height="7.58333" fill="#5C8791"/>
<rect x="78.1176" y="174.167" width="7.58824" height="7.58333" fill="#5C8791"/>
<rect x="93.2941" y="227.25" width="7.58824" height="7.58333" fill="#5C8791"/>
<rect x="100.882" y="227.25" width="7.58824" height="7.58333" fill="#5C8791"/>
<rect x="85.7059" y="227.25" width="7.58824" height="7.58333" fill="#5C8791"/>
<rect x="108.471" y="227.25" width="7.58824" height="7.58333" fill="#5C8791"/>
<rect x="78.1176" y="227.25" width="7.58824" height="7.58333" fill="#5C8791"/>
<rect x="93.2941" y="234.833" width="7.58824" height="7.58333" fill="#5C8791"/>
<rect x="100.882" y="234.833" width="7.58824" height="7.58333" fill="#5C8791"/>
<rect x="85.7059" y="234.833" width="7.58824" height="7.58333" fill="#5C8791"/>
<rect x="108.471" y="234.833" width="7.58824" height="7.58333" fill="#5C8791"/>
<rect x="78.1176" y="234.833" width="7.58824" height="7.58333" fill="#5C8791"/>
<rect x="78.1176" y="196.917" width="7.58824" height="7.58333" fill="#5C8791"/>
<rect x="78.1176" y="204.5" width="7.58824" height="7.58333" fill="#5C8791"/>
<rect x="78.1176" y="212.083" width="7.58824" height="7.58333" fill="#5C8791"/>
<rect x="93.2941" y="174.167" width="7.58824" height="7.58333" fill="#5C8791"/>
<rect x="93.2941" y="181.75" width="7.58824" height="7.58333" fill="#5C8791"/>
<rect x="93.2941" y="189.333" width="7.58824" height="7.58333" fill="#5C8791"/>
<rect x="93.2941" y="196.917" width="7.58824" height="7.58333" fill="#5C8791"/>
<rect x="93.2941" y="204.5" width="7.58824" height="7.58333" fill="#5C8791"/>
<rect x="93.2941" y="212.083" width="7.58824" height="7.58333" fill="#5C8791"/>
<rect x="85.7059" y="212.083" width="7.58824" height="7.58333" fill="#5C8791"/>
<rect x="85.7059" y="204.5" width="7.58824" height="7.58333" fill="#5C8791"/>
<rect x="85.7059" y="196.917" width="7.58824" height="7.58333" fill="#5C8791"/>
<rect x="85.7059" y="189.333" width="7.58824" height="7.58333" fill="#5C8791"/>
<rect x="100.882" y="181.75" width="7.58824" height="7.58333" fill="#5C8791"/>
<rect x="100.882" y="174.167" width="7.58824" height="7.58333" fill="#5C8791"/>
<rect x="108.471" y="174.167" width="7.58824" height="7.58333" fill="#5C8791"/>
<rect x="108.471" y="181.75" width="7.58824" height="7.58333" fill="#5C8791"/>
<rect x="108.471" y="159" width="7.58824" height="7.58333" fill="#5C8791"/>
<rect x="108.471" y="166.583" width="7.58824" height="7.58333" fill="#5C8791"/>
<rect x="108.471" y="189.333" width="7.58824" height="7.58333" fill="#5C8791"/>
<rect x="108.471" y="196.917" width="7.58824" height="7.58333" fill="#5C8791"/>
<rect x="108.471" y="204.5" width="7.58824" height="7.58333" fill="#5C8791"/>
<rect x="108.471" y="212.083" width="7.58824" height="7.58333" fill="#5C8791"/>
<rect x="100.882" y="212.083" width="7.58824" height="7.58333" fill="#5C8791"/>
<rect x="100.882" y="204.5" width="7.58824" height="7.58333" fill="#5C8791"/>
<rect x="100.882" y="196.917" width="7.58824" height="7.58333" fill="#5C8791"/>
<rect x="100.882" y="189.333" width="7.58824" height="7.58333" fill="#5C8791"/>
<rect x="78.1176" y="166.583" width="7.58824" height="7.58333" fill="#5C8791"/>
<rect x="78.1176" y="181.75" width="7.58824" height="7.58333" fill="#5C8791"/>
<rect x="78.1176" y="174.167" width="7.58824" height="7.58333" fill="#5C8791"/>
<rect x="78.1176" y="189.333" width="7.58824" height="7.58333" fill="#5C8791"/>
<rect x="70.5294" y="159" width="7.58824" height="7.58333" fill="#5C8791"/>
<rect x="62.9412" y="159" width="7.58824" height="7.58333" fill="#5C8791"/>
<rect x="70.5294" y="219.667" width="7.58824" height="7.58333" fill="#5C8791"/>
<rect x="62.9412" y="219.667" width="7.58824" height="7.58333" fill="#5C8791"/>
<rect x="70.5294" y="227.25" width="7.58824" height="7.58333" fill="#5C8791"/>
<rect x="62.9412" y="227.25" width="7.58824" height="7.58333" fill="#5C8791"/>
<rect x="70.5294" y="234.833" width="7.58824" height="7.58333" fill="#5C8791"/>
<rect x="62.9412" y="234.833" width="7.58824" height="7.58333" fill="#5C8791"/>
<rect x="70.5294" y="196.917" width="7.58824" height="7.58333" fill="#5C8791"/>
<rect x="62.9412" y="196.917" width="7.58824" height="7.58333" fill="#5C8791"/>
<rect x="70.5294" y="204.5" width="7.58824" height="7.58333" fill="#5C8791"/>
<rect x="62.9412" y="204.5" width="7.58824" height="7.58333" fill="#5C8791"/>
<rect x="70.5294" y="212.083" width="7.58824" height="7.58333" fill="#5C8791"/>
<rect x="62.9412" y="212.083" width="7.58824" height="7.58333" fill="#5C8791"/>
<rect x="70.5294" y="166.583" width="7.58824" height="7.58333" fill="#5C8791"/>
<rect x="62.9412" y="181.75" width="7.58824" height="7.58333" fill="#5C8791"/>
<rect x="62.9412" y="174.167" width="7.58824" height="7.58333" fill="#5C8791"/>
<rect x="62.9412" y="166.583" width="7.58824" height="7.58333" fill="#5C8791"/>
<rect x="70.5294" y="174.167" width="7.58824" height="7.58333" fill="#5C8791"/>
<rect x="70.5294" y="181.75" width="7.58824" height="7.58333" fill="#5C8791"/>
<rect x="70.5294" y="189.333" width="7.58824" height="7.58333" fill="#5C8791"/>
<rect x="62.9412" y="189.333" width="7.58824" height="7.58333" fill="#5C8791"/>
<rect x="116.059" y="219.667" width="7.58824" height="7.58333" fill="#5C8791"/>
<rect x="123.647" y="219.667" width="7.58824" height="7.58333" fill="#5C8791"/>
<rect x="116.059" y="227.25" width="7.58824" height="7.58333" fill="#5C8791"/>
<rect x="123.647" y="227.25" width="7.58824" height="7.58333" fill="#5C8791"/>
<rect x="116.059" y="234.833" width="7.58824" height="7.58333" fill="#5C8791"/>
<rect x="123.647" y="234.833" width="7.58824" height="7.58333" fill="#5C8791"/>
<rect x="47.7647" y="212.083" width="7.58824" height="7.58333" fill="#5C8791"/>
<rect x="47.7647" y="219.667" width="7.58824" height="7.58333" fill="#5C8791"/>
<rect x="47.7647" y="227.25" width="7.58824" height="7.58333" fill="#5C8791"/>
<rect x="47.7647" y="234.833" width="7.58824" height="7.58333" fill="#5C8791"/>
<rect x="55.3529" y="212.083" width="7.58824" height="7.58333" fill="#5C8791"/>
<rect x="55.3529" y="219.667" width="7.58824" height="7.58333" fill="#5C8791"/>
<rect x="55.3529" y="227.25" width="7.58824" height="7.58333" fill="#5C8791"/>
<rect x="55.3529" y="234.833" width="7.58824" height="7.58333" fill="#5C8791"/>
<rect x="116.059" y="166.583" width="7.58824" height="7.58333" fill="#5C8791"/>
<rect x="116.059" y="174.167" width="7.58824" height="7.58333" fill="#5C8791"/>
<rect x="131.235" y="196.917" width="7.58824" height="7.58333" fill="#5C8791"/>
<rect x="131.235" y="204.5" width="7.58824" height="7.58333" fill="#5C8791"/>
<rect x="116.059" y="196.917" width="7.58824" height="7.58333" fill="#5C8791"/>
<rect x="116.059" y="204.5" width="7.58824" height="7.58333" fill="#5C8791"/>
<rect x="116.059" y="212.083" width="7.58824" height="7.58333" fill="#5C8791"/>
<rect x="123.647" y="212.083" width="7.58824" height="7.58333" fill="#5C8791"/>
<rect x="55.3529" y="174.167" width="7.58824" height="7.58333" fill="#5C8791"/>
<rect x="47.7647" y="174.167" width="7.58824" height="7.58333" fill="#5C8791"/>
<rect x="55.3529" y="166.583" width="7.58824" height="7.58333" fill="#5C8791"/>
<rect x="123.647" y="174.167" width="7.58824" height="7.58333" fill="#5C8791"/>
<rect x="131.235" y="181.75" width="7.58824" height="7.58333" fill="#5C8791"/>
<rect x="123.647" y="189.333" width="7.58824" height="7.58333" fill="#5C8791"/>
<rect x="123.647" y="181.75" width="7.58824" height="7.58333" fill="#5C8791"/>
<rect x="131.235" y="189.333" width="7.58824" height="7.58333" fill="#5C8791"/>
<rect x="47.7647" y="181.75" width="7.58824" height="7.58333" fill="#5C8791"/>
<rect x="40.1765" y="189.333" width="7.58824" height="7.58333" fill="#5C8791"/>
<rect x="40.1765" y="181.75" width="7.58824" height="7.58333" fill="#5C8791"/>
<rect x="47.7647" y="189.333" width="7.58824" height="7.58333" fill="#5C8791"/>
<rect x="138.824" y="204.5" width="7.58824" height="7.58333" fill="#5C8791"/>
<rect x="32.5882" y="204.5" width="7.58824" height="7.58333" fill="#5C8791"/>
<rect x="32.5882" y="196.917" width="7.58824" height="7.58333" fill="#5C8791"/>
<rect x="55.3529" y="196.917" width="7.58824" height="7.58333" fill="#5C8791"/>
<rect x="55.3529" y="204.5" width="7.58824" height="7.58333" fill="#5C8791"/>
<rect x="40.1765" y="196.917" width="7.58824" height="7.58333" fill="#5C8791"/>
<rect x="40.1765" y="204.5" width="7.58824" height="7.58333" fill="#5C8791"/>
<rect width="7.58824" height="7.58333" transform="matrix(-1 0 0 1 146.412 196.917)" fill="#5C8791"/>
<rect x="138.824" y="189.333" width="7.58824" height="7.58333" fill="black"/>
<rect x="146.412" y="196.917" width="7.58824" height="7.58333" fill="black"/>
<rect x="146.412" y="204.5" width="7.58824" height="7.58333" fill="black"/>
<rect x="131.235" y="212.083" width="7.58824" height="7.58333" fill="black"/>
<rect x="116.059" y="181.75" width="7.58824" height="7.58333" fill="black"/>
<rect x="116.059" y="189.333" width="7.58824" height="7.58333" fill="black"/>
<rect x="123.647" y="196.917" width="7.58824" height="7.58333" fill="black"/>
<rect x="123.647" y="204.5" width="7.58824" height="7.58333" fill="black"/>
<rect x="138.824" y="212.083" width="7.58824" height="7.58333" fill="black"/>
<rect x="116.059" y="159" width="7.58824" height="7.58333" fill="black"/>
<rect x="123.647" y="166.583" width="7.58824" height="7.58333" fill="black"/>
<rect x="131.235" y="174.167" width="7.58824" height="7.58333" fill="black"/>
<rect x="138.824" y="181.75" width="7.58824" height="7.58333" fill="black"/>
<rect x="40.1765" y="227.25" width="7.58824" height="7.58333" fill="black"/>
<rect x="131.235" y="219.667" width="7.58824" height="7.58333" fill="black"/>
<rect x="131.235" y="227.25" width="7.58824" height="7.58333" fill="black"/>
<rect x="131.235" y="234.833" width="7.58824" height="7.58333" fill="black"/>
<rect x="131.235" y="212.083" width="7.58824" height="7.58333" fill="black"/>
<rect x="40.1765" y="219.667" width="7.58824" height="7.58333" fill="black"/>
<rect x="55.3529" y="181.75" width="7.58824" height="7.58333" fill="black"/>
<rect x="55.3529" y="189.333" width="7.58824" height="7.58333" fill="black"/>
<rect x="47.7647" y="166.583" width="7.58824" height="7.58333" fill="black"/>
<rect x="40.1765" y="174.167" width="7.58824" height="7.58333" fill="black"/>
<rect x="32.5882" y="181.75" width="7.58824" height="7.58333" fill="black"/>
<rect x="32.5882" y="189.333" width="7.58824" height="7.58333" fill="black"/>
<rect x="25" y="196.917" width="7.58824" height="7.58333" fill="black"/>
<rect x="25" y="204.5" width="7.58824" height="7.58333" fill="black"/>
<rect x="32.5882" y="212.083" width="7.58824" height="7.58333" fill="black"/>
<rect x="40.1765" y="212.083" width="7.58824" height="7.58333" fill="black"/>
<rect x="47.7647" y="242.417" width="7.58824" height="7.58333" fill="black"/>
<rect x="40.1765" y="234.833" width="7.58824" height="7.58333" fill="black"/>
<rect x="55.3529" y="242.417" width="7.58824" height="7.58333" fill="black"/>
<rect x="62.9412" y="242.417" width="7.58824" height="7.58333" fill="black"/>
<rect x="70.5294" y="242.417" width="7.58824" height="7.58333" fill="black"/>
<rect x="78.1176" y="242.417" width="7.58824" height="7.58333" fill="black"/>
<rect x="85.7059" y="242.417" width="7.58824" height="7.58333" fill="black"/>
<rect x="93.2941" y="242.417" width="7.58824" height="7.58333" fill="black"/>
<rect x="100.882" y="242.417" width="7.58824" height="7.58333" fill="black"/>
<rect x="108.471" y="242.417" width="7.58824" height="7.58333" fill="black"/>
<rect x="116.059" y="242.417" width="7.58824" height="7.58333" fill="black"/>
<rect x="123.647" y="242.417" width="7.58824" height="7.58333" fill="black"/>
<rect x="47.7647" y="204.5" width="7.58824" height="7.58333" fill="black"/>
<rect x="47.7647" y="196.917" width="7.58824" height="7.58333" fill="black"/>
<rect x="55.3529" y="159" width="7.58824" height="7.58333" fill="black"/>
</svg>
