<svg width="180" height="294" viewBox="0 0 180 294" fill="none" xmlns="http://www.w3.org/2000/svg">
<rect x="93" y="166" width="7" height="7" fill="#FF0004"/>
<rect x="93" y="159" width="7" height="7" fill="#FF0004"/>
<rect x="100" y="166" width="7" height="7" fill="#FF0004"/>
<rect x="100" y="159" width="7" height="7" fill="#FF0004"/>
<rect x="86" y="180" width="7" height="7" fill="#FF0004"/>
<rect x="79" y="173" width="7" height="7" fill="#FF0004"/>
<rect x="86" y="173" width="7" height="7" fill="#FF0004"/>
<rect x="86" y="166" width="7" height="7" fill="#FF0004"/>
<rect x="86" y="159" width="7" height="7" fill="#FF0004"/>
<rect x="79" y="159" width="7" height="7" fill="#FF0004"/>
<rect x="93" y="215" width="7" height="7" fill="#FF0004"/>
<rect x="100" y="215" width="7" height="7" fill="#FF0004"/>
<rect x="86" y="215" width="7" height="7" fill="#FF0004"/>
<rect x="107" y="215" width="7" height="7" fill="#FF0004"/>
<rect x="79" y="215" width="7" height="7" fill="#FF0004"/>
<rect x="79" y="173" width="7" height="7" fill="#FF0004"/>
<rect x="93" y="222" width="7" height="7" fill="white"/>
<rect x="100" y="222" width="7" height="7" fill="#FF0004"/>
<rect x="100" y="222" width="7" height="7" fill="#FF0004"/>
<rect x="86" y="222" width="7" height="7" fill="#FF0004"/>
<rect x="107" y="222" width="7" height="7" fill="#FF0004"/>
<rect x="79" y="222" width="7" height="7" fill="#FF0004"/>
<rect x="93" y="229" width="7" height="7" fill="#FF0004"/>
<rect x="100" y="229" width="7" height="7" fill="#FF0004"/>
<rect x="86" y="229" width="7" height="7" fill="#FF0004"/>
<rect x="107" y="229" width="7" height="7" fill="#FF0004"/>
<rect x="79" y="229" width="7" height="7" fill="#FF0004"/>
<rect x="79" y="194" width="7" height="7" fill="#FF0004"/>
<rect x="79" y="201" width="7" height="7" fill="#FF0004"/>
<rect x="79" y="208" width="7" height="7" fill="#FF0004"/>
<rect x="93" y="173" width="7" height="7" fill="#FF0004"/>
<rect x="93" y="180" width="7" height="7" fill="#FF0004"/>
<rect x="93" y="187" width="7" height="7" fill="#FF0004"/>
<rect x="93" y="194" width="7" height="7" fill="#FF0004"/>
<rect x="93" y="201" width="7" height="7" fill="#FF0004"/>
<rect x="93" y="208" width="7" height="7" fill="#FF0004"/>
<rect x="86" y="208" width="7" height="7" fill="#FF0004"/>
<rect x="86" y="201" width="7" height="7" fill="#FF0004"/>
<rect x="86" y="194" width="7" height="7" fill="#FF0004"/>
<rect x="86" y="187" width="7" height="7" fill="white"/>
<rect x="100" y="180" width="7" height="7" fill="#FF0004"/>
<rect x="100" y="173" width="7" height="7" fill="#FF0004"/>
<rect x="100" y="173" width="7" height="7" fill="white"/>
<rect x="107" y="173" width="7" height="7" fill="#FF0004"/>
<rect x="107" y="180" width="7" height="7" fill="#FF0004"/>
<rect x="107" y="159" width="7" height="7" fill="#FF0004"/>
<rect x="107" y="166" width="7" height="7" fill="#FF0004"/>
<rect x="107" y="187" width="7" height="7" fill="#FF0004"/>
<rect x="107" y="194" width="7" height="7" fill="#FF0004"/>
<rect x="107" y="201" width="7" height="7" fill="#FF0004"/>
<rect x="107" y="208" width="7" height="7" fill="#FF0004"/>
<rect x="107" y="208" width="7" height="7" fill="white"/>
<rect x="100" y="208" width="7" height="7" fill="#FF0004"/>
<rect x="100" y="201" width="7" height="7" fill="#FF0004"/>
<rect x="100" y="194" width="7" height="7" fill="#FF0004"/>
<rect x="100" y="187" width="7" height="7" fill="#FF0004"/>
<rect x="79" y="166" width="7" height="7" fill="#FF0004"/>
<rect x="79" y="166" width="7" height="7" fill="white"/>
<rect x="79" y="180" width="7" height="7" fill="#FF0004"/>
<rect x="79" y="173" width="7" height="7" fill="#FF0004"/>
<rect x="79" y="187" width="7" height="7" fill="#FF0004"/>
<rect x="72" y="159" width="7" height="7" fill="#FF0004"/>
<rect x="65" y="159" width="7" height="7" fill="#FF0004"/>
<rect x="72" y="215" width="7" height="7" fill="#FF0004"/>
<rect x="72" y="215" width="7" height="7" fill="white"/>
<rect x="65" y="215" width="7" height="7" fill="#FF0004"/>
<rect x="72" y="222" width="7" height="7" fill="#FF0004"/>
<rect x="65" y="222" width="7" height="7" fill="#FF0004"/>
<rect x="72" y="229" width="7" height="7" fill="#FF0004"/>
<rect x="65" y="229" width="7" height="7" fill="#FF0004"/>
<rect x="72" y="194" width="7" height="7" fill="#FF0004"/>
<rect x="65" y="194" width="7" height="7" fill="#FF0004"/>
<rect x="65" y="194" width="7" height="7" fill="white"/>
<rect x="72" y="201" width="7" height="7" fill="#FF0004"/>
<rect x="65" y="201" width="7" height="7" fill="#FF0004"/>
<rect x="72" y="208" width="7" height="7" fill="#FF0004"/>
<rect x="65" y="208" width="7" height="7" fill="#FF0004"/>
<rect x="72" y="166" width="7" height="7" fill="#FF0004"/>
<rect x="65" y="180" width="7" height="7" fill="#FF0004"/>
<rect x="65" y="173" width="7" height="7" fill="#FF0004"/>
<rect x="65" y="166" width="7" height="7" fill="#FF0004"/>
<rect x="72" y="173" width="7" height="7" fill="#FF0004"/>
<rect x="72" y="180" width="7" height="7" fill="#FF0004"/>
<rect x="72" y="187" width="7" height="7" fill="#FF0004"/>
<rect x="65" y="187" width="7" height="7" fill="#FF0004"/>
<rect x="114" y="215" width="7" height="7" fill="#FF0004"/>
<rect x="121" y="215" width="7" height="7" fill="#FF0004"/>
<rect x="114" y="222" width="7" height="7" fill="#FF0004"/>
<rect x="121" y="222" width="7" height="7" fill="white"/>
<rect x="114" y="229" width="7" height="7" fill="#FF0004"/>
<rect x="121" y="229" width="7" height="7" fill="#FF0004"/>
<rect x="121" y="229" width="7" height="7" fill="#FF0004"/>
<rect x="51" y="208" width="7" height="7" fill="#FF0004"/>
<rect x="51" y="215" width="7" height="7" fill="#FF0004"/>
<rect x="51" y="222" width="7" height="7" fill="#FF0004"/>
<rect x="51" y="222" width="7" height="7" fill="white"/>
<rect x="51" y="229" width="7" height="7" fill="#FF0004"/>
<rect x="58" y="208" width="7" height="7" fill="#FF0004"/>
<rect x="58" y="215" width="7" height="7" fill="#FF0004"/>
<rect x="58" y="222" width="7" height="7" fill="#FF0004"/>
<rect x="58" y="229" width="7" height="7" fill="#FF0004"/>
<rect x="114" y="166" width="7" height="7" fill="#FF0004"/>
<rect x="114" y="166" width="7" height="7" fill="white"/>
<rect x="114" y="173" width="7" height="7" fill="#FF0004"/>
<rect x="128" y="194" width="7" height="7" fill="#FF0004"/>
<rect x="128" y="194" width="7" height="7" fill="white"/>
<rect x="128" y="201" width="7" height="7" fill="#FF0004"/>
<rect x="114" y="194" width="7" height="7" fill="#FF0004"/>
<rect x="114" y="201" width="7" height="7" fill="#FF0004"/>
<rect x="114" y="208" width="7" height="7" fill="#FF0004"/>
<rect x="121" y="208" width="7" height="7" fill="#FF0004"/>
<rect x="58" y="173" width="7" height="7" fill="#FF0004"/>
<rect x="51" y="173" width="7" height="7" fill="#FF0004"/>
<rect x="58" y="166" width="7" height="7" fill="#FF0004"/>
<rect x="58" y="166" width="7" height="7" fill="white"/>
<rect x="121" y="173" width="7" height="7" fill="#FF0004"/>
<rect x="128" y="180" width="7" height="7" fill="#FF0004"/>
<rect x="121" y="187" width="7" height="7" fill="#FF0004"/>
<rect x="121" y="180" width="7" height="7" fill="#FF0004"/>
<rect x="128" y="187" width="7" height="7" fill="#FF0004"/>
<rect x="51" y="180" width="7" height="7" fill="#FF0004"/>
<rect x="44" y="187" width="7" height="7" fill="#FF0004"/>
<rect x="44" y="180" width="7" height="7" fill="#FF0004"/>
<rect x="51" y="187" width="7" height="7" fill="#FF0004"/>
<rect x="135" y="201" width="7" height="7" fill="#FF0004"/>
<rect x="37" y="201" width="7" height="7" fill="#FF0004"/>
<rect x="37" y="194" width="7" height="7" fill="#FF0004"/>
<rect x="37" y="194" width="7" height="7" fill="white"/>
<rect x="58" y="194" width="7" height="7" fill="#FF0004"/>
<rect x="58" y="201" width="7" height="7" fill="#FF0004"/>
<rect x="44" y="194" width="7" height="7" fill="#FF0004"/>
<rect x="44" y="201" width="7" height="7" fill="#FF0004"/>
<rect width="7" height="7" transform="matrix(-1 0 0 1 142 194)" fill="#FF0004"/>
<rect x="135" y="187" width="7" height="7" fill="black"/>
<rect x="142" y="194" width="7" height="7" fill="black"/>
<rect x="142" y="201" width="7" height="7" fill="black"/>
<rect x="128" y="208" width="7" height="7" fill="black"/>
<rect x="114" y="180" width="7" height="7" fill="black"/>
<rect x="114" y="187" width="7" height="7" fill="black"/>
<rect x="121" y="194" width="7" height="7" fill="black"/>
<rect x="121" y="201" width="7" height="7" fill="black"/>
<rect x="135" y="208" width="7" height="7" fill="black"/>
<rect x="114" y="159" width="7" height="7" fill="black"/>
<rect x="121" y="166" width="7" height="7" fill="black"/>
<rect x="128" y="173" width="7" height="7" fill="black"/>
<rect x="135" y="180" width="7" height="7" fill="black"/>
<rect x="44" y="222" width="7" height="7" fill="black"/>
<rect x="128" y="215" width="7" height="7" fill="black"/>
<rect x="128" y="222" width="7" height="7" fill="black"/>
<rect x="128" y="229" width="7" height="7" fill="black"/>
<rect x="128" y="208" width="7" height="7" fill="black"/>
<rect x="44" y="215" width="7" height="7" fill="black"/>
<rect x="58" y="180" width="7" height="7" fill="black"/>
<rect x="58" y="187" width="7" height="7" fill="black"/>
<rect x="51" y="166" width="7" height="7" fill="black"/>
<rect x="44" y="173" width="7" height="7" fill="black"/>
<rect x="37" y="180" width="7" height="7" fill="black"/>
<rect x="37" y="187" width="7" height="7" fill="black"/>
<rect x="30" y="194" width="7" height="7" fill="black"/>
<rect x="30" y="201" width="7" height="7" fill="black"/>
<rect x="37" y="208" width="7" height="7" fill="black"/>
<rect x="44" y="208" width="7" height="7" fill="black"/>
<rect x="51" y="236" width="7" height="7" fill="black"/>
<rect x="44" y="229" width="7" height="7" fill="black"/>
<rect x="58" y="236" width="7" height="7" fill="black"/>
<rect x="65" y="236" width="7" height="7" fill="black"/>
<rect x="72" y="236" width="7" height="7" fill="black"/>
<rect x="79" y="236" width="7" height="7" fill="black"/>
<rect x="86" y="236" width="7" height="7" fill="black"/>
<rect x="93" y="236" width="7" height="7" fill="black"/>
<rect x="100" y="236" width="7" height="7" fill="black"/>
<rect x="107" y="236" width="7" height="7" fill="black"/>
<rect x="114" y="236" width="7" height="7" fill="black"/>
<rect x="121" y="236" width="7" height="7" fill="black"/>
<rect x="51" y="201" width="7" height="7" fill="black"/>
<rect x="51" y="194" width="7" height="7" fill="black"/>
<rect x="58" y="159" width="7" height="7" fill="black"/>
</svg>
