<svg width="180" height="294" viewBox="0 0 180 294" fill="none" xmlns="http://www.w3.org/2000/svg">
<rect x="98" y="168" width="7" height="7" fill="#FF801E"/>
<rect x="98" y="161" width="7" height="7" fill="#FF801E"/>
<rect x="105" y="168" width="7" height="7" fill="#FF801E"/>
<rect x="105" y="161" width="7" height="7" fill="#FF801E"/>
<rect x="91" y="182" width="7" height="7" fill="#FF801E"/>
<rect x="84" y="175" width="7" height="7" fill="#FF801E"/>
<rect x="91" y="175" width="7" height="7" fill="#FF801E"/>
<rect x="91" y="168" width="7" height="7" fill="#FF801E"/>
<rect x="91" y="161" width="7" height="7" fill="#FF801E"/>
<rect x="84" y="161" width="7" height="7" fill="#FF801E"/>
<rect x="98" y="217" width="7" height="7" fill="#FF801E"/>
<rect x="105" y="217" width="7" height="7" fill="#FF801E"/>
<rect x="91" y="217" width="7" height="7" fill="#FF801E"/>
<rect x="112" y="217" width="7" height="7" fill="#FF801E"/>
<rect x="84" y="217" width="7" height="7" fill="#FF801E"/>
<rect x="84" y="175" width="7" height="7" fill="#FF801E"/>
<rect x="98" y="224" width="7" height="7" fill="#FF801E"/>
<rect x="105" y="224" width="7" height="7" fill="#FF801E"/>
<rect x="91" y="224" width="7" height="7" fill="#FF801E"/>
<rect x="112" y="224" width="7" height="7" fill="#FF801E"/>
<rect x="84" y="224" width="7" height="7" fill="#FF801E"/>
<rect x="98" y="231" width="7" height="7" fill="#FF801E"/>
<rect x="105" y="231" width="7" height="7" fill="#FF801E"/>
<rect x="91" y="231" width="7" height="7" fill="#FF801E"/>
<rect x="112" y="231" width="7" height="7" fill="#FF801E"/>
<rect x="84" y="231" width="7" height="7" fill="#FF801E"/>
<rect x="84" y="196" width="7" height="7" fill="#FF801E"/>
<rect x="84" y="203" width="7" height="7" fill="#FF801E"/>
<rect x="84" y="210" width="7" height="7" fill="#FF801E"/>
<rect x="98" y="175" width="7" height="7" fill="#FF801E"/>
<rect x="98" y="182" width="7" height="7" fill="#FF801E"/>
<rect x="98" y="189" width="7" height="7" fill="#FF801E"/>
<rect x="98" y="196" width="7" height="7" fill="#FF801E"/>
<rect x="98" y="203" width="7" height="7" fill="#FF801E"/>
<rect x="98" y="210" width="7" height="7" fill="#FF801E"/>
<rect x="91" y="210" width="7" height="7" fill="#FF801E"/>
<rect x="91" y="203" width="7" height="7" fill="#FF801E"/>
<rect x="91" y="196" width="7" height="7" fill="#FF801E"/>
<rect x="91" y="189" width="7" height="7" fill="#FF801E"/>
<rect x="105" y="182" width="7" height="7" fill="#FF801E"/>
<rect x="105" y="175" width="7" height="7" fill="#FF801E"/>
<rect x="112" y="175" width="7" height="7" fill="#FF801E"/>
<rect x="112" y="182" width="7" height="7" fill="#FF801E"/>
<rect x="112" y="161" width="7" height="7" fill="#FF801E"/>
<rect x="112" y="168" width="7" height="7" fill="#FF801E"/>
<rect x="112" y="189" width="7" height="7" fill="#FF801E"/>
<rect x="112" y="196" width="7" height="7" fill="#FF801E"/>
<rect x="112" y="203" width="7" height="7" fill="#FF801E"/>
<rect x="112" y="210" width="7" height="7" fill="#FF801E"/>
<rect x="105" y="210" width="7" height="7" fill="#FF801E"/>
<rect x="105" y="203" width="7" height="7" fill="#FF801E"/>
<rect x="105" y="196" width="7" height="7" fill="#FF801E"/>
<rect x="105" y="189" width="7" height="7" fill="#FF801E"/>
<rect x="84" y="168" width="7" height="7" fill="#FF801E"/>
<rect x="84" y="182" width="7" height="7" fill="#FF801E"/>
<rect x="84" y="175" width="7" height="7" fill="#FF801E"/>
<rect x="84" y="189" width="7" height="7" fill="#FF801E"/>
<rect x="77" y="161" width="7" height="7" fill="#FF801E"/>
<rect x="70" y="161" width="7" height="7" fill="#FF801E"/>
<rect x="77" y="217" width="7" height="7" fill="#FF801E"/>
<rect x="70" y="217" width="7" height="7" fill="#FF801E"/>
<rect x="77" y="224" width="7" height="7" fill="#FF801E"/>
<rect x="70" y="224" width="7" height="7" fill="#FF801E"/>
<rect x="77" y="231" width="7" height="7" fill="#FF801E"/>
<rect x="70" y="231" width="7" height="7" fill="#FF801E"/>
<rect x="77" y="196" width="7" height="7" fill="#FF801E"/>
<rect x="70" y="196" width="7" height="7" fill="#FF801E"/>
<rect x="77" y="203" width="7" height="7" fill="#FF801E"/>
<rect x="70" y="203" width="7" height="7" fill="#FF801E"/>
<rect x="77" y="210" width="7" height="7" fill="#FF801E"/>
<rect x="70" y="210" width="7" height="7" fill="#FF801E"/>
<rect x="77" y="168" width="7" height="7" fill="#FF801E"/>
<rect x="70" y="182" width="7" height="7" fill="#FF801E"/>
<rect x="70" y="175" width="7" height="7" fill="#FF801E"/>
<rect x="70" y="168" width="7" height="7" fill="#FF801E"/>
<rect x="77" y="175" width="7" height="7" fill="#FF801E"/>
<rect x="77" y="182" width="7" height="7" fill="#FF801E"/>
<rect x="77" y="189" width="7" height="7" fill="#FF801E"/>
<rect x="70" y="189" width="7" height="7" fill="#FF801E"/>
<rect x="119" y="217" width="7" height="7" fill="#FF801E"/>
<rect x="126" y="217" width="7" height="7" fill="#FF801E"/>
<rect x="119" y="224" width="7" height="7" fill="#FF801E"/>
<rect x="126" y="224" width="7" height="7" fill="#FF801E"/>
<rect x="119" y="231" width="7" height="7" fill="#FF801E"/>
<rect x="126" y="231" width="7" height="7" fill="#FF801E"/>
<rect x="56" y="210" width="7" height="7" fill="#FF801E"/>
<rect x="56" y="217" width="7" height="7" fill="#FF801E"/>
<rect x="56" y="224" width="7" height="7" fill="#FF801E"/>
<rect x="56" y="231" width="7" height="7" fill="#FF801E"/>
<rect x="63" y="210" width="7" height="7" fill="#FF801E"/>
<rect x="63" y="217" width="7" height="7" fill="#FF801E"/>
<rect x="63" y="224" width="7" height="7" fill="#FF801E"/>
<rect x="63" y="231" width="7" height="7" fill="#FF801E"/>
<rect x="119" y="168" width="7" height="7" fill="#FF801E"/>
<rect x="119" y="175" width="7" height="7" fill="#FF801E"/>
<rect x="133" y="196" width="7" height="7" fill="#FF801E"/>
<rect x="133" y="203" width="7" height="7" fill="#FF801E"/>
<rect x="119" y="196" width="7" height="7" fill="#FF801E"/>
<rect x="119" y="203" width="7" height="7" fill="#FF801E"/>
<rect x="119" y="210" width="7" height="7" fill="#FF801E"/>
<rect x="126" y="210" width="7" height="7" fill="#FF801E"/>
<rect x="63" y="175" width="7" height="7" fill="#FF801E"/>
<rect x="56" y="175" width="7" height="7" fill="#FF801E"/>
<rect x="63" y="168" width="7" height="7" fill="#FF801E"/>
<rect x="126" y="175" width="7" height="7" fill="#FF801E"/>
<rect x="133" y="182" width="7" height="7" fill="#FF801E"/>
<rect x="126" y="189" width="7" height="7" fill="#FF801E"/>
<rect x="126" y="182" width="7" height="7" fill="#FF801E"/>
<rect x="133" y="189" width="7" height="7" fill="#FF801E"/>
<rect x="56" y="182" width="7" height="7" fill="#FF801E"/>
<rect x="49" y="189" width="7" height="7" fill="#FF801E"/>
<rect x="49" y="182" width="7" height="7" fill="#FF801E"/>
<rect x="56" y="189" width="7" height="7" fill="#FF801E"/>
<rect x="140" y="203" width="7" height="7" fill="#FF801E"/>
<rect x="42" y="203" width="7" height="7" fill="#FF801E"/>
<rect x="42" y="196" width="7" height="7" fill="#FF801E"/>
<rect x="63" y="196" width="7" height="7" fill="#FF801E"/>
<rect x="63" y="203" width="7" height="7" fill="#FF801E"/>
<rect x="49" y="196" width="7" height="7" fill="#FF801E"/>
<rect x="49" y="203" width="7" height="7" fill="#FF801E"/>
<rect width="7" height="7" transform="matrix(-1 0 0 1 147 196)" fill="#FF801E"/>
<rect x="140" y="189" width="7" height="7" fill="black"/>
<rect x="147" y="196" width="7" height="7" fill="black"/>
<rect x="147" y="203" width="7" height="7" fill="black"/>
<rect x="133" y="210" width="7" height="7" fill="black"/>
<rect x="119" y="182" width="7" height="7" fill="black"/>
<rect x="119" y="189" width="7" height="7" fill="black"/>
<rect x="126" y="196" width="7" height="7" fill="black"/>
<rect x="126" y="203" width="7" height="7" fill="black"/>
<rect x="140" y="210" width="7" height="7" fill="black"/>
<rect x="119" y="161" width="7" height="7" fill="black"/>
<rect x="126" y="168" width="7" height="7" fill="black"/>
<rect x="133" y="175" width="7" height="7" fill="black"/>
<rect x="140" y="182" width="7" height="7" fill="black"/>
<rect x="49" y="224" width="7" height="7" fill="black"/>
<rect x="133" y="217" width="7" height="7" fill="black"/>
<rect x="133" y="224" width="7" height="7" fill="black"/>
<rect x="133" y="231" width="7" height="7" fill="black"/>
<rect x="133" y="210" width="7" height="7" fill="black"/>
<rect x="49" y="217" width="7" height="7" fill="black"/>
<rect x="63" y="182" width="7" height="7" fill="black"/>
<rect x="63" y="189" width="7" height="7" fill="black"/>
<rect x="56" y="168" width="7" height="7" fill="black"/>
<rect x="49" y="175" width="7" height="7" fill="black"/>
<rect x="42" y="182" width="7" height="7" fill="black"/>
<rect x="42" y="189" width="7" height="7" fill="black"/>
<rect x="35" y="196" width="7" height="7" fill="black"/>
<rect x="35" y="203" width="7" height="7" fill="black"/>
<rect x="42" y="210" width="7" height="7" fill="black"/>
<rect x="49" y="210" width="7" height="7" fill="black"/>
<rect x="56" y="238" width="7" height="7" fill="black"/>
<rect x="49" y="231" width="7" height="7" fill="black"/>
<rect x="63" y="238" width="7" height="7" fill="black"/>
<rect x="70" y="238" width="7" height="7" fill="black"/>
<rect x="77" y="238" width="7" height="7" fill="black"/>
<rect x="84" y="238" width="7" height="7" fill="black"/>
<rect x="91" y="238" width="7" height="7" fill="black"/>
<rect x="98" y="238" width="7" height="7" fill="black"/>
<rect x="105" y="238" width="7" height="7" fill="black"/>
<rect x="112" y="238" width="7" height="7" fill="black"/>
<rect x="119" y="238" width="7" height="7" fill="black"/>
<rect x="126" y="238" width="7" height="7" fill="black"/>
<rect x="56" y="203" width="7" height="7" fill="black"/>
<rect x="56" y="196" width="7" height="7" fill="black"/>
<rect x="63" y="161" width="7" height="7" fill="black"/>
</svg>
