<svg width="180" height="294" viewBox="0 0 180 294" fill="none" xmlns="http://www.w3.org/2000/svg">
<rect x="93" y="167" width="7" height="7" fill="#1B6FFF"/>
<rect x="93" y="160" width="7" height="7" fill="#1B6FFF"/>
<rect x="100" y="167" width="7" height="7" fill="#1B6FFF"/>
<rect x="100" y="160" width="7" height="7" fill="#1B6FFF"/>
<rect x="86" y="181" width="7" height="7" fill="#1B6FFF"/>
<rect x="79" y="174" width="7" height="7" fill="#1B6FFF"/>
<rect x="86" y="174" width="7" height="7" fill="#1B6FFF"/>
<rect x="86" y="167" width="7" height="7" fill="#1B6FFF"/>
<rect x="86" y="160" width="7" height="7" fill="#1B6FFF"/>
<rect x="79" y="160" width="7" height="7" fill="#1B6FFF"/>
<rect x="93" y="216" width="7" height="7" fill="#1B6FFF"/>
<rect x="100" y="216" width="7" height="7" fill="#1B6FFF"/>
<rect x="86" y="216" width="7" height="7" fill="#1B6FFF"/>
<rect x="107" y="216" width="7" height="7" fill="#1B6FFF"/>
<rect x="79" y="216" width="7" height="7" fill="#1B6FFF"/>
<rect x="79" y="174" width="7" height="7" fill="#1B6FFF"/>
<rect x="93" y="223" width="7" height="7" fill="#1B6FFF"/>
<rect x="100" y="223" width="7" height="7" fill="#1B6FFF"/>
<rect x="86" y="223" width="7" height="7" fill="#1B6FFF"/>
<rect x="107" y="223" width="7" height="7" fill="#1B6FFF"/>
<rect x="79" y="223" width="7" height="7" fill="#1B6FFF"/>
<rect x="93" y="230" width="7" height="7" fill="#1B6FFF"/>
<rect x="100" y="230" width="7" height="7" fill="#1B6FFF"/>
<rect x="86" y="230" width="7" height="7" fill="#1B6FFF"/>
<rect x="107" y="230" width="7" height="7" fill="#1B6FFF"/>
<rect x="79" y="230" width="7" height="7" fill="#1B6FFF"/>
<rect x="79" y="195" width="7" height="7" fill="#1B6FFF"/>
<rect x="79" y="202" width="7" height="7" fill="#1B6FFF"/>
<rect x="79" y="209" width="7" height="7" fill="#1B6FFF"/>
<rect x="93" y="174" width="7" height="7" fill="#1B6FFF"/>
<rect x="93" y="181" width="7" height="7" fill="#1B6FFF"/>
<rect x="93" y="188" width="7" height="7" fill="#1B6FFF"/>
<rect x="93" y="195" width="7" height="7" fill="#1B6FFF"/>
<rect x="93" y="202" width="7" height="7" fill="#1B6FFF"/>
<rect x="93" y="209" width="7" height="7" fill="#1B6FFF"/>
<rect x="86" y="209" width="7" height="7" fill="#1B6FFF"/>
<rect x="86" y="202" width="7" height="7" fill="#1B6FFF"/>
<rect x="86" y="195" width="7" height="7" fill="#1B6FFF"/>
<rect x="86" y="188" width="7" height="7" fill="#1B6FFF"/>
<rect x="100" y="181" width="7" height="7" fill="#1B6FFF"/>
<rect x="100" y="174" width="7" height="7" fill="#1B6FFF"/>
<rect x="107" y="174" width="7" height="7" fill="#1B6FFF"/>
<rect x="107" y="181" width="7" height="7" fill="#1B6FFF"/>
<rect x="107" y="160" width="7" height="7" fill="#1B6FFF"/>
<rect x="107" y="167" width="7" height="7" fill="#1B6FFF"/>
<rect x="107" y="188" width="7" height="7" fill="#1B6FFF"/>
<rect x="107" y="195" width="7" height="7" fill="#1B6FFF"/>
<rect x="107" y="202" width="7" height="7" fill="#1B6FFF"/>
<rect x="107" y="209" width="7" height="7" fill="#1B6FFF"/>
<rect x="100" y="209" width="7" height="7" fill="#1B6FFF"/>
<rect x="100" y="202" width="7" height="7" fill="#1B6FFF"/>
<rect x="100" y="195" width="7" height="7" fill="#1B6FFF"/>
<rect x="100" y="188" width="7" height="7" fill="#1B6FFF"/>
<rect x="79" y="167" width="7" height="7" fill="#1B6FFF"/>
<rect x="79" y="181" width="7" height="7" fill="#1B6FFF"/>
<rect x="79" y="174" width="7" height="7" fill="#1B6FFF"/>
<rect x="79" y="188" width="7" height="7" fill="#1B6FFF"/>
<rect x="72" y="160" width="7" height="7" fill="#1B6FFF"/>
<rect x="65" y="160" width="7" height="7" fill="#1B6FFF"/>
<rect x="72" y="216" width="7" height="7" fill="#1B6FFF"/>
<rect x="65" y="216" width="7" height="7" fill="#1B6FFF"/>
<rect x="72" y="223" width="7" height="7" fill="#1B6FFF"/>
<rect x="65" y="223" width="7" height="7" fill="#1B6FFF"/>
<rect x="72" y="230" width="7" height="7" fill="#1B6FFF"/>
<rect x="65" y="230" width="7" height="7" fill="#1B6FFF"/>
<rect x="72" y="195" width="7" height="7" fill="#1B6FFF"/>
<rect x="65" y="195" width="7" height="7" fill="#1B6FFF"/>
<rect x="72" y="202" width="7" height="7" fill="#1B6FFF"/>
<rect x="65" y="202" width="7" height="7" fill="#1B6FFF"/>
<rect x="72" y="209" width="7" height="7" fill="#1B6FFF"/>
<rect x="65" y="209" width="7" height="7" fill="#1B6FFF"/>
<rect x="72" y="167" width="7" height="7" fill="#1B6FFF"/>
<rect x="65" y="181" width="7" height="7" fill="#1B6FFF"/>
<rect x="65" y="174" width="7" height="7" fill="#1B6FFF"/>
<rect x="65" y="167" width="7" height="7" fill="#1B6FFF"/>
<rect x="72" y="174" width="7" height="7" fill="#1B6FFF"/>
<rect x="72" y="181" width="7" height="7" fill="#1B6FFF"/>
<rect x="72" y="188" width="7" height="7" fill="#1B6FFF"/>
<rect x="65" y="188" width="7" height="7" fill="#1B6FFF"/>
<rect x="114" y="216" width="7" height="7" fill="#1B6FFF"/>
<rect x="121" y="216" width="7" height="7" fill="#1B6FFF"/>
<rect x="114" y="223" width="7" height="7" fill="#1B6FFF"/>
<rect x="121" y="223" width="7" height="7" fill="#1B6FFF"/>
<rect x="114" y="230" width="7" height="7" fill="#1B6FFF"/>
<rect x="121" y="230" width="7" height="7" fill="#1B6FFF"/>
<rect x="51" y="209" width="7" height="7" fill="#1B6FFF"/>
<rect x="51" y="216" width="7" height="7" fill="#1B6FFF"/>
<rect x="51" y="223" width="7" height="7" fill="#1B6FFF"/>
<rect x="51" y="230" width="7" height="7" fill="#1B6FFF"/>
<rect x="58" y="209" width="7" height="7" fill="#1B6FFF"/>
<rect x="58" y="216" width="7" height="7" fill="#1B6FFF"/>
<rect x="58" y="223" width="7" height="7" fill="#1B6FFF"/>
<rect x="58" y="230" width="7" height="7" fill="#1B6FFF"/>
<rect x="114" y="167" width="7" height="7" fill="#1B6FFF"/>
<rect x="114" y="174" width="7" height="7" fill="#1B6FFF"/>
<rect x="128" y="195" width="7" height="7" fill="#1B6FFF"/>
<rect x="128" y="202" width="7" height="7" fill="#1B6FFF"/>
<rect x="114" y="195" width="7" height="7" fill="#1B6FFF"/>
<rect x="114" y="202" width="7" height="7" fill="#1B6FFF"/>
<rect x="114" y="209" width="7" height="7" fill="#1B6FFF"/>
<rect x="121" y="209" width="7" height="7" fill="#1B6FFF"/>
<rect x="58" y="174" width="7" height="7" fill="#1B6FFF"/>
<rect x="51" y="174" width="7" height="7" fill="#1B6FFF"/>
<rect x="58" y="167" width="7" height="7" fill="#1B6FFF"/>
<rect x="121" y="174" width="7" height="7" fill="#1B6FFF"/>
<rect x="128" y="181" width="7" height="7" fill="#1B6FFF"/>
<rect x="121" y="188" width="7" height="7" fill="#1B6FFF"/>
<rect x="121" y="181" width="7" height="7" fill="#1B6FFF"/>
<rect x="128" y="188" width="7" height="7" fill="#1B6FFF"/>
<rect x="51" y="181" width="7" height="7" fill="#1B6FFF"/>
<rect x="44" y="188" width="7" height="7" fill="#1B6FFF"/>
<rect x="44" y="181" width="7" height="7" fill="#1B6FFF"/>
<rect x="51" y="188" width="7" height="7" fill="#1B6FFF"/>
<rect x="135" y="202" width="7" height="7" fill="#1B6FFF"/>
<rect x="37" y="202" width="7" height="7" fill="#1B6FFF"/>
<rect x="37" y="195" width="7" height="7" fill="#1B6FFF"/>
<rect x="58" y="195" width="7" height="7" fill="#1B6FFF"/>
<rect x="58" y="202" width="7" height="7" fill="#1B6FFF"/>
<rect x="44" y="195" width="7" height="7" fill="#1B6FFF"/>
<rect x="44" y="202" width="7" height="7" fill="#1B6FFF"/>
<rect width="7" height="7" transform="matrix(-1 0 0 1 142 195)" fill="#1B6FFF"/>
<rect x="135" y="188" width="7" height="7" fill="black"/>
<rect x="142" y="195" width="7" height="7" fill="black"/>
<rect x="142" y="202" width="7" height="7" fill="black"/>
<rect x="128" y="209" width="7" height="7" fill="black"/>
<rect x="114" y="181" width="7" height="7" fill="black"/>
<rect x="114" y="188" width="7" height="7" fill="black"/>
<rect x="121" y="195" width="7" height="7" fill="black"/>
<rect x="121" y="202" width="7" height="7" fill="black"/>
<rect x="135" y="209" width="7" height="7" fill="black"/>
<rect x="114" y="160" width="7" height="7" fill="black"/>
<rect x="121" y="167" width="7" height="7" fill="black"/>
<rect x="128" y="174" width="7" height="7" fill="black"/>
<rect x="135" y="181" width="7" height="7" fill="black"/>
<rect x="44" y="223" width="7" height="7" fill="black"/>
<rect x="128" y="216" width="7" height="7" fill="black"/>
<rect x="128" y="223" width="7" height="7" fill="black"/>
<rect x="128" y="230" width="7" height="7" fill="black"/>
<rect x="128" y="209" width="7" height="7" fill="black"/>
<rect x="44" y="216" width="7" height="7" fill="black"/>
<rect x="58" y="181" width="7" height="7" fill="black"/>
<rect x="58" y="188" width="7" height="7" fill="black"/>
<rect x="51" y="167" width="7" height="7" fill="black"/>
<rect x="44" y="174" width="7" height="7" fill="black"/>
<rect x="37" y="181" width="7" height="7" fill="black"/>
<rect x="37" y="188" width="7" height="7" fill="black"/>
<rect x="30" y="195" width="7" height="7" fill="black"/>
<rect x="30" y="202" width="7" height="7" fill="black"/>
<rect x="37" y="209" width="7" height="7" fill="black"/>
<rect x="44" y="209" width="7" height="7" fill="black"/>
<rect x="51" y="237" width="7" height="7" fill="black"/>
<rect x="44" y="230" width="7" height="7" fill="black"/>
<rect x="58" y="237" width="7" height="7" fill="black"/>
<rect x="65" y="237" width="7" height="7" fill="black"/>
<rect x="72" y="237" width="7" height="7" fill="black"/>
<rect x="79" y="237" width="7" height="7" fill="black"/>
<rect x="86" y="237" width="7" height="7" fill="black"/>
<rect x="93" y="237" width="7" height="7" fill="black"/>
<rect x="100" y="237" width="7" height="7" fill="black"/>
<rect x="107" y="237" width="7" height="7" fill="black"/>
<rect x="114" y="237" width="7" height="7" fill="black"/>
<rect x="121" y="237" width="7" height="7" fill="black"/>
<rect x="51" y="202" width="7" height="7" fill="black"/>
<rect x="51" y="195" width="7" height="7" fill="black"/>
<rect x="58" y="160" width="7" height="7" fill="black"/>
</svg>
