<svg width="180" height="294" viewBox="0 0 180 294" fill="none" xmlns="http://www.w3.org/2000/svg">
<rect x="93" y="165" width="7" height="7" fill="#338C00"/>
<rect x="93" y="158" width="7" height="7" fill="#338C00"/>
<rect x="100" y="165" width="7" height="7" fill="#338C00"/>
<rect x="100" y="158" width="7" height="7" fill="#338C00"/>
<rect x="86" y="179" width="7" height="7" fill="#338C00"/>
<rect x="79" y="172" width="7" height="7" fill="#338C00"/>
<rect x="86" y="172" width="7" height="7" fill="#338C00"/>
<rect x="86" y="165" width="7" height="7" fill="#338C00"/>
<rect x="86" y="158" width="7" height="7" fill="#338C00"/>
<rect x="79" y="158" width="7" height="7" fill="#338C00"/>
<rect x="93" y="214" width="7" height="7" fill="#338C00"/>
<rect x="100" y="214" width="7" height="7" fill="#338C00"/>
<rect x="86" y="214" width="7" height="7" fill="#338C00"/>
<rect x="107" y="214" width="7" height="7" fill="#338C00"/>
<rect x="79" y="214" width="7" height="7" fill="#338C00"/>
<rect x="79" y="172" width="7" height="7" fill="#338C00"/>
<rect x="93" y="221" width="7" height="7" fill="#338C00"/>
<rect x="100" y="221" width="7" height="7" fill="#338C00"/>
<rect x="86" y="221" width="7" height="7" fill="#338C00"/>
<rect x="107" y="221" width="7" height="7" fill="#338C00"/>
<rect x="79" y="221" width="7" height="7" fill="#338C00"/>
<rect x="93" y="228" width="7" height="7" fill="#338C00"/>
<rect x="100" y="228" width="7" height="7" fill="#338C00"/>
<rect x="86" y="228" width="7" height="7" fill="#338C00"/>
<rect x="107" y="228" width="7" height="7" fill="#338C00"/>
<rect x="79" y="228" width="7" height="7" fill="#338C00"/>
<rect x="79" y="193" width="7" height="7" fill="#338C00"/>
<rect x="79" y="200" width="7" height="7" fill="#338C00"/>
<rect x="79" y="207" width="7" height="7" fill="#338C00"/>
<rect x="93" y="172" width="7" height="7" fill="#338C00"/>
<rect x="93" y="179" width="7" height="7" fill="#338C00"/>
<rect x="93" y="186" width="7" height="7" fill="#338C00"/>
<rect x="93" y="193" width="7" height="7" fill="#338C00"/>
<rect x="93" y="200" width="7" height="7" fill="#338C00"/>
<rect x="93" y="207" width="7" height="7" fill="#338C00"/>
<rect x="86" y="207" width="7" height="7" fill="#338C00"/>
<rect x="86" y="200" width="7" height="7" fill="#338C00"/>
<rect x="86" y="193" width="7" height="7" fill="#338C00"/>
<rect x="86" y="186" width="7" height="7" fill="#338C00"/>
<rect x="100" y="179" width="7" height="7" fill="#338C00"/>
<rect x="100" y="172" width="7" height="7" fill="#338C00"/>
<rect x="107" y="172" width="7" height="7" fill="#338C00"/>
<rect x="107" y="179" width="7" height="7" fill="#338C00"/>
<rect x="107" y="158" width="7" height="7" fill="#338C00"/>
<rect x="107" y="165" width="7" height="7" fill="#338C00"/>
<rect x="107" y="186" width="7" height="7" fill="#338C00"/>
<rect x="107" y="193" width="7" height="7" fill="#338C00"/>
<rect x="107" y="200" width="7" height="7" fill="#338C00"/>
<rect x="107" y="207" width="7" height="7" fill="#338C00"/>
<rect x="100" y="207" width="7" height="7" fill="#338C00"/>
<rect x="100" y="200" width="7" height="7" fill="#338C00"/>
<rect x="100" y="193" width="7" height="7" fill="#338C00"/>
<rect x="100" y="186" width="7" height="7" fill="#338C00"/>
<rect x="79" y="165" width="7" height="7" fill="#338C00"/>
<rect x="79" y="179" width="7" height="7" fill="#338C00"/>
<rect x="79" y="172" width="7" height="7" fill="#338C00"/>
<rect x="79" y="186" width="7" height="7" fill="#338C00"/>
<rect x="72" y="158" width="7" height="7" fill="#338C00"/>
<rect x="65" y="158" width="7" height="7" fill="#338C00"/>
<rect x="72" y="214" width="7" height="7" fill="#338C00"/>
<rect x="65" y="214" width="7" height="7" fill="#338C00"/>
<rect x="72" y="221" width="7" height="7" fill="#338C00"/>
<rect x="65" y="221" width="7" height="7" fill="#338C00"/>
<rect x="72" y="228" width="7" height="7" fill="#338C00"/>
<rect x="65" y="228" width="7" height="7" fill="#338C00"/>
<rect x="72" y="193" width="7" height="7" fill="#338C00"/>
<rect x="65" y="193" width="7" height="7" fill="#338C00"/>
<rect x="72" y="200" width="7" height="7" fill="#338C00"/>
<rect x="65" y="200" width="7" height="7" fill="#338C00"/>
<rect x="72" y="207" width="7" height="7" fill="#338C00"/>
<rect x="65" y="207" width="7" height="7" fill="#338C00"/>
<rect x="72" y="165" width="7" height="7" fill="#338C00"/>
<rect x="65" y="179" width="7" height="7" fill="#338C00"/>
<rect x="65" y="172" width="7" height="7" fill="#338C00"/>
<rect x="65" y="165" width="7" height="7" fill="#338C00"/>
<rect x="72" y="172" width="7" height="7" fill="#338C00"/>
<rect x="72" y="179" width="7" height="7" fill="#338C00"/>
<rect x="72" y="186" width="7" height="7" fill="#338C00"/>
<rect x="65" y="186" width="7" height="7" fill="#338C00"/>
<rect x="114" y="214" width="7" height="7" fill="#338C00"/>
<rect x="121" y="214" width="7" height="7" fill="#338C00"/>
<rect x="114" y="221" width="7" height="7" fill="#338C00"/>
<rect x="121" y="221" width="7" height="7" fill="#338C00"/>
<rect x="114" y="228" width="7" height="7" fill="#338C00"/>
<rect x="121" y="228" width="7" height="7" fill="#338C00"/>
<rect x="51" y="207" width="7" height="7" fill="#338C00"/>
<rect x="51" y="214" width="7" height="7" fill="#338C00"/>
<rect x="51" y="221" width="7" height="7" fill="#338C00"/>
<rect x="51" y="228" width="7" height="7" fill="#338C00"/>
<rect x="58" y="207" width="7" height="7" fill="#338C00"/>
<rect x="58" y="214" width="7" height="7" fill="#338C00"/>
<rect x="58" y="221" width="7" height="7" fill="#338C00"/>
<rect x="58" y="228" width="7" height="7" fill="#338C00"/>
<rect x="114" y="165" width="7" height="7" fill="#338C00"/>
<rect x="114" y="172" width="7" height="7" fill="#338C00"/>
<rect x="128" y="193" width="7" height="7" fill="#338C00"/>
<rect x="128" y="200" width="7" height="7" fill="#338C00"/>
<rect x="114" y="193" width="7" height="7" fill="#338C00"/>
<rect x="114" y="200" width="7" height="7" fill="#338C00"/>
<rect x="114" y="207" width="7" height="7" fill="#338C00"/>
<rect x="121" y="207" width="7" height="7" fill="#338C00"/>
<rect x="58" y="172" width="7" height="7" fill="#338C00"/>
<rect x="51" y="172" width="7" height="7" fill="#338C00"/>
<rect x="58" y="165" width="7" height="7" fill="#338C00"/>
<rect x="121" y="172" width="7" height="7" fill="#338C00"/>
<rect x="128" y="179" width="7" height="7" fill="#338C00"/>
<rect x="121" y="186" width="7" height="7" fill="#338C00"/>
<rect x="121" y="179" width="7" height="7" fill="#338C00"/>
<rect x="128" y="186" width="7" height="7" fill="#338C00"/>
<rect x="51" y="179" width="7" height="7" fill="#338C00"/>
<rect x="44" y="186" width="7" height="7" fill="#338C00"/>
<rect x="44" y="179" width="7" height="7" fill="#338C00"/>
<rect x="51" y="186" width="7" height="7" fill="#338C00"/>
<rect x="135" y="200" width="7" height="7" fill="#338C00"/>
<rect x="37" y="200" width="7" height="7" fill="#338C00"/>
<rect x="37" y="193" width="7" height="7" fill="#338C00"/>
<rect x="58" y="193" width="7" height="7" fill="#338C00"/>
<rect x="58" y="200" width="7" height="7" fill="#338C00"/>
<rect x="44" y="193" width="7" height="7" fill="#338C00"/>
<rect x="44" y="200" width="7" height="7" fill="#338C00"/>
<rect width="7" height="7" transform="matrix(-1 0 0 1 142 193)" fill="#338C00"/>
<rect x="135" y="186" width="7" height="7" fill="black"/>
<rect x="142" y="193" width="7" height="7" fill="black"/>
<rect x="142" y="200" width="7" height="7" fill="black"/>
<rect x="128" y="207" width="7" height="7" fill="black"/>
<rect x="114" y="179" width="7" height="7" fill="black"/>
<rect x="114" y="186" width="7" height="7" fill="black"/>
<rect x="121" y="193" width="7" height="7" fill="black"/>
<rect x="121" y="200" width="7" height="7" fill="black"/>
<rect x="135" y="207" width="7" height="7" fill="black"/>
<rect x="114" y="158" width="7" height="7" fill="black"/>
<rect x="121" y="165" width="7" height="7" fill="black"/>
<rect x="128" y="172" width="7" height="7" fill="black"/>
<rect x="135" y="179" width="7" height="7" fill="black"/>
<rect x="44" y="221" width="7" height="7" fill="black"/>
<rect x="128" y="214" width="7" height="7" fill="black"/>
<rect x="128" y="221" width="7" height="7" fill="black"/>
<rect x="128" y="228" width="7" height="7" fill="black"/>
<rect x="128" y="207" width="7" height="7" fill="black"/>
<rect x="44" y="214" width="7" height="7" fill="black"/>
<rect x="58" y="179" width="7" height="7" fill="black"/>
<rect x="58" y="186" width="7" height="7" fill="black"/>
<rect x="51" y="165" width="7" height="7" fill="black"/>
<rect x="44" y="172" width="7" height="7" fill="black"/>
<rect x="37" y="179" width="7" height="7" fill="black"/>
<rect x="37" y="186" width="7" height="7" fill="black"/>
<rect x="30" y="193" width="7" height="7" fill="black"/>
<rect x="30" y="200" width="7" height="7" fill="black"/>
<rect x="37" y="207" width="7" height="7" fill="black"/>
<rect x="44" y="207" width="7" height="7" fill="black"/>
<rect x="51" y="235" width="7" height="7" fill="black"/>
<rect x="44" y="228" width="7" height="7" fill="black"/>
<rect x="58" y="235" width="7" height="7" fill="black"/>
<rect x="65" y="235" width="7" height="7" fill="black"/>
<rect x="72" y="235" width="7" height="7" fill="black"/>
<rect x="79" y="235" width="7" height="7" fill="black"/>
<rect x="86" y="235" width="7" height="7" fill="black"/>
<rect x="93" y="235" width="7" height="7" fill="black"/>
<rect x="100" y="235" width="7" height="7" fill="black"/>
<rect x="107" y="235" width="7" height="7" fill="black"/>
<rect x="114" y="235" width="7" height="7" fill="black"/>
<rect x="121" y="235" width="7" height="7" fill="black"/>
<rect x="51" y="200" width="7" height="7" fill="black"/>
<rect x="51" y="193" width="7" height="7" fill="black"/>
<rect x="58" y="158" width="7" height="7" fill="black"/>
</svg>
