<svg width="180" height="294" viewBox="0 0 180 294" fill="none" xmlns="http://www.w3.org/2000/svg">
<rect x="93" y="164" width="7" height="7" fill="#FFEB3B"/>
<rect x="93" y="157" width="7" height="7" fill="#FFEB3B"/>
<rect x="100" y="164" width="7" height="7" fill="#FFEB3B"/>
<rect x="100" y="157" width="7" height="7" fill="#FFEB3B"/>
<rect x="86" y="178" width="7" height="7" fill="#FFEB3B"/>
<rect x="79" y="171" width="7" height="7" fill="#FFEB3B"/>
<rect x="86" y="171" width="7" height="7" fill="#FFEB3B"/>
<rect x="86" y="164" width="7" height="7" fill="#FFEB3B"/>
<rect x="86" y="157" width="7" height="7" fill="#FFEB3B"/>
<rect x="79" y="157" width="7" height="7" fill="#FFEB3B"/>
<rect x="93" y="213" width="7" height="7" fill="#FFEB3B"/>
<rect x="100" y="213" width="7" height="7" fill="#FFEB3B"/>
<rect x="86" y="213" width="7" height="7" fill="#FFEB3B"/>
<rect x="107" y="213" width="7" height="7" fill="#FFEB3B"/>
<rect x="79" y="213" width="7" height="7" fill="#FFEB3B"/>
<rect x="93" y="220" width="7" height="7" fill="#FFEB3B"/>
<rect x="100" y="220" width="7" height="7" fill="#FFEB3B"/>
<rect x="86" y="220" width="7" height="7" fill="#FFEB3B"/>
<rect x="107" y="220" width="7" height="7" fill="#FFEB3B"/>
<rect x="79" y="220" width="7" height="7" fill="#FFEB3B"/>
<rect x="93" y="227" width="7" height="7" fill="#FFEB3B"/>
<rect x="100" y="227" width="7" height="7" fill="#FFEB3B"/>
<rect x="86" y="227" width="7" height="7" fill="#FFEB3B"/>
<rect x="107" y="227" width="7" height="7" fill="#FFEB3B"/>
<rect x="79" y="227" width="7" height="7" fill="#FFEB3B"/>
<rect x="79" y="192" width="7" height="7" fill="#FFEB3B"/>
<rect x="79" y="199" width="7" height="7" fill="#FFEB3B"/>
<rect x="79" y="206" width="7" height="7" fill="#FFEB3B"/>
<rect x="93" y="171" width="7" height="7" fill="#FFEB3B"/>
<rect x="93" y="178" width="7" height="7" fill="#FFEB3B"/>
<rect x="93" y="185" width="7" height="7" fill="#FFEB3B"/>
<rect x="93" y="192" width="7" height="7" fill="#FFEB3B"/>
<rect x="93" y="199" width="7" height="7" fill="#FFEB3B"/>
<rect x="93" y="206" width="7" height="7" fill="#FFEB3B"/>
<rect x="86" y="206" width="7" height="7" fill="#FFEB3B"/>
<rect x="86" y="199" width="7" height="7" fill="#FFEB3B"/>
<rect x="86" y="192" width="7" height="7" fill="#FFEB3B"/>
<rect x="86" y="185" width="7" height="7" fill="#FFEB3B"/>
<rect x="100" y="178" width="7" height="7" fill="#FFEB3B"/>
<rect x="100" y="171" width="7" height="7" fill="#FFEB3B"/>
<rect x="107" y="171" width="7" height="7" fill="#FFEB3B"/>
<rect x="107" y="178" width="7" height="7" fill="#FFEB3B"/>
<rect x="107" y="157" width="7" height="7" fill="#FFEB3B"/>
<rect x="107" y="164" width="7" height="7" fill="#FFEB3B"/>
<rect x="107" y="185" width="7" height="7" fill="#FFEB3B"/>
<rect x="107" y="192" width="7" height="7" fill="#FFEB3B"/>
<rect x="107" y="199" width="7" height="7" fill="#FFEB3B"/>
<rect x="107" y="206" width="7" height="7" fill="#FFEB3B"/>
<rect x="100" y="206" width="7" height="7" fill="#FFEB3B"/>
<rect x="100" y="199" width="7" height="7" fill="#FFEB3B"/>
<rect x="100" y="192" width="7" height="7" fill="#FFEB3B"/>
<rect x="100" y="185" width="7" height="7" fill="#FFEB3B"/>
<rect x="79" y="164" width="7" height="7" fill="#FFEB3B"/>
<rect x="79" y="178" width="7" height="7" fill="#FFEB3B"/>
<rect x="79" y="185" width="7" height="7" fill="#FFEB3B"/>
<rect x="72" y="157" width="7" height="7" fill="#FFEB3B"/>
<rect x="65" y="157" width="7" height="7" fill="#FFEB3B"/>
<rect x="72" y="213" width="7" height="7" fill="#FFEB3B"/>
<rect x="65" y="213" width="7" height="7" fill="#FFEB3B"/>
<rect x="72" y="220" width="7" height="7" fill="#FFEB3B"/>
<rect x="65" y="220" width="7" height="7" fill="#FFEB3B"/>
<rect x="72" y="227" width="7" height="7" fill="#FFEB3B"/>
<rect x="65" y="227" width="7" height="7" fill="#FFEB3B"/>
<rect x="72" y="192" width="7" height="7" fill="#FFEB3B"/>
<rect x="65" y="192" width="7" height="7" fill="#FFEB3B"/>
<rect x="72" y="199" width="7" height="7" fill="#FFEB3B"/>
<rect x="65" y="199" width="7" height="7" fill="#FFEB3B"/>
<rect x="72" y="206" width="7" height="7" fill="#FFEB3B"/>
<rect x="65" y="206" width="7" height="7" fill="#FFEB3B"/>
<rect x="72" y="164" width="7" height="7" fill="#FFEB3B"/>
<rect x="65" y="178" width="7" height="7" fill="#FFEB3B"/>
<rect x="65" y="171" width="7" height="7" fill="#FFEB3B"/>
<rect x="65" y="164" width="7" height="7" fill="#FFEB3B"/>
<rect x="72" y="171" width="7" height="7" fill="#FFEB3B"/>
<rect x="72" y="178" width="7" height="7" fill="#FFEB3B"/>
<rect x="72" y="185" width="7" height="7" fill="#FFEB3B"/>
<rect x="65" y="185" width="7" height="7" fill="#FFEB3B"/>
<rect x="114" y="213" width="7" height="7" fill="#FFEB3B"/>
<rect x="121" y="213" width="7" height="7" fill="#FFEB3B"/>
<rect x="114" y="220" width="7" height="7" fill="#FFEB3B"/>
<rect x="121" y="220" width="7" height="7" fill="#FFEB3B"/>
<rect x="114" y="227" width="7" height="7" fill="#FFEB3B"/>
<rect x="121" y="227" width="7" height="7" fill="#FFEB3B"/>
<rect x="51" y="206" width="7" height="7" fill="#FFEB3B"/>
<rect x="51" y="213" width="7" height="7" fill="#FFEB3B"/>
<rect x="51" y="220" width="7" height="7" fill="#FFEB3B"/>
<rect x="51" y="227" width="7" height="7" fill="#FFEB3B"/>
<rect x="58" y="206" width="7" height="7" fill="#FFEB3B"/>
<rect x="58" y="213" width="7" height="7" fill="#FFEB3B"/>
<rect x="58" y="220" width="7" height="7" fill="#FFEB3B"/>
<rect x="58" y="227" width="7" height="7" fill="#FFEB3B"/>
<rect x="114" y="164" width="7" height="7" fill="#FFEB3B"/>
<rect x="114" y="171" width="7" height="7" fill="#FFEB3B"/>
<rect x="128" y="192" width="7" height="7" fill="#FFEB3B"/>
<rect x="128" y="199" width="7" height="7" fill="#FFEB3B"/>
<rect x="114" y="192" width="7" height="7" fill="#FFEB3B"/>
<rect x="114" y="199" width="7" height="7" fill="#FFEB3B"/>
<rect x="114" y="206" width="7" height="7" fill="#FFEB3B"/>
<rect x="121" y="206" width="7" height="7" fill="#FFEB3B"/>
<rect x="58" y="171" width="7" height="7" fill="#FFEB3B"/>
<rect x="51" y="171" width="7" height="7" fill="#FFEB3B"/>
<rect x="58" y="164" width="7" height="7" fill="#FFEB3B"/>
<rect x="121" y="171" width="7" height="7" fill="#FFEB3B"/>
<rect x="128" y="178" width="7" height="7" fill="#FFEB3B"/>
<rect x="121" y="185" width="7" height="7" fill="#FFEB3B"/>
<rect x="121" y="178" width="7" height="7" fill="#FFEB3B"/>
<rect x="128" y="185" width="7" height="7" fill="#FFEB3B"/>
<rect x="51" y="178" width="7" height="7" fill="#FFEB3B"/>
<rect x="44" y="185" width="7" height="7" fill="#FFEB3B"/>
<rect x="44" y="178" width="7" height="7" fill="#FFEB3B"/>
<rect x="51" y="185" width="7" height="7" fill="#FFEB3B"/>
<rect x="135" y="199" width="7" height="7" fill="#FFEB3B"/>
<rect x="37" y="199" width="7" height="7" fill="#FFEB3B"/>
<rect x="37" y="192" width="7" height="7" fill="#FFEB3B"/>
<rect x="58" y="192" width="7" height="7" fill="#FFEB3B"/>
<rect x="58" y="199" width="7" height="7" fill="#FFEB3B"/>
<rect x="44" y="192" width="7" height="7" fill="#FFEB3B"/>
<rect x="44" y="199" width="7" height="7" fill="#FFEB3B"/>
<rect width="7" height="7" transform="matrix(-1 0 0 1 142 192)" fill="#FFEB3B"/>
<rect x="135" y="185" width="7" height="7" fill="black"/>
<rect x="142" y="192" width="7" height="7" fill="black"/>
<rect x="142" y="199" width="7" height="7" fill="black"/>
<rect x="128" y="206" width="7" height="7" fill="black"/>
<rect x="114" y="178" width="7" height="7" fill="black"/>
<rect x="114" y="185" width="7" height="7" fill="black"/>
<rect x="121" y="192" width="7" height="7" fill="black"/>
<rect x="121" y="199" width="7" height="7" fill="black"/>
<rect x="135" y="206" width="7" height="7" fill="black"/>
<rect x="114" y="157" width="7" height="7" fill="black"/>
<rect x="121" y="164" width="7" height="7" fill="black"/>
<rect x="128" y="171" width="7" height="7" fill="black"/>
<rect x="135" y="178" width="7" height="7" fill="black"/>
<rect x="44" y="220" width="7" height="7" fill="black"/>
<rect x="128" y="213" width="7" height="7" fill="black"/>
<rect x="128" y="220" width="7" height="7" fill="black"/>
<rect x="128" y="227" width="7" height="7" fill="black"/>
<rect x="128" y="206" width="7" height="7" fill="black"/>
<rect x="44" y="213" width="7" height="7" fill="black"/>
<rect x="58" y="178" width="7" height="7" fill="black"/>
<rect x="58" y="185" width="7" height="7" fill="black"/>
<rect x="51" y="164" width="7" height="7" fill="black"/>
<rect x="44" y="171" width="7" height="7" fill="black"/>
<rect x="37" y="178" width="7" height="7" fill="black"/>
<rect x="37" y="185" width="7" height="7" fill="black"/>
<rect x="30" y="192" width="7" height="7" fill="black"/>
<rect x="30" y="199" width="7" height="7" fill="black"/>
<rect x="37" y="206" width="7" height="7" fill="black"/>
<rect x="44" y="206" width="7" height="7" fill="black"/>
<rect x="51" y="234" width="7" height="7" fill="black"/>
<rect x="44" y="227" width="7" height="7" fill="black"/>
<rect x="58" y="234" width="7" height="7" fill="black"/>
<rect x="65" y="234" width="7" height="7" fill="black"/>
<rect x="72" y="234" width="7" height="7" fill="black"/>
<rect x="79" y="234" width="7" height="7" fill="black"/>
<rect x="86" y="234" width="7" height="7" fill="black"/>
<rect x="93" y="234" width="7" height="7" fill="black"/>
<rect x="100" y="234" width="7" height="7" fill="black"/>
<rect x="107" y="234" width="7" height="7" fill="black"/>
<rect x="114" y="234" width="7" height="7" fill="black"/>
<rect x="121" y="234" width="7" height="7" fill="black"/>
<rect x="51" y="199" width="7" height="7" fill="black"/>
<rect x="51" y="192" width="7" height="7" fill="black"/>
<rect x="58" y="157" width="7" height="7" fill="black"/>
</svg>
