<svg width="27" height="44" viewBox="0 0 27 44" fill="none" xmlns="http://www.w3.org/2000/svg">
<rect x="13.5" y="5.73914" width="1.6875" height="1.91304" fill="#FF801E"/>
<rect x="15.1875" y="5.73914" width="1.6875" height="1.91304" fill="#FF801E"/>
<rect x="13.5" y="3.82605" width="1.6875" height="1.91304" fill="#FF801E"/>
<rect x="15.1875" y="3.82605" width="1.6875" height="1.91304" fill="#FF801E"/>
<rect x="11.8125" y="5.73914" width="1.6875" height="1.91304" fill="#FF801E"/>
<rect x="11.8125" y="3.82605" width="1.6875" height="1.91304" fill="#FF801E"/>
<rect x="10.125" y="5.73914" width="1.6875" height="1.91304" fill="#FF801E"/>
<rect x="10.125" y="3.82605" width="1.6875" height="1.91304" fill="#FF801E"/>
<rect x="8.4375" y="5.73914" width="1.6875" height="1.91304" fill="#FF801E"/>
<rect x="6.75" y="5.73914" width="1.6875" height="1.91304" fill="#FF801E"/>
<rect x="8.4375" y="3.82605" width="1.6875" height="1.91304" fill="#FF801E"/>
<rect x="13.5" y="1.91309" width="1.6875" height="1.91304" fill="#FF801E"/>
<rect x="10.125" y="7.65216" width="1.6875" height="1.91304" fill="#FF801E"/>
<rect x="11.8125" y="1.91309" width="1.6875" height="1.91304" fill="#FF801E"/>
<rect x="11.8125" width="1.6875" height="1.91304" fill="#FF801E"/>
<rect x="10.125" y="1.91309" width="1.6875" height="1.91304" fill="#FF801E"/>
<rect x="10.125" width="1.6875" height="1.91304" fill="#FF801E"/>
<rect x="8.4375" y="1.91309" width="1.6875" height="1.91304" fill="#FF801E"/>
<rect x="6.75" y="3.82605" width="1.6875" height="1.91304" fill="#FF801E"/>
<rect x="6.75" y="15.3044" width="1.6875" height="1.91304" fill="#FF801E"/>
<rect x="6.75" y="13.3913" width="1.6875" height="1.91304" fill="#FF801E"/>
<rect x="5.0625" y="15.3044" width="1.6875" height="1.91304" fill="#FF801E"/>
<rect x="5.0625" y="13.3913" width="1.6875" height="1.91304" fill="#FF801E"/>
<rect x="16.875" y="15.3044" width="1.6875" height="1.91304" fill="#FF801E"/>
<rect x="16.875" y="13.3913" width="1.6875" height="1.91304" fill="#FF801E"/>
<rect x="15.1875" y="15.3044" width="1.6875" height="1.91304" fill="#FF801E"/>
<rect x="15.1875" y="13.3913" width="1.6875" height="1.91304" fill="#FF801E"/>
<rect x="20.25" y="15.3044" width="1.6875" height="1.91304" fill="#FF801E"/>
<rect x="20.25" y="13.3913" width="1.6875" height="1.91304" fill="#FF801E"/>
<rect x="18.5625" y="15.3044" width="1.6875" height="1.91304" fill="#FF801E"/>
<rect x="18.5625" y="13.3913" width="1.6875" height="1.91304" fill="#FF801E"/>
<rect x="23.625" y="15.3044" width="1.6875" height="1.91304" fill="#FF801E"/>
<rect x="25.3125" y="13.3913" width="1.6875" height="1.91304" fill="#FF801E"/>
<rect x="23.625" y="13.3913" width="1.6875" height="1.91304" fill="#FF801E"/>
<rect x="21.9375" y="15.3044" width="1.6875" height="1.91304" fill="#FF801E"/>
<rect x="21.9375" y="13.3913" width="1.6875" height="1.91304" fill="#FF801E"/>
<rect x="13.5" y="15.3044" width="1.6875" height="1.91304" fill="#FF801E"/>
<rect x="13.5" y="13.3913" width="1.6875" height="1.91304" fill="#FF801E"/>
<rect x="11.8125" y="15.3044" width="1.6875" height="1.91304" fill="#FF801E"/>
<rect x="11.8125" y="13.3913" width="1.6875" height="1.91304" fill="#FF801E"/>
<rect x="10.125" y="15.3044" width="1.6875" height="1.91304" fill="#FF801E"/>
<rect x="10.125" y="13.3913" width="1.6875" height="1.91304" fill="#FF801E"/>
<rect x="8.4375" y="15.3044" width="1.6875" height="1.91304" fill="#FF801E"/>
<rect x="8.4375" y="13.3913" width="1.6875" height="1.91304" fill="#FF801E"/>
<rect x="16.875" y="11.4782" width="1.6875" height="1.91304" fill="#FF801E"/>
<rect x="15.1875" y="11.4782" width="1.6875" height="1.91304" fill="#FF801E"/>
<rect x="20.25" y="11.4782" width="1.6875" height="1.91304" fill="#FF801E"/>
<rect x="18.5625" y="11.4782" width="1.6875" height="1.91304" fill="#FF801E"/>
<rect x="8.4375" y="7.65216" width="1.6875" height="1.91304" fill="#FF801E"/>
<rect x="13.5" y="7.65216" width="1.6875" height="1.91304" fill="#FF801E"/>
<rect x="11.8125" y="7.65216" width="1.6875" height="1.91304" fill="#FF801E"/>
<rect x="21.9375" y="11.4782" width="1.6875" height="1.91304" fill="#FF801E"/>
<rect x="13.5" y="11.4782" width="1.6875" height="1.91304" fill="#FF801E"/>
<rect x="11.8125" y="11.4782" width="1.6875" height="1.91304" fill="#FF801E"/>
<rect x="10.125" y="11.4782" width="1.6875" height="1.91304" fill="#FF801E"/>
<rect x="8.4375" y="11.4782" width="1.6875" height="1.91304" fill="#FF801E"/>
<rect x="10.125" y="19.1304" width="1.6875" height="1.91304" fill="#FF801E"/>
<rect x="10.125" y="17.2174" width="1.6875" height="1.91304" fill="#FF801E"/>
<rect x="8.4375" y="19.1304" width="1.6875" height="1.91304" fill="#FF801E"/>
<rect x="8.4375" y="17.2174" width="1.6875" height="1.91304" fill="#FF801E"/>
<rect x="6.75" y="19.1304" width="1.6875" height="1.91304" fill="#FF801E"/>
<rect x="6.75" y="17.2174" width="1.6875" height="1.91304" fill="#FF801E"/>
<rect x="5.0625" y="19.1304" width="1.6875" height="1.91304" fill="#FF801E"/>
<rect x="5.0625" y="17.2174" width="1.6875" height="1.91304" fill="#FF801E"/>
<rect x="3.375" y="19.1304" width="1.6875" height="1.91304" fill="#FF801E"/>
<rect x="3.375" y="17.2174" width="1.6875" height="1.91304" fill="#FF801E"/>
<rect x="8.4375" y="22.9565" width="1.6875" height="1.91304" fill="#FF801E"/>
<rect x="8.4375" y="21.0435" width="1.6875" height="1.91304" fill="#FF801E"/>
<rect x="6.75" y="22.9565" width="1.6875" height="1.91304" fill="#FF801E"/>
<rect x="6.75" y="21.0435" width="1.6875" height="1.91304" fill="#FF801E"/>
<rect x="5.0625" y="22.9565" width="1.6875" height="1.91304" fill="#FF801E"/>
<rect x="5.0625" y="21.0435" width="1.6875" height="1.91304" fill="#FF801E"/>
<rect x="3.375" y="22.9565" width="1.6875" height="1.91304" fill="#FF801E"/>
<rect x="3.375" y="21.0435" width="1.6875" height="1.91304" fill="#FF801E"/>
<rect x="1.6875" y="22.9565" width="1.6875" height="1.91304" fill="#FF801E"/>
<rect x="1.6875" y="21.0435" width="1.6875" height="1.91304" fill="#FF801E"/>
<rect x="8.4375" y="26.7826" width="1.6875" height="1.91304" fill="#FF801E"/>
<rect x="8.4375" y="24.8696" width="1.6875" height="1.91304" fill="#FF801E"/>
<rect x="6.75" y="26.7826" width="1.6875" height="1.91304" fill="#FF801E"/>
<rect x="6.75" y="24.8696" width="1.6875" height="1.91304" fill="#FF801E"/>
<rect x="5.0625" y="26.7826" width="1.6875" height="1.91304" fill="#FF801E"/>
<rect x="5.0625" y="24.8696" width="1.6875" height="1.91304" fill="#FF801E"/>
<rect x="3.375" y="26.7826" width="1.6875" height="1.91304" fill="#FF801E"/>
<rect x="3.375" y="24.8696" width="1.6875" height="1.91304" fill="#FF801E"/>
<rect x="15.1875" y="30.6087" width="1.6875" height="1.91304" fill="#FF801E"/>
<rect x="15.1875" y="28.6956" width="1.6875" height="1.91304" fill="#FF801E"/>
<rect x="13.5" y="30.6087" width="1.6875" height="1.91304" fill="#FF801E"/>
<rect x="13.5" y="28.6956" width="1.6875" height="1.91304" fill="#FF801E"/>
<rect x="11.8125" y="30.6087" width="1.6875" height="1.91304" fill="#FF801E"/>
<rect x="11.8125" y="28.6956" width="1.6875" height="1.91304" fill="#FF801E"/>
<rect x="10.125" y="30.6087" width="1.6875" height="1.91304" fill="#FF801E"/>
<rect x="10.125" y="28.6956" width="1.6875" height="1.91304" fill="#FF801E"/>
<rect x="12.1499" y="38.2609" width="1.6875" height="1.91304" fill="#FF801E"/>
<rect x="12.1499" y="36.3478" width="1.6875" height="1.91304" fill="#FF801E"/>
<rect x="10.4624" y="38.2609" width="1.6875" height="1.91304" fill="#FF801E"/>
<rect x="10.4624" y="36.3478" width="1.6875" height="1.91304" fill="#FF801E"/>
<rect x="8.7749" y="38.2609" width="1.6875" height="1.91304" fill="#FF801E"/>
<rect x="6.75" y="11.4782" width="1.6875" height="1.91304" fill="#FF801E"/>
<rect x="8.7749" y="36.3478" width="1.6875" height="1.91304" fill="#FF801E"/>
<rect x="10.4624" y="42.0869" width="1.6875" height="1.91304" fill="#FF801E"/>
<rect x="10.4624" y="40.174" width="1.6875" height="1.91304" fill="#FF801E"/>
<rect x="8.7749" y="42.0869" width="1.6875" height="1.91304" fill="#FF801E"/>
<rect x="8.7749" y="40.174" width="1.6875" height="1.91304" fill="#FF801E"/>
<rect x="12.1499" y="42.0869" width="1.6875" height="1.91304" fill="#FF801E"/>
<rect x="7.0874" y="40.174" width="1.6875" height="1.91304" fill="#FF801E"/>
<rect x="7.0874" y="42.0869" width="1.6875" height="1.91304" fill="#FF801E"/>
<rect x="13.5" y="34.4348" width="1.6875" height="1.91304" fill="#FF801E"/>
<rect x="13.5" y="32.5218" width="1.6875" height="1.91304" fill="#FF801E"/>
<rect x="11.8125" y="34.4348" width="1.6875" height="1.91304" fill="#FF801E"/>
<rect x="11.8125" y="32.5218" width="1.6875" height="1.91304" fill="#FF801E"/>
<rect x="10.125" y="34.4348" width="1.6875" height="1.91304" fill="#FF801E"/>
<rect x="10.125" y="32.5218" width="1.6875" height="1.91304" fill="#FF801E"/>
<rect x="15.1875" y="26.7826" width="1.6875" height="1.91304" fill="#FF801E"/>
<rect x="13.5" y="26.7826" width="1.6875" height="1.91304" fill="#FF801E"/>
<rect x="11.8125" y="26.7826" width="1.6875" height="1.91304" fill="#FF801E"/>
<rect x="10.125" y="26.7826" width="1.6875" height="1.91304" fill="#FF801E"/>
<rect x="1.6875" y="26.7826" width="1.6875" height="1.91304" fill="#FF801E"/>
<rect y="26.7826" width="1.6875" height="1.91304" fill="#FF801E"/>
<rect x="1.6875" y="24.8696" width="1.6875" height="1.91304" fill="#FF801E"/>
<rect y="24.8696" width="1.6875" height="1.91304" fill="#FF801E"/>
<rect x="8.4375" y="30.6087" width="1.6875" height="1.91304" fill="#FF801E"/>
<rect x="8.4375" y="28.6956" width="1.6875" height="1.91304" fill="#FF801E"/>
<rect x="6.75" y="30.6087" width="1.6875" height="1.91304" fill="#FF801E"/>
<rect x="6.75" y="28.6956" width="1.6875" height="1.91304" fill="#FF801E"/>
<rect x="5.0625" y="30.6087" width="1.6875" height="1.91304" fill="#FF801E"/>
<rect x="5.0625" y="28.6956" width="1.6875" height="1.91304" fill="#FF801E"/>
<rect x="3.375" y="30.6087" width="1.6875" height="1.91304" fill="#FF801E"/>
<rect x="3.375" y="28.6956" width="1.6875" height="1.91304" fill="#FF801E"/>
<rect x="10.125" y="21.0435" width="1.6875" height="1.91304" fill="#FF801E"/>
<rect x="1.6875" y="28.6956" width="1.6875" height="1.91304" fill="#FF801E"/>
</svg>
