<svg width="40" height="32" viewBox="0 0 40 32" fill="none" xmlns="http://www.w3.org/2000/svg">
<rect x="33.483" width="1.46856" height="1.6" fill="#FF801E"/>
<rect x="32.0146" y="1.60004" width="1.46856" height="1.6" fill="#FF801E"/>
<rect x="33.483" y="1.60004" width="1.46856" height="1.6" fill="#FF801E"/>
<rect x="32.0146" width="1.46856" height="1.6" fill="#FF801E"/>
<rect x="34.9517" width="1.46856" height="1.6" fill="#FF801E"/>
<rect x="34.9517" y="1.60004" width="1.46856" height="1.6" fill="#FF801E"/>
<rect x="30.5459" y="1.60004" width="1.46856" height="1.6" fill="#FF801E"/>
<rect x="36.4203" y="1.60004" width="1.46856" height="1.6" fill="#FF801E"/>
<rect x="33.483" y="3.20001" width="1.46856" height="1.6" fill="#FF801E"/>
<rect x="32.0146" y="3.20001" width="1.46856" height="1.6" fill="#FF801E"/>
<rect x="34.9517" y="3.20001" width="1.46856" height="1.6" fill="#FF801E"/>
<rect x="36.4203" y="3.20001" width="1.46856" height="1.6" fill="#FF801E"/>
<rect x="33.483" y="4.79999" width="1.46856" height="1.6" fill="#FF801E"/>
<rect x="34.9517" y="4.79999" width="1.46856" height="1.6" fill="#FF801E"/>
<rect x="30.5459" y="4.79999" width="1.46856" height="1.6" fill="#FF801E"/>
<rect x="36.4203" y="4.79999" width="1.46856" height="1.6" fill="#FF801E"/>
<rect x="32.0146" y="6.40002" width="1.46856" height="1.6" fill="#FF801E"/>
<rect x="33.483" y="6.40002" width="1.46856" height="1.6" fill="#FF801E"/>
<rect x="34.9517" y="6.40002" width="1.46856" height="1.6" fill="#FF801E"/>
<rect x="36.4203" y="6.40002" width="1.46856" height="1.6" fill="#FF801E"/>
<rect x="24.6718" y="4.79999" width="1.46856" height="1.6" fill="#FF801E"/>
<rect x="26.1404" y="4.79999" width="1.46856" height="1.6" fill="#FF801E"/>
<rect x="27.6089" y="4.79999" width="1.46856" height="1.6" fill="#FF801E"/>
<rect x="23.2032" y="4.79999" width="1.46856" height="1.6" fill="#FF801E"/>
<rect x="29.0774" y="4.79999" width="1.46856" height="1.6" fill="#FF801E"/>
<rect x="24.6718" y="6.40002" width="1.46856" height="1.6" fill="#FF801E"/>
<rect x="26.1404" y="6.40002" width="1.46856" height="1.6" fill="#FF801E"/>
<rect x="32.0146" y="4.79999" width="1.46856" height="1.6" fill="#FF801E"/>
<rect x="30.5459" y="6.40002" width="1.46856" height="1.6" fill="#FF801E"/>
<rect x="23.2032" y="6.40002" width="1.46856" height="1.6" fill="#FF801E"/>
<rect x="29.0774" y="14.4001" width="1.46856" height="1.6" fill="#FF801E"/>
<rect x="30.5459" y="14.4001" width="1.46856" height="1.6" fill="#FF801E"/>
<rect x="32.0146" y="14.4001" width="1.46856" height="1.6" fill="#FF801E"/>
<rect x="27.6089" y="14.4001" width="1.46856" height="1.6" fill="#FF801E"/>
<rect x="27.6089" y="11.2" width="1.46856" height="1.6" fill="#FF801E"/>
<rect x="29.0774" y="11.2" width="1.46856" height="1.6" fill="#FF801E"/>
<rect x="30.5459" y="11.2" width="1.46856" height="1.6" fill="#FF801E"/>
<rect x="26.1404" y="11.2" width="1.46856" height="1.6" fill="#FF801E"/>
<rect x="29.0774" y="12.8" width="1.46856" height="1.6" fill="#FF801E"/>
<rect x="30.5459" y="12.8" width="1.46856" height="1.6" fill="#FF801E"/>
<rect x="32.0146" y="12.8" width="1.46856" height="1.6" fill="#FF801E"/>
<rect x="32.0146" y="11.2" width="1.46856" height="1.6" fill="#FF801E"/>
<rect x="27.6089" y="12.8" width="1.46856" height="1.6" fill="#FF801E"/>
<rect x="26.1404" y="12.8" width="1.46856" height="1.6" fill="#FF801E"/>
<rect x="24.6718" y="12.8" width="1.46856" height="1.6" fill="#FF801E"/>
<rect x="29.0774" y="17.6001" width="1.46856" height="1.6" fill="#FF801E"/>
<rect x="30.5459" y="17.6001" width="1.46856" height="1.6" fill="#FF801E"/>
<rect x="32.0146" y="17.6001" width="1.46856" height="1.6" fill="#FF801E"/>
<rect x="27.6089" y="17.6001" width="1.46856" height="1.6" fill="#FF801E"/>
<rect x="29.0774" y="16.0001" width="1.46856" height="1.6" fill="#FF801E"/>
<rect x="27.6089" y="24" width="1.46856" height="1.6" fill="#FF801E"/>
<rect x="27.6089" y="22.4" width="1.46856" height="1.6" fill="#FF801E"/>
<rect x="30.5459" y="20.8" width="1.46856" height="1.6" fill="#FF801E"/>
<rect x="30.5459" y="19.2" width="1.46856" height="1.6" fill="#FF801E"/>
<rect x="29.0774" y="20.8" width="1.46856" height="1.6" fill="#FF801E"/>
<rect x="29.0774" y="22.4" width="1.46856" height="1.6" fill="#FF801E"/>
<rect x="29.0774" y="19.2" width="1.46856" height="1.6" fill="#FF801E"/>
<rect x="30.5459" y="16.0001" width="1.46856" height="1.6" fill="#FF801E"/>
<rect x="32.0146" y="16.0001" width="1.46856" height="1.6" fill="#FF801E"/>
<rect x="27.6089" y="16.0001" width="1.46856" height="1.6" fill="#FF801E"/>
<rect x="23.2032" y="16.0001" width="1.46856" height="1.6" fill="#FF801E"/>
<rect x="24.6718" y="16.0001" width="1.46856" height="1.6" fill="#FF801E"/>
<rect x="26.1404" y="16.0001" width="1.46856" height="1.6" fill="#FF801E"/>
<rect x="27.6089" y="20.8" width="1.46856" height="1.6" fill="#FF801E"/>
<rect x="23.2032" y="14.4001" width="1.46856" height="1.6" fill="#FF801E"/>
<rect x="24.6718" y="14.4001" width="1.46856" height="1.6" fill="#FF801E"/>
<rect x="26.1404" y="14.4001" width="1.46856" height="1.6" fill="#FF801E"/>
<rect x="27.6089" y="19.2" width="1.46856" height="1.6" fill="#FF801E"/>
<rect x="23.2032" y="19.2" width="1.46856" height="1.6" fill="#FF801E"/>
<rect x="24.6718" y="19.2" width="1.46856" height="1.6" fill="#FF801E"/>
<rect x="26.1404" y="19.2" width="1.46856" height="1.6" fill="#FF801E"/>
<rect x="21.7346" y="19.2" width="1.46856" height="1.6" fill="#FF801E"/>
<rect x="23.2032" y="17.6001" width="1.46856" height="1.6" fill="#FF801E"/>
<rect x="24.6718" y="17.6001" width="1.46856" height="1.6" fill="#FF801E"/>
<rect x="26.1404" y="17.6001" width="1.46856" height="1.6" fill="#FF801E"/>
<rect x="23.2032" y="22.4" width="1.46856" height="1.6" fill="#FF801E"/>
<rect x="24.6718" y="22.4" width="1.46856" height="1.6" fill="#FF801E"/>
<rect x="26.1404" y="22.4" width="1.46856" height="1.6" fill="#FF801E"/>
<rect x="23.2032" y="20.8" width="1.46856" height="1.6" fill="#FF801E"/>
<rect x="24.6718" y="20.8" width="1.46856" height="1.6" fill="#FF801E"/>
<rect x="26.1404" y="20.8" width="1.46856" height="1.6" fill="#FF801E"/>
<rect x="23.2032" y="25.6001" width="1.46856" height="1.6" fill="#FF801E"/>
<rect x="24.6718" y="25.6001" width="1.46856" height="1.6" fill="#FF801E"/>
<rect x="26.1404" y="25.6001" width="1.46856" height="1.6" fill="#FF801E"/>
<rect x="23.2032" y="24" width="1.46856" height="1.6" fill="#FF801E"/>
<rect x="24.6718" y="24" width="1.46856" height="1.6" fill="#FF801E"/>
<rect x="26.1404" y="24" width="1.46856" height="1.6" fill="#FF801E"/>
<rect x="18.7975" y="22.4" width="1.46856" height="1.6" fill="#FF801E"/>
<rect x="20.2661" y="22.4" width="1.46856" height="1.6" fill="#FF801E"/>
<rect x="21.7346" y="22.4" width="1.46856" height="1.6" fill="#FF801E"/>
<rect x="18.7975" y="20.8" width="1.46856" height="1.6" fill="#FF801E"/>
<rect x="20.2661" y="20.8" width="1.46856" height="1.6" fill="#FF801E"/>
<rect x="21.7346" y="20.8" width="1.46856" height="1.6" fill="#FF801E"/>
<rect x="18.7975" y="25.6001" width="1.46856" height="1.6" fill="#FF801E"/>
<rect x="20.2661" y="25.6001" width="1.46856" height="1.6" fill="#FF801E"/>
<rect x="21.7346" y="25.6001" width="1.46856" height="1.6" fill="#FF801E"/>
<rect x="14.392" y="24" width="1.46856" height="1.6" fill="#FF801E"/>
<rect x="15.8605" y="24" width="1.46856" height="1.6" fill="#FF801E"/>
<rect x="17.3289" y="24" width="1.46856" height="1.6" fill="#FF801E"/>
<rect x="21.7346" y="16.0001" width="1.46856" height="1.6" fill="#FF801E"/>
<rect x="20.2661" y="19.2" width="1.46856" height="1.6" fill="#FF801E"/>
<rect x="12.9232" y="24" width="1.46856" height="1.6" fill="#FF801E"/>
<rect x="23.2032" y="28.8" width="1.46856" height="1.6" fill="#FF801E"/>
<rect x="24.6718" y="28.8" width="1.46856" height="1.6" fill="#FF801E"/>
<rect x="26.1404" y="27.2" width="1.46856" height="1.6" fill="#FF801E"/>
<rect x="18.7975" y="28.8" width="1.46856" height="1.6" fill="#FF801E"/>
<rect x="20.2661" y="28.8" width="1.46856" height="1.6" fill="#FF801E"/>
<rect x="21.7346" y="28.8" width="1.46856" height="1.6" fill="#FF801E"/>
<rect x="11.4547" y="19.2" width="1.46856" height="1.6" fill="#FF801E"/>
<rect x="12.9232" y="19.2" width="1.46856" height="1.6" fill="#FF801E"/>
<rect x="14.392" y="19.2" width="1.46856" height="1.6" fill="#FF801E"/>
<rect x="7.04907" y="19.2" width="1.46856" height="1.6" fill="#FF801E"/>
<rect x="8.51782" y="19.2" width="1.46856" height="1.6" fill="#FF801E"/>
<rect x="9.98608" y="19.2" width="1.46856" height="1.6" fill="#FF801E"/>
<rect x="11.4547" y="17.6001" width="1.46856" height="1.6" fill="#FF801E"/>
<rect x="12.9232" y="17.6001" width="1.46856" height="1.6" fill="#FF801E"/>
<rect x="8.51782" y="17.6001" width="1.46856" height="1.6" fill="#FF801E"/>
<rect x="9.98608" y="17.6001" width="1.46856" height="1.6" fill="#FF801E"/>
<rect x="11.4547" y="16.0001" width="1.46856" height="1.6" fill="#FF801E"/>
<rect x="9.98608" y="16.0001" width="1.46856" height="1.6" fill="#FF801E"/>
<rect x="12.9232" y="20.8" width="1.46856" height="1.6" fill="#FF801E"/>
<rect x="14.392" y="20.8" width="1.46856" height="1.6" fill="#FF801E"/>
<rect x="15.8605" y="20.8" width="1.46856" height="1.6" fill="#FF801E"/>
<rect x="8.51782" y="20.8" width="1.46856" height="1.6" fill="#FF801E"/>
<rect x="9.98608" y="20.8" width="1.46856" height="1.6" fill="#FF801E"/>
<rect x="5.58057" y="20.8" width="1.46856" height="1.6" fill="#FF801E"/>
<rect x="7.04907" y="20.8" width="1.46856" height="1.6" fill="#FF801E"/>
<rect x="11.4547" y="20.8" width="1.46856" height="1.6" fill="#FF801E"/>
<rect x="8.51782" y="22.4" width="1.46856" height="1.6" fill="#FF801E"/>
<rect x="4.11182" y="22.4" width="1.46856" height="1.6" fill="#FF801E"/>
<rect x="5.58057" y="22.4" width="1.46856" height="1.6" fill="#FF801E"/>
<rect x="7.04907" y="22.4" width="1.46856" height="1.6" fill="#FF801E"/>
<rect x="7.34277" y="24" width="1.46856" height="1.6" fill="#FF801E"/>
<rect x="2.93713" y="24" width="1.46856" height="1.6" fill="#FF801E"/>
<rect x="4.40564" y="24" width="1.46856" height="1.6" fill="#FF801E"/>
<rect x="5.87427" y="24" width="1.46856" height="1.6" fill="#FF801E"/>
<rect x="5.87427" y="25.6001" width="1.46856" height="1.6" fill="#FF801E"/>
<rect x="1.46863" y="25.6001" width="1.46856" height="1.6" fill="#FF801E"/>
<rect x="2.93713" y="25.6001" width="1.46856" height="1.6" fill="#FF801E"/>
<rect x="4.40564" y="25.6001" width="1.46856" height="1.6" fill="#FF801E"/>
<rect x="4.40564" y="27.2" width="1.46856" height="1.6" fill="#FF801E"/>
<rect y="27.2" width="1.46856" height="1.6" fill="#FF801E"/>
<rect x="1.46863" y="27.2" width="1.46856" height="1.6" fill="#FF801E"/>
<rect x="2.93713" y="27.2" width="1.46856" height="1.6" fill="#FF801E"/>
<rect x="2.93713" y="28.8" width="1.46856" height="1.6" fill="#FF801E"/>
<rect y="28.8" width="1.46856" height="1.6" fill="#FF801E"/>
<rect x="1.46863" y="30.4" width="1.46856" height="1.6" fill="#FF801E"/>
<rect y="30.4" width="1.46856" height="1.6" fill="#FF801E"/>
<rect x="1.46863" y="28.8" width="1.46856" height="1.6" fill="#FF801E"/>
<rect x="21.7346" y="27.2" width="1.46856" height="1.6" fill="#FF801E"/>
<rect x="23.2032" y="27.2" width="1.46856" height="1.6" fill="#FF801E"/>
<rect x="24.6718" y="27.2" width="1.46856" height="1.6" fill="#FF801E"/>
<rect x="17.3289" y="27.2" width="1.46856" height="1.6" fill="#FF801E"/>
<rect x="18.7975" y="27.2" width="1.46856" height="1.6" fill="#FF801E"/>
<rect x="20.2661" y="27.2" width="1.46856" height="1.6" fill="#FF801E"/>
<rect x="14.392" y="22.4" width="1.46856" height="1.6" fill="#FF801E"/>
<rect x="15.8605" y="22.4" width="1.46856" height="1.6" fill="#FF801E"/>
<rect x="17.3289" y="22.4" width="1.46856" height="1.6" fill="#FF801E"/>
<rect x="15.8605" y="25.6001" width="1.46856" height="1.6" fill="#FF801E"/>
<rect x="17.3289" y="25.6001" width="1.46856" height="1.6" fill="#FF801E"/>
<rect x="12.9232" y="22.4" width="1.46856" height="1.6" fill="#FF801E"/>
<rect x="18.7975" y="24" width="1.46856" height="1.6" fill="#FF801E"/>
<rect x="20.2661" y="24" width="1.46856" height="1.6" fill="#FF801E"/>
<rect x="21.7346" y="24" width="1.46856" height="1.6" fill="#FF801E"/>
<rect x="21.7346" y="17.6001" width="1.46856" height="1.6" fill="#FF801E"/>
<rect x="26.1404" y="9.6001" width="1.46856" height="1.6" fill="#FF801E"/>
<rect x="27.6089" y="9.6001" width="1.46856" height="1.6" fill="#FF801E"/>
<rect x="29.0774" y="9.6001" width="1.46856" height="1.6" fill="#FF801E"/>
<rect x="24.6718" y="9.6001" width="1.46856" height="1.6" fill="#FF801E"/>
<rect x="24.6718" y="8" width="1.46856" height="1.6" fill="#FF801E"/>
<rect x="26.1404" y="8" width="1.46856" height="1.6" fill="#FF801E"/>
<rect x="27.6089" y="8" width="1.46856" height="1.6" fill="#FF801E"/>
<rect x="23.2032" y="8" width="1.46856" height="1.6" fill="#FF801E"/>
<rect x="21.7346" y="4.79999" width="1.46856" height="1.6" fill="#FF801E"/>
<rect x="21.7346" y="6.40002" width="1.46856" height="1.6" fill="#FF801E"/>
<rect x="32.0146" y="8" width="1.46856" height="1.6" fill="#FF801E"/>
<rect x="33.483" y="14.4001" width="1.46856" height="1.6" fill="#FF801E"/>
<rect x="33.483" y="16.0001" width="1.46856" height="1.6" fill="#FF801E"/>
<rect x="30.5459" y="8" width="1.46856" height="1.6" fill="#FF801E"/>
<rect x="37.8888" y="3.20001" width="1.46856" height="1.6" fill="#FF801E"/>
<rect x="33.483" y="8" width="1.46856" height="1.6" fill="#FF801E"/>
<rect x="29.0774" y="3.20001" width="1.46856" height="1.6" fill="#FF801E"/>
<rect x="27.6089" y="3.20001" width="1.46856" height="1.6" fill="#FF801E"/>
<rect x="26.1404" y="3.20001" width="1.46856" height="1.6" fill="#FF801E"/>
<rect x="24.6718" y="3.20001" width="1.46856" height="1.6" fill="#FF801E"/>
<rect x="34.9517" y="8" width="1.46856" height="1.6" fill="#FF801E"/>
<rect x="33.483" y="9.6001" width="1.46856" height="1.6" fill="#FF801E"/>
<rect x="34.9517" y="9.6001" width="1.46856" height="1.6" fill="#FF801E"/>
<rect x="36.4203" y="8" width="1.46856" height="1.6" fill="#FF801E"/>
<rect x="37.8888" y="4.79999" width="1.46856" height="1.6" fill="#FF801E"/>
</svg>
