<svg width="46" height="22" viewBox="0 0 46 22" fill="none" xmlns="http://www.w3.org/2000/svg">
<rect x="39.1852" width="1.7037" height="1.57143" fill="#FF801E"/>
<rect x="40.8889" width="1.7037" height="1.57143" fill="#FF801E"/>
<rect x="42.5927" y="1.57141" width="1.7037" height="1.57143" fill="#FF801E"/>
<rect x="37.4814" width="1.7037" height="1.57143" fill="#FF801E"/>
<rect x="42.5927" y="3.14288" width="1.7037" height="1.57143" fill="#FF801E"/>
<rect x="44.2963" y="1.57141" width="1.7037" height="1.57143" fill="#FF801E"/>
<rect x="37.8223" y="7.85712" width="1.7037" height="1.57143" fill="#FF801E"/>
<rect x="42.5927" width="1.7037" height="1.57143" fill="#FF801E"/>
<rect x="44.2963" y="4.71429" width="1.7037" height="1.57143" fill="#FF801E"/>
<rect x="44.2963" y="3.14288" width="1.7037" height="1.57143" fill="#FF801E"/>
<rect width="1.7037" height="1.57143" transform="matrix(1 0 0 -1 42.5927 7.85712)" fill="#FF801E"/>
<rect width="1.7037" height="1.57143" transform="matrix(1 0 0 -1 42.5927 6.28571)" fill="#FF801E"/>
<rect x="35.7778" y="1.57141" width="1.7037" height="1.57143" fill="#FF801E"/>
<rect x="37.4814" y="1.57141" width="1.7037" height="1.57143" fill="#FF801E"/>
<rect x="39.1852" y="1.57141" width="1.7037" height="1.57143" fill="#FF801E"/>
<rect x="40.8889" y="1.57141" width="1.7037" height="1.57143" fill="#FF801E"/>
<rect x="30.6666" y="6.28571" width="1.7037" height="1.57143" fill="#FF801E"/>
<rect x="32.3704" y="6.28571" width="1.7037" height="1.57143" fill="#FF801E"/>
<rect x="30.6666" y="7.85712" width="1.7037" height="1.57143" fill="#FF801E"/>
<rect x="32.3704" y="7.85712" width="1.7037" height="1.57143" fill="#FF801E"/>
<rect x="39.1852" y="3.14288" width="1.7037" height="1.57143" fill="#FF801E"/>
<rect x="40.8889" y="3.14288" width="1.7037" height="1.57143" fill="#FF801E"/>
<rect x="39.1852" y="4.71429" width="1.7037" height="1.57143" fill="#FF801E"/>
<rect x="40.8889" y="4.71429" width="1.7037" height="1.57143" fill="#FF801E"/>
<rect x="35.7778" y="3.14288" width="1.7037" height="1.57143" fill="#FF801E"/>
<rect x="37.4814" y="3.14288" width="1.7037" height="1.57143" fill="#FF801E"/>
<rect x="34.0741" y="15.7143" width="1.7037" height="1.57143" fill="#FF801E"/>
<rect x="35.7778" y="15.7143" width="1.7037" height="1.57143" fill="#FF801E"/>
<rect x="34.0741" y="17.2857" width="1.7037" height="1.57143" fill="#FF801E"/>
<rect x="35.7778" y="17.2857" width="1.7037" height="1.57143" fill="#FF801E"/>
<rect x="35.7778" y="18.8571" width="1.7037" height="1.57143" fill="#FF801E"/>
<rect x="37.4814" y="18.8571" width="1.7037" height="1.57143" fill="#FF801E"/>
<rect x="35.7778" y="20.4286" width="1.7037" height="1.57143" fill="#FF801E"/>
<rect x="37.4814" y="20.4286" width="1.7037" height="1.57143" fill="#FF801E"/>
<rect x="40.8889" y="20.4286" width="1.7037" height="1.57143" fill="#FF801E"/>
<rect x="39.1852" y="20.4286" width="1.7037" height="1.57143" fill="#FF801E"/>
<rect x="35.7778" y="12.5714" width="1.7037" height="1.57143" fill="#FF801E"/>
<rect x="28.963" y="9.42859" width="1.7037" height="1.57143" fill="#FF801E"/>
<rect x="30.6666" y="9.42859" width="1.7037" height="1.57143" fill="#FF801E"/>
<rect x="32.3704" y="4.71429" width="1.7037" height="1.57143" fill="#FF801E"/>
<rect x="17.037" y="9.42859" width="1.7037" height="1.57143" fill="#FF801E"/>
<rect x="32.3704" y="14.1429" width="1.7037" height="1.57143" fill="#FF801E"/>
<rect x="23.8518" y="12.5714" width="1.7037" height="1.57143" fill="#FF801E"/>
<rect x="34.0741" y="7.85712" width="1.7037" height="1.57143" fill="#FF801E"/>
<rect x="28.963" y="4.71429" width="1.7037" height="1.57143" fill="#FF801E"/>
<rect x="20.4445" y="7.85712" width="1.7037" height="1.57143" fill="#FF801E"/>
<rect x="15.3334" y="11" width="1.7037" height="1.57143" fill="#FF801E"/>
<rect x="11.9259" y="12.5714" width="1.7037" height="1.57143" fill="#FF801E"/>
<rect x="8.51855" y="14.1429" width="1.7037" height="1.57143" fill="#FF801E"/>
<rect x="6.81482" y="14.1429" width="1.7037" height="1.57143" fill="#FF801E"/>
<rect x="8.51855" y="18.8571" width="1.7037" height="1.57143" fill="#FF801E"/>
<rect x="1.70374" y="20.4286" width="1.7037" height="1.57143" fill="#FF801E"/>
<rect x="1.70374" y="18.8571" width="1.7037" height="1.57143" fill="#FF801E"/>
<rect x="37.4814" y="15.7143" width="1.7037" height="1.57143" fill="#FF801E"/>
<rect x="37.4814" y="17.2857" width="1.7037" height="1.57143" fill="#FF801E"/>
<rect x="28.963" y="6.28571" width="1.7037" height="1.57143" fill="#FF801E"/>
<rect x="28.963" y="7.85712" width="1.7037" height="1.57143" fill="#FF801E"/>
<rect x="30.6666" y="4.71429" width="1.7037" height="1.57143" fill="#FF801E"/>
<rect x="23.8518" y="6.28571" width="1.7037" height="1.57143" fill="#FF801E"/>
<rect x="25.5555" y="6.28571" width="1.7037" height="1.57143" fill="#FF801E"/>
<rect x="27.2593" y="6.28571" width="1.7037" height="1.57143" fill="#FF801E"/>
<rect x="25.5555" y="7.85712" width="1.7037" height="1.57143" fill="#FF801E"/>
<rect x="27.2593" y="7.85712" width="1.7037" height="1.57143" fill="#FF801E"/>
<rect x="22.1482" y="7.85712" width="1.7037" height="1.57143" fill="#FF801E"/>
<rect x="23.8518" y="7.85712" width="1.7037" height="1.57143" fill="#FF801E"/>
<rect x="13.6296" y="15.7143" width="1.7037" height="1.57143" fill="#FF801E"/>
<rect x="15.3334" y="15.7143" width="1.7037" height="1.57143" fill="#FF801E"/>
<rect x="10.2222" y="14.1429" width="1.7037" height="1.57143" fill="#FF801E"/>
<rect x="11.9259" y="14.1429" width="1.7037" height="1.57143" fill="#FF801E"/>
<rect x="11.9259" y="15.7143" width="1.7037" height="1.57143" fill="#FF801E"/>
<rect x="11.9259" y="17.2857" width="1.7037" height="1.57143" fill="#FF801E"/>
<rect x="6.81482" y="15.7143" width="1.7037" height="1.57143" fill="#FF801E"/>
<rect x="8.51855" y="15.7143" width="1.7037" height="1.57143" fill="#FF801E"/>
<rect x="10.2222" y="15.7143" width="1.7037" height="1.57143" fill="#FF801E"/>
<rect x="8.51855" y="17.2857" width="1.7037" height="1.57143" fill="#FF801E"/>
<rect x="10.2222" y="17.2857" width="1.7037" height="1.57143" fill="#FF801E"/>
<rect x="6.81482" y="17.2857" width="1.7037" height="1.57143" fill="#FF801E"/>
<rect x="20.4445" y="12.5714" width="1.7037" height="1.57143" fill="#FF801E"/>
<rect x="22.1482" y="12.5714" width="1.7037" height="1.57143" fill="#FF801E"/>
<rect x="20.4445" y="14.1429" width="1.7037" height="1.57143" fill="#FF801E"/>
<rect x="17.037" y="11" width="1.7037" height="1.57143" fill="#FF801E"/>
<rect x="18.7407" y="12.5714" width="1.7037" height="1.57143" fill="#FF801E"/>
<rect x="18.7407" y="14.1429" width="1.7037" height="1.57143" fill="#FF801E"/>
<rect x="13.6296" y="12.5714" width="1.7037" height="1.57143" fill="#FF801E"/>
<rect x="15.3334" y="12.5714" width="1.7037" height="1.57143" fill="#FF801E"/>
<rect x="17.037" y="12.5714" width="1.7037" height="1.57143" fill="#FF801E"/>
<rect x="15.3334" y="14.1429" width="1.7037" height="1.57143" fill="#FF801E"/>
<rect x="17.037" y="14.1429" width="1.7037" height="1.57143" fill="#FF801E"/>
<rect x="13.6296" y="14.1429" width="1.7037" height="1.57143" fill="#FF801E"/>
<rect x="25.5555" y="9.42859" width="1.7037" height="1.57143" fill="#FF801E"/>
<rect x="27.2593" y="9.42859" width="1.7037" height="1.57143" fill="#FF801E"/>
<rect x="25.5555" y="11" width="1.7037" height="1.57143" fill="#FF801E"/>
<rect x="27.2593" y="11" width="1.7037" height="1.57143" fill="#FF801E"/>
<rect x="32.3704" y="9.42859" width="1.7037" height="1.57143" fill="#FF801E"/>
<rect x="34.0741" y="9.42859" width="1.7037" height="1.57143" fill="#FF801E"/>
<rect x="32.3704" y="11" width="1.7037" height="1.57143" fill="#FF801E"/>
<rect x="34.0741" y="11" width="1.7037" height="1.57143" fill="#FF801E"/>
<rect x="32.3704" y="12.5714" width="1.7037" height="1.57143" fill="#FF801E"/>
<rect x="34.0741" y="12.5714" width="1.7037" height="1.57143" fill="#FF801E"/>
<rect x="35.7778" y="14.1429" width="1.7037" height="1.57143" fill="#FF801E"/>
<rect x="3.40735" y="15.7143" width="1.7037" height="1.57143" fill="#FF801E"/>
<rect x="5.11108" y="15.7143" width="1.7037" height="1.57143" fill="#FF801E"/>
<rect x="3.40735" y="17.2857" width="1.7037" height="1.57143" fill="#FF801E"/>
<rect x="1.70374" y="15.7143" width="1.7037" height="1.57143" fill="#FF801E"/>
<rect x="1.70374" y="17.2857" width="1.7037" height="1.57143" fill="#FF801E"/>
<rect y="18.8571" width="1.7037" height="1.57143" fill="#FF801E"/>
<rect y="17.2857" width="1.7037" height="1.57143" fill="#FF801E"/>
<rect x="5.11108" y="17.2857" width="1.7037" height="1.57143" fill="#FF801E"/>
<rect x="3.40735" y="18.8571" width="1.7037" height="1.57143" fill="#FF801E"/>
<rect x="5.11108" y="18.8571" width="1.7037" height="1.57143" fill="#FF801E"/>
<rect x="3.40735" y="20.4286" width="1.7037" height="1.57143" fill="#FF801E"/>
<rect x="6.81482" y="18.8571" width="1.7037" height="1.57143" fill="#FF801E"/>
<rect x="34.0741" y="14.1429" width="1.7037" height="1.57143" fill="#FF801E"/>
<rect x="23.8518" y="9.42859" width="1.7037" height="1.57143" fill="#FF801E"/>
<rect x="23.8518" y="11" width="1.7037" height="1.57143" fill="#FF801E"/>
<rect x="18.7407" y="9.42859" width="1.7037" height="1.57143" fill="#FF801E"/>
<rect x="20.4445" y="9.42859" width="1.7037" height="1.57143" fill="#FF801E"/>
<rect x="22.1482" y="9.42859" width="1.7037" height="1.57143" fill="#FF801E"/>
<rect x="20.4445" y="11" width="1.7037" height="1.57143" fill="#FF801E"/>
<rect x="22.1482" y="11" width="1.7037" height="1.57143" fill="#FF801E"/>
<rect x="18.7407" y="11" width="1.7037" height="1.57143" fill="#FF801E"/>
<rect x="35.7778" y="4.71429" width="1.7037" height="1.57143" fill="#FF801E"/>
<rect x="37.4814" y="4.71429" width="1.7037" height="1.57143" fill="#FF801E"/>
<rect x="39.1852" y="6.28571" width="1.7037" height="1.57143" fill="#FF801E"/>
<rect x="40.8889" y="6.28571" width="1.7037" height="1.57143" fill="#FF801E"/>
<rect x="35.7778" y="6.28571" width="1.7037" height="1.57143" fill="#FF801E"/>
<rect x="37.4814" y="6.28571" width="1.7037" height="1.57143" fill="#FF801E"/>
<rect x="39.1852" y="7.85712" width="1.7037" height="1.57143" fill="#FF801E"/>
<rect x="40.8889" y="7.85712" width="1.7037" height="1.57143" fill="#FF801E"/>
</svg>
