<svg width="44" height="22" viewBox="0 0 44 22" fill="none" xmlns="http://www.w3.org/2000/svg">
<rect x="35.5386" y="8.46149" width="1.69231" height="1.6923" fill="#FF801E"/>
<rect x="35.5386" y="6.76923" width="1.69231" height="1.6923" fill="#FF801E"/>
<rect x="38.9232" width="1.69231" height="1.6923" fill="#FF801E"/>
<rect x="42.3077" y="6.76923" width="1.69231" height="1.6923" fill="#FF801E"/>
<rect x="42.3077" y="1.69226" width="1.69231" height="1.6923" fill="#FF801E"/>
<rect x="38.9232" y="8.46149" width="1.69231" height="1.6923" fill="#FF801E"/>
<rect x="37.2308" y="6.76923" width="1.69231" height="1.6923" fill="#FF801E"/>
<rect x="33.8462" y="5.0769" width="1.69231" height="1.6923" fill="#FF801E"/>
<rect x="33.8462" y="3.38464" width="1.69231" height="1.6923" fill="#FF801E"/>
<rect x="40.6155" width="1.69231" height="1.6923" fill="#FF801E"/>
<rect width="1.69231" height="1.6923" transform="matrix(1 0 0 -1 42.3077 6.76923)" fill="#FF801E"/>
<rect width="1.69231" height="1.6923" transform="matrix(1 0 0 -1 42.3077 5.0769)" fill="#FF801E"/>
<rect x="40.6155" y="8.46149" width="1.69231" height="1.6923" fill="#FF801E"/>
<rect x="37.2308" y="8.46149" width="1.69231" height="1.6923" fill="#FF801E"/>
<rect x="35.5386" y="1.69226" width="1.69231" height="1.6923" fill="#FF801E"/>
<rect x="37.2308" width="1.69231" height="1.6923" fill="#FF801E"/>
<rect x="30.4615" y="11.8461" width="1.69231" height="1.6923" fill="#FF801E"/>
<rect x="28.7693" y="13.5384" width="1.69231" height="1.6923" fill="#FF801E"/>
<rect x="30.4615" y="6.76923" width="1.69231" height="1.6923" fill="#FF801E"/>
<rect x="32.1539" y="6.76923" width="1.69231" height="1.6923" fill="#FF801E"/>
<rect x="38.9232" y="1.69226" width="1.69231" height="1.6923" fill="#FF801E"/>
<rect x="40.6155" y="1.69226" width="1.69231" height="1.6923" fill="#FF801E"/>
<rect x="38.9232" y="3.38464" width="1.69231" height="1.6923" fill="#FF801E"/>
<rect x="40.6155" y="3.38464" width="1.69231" height="1.6923" fill="#FF801E"/>
<rect x="35.5386" y="3.38464" width="1.69231" height="1.6923" fill="#FF801E"/>
<rect x="37.2308" y="1.69226" width="1.69231" height="1.6923" fill="#FF801E"/>
<rect x="32.1539" y="15.2307" width="1.69231" height="1.6923" fill="#FF801E"/>
<rect x="33.8462" y="15.2307" width="1.69231" height="1.6923" fill="#FF801E"/>
<rect x="33.8462" y="16.9231" width="1.69231" height="1.6923" fill="#FF801E"/>
<rect x="32.1539" y="18.6154" width="1.69231" height="1.6923" fill="#FF801E"/>
<rect x="33.8462" y="18.6154" width="1.69231" height="1.6923" fill="#FF801E"/>
<rect x="38.9232" y="20.3077" width="1.69231" height="1.6923" fill="#FF801E"/>
<rect x="40.6155" y="20.3077" width="1.69231" height="1.6923" fill="#FF801E"/>
<rect x="33.8462" y="20.3077" width="1.69231" height="1.6923" fill="#FF801E"/>
<rect x="35.5386" y="20.3077" width="1.69231" height="1.6923" fill="#FF801E"/>
<rect x="27.0769" y="11.8461" width="1.69231" height="1.6923" fill="#FF801E"/>
<rect x="37.2308" y="20.3077" width="1.69231" height="1.6923" fill="#FF801E"/>
<rect x="37.2308" y="18.6154" width="1.69231" height="1.6923" fill="#FF801E"/>
<rect x="28.7693" y="8.46149" width="1.69231" height="1.6923" fill="#FF801E"/>
<rect x="30.4615" y="8.46149" width="1.69231" height="1.6923" fill="#FF801E"/>
<rect x="25.3845" y="11.8461" width="1.69231" height="1.6923" fill="#FF801E"/>
<rect x="35.5386" y="10.1537" width="1.69231" height="1.6923" fill="#FF801E"/>
<rect x="32.1539" y="13.5384" width="1.69231" height="1.6923" fill="#FF801E"/>
<rect x="23.6924" y="11.8461" width="1.69231" height="1.6923" fill="#FF801E"/>
<rect x="22.0001" y="13.5384" width="1.69231" height="1.6923" fill="#FF801E"/>
<rect x="28.7693" y="10.1537" width="1.69231" height="1.6923" fill="#FF801E"/>
<rect x="35.5386" y="11.8461" width="1.69231" height="1.6923" fill="#FF801E"/>
<rect x="15.2307" y="10.1537" width="1.69231" height="1.6923" fill="#FF801E"/>
<rect x="11.8462" y="11.8461" width="1.69231" height="1.6923" fill="#FF801E"/>
<rect x="8.46155" y="13.5384" width="1.69231" height="1.6923" fill="#FF801E"/>
<rect x="6.76929" y="13.5384" width="1.69231" height="1.6923" fill="#FF801E"/>
<rect x="8.46155" y="18.6154" width="1.69231" height="1.6923" fill="#FF801E"/>
<rect x="1.69238" y="20.3077" width="1.69231" height="1.6923" fill="#FF801E"/>
<rect x="1.69238" y="18.6154" width="1.69231" height="1.6923" fill="#FF801E"/>
<rect x="32.1539" y="16.9231" width="1.69231" height="1.6923" fill="#FF801E"/>
<rect x="32.1539" y="20.3077" width="1.69231" height="1.6923" fill="#FF801E"/>
<rect x="28.7693" y="11.8461" width="1.69231" height="1.6923" fill="#FF801E"/>
<rect x="28.7693" y="6.76923" width="1.69231" height="1.6923" fill="#FF801E"/>
<rect x="30.4615" y="10.1537" width="1.69231" height="1.6923" fill="#FF801E"/>
<rect x="23.6924" y="13.5384" width="1.69231" height="1.6923" fill="#FF801E"/>
<rect x="25.3845" y="13.5384" width="1.69231" height="1.6923" fill="#FF801E"/>
<rect x="27.0769" y="13.5384" width="1.69231" height="1.6923" fill="#FF801E"/>
<rect x="25.3845" y="6.76923" width="1.69231" height="1.6923" fill="#FF801E"/>
<rect x="27.0769" y="6.76923" width="1.69231" height="1.6923" fill="#FF801E"/>
<rect x="22.0001" y="6.76923" width="1.69231" height="1.6923" fill="#FF801E"/>
<rect x="23.6924" y="6.76923" width="1.69231" height="1.6923" fill="#FF801E"/>
<rect x="13.5386" y="15.2307" width="1.69231" height="1.6923" fill="#FF801E"/>
<rect x="15.2307" y="15.2307" width="1.69231" height="1.6923" fill="#FF801E"/>
<rect x="10.1538" y="13.5384" width="1.69231" height="1.6923" fill="#FF801E"/>
<rect x="11.8462" y="13.5384" width="1.69231" height="1.6923" fill="#FF801E"/>
<rect x="11.8462" y="15.2307" width="1.69231" height="1.6923" fill="#FF801E"/>
<rect x="11.8462" y="16.9231" width="1.69231" height="1.6923" fill="#FF801E"/>
<rect x="6.76929" y="15.2307" width="1.69231" height="1.6923" fill="#FF801E"/>
<rect x="8.46155" y="15.2307" width="1.69231" height="1.6923" fill="#FF801E"/>
<rect x="10.1538" y="15.2307" width="1.69231" height="1.6923" fill="#FF801E"/>
<rect x="8.46155" y="16.9231" width="1.69231" height="1.6923" fill="#FF801E"/>
<rect x="10.1538" y="16.9231" width="1.69231" height="1.6923" fill="#FF801E"/>
<rect x="6.76929" y="16.9231" width="1.69231" height="1.6923" fill="#FF801E"/>
<rect x="20.3077" y="11.8461" width="1.69231" height="1.6923" fill="#FF801E"/>
<rect x="22.0001" y="11.8461" width="1.69231" height="1.6923" fill="#FF801E"/>
<rect x="20.3077" y="13.5384" width="1.69231" height="1.6923" fill="#FF801E"/>
<rect x="16.9231" y="10.1537" width="1.69231" height="1.6923" fill="#FF801E"/>
<rect x="18.6155" y="11.8461" width="1.69231" height="1.6923" fill="#FF801E"/>
<rect x="18.6155" y="13.5384" width="1.69231" height="1.6923" fill="#FF801E"/>
<rect x="13.5386" y="11.8461" width="1.69231" height="1.6923" fill="#FF801E"/>
<rect x="15.2307" y="11.8461" width="1.69231" height="1.6923" fill="#FF801E"/>
<rect x="16.9231" y="11.8461" width="1.69231" height="1.6923" fill="#FF801E"/>
<rect x="15.2307" y="13.5384" width="1.69231" height="1.6923" fill="#FF801E"/>
<rect x="16.9231" y="13.5384" width="1.69231" height="1.6923" fill="#FF801E"/>
<rect x="13.5386" y="13.5384" width="1.69231" height="1.6923" fill="#FF801E"/>
<rect x="25.3845" y="8.46149" width="1.69231" height="1.6923" fill="#FF801E"/>
<rect x="27.0769" y="8.46149" width="1.69231" height="1.6923" fill="#FF801E"/>
<rect x="25.3845" y="10.1537" width="1.69231" height="1.6923" fill="#FF801E"/>
<rect x="27.0769" y="10.1537" width="1.69231" height="1.6923" fill="#FF801E"/>
<rect x="32.1539" y="8.46149" width="1.69231" height="1.6923" fill="#FF801E"/>
<rect x="33.8462" y="8.46149" width="1.69231" height="1.6923" fill="#FF801E"/>
<rect x="32.1539" y="10.1537" width="1.69231" height="1.6923" fill="#FF801E"/>
<rect x="33.8462" y="10.1537" width="1.69231" height="1.6923" fill="#FF801E"/>
<rect x="32.1539" y="11.8461" width="1.69231" height="1.6923" fill="#FF801E"/>
<rect x="33.8462" y="11.8461" width="1.69231" height="1.6923" fill="#FF801E"/>
<rect x="35.5386" y="18.6154" width="1.69231" height="1.6923" fill="#FF801E"/>
<rect x="3.38464" y="15.2307" width="1.69231" height="1.6923" fill="#FF801E"/>
<rect x="5.0769" y="15.2307" width="1.69231" height="1.6923" fill="#FF801E"/>
<rect x="3.38464" y="16.9231" width="1.69231" height="1.6923" fill="#FF801E"/>
<rect x="1.69238" y="15.2307" width="1.69231" height="1.6923" fill="#FF801E"/>
<rect x="1.69238" y="16.9231" width="1.69231" height="1.6923" fill="#FF801E"/>
<rect y="18.6154" width="1.69231" height="1.6923" fill="#FF801E"/>
<rect y="16.9231" width="1.69231" height="1.6923" fill="#FF801E"/>
<rect x="5.0769" y="16.9231" width="1.69231" height="1.6923" fill="#FF801E"/>
<rect x="3.38464" y="18.6154" width="1.69231" height="1.6923" fill="#FF801E"/>
<rect x="5.0769" y="18.6154" width="1.69231" height="1.6923" fill="#FF801E"/>
<rect x="3.38464" y="20.3077" width="1.69231" height="1.6923" fill="#FF801E"/>
<rect x="6.76929" y="18.6154" width="1.69231" height="1.6923" fill="#FF801E"/>
<rect x="33.8462" y="13.5384" width="1.69231" height="1.6923" fill="#FF801E"/>
<rect x="23.6924" y="8.46149" width="1.69231" height="1.6923" fill="#FF801E"/>
<rect x="23.6924" y="10.1537" width="1.69231" height="1.6923" fill="#FF801E"/>
<rect x="18.6155" y="8.46149" width="1.69231" height="1.6923" fill="#FF801E"/>
<rect x="20.3077" y="8.46149" width="1.69231" height="1.6923" fill="#FF801E"/>
<rect x="22.0001" y="8.46149" width="1.69231" height="1.6923" fill="#FF801E"/>
<rect x="20.3077" y="10.1537" width="1.69231" height="1.6923" fill="#FF801E"/>
<rect x="22.0001" y="10.1537" width="1.69231" height="1.6923" fill="#FF801E"/>
<rect x="18.6155" y="10.1537" width="1.69231" height="1.6923" fill="#FF801E"/>
<rect x="35.5386" y="5.0769" width="1.69231" height="1.6923" fill="#FF801E"/>
<rect x="37.2308" y="3.38464" width="1.69231" height="1.6923" fill="#FF801E"/>
<rect x="38.9232" y="5.0769" width="1.69231" height="1.6923" fill="#FF801E"/>
<rect x="40.6155" y="5.0769" width="1.69231" height="1.6923" fill="#FF801E"/>
<rect x="33.8462" y="6.76923" width="1.69231" height="1.6923" fill="#FF801E"/>
<rect x="37.2308" y="5.0769" width="1.69231" height="1.6923" fill="#FF801E"/>
<rect x="38.9232" y="6.76923" width="1.69231" height="1.6923" fill="#FF801E"/>
<rect x="40.6155" y="6.76923" width="1.69231" height="1.6923" fill="#FF801E"/>
</svg>
